<svg version="1.1" xmlns="http://www.w3.org/2000/svg" xmlns:xlink="http://www.w3.org/1999/xlink" stroke-linecap="round" stroke-linejoin="round" stroke-width="0" fill-rule="evenodd" width="4.33071in" height="1.65354in" viewBox="18 18 4330.71 1653.54" id="Gl9Q6eNFsAYp71s-xkDu"><g transform="translate(0,1689.54) scale(1,-1)" fill="currentColor" stroke="currentColor"><path d="M 18 18 18 1671.54 4348.71 1671.54 4348.71 18 18 18 M 74.69 118 74.71 119.31 74.77 120.63 74.87 121.94 75.01 123.25 75.19 124.55 75.41 125.84 75.66 127.13 75.96 128.41 76.3 129.68 76.67 130.95 77.08 132.19 77.53 133.43 78.02 134.65 78.54 135.86 79.1 137.04 79.7 138.22 80.33 139.37 81 140.5 81.7 141.62 82.43 142.71 83.19 143.77 83.99 144.82 84.82 145.84 85.68 146.83 86.57 147.8 87.49 148.74 88.44 149.65 89.41 150.54 90.41 151.39 91.44 152.21 92.49 153 93.56 153.76 94.66 154.48 95.78 155.17 96.92 155.83 98.07 156.45 99.25 157.04 100.44 157.59 101.65 158.11 102.88 158.58 104.12 159.02 105.37 159.43 106.63 159.79 107.91 160.12 109.19 160.4 110.48 160.65 111.78 160.86 113.08 161.03 114.39 161.16 115.7 161.25 117.01 161.3 118.33 161.31 119.64 161.28 120.96 161.21 122.27 161.1 123.57 160.95 124.87 160.76 126.17 160.53 127.45 160.27 128.73 159.96 130 159.61 131.26 159.23 132.5 158.81 133.74 158.35 134.95 157.85 136.15 157.32 137.34 156.75 138.51 156.15 139.65 155.51 140.78 154.83 141.89 154.12 142.98 153.38 144.04 152.61 145.08 151.8 146.09 150.97 147.08 150.1 148.04 149.2 148.97 148.27 149.88 147.32 150.75 146.34 151.6 145.33 152.41 144.3 153.19 143.24 153.94 142.16 154.66 141.06 155.34 139.94 155.99 138.8 156.6 137.63 157.18 136.45 157.72 135.25 158.23 134.04 158.7 132.81 159.13 131.57 159.52 130.32 159.88 129.05 160.19 127.77 160.47 126.49 160.71 125.2 160.91 123.9 161.07 122.59 161.19 121.28 161.27 119.97 161.31 118.66 161.31 117.34 161.27 116.03 161.19 114.72 161.07 113.41 160.91 112.1 160.71 110.8 160.47 109.51 160.19 108.23 159.88 106.95 159.52 105.68 159.13 104.43 158.7 103.19 158.23 101.96 157.72 100.75 157.18 99.55 156.6 98.37 155.99 97.2 155.34 96.06 154.66 94.94 153.94 93.84 153.19 92.76 152.41 91.7 151.6 90.67 150.75 89.66 149.88 88.68 148.97 87.73 148.04 86.8 147.08 85.9 146.09 85.03 145.08 84.2 144.04 83.39 142.98 82.62 141.89 81.88 140.78 81.17 139.66 80.49 138.51 79.85 137.34 79.25 136.15 78.68 134.95 78.15 133.74 77.65 132.5 77.19 131.26 76.77 130 76.39 128.73 76.04 127.45 75.73 126.17 75.47 124.87 75.24 123.57 75.05 122.27 74.9 120.96 74.79 119.64 74.72 118.33 74.69 117.01 74.7 115.7 74.75 114.39 74.84 113.08 74.97 111.78 75.14 110.48 75.35 109.19 75.6 107.91 75.88 106.63 76.21 105.37 76.57 104.12 76.98 102.88 77.42 101.65 77.89 100.44 78.41 99.25 78.96 98.07 79.55 96.92 80.17 95.78 80.83 94.66 81.52 93.56 82.24 92.49 83 91.44 83.79 90.41 84.61 89.41 85.46 88.44 86.35 87.49 87.26 86.57 88.2 85.68 89.17 84.82 90.16 83.99 91.18 83.19 92.23 82.43 93.29 81.7 94.38 81 95.5 80.33 96.63 79.7 97.78 79.1 98.96 78.54 100.14 78.02 101.35 77.53 102.57 77.08 103.81 76.67 105.05 76.3 106.32 75.96 107.59 75.66 108.87 75.41 110.16 75.19 111.45 75.01 112.75 74.87 114.06 74.77 115.37 74.71 116.69 74.69 118 M 3016.03 1356.58 3016.05 1357.89 3016.11 1359.21 3016.21 1360.52 3016.35 1361.83 3016.53 1363.13 3016.75 1364.42 3017 1365.71 3017.3 1366.99 3017.64 1368.26 3018.01 1369.53 3018.42 1370.77 3018.87 1372.01 3019.36 1373.23 3019.88 1374.44 3020.44 1375.62 3021.04 1376.8 3021.67 1377.95 3022.34 1379.08 3023.04 1380.2 3023.77 1381.29 3024.53 1382.35 3025.33 1383.4 3026.16 1384.42 3027.02 1385.41 3027.91 1386.38 3028.83 1387.32 3029.78 1388.23 3030.75 1389.12 3031.75 1389.97 3032.78 1390.79 3033.83 1391.58 3034.9 1392.34 3036 1393.06 3037.12 1393.75 3038.26 1394.41 3039.41 1395.03 3040.59 1395.62 3041.78 1396.17 3042.99 1396.69 3044.22 1397.16 3045.46 1397.6 3046.71 1398.01 3047.97 1398.37 3049.25 1398.7 3050.53 1398.98 3051.82 1399.23 3053.12 1399.44 3054.42 1399.61 3055.73 1399.74 3057.04 1399.83 3058.35 1399.88 3059.67 1399.89 3060.98 1399.86 3062.3 1399.79 3063.61 1399.68 3064.91 1399.53 3066.21 1399.34 3067.51 1399.11 3068.79 1398.85 3070.07 1398.54 3071.34 1398.19 3072.6 1397.81 3073.84 1397.39 3075.08 1396.93 3076.29 1396.43 3077.49 1395.9 3078.68 1395.33 3079.85 1394.73 3080.99 1394.09 3082.12 1393.41 3083.23 1392.7 3084.32 1391.96 3085.38 1391.19 3086.42 1390.38 3087.43 1389.55 3088.42 1388.68 3089.38 1387.78 3090.31 1386.85 3091.22 1385.9 3092.09 1384.92 3092.94 1383.91 3093.75 1382.88 3094.53 1381.82 3095.28 1380.74 3096 1379.64 3096.68 1378.52 3097.33 1377.38 3097.94 1376.21 3098.52 1375.03 3099.06 1373.83 3099.57 1372.62 3100.04 1371.39 3100.47 1370.15 3100.86 1368.9 3101.22 1367.63 3101.53 1366.35 3101.81 1365.07 3102.05 1363.78 3102.25 1362.48 3102.41 1361.17 3102.53 1359.86 3102.61 1358.55 3102.65 1357.24 3102.65 1355.92 3102.61 1354.61 3102.53 1353.3 3102.41 1351.99 3102.25 1350.68 3102.05 1349.38 3101.81 1348.09 3101.53 1346.81 3101.22 1345.53 3100.86 1344.26 3100.47 1343.01 3100.04 1341.77 3099.57 1340.54 3099.06 1339.33 3098.52 1338.13 3097.94 1336.95 3097.33 1335.78 3096.68 1334.64 3096 1333.52 3095.28 1332.42 3094.53 1331.34 3093.75 1330.28 3092.94 1329.25 3092.09 1328.24 3091.22 1327.26 3090.31 1326.31 3089.38 1325.38 3088.42 1324.48 3087.43 1323.61 3086.42 1322.78 3085.38 1321.97 3084.32 1321.2 3083.23 1320.46 3082.12 1319.75 3081 1319.07 3079.85 1318.43 3078.68 1317.83 3077.49 1317.26 3076.29 1316.73 3075.08 1316.23 3073.84 1315.77 3072.6 1315.35 3071.34 1314.97 3070.07 1314.62 3068.79 1314.31 3067.51 1314.05 3066.21 1313.82 3064.91 1313.63 3063.61 1313.48 3062.3 1313.37 3060.98 1313.3 3059.67 1313.27 3058.35 1313.28 3057.04 1313.33 3055.73 1313.42 3054.42 1313.55 3053.12 1313.72 3051.82 1313.93 3050.53 1314.18 3049.25 1314.46 3047.97 1314.79 3046.71 1315.15 3045.46 1315.56 3044.22 1316 3042.99 1316.47 3041.78 1316.99 3040.59 1317.54 3039.41 1318.13 3038.26 1318.75 3037.12 1319.41 3036 1320.1 3034.9 1320.82 3033.83 1321.58 3032.78 1322.37 3031.75 1323.19 3030.75 1324.04 3029.78 1324.93 3028.83 1325.84 3027.91 1326.78 3027.02 1327.75 3026.16 1328.74 3025.33 1329.76 3024.53 1330.81 3023.77 1331.87 3023.04 1332.96 3022.34 1334.08 3021.67 1335.21 3021.04 1336.36 3020.44 1337.54 3019.88 1338.72 3019.36 1339.93 3018.87 1341.15 3018.42 1342.39 3018.01 1343.63 3017.64 1344.9 3017.3 1346.17 3017 1347.45 3016.75 1348.74 3016.53 1350.03 3016.35 1351.33 3016.21 1352.64 3016.11 1353.95 3016.05 1355.27 3016.03 1356.58 M 3390.04 1356.58 3390.06 1357.89 3390.12 1359.21 3390.22 1360.52 3390.36 1361.83 3390.54 1363.13 3390.76 1364.42 3391.01 1365.71 3391.31 1366.99 3391.65 1368.26 3392.02 1369.53 3392.43 1370.77 3392.88 1372.01 3393.37 1373.23 3393.89 1374.44 3394.45 1375.62 3395.05 1376.8 3395.68 1377.95 3396.35 1379.08 3397.05 1380.2 3397.78 1381.29 3398.54 1382.35 3399.34 1383.4 3400.17 1384.42 3401.03 1385.41 3401.92 1386.38 3402.84 1387.32 3403.79 1388.23 3404.76 1389.12 3405.76 1389.97 3406.79 1390.79 3407.84 1391.58 3408.91 1392.34 3410.01 1393.06 3411.13 1393.75 3412.27 1394.41 3413.42 1395.03 3414.6 1395.62 3415.79 1396.17 3417 1396.69 3418.23 1397.16 3419.47 1397.6 3420.72 1398.01 3421.98 1398.37 3423.26 1398.7 3424.54 1398.98 3425.83 1399.23 3427.13 1399.44 3428.43 1399.61 3429.74 1399.74 3431.05 1399.83 3432.36 1399.88 3433.68 1399.89 3434.99 1399.86 3436.31 1399.79 3437.62 1399.68 3438.92 1399.53 3440.22 1399.34 3441.52 1399.11 3442.8 1398.85 3444.08 1398.54 3445.35 1398.19 3446.61 1397.81 3447.85 1397.39 3449.09 1396.93 3450.3 1396.43 3451.5 1395.9 3452.69 1395.33 3453.86 1394.73 3455 1394.09 3456.13 1393.41 3457.24 1392.7 3458.33 1391.96 3459.39 1391.19 3460.43 1390.38 3461.44 1389.55 3462.43 1388.68 3463.39 1387.78 3464.32 1386.85 3465.23 1385.9 3466.1 1384.92 3466.95 1383.91 3467.76 1382.88 3468.54 1381.82 3469.29 1380.74 3470.01 1379.64 3470.69 1378.52 3471.34 1377.38 3471.95 1376.21 3472.53 1375.03 3473.07 1373.83 3473.58 1372.62 3474.05 1371.39 3474.48 1370.15 3474.87 1368.9 3475.23 1367.63 3475.54 1366.35 3475.82 1365.07 3476.06 1363.78 3476.26 1362.48 3476.42 1361.17 3476.54 1359.86 3476.62 1358.55 3476.66 1357.24 3476.66 1355.92 3476.62 1354.61 3476.54 1353.3 3476.42 1351.99 3476.26 1350.68 3476.06 1349.38 3475.82 1348.09 3475.54 1346.81 3475.23 1345.53 3474.87 1344.26 3474.48 1343.01 3474.05 1341.77 3473.58 1340.54 3473.07 1339.33 3472.53 1338.13 3471.95 1336.95 3471.34 1335.78 3470.69 1334.64 3470.01 1333.52 3469.29 1332.42 3468.54 1331.34 3467.76 1330.28 3466.95 1329.25 3466.1 1328.24 3465.23 1327.26 3464.32 1326.31 3463.39 1325.38 3462.43 1324.48 3461.44 1323.61 3460.43 1322.78 3459.39 1321.97 3458.33 1321.2 3457.24 1320.46 3456.13 1319.75 3455.01 1319.07 3453.86 1318.43 3452.69 1317.83 3451.5 1317.26 3450.3 1316.73 3449.09 1316.23 3447.85 1315.77 3446.61 1315.35 3445.35 1314.97 3444.08 1314.62 3442.8 1314.31 3441.52 1314.05 3440.22 1313.82 3438.92 1313.63 3437.62 1313.48 3436.31 1313.37 3434.99 1313.3 3433.68 1313.27 3432.36 1313.28 3431.05 1313.33 3429.74 1313.42 3428.43 1313.55 3427.13 1313.72 3425.83 1313.93 3424.54 1314.18 3423.26 1314.46 3421.98 1314.79 3420.72 1315.15 3419.47 1315.56 3418.23 1316 3417 1316.47 3415.79 1316.99 3414.6 1317.54 3413.42 1318.13 3412.27 1318.75 3411.13 1319.41 3410.01 1320.1 3408.91 1320.82 3407.84 1321.58 3406.79 1322.37 3405.76 1323.19 3404.76 1324.04 3403.79 1324.93 3402.84 1325.84 3401.92 1326.78 3401.03 1327.75 3400.17 1328.74 3399.34 1329.76 3398.54 1330.81 3397.78 1331.87 3397.05 1332.96 3396.35 1334.08 3395.68 1335.21 3395.05 1336.36 3394.45 1337.54 3393.89 1338.72 3393.37 1339.93 3392.88 1341.15 3392.43 1342.39 3392.02 1343.63 3391.65 1344.9 3391.31 1346.17 3391.01 1347.45 3390.76 1348.74 3390.54 1350.03 3390.36 1351.33 3390.22 1352.64 3390.12 1353.95 3390.06 1355.27 3390.04 1356.58 M 4205.4 1419.77 4205.42 1421.08 4205.48 1422.4 4205.58 1423.71 4205.72 1425.02 4205.9 1426.32 4206.12 1427.61 4206.37 1428.9 4206.67 1430.18 4207.01 1431.45 4207.38 1432.72 4207.79 1433.96 4208.24 1435.2 4208.73 1436.42 4209.25 1437.63 4209.81 1438.81 4210.41 1439.99 4211.04 1441.14 4211.71 1442.27 4212.41 1443.39 4213.14 1444.48 4213.9 1445.54 4214.7 1446.59 4215.53 1447.61 4216.39 1448.6 4217.28 1449.57 4218.2 1450.51 4219.15 1451.42 4220.12 1452.31 4221.12 1453.16 4222.15 1453.98 4223.2 1454.77 4224.27 1455.53 4225.37 1456.25 4226.49 1456.94 4227.63 1457.6 4228.78 1458.22 4229.96 1458.81 4231.15 1459.36 4232.36 1459.88 4233.59 1460.35 4234.83 1460.79 4236.08 1461.2 4237.34 1461.56 4238.62 1461.89 4239.9 1462.17 4241.19 1462.42 4242.49 1462.63 4243.79 1462.8 4245.1 1462.93 4246.41 1463.02 4247.72 1463.07 4249.04 1463.08 4250.35 1463.05 4251.67 1462.98 4252.98 1462.87 4254.28 1462.72 4255.58 1462.53 4256.88 1462.3 4258.16 1462.04 4259.44 1461.73 4260.71 1461.38 4261.97 1461 4263.21 1460.58 4264.45 1460.12 4265.66 1459.62 4266.86 1459.09 4268.05 1458.52 4269.22 1457.92 4270.36 1457.28 4271.49 1456.6 4272.6 1455.89 4273.69 1455.15 4274.75 1454.38 4275.79 1453.57 4276.8 1452.74 4277.79 1451.87 4278.75 1450.97 4279.68 1450.04 4280.59 1449.09 4281.46 1448.11 4282.31 1447.1 4283.12 1446.07 4283.9 1445.01 4284.65 1443.93 4285.37 1442.83 4286.05 1441.71 4286.7 1440.57 4287.31 1439.4 4287.89 1438.22 4288.43 1437.02 4288.94 1435.81 4289.41 1434.58 4289.84 1433.34 4290.23 1432.09 4290.59 1430.82 4290.9 1429.54 4291.18 1428.26 4291.42 1426.97 4291.62 1425.67 4291.78 1424.36 4291.9 1423.05 4291.98 1421.74 4292.02 1420.43 4292.02 1419.11 4291.98 1417.8 4291.9 1416.49 4291.78 1415.18 4291.62 1413.87 4291.42 1412.57 4291.18 1411.28 4290.9 1410 4290.59 1408.72 4290.23 1407.45 4289.84 1406.2 4289.41 1404.96 4288.94 1403.73 4288.43 1402.52 4287.89 1401.32 4287.31 1400.14 4286.7 1398.97 4286.05 1397.83 4285.37 1396.71 4284.65 1395.61 4283.9 1394.53 4283.12 1393.47 4282.31 1392.44 4281.46 1391.43 4280.59 1390.45 4279.68 1389.5 4278.75 1388.57 4277.79 1387.67 4276.8 1386.8 4275.79 1385.97 4274.75 1385.16 4273.69 1384.39 4272.6 1383.65 4271.49 1382.94 4270.37 1382.26 4269.22 1381.62 4268.05 1381.02 4266.86 1380.45 4265.66 1379.92 4264.45 1379.42 4263.21 1378.96 4261.97 1378.54 4260.71 1378.16 4259.44 1377.81 4258.16 1377.5 4256.88 1377.24 4255.58 1377.01 4254.28 1376.82 4252.98 1376.67 4251.67 1376.56 4250.35 1376.49 4249.04 1376.46 4247.72 1376.47 4246.41 1376.52 4245.1 1376.61 4243.79 1376.74 4242.49 1376.91 4241.19 1377.12 4239.9 1377.37 4238.62 1377.65 4237.34 1377.98 4236.08 1378.34 4234.83 1378.75 4233.59 1379.19 4232.36 1379.66 4231.15 1380.18 4229.96 1380.73 4228.78 1381.32 4227.63 1381.94 4226.49 1382.6 4225.37 1383.29 4224.27 1384.01 4223.2 1384.77 4222.15 1385.56 4221.12 1386.38 4220.12 1387.23 4219.15 1388.12 4218.2 1389.03 4217.28 1389.97 4216.39 1390.94 4215.53 1391.93 4214.7 1392.95 4213.9 1394 4213.14 1395.06 4212.41 1396.15 4211.71 1397.27 4211.04 1398.4 4210.41 1399.55 4209.81 1400.73 4209.25 1401.91 4208.73 1403.12 4208.24 1404.34 4207.79 1405.58 4207.38 1406.82 4207.01 1408.09 4206.67 1409.36 4206.37 1410.64 4206.12 1411.93 4205.9 1413.22 4205.72 1414.52 4205.58 1415.83 4205.48 1417.14 4205.42 1418.46 4205.4 1419.77 M 4205.4 1571.54 4205.42 1572.85 4205.48 1574.17 4205.58 1575.48 4205.72 1576.79 4205.9 1578.09 4206.12 1579.38 4206.37 1580.67 4206.67 1581.95 4207.01 1583.22 4207.38 1584.49 4207.79 1585.73 4208.24 1586.97 4208.73 1588.19 4209.25 1589.4 4209.81 1590.58 4210.41 1591.76 4211.04 1592.91 4211.71 1594.04 4212.41 1595.16 4213.14 1596.25 4213.9 1597.31 4214.7 1598.36 4215.53 1599.38 4216.39 1600.37 4217.28 1601.34 4218.2 1602.28 4219.15 1603.19 4220.12 1604.08 4221.12 1604.93 4222.15 1605.75 4223.2 1606.54 4224.27 1607.3 4225.37 1608.02 4226.49 1608.71 4227.63 1609.37 4228.78 1609.99 4229.96 1610.58 4231.15 1611.13 4232.36 1611.65 4233.59 1612.12 4234.83 1612.56 4236.08 1612.97 4237.34 1613.33 4238.62 1613.66 4239.9 1613.94 4241.19 1614.19 4242.49 1614.4 4243.79 1614.57 4245.1 1614.7 4246.41 1614.79 4247.72 1614.84 4249.04 1614.85 4250.35 1614.82 4251.67 1614.75 4252.98 1614.64 4254.28 1614.49 4255.58 1614.3 4256.88 1614.07 4258.16 1613.81 4259.44 1613.5 4260.71 1613.15 4261.97 1612.77 4263.21 1612.35 4264.45 1611.89 4265.66 1611.39 4266.86 1610.86 4268.05 1610.29 4269.22 1609.69 4270.36 1609.05 4271.49 1608.37 4272.6 1607.66 4273.69 1606.92 4274.75 1606.15 4275.79 1605.34 4276.8 1604.51 4277.79 1603.64 4278.75 1602.74 4279.68 1601.81 4280.59 1600.86 4281.46 1599.88 4282.31 1598.87 4283.12 1597.84 4283.9 1596.78 4284.65 1595.7 4285.37 1594.6 4286.05 1593.48 4286.7 1592.34 4287.31 1591.17 4287.89 1589.99 4288.43 1588.79 4288.94 1587.58 4289.41 1586.35 4289.84 1585.11 4290.23 1583.86 4290.59 1582.59 4290.9 1581.31 4291.18 1580.03 4291.42 1578.74 4291.62 1577.44 4291.78 1576.13 4291.9 1574.82 4291.98 1573.51 4292.02 1572.2 4292.02 1570.88 4291.98 1569.57 4291.9 1568.26 4291.78 1566.95 4291.62 1565.64 4291.42 1564.34 4291.18 1563.05 4290.9 1561.77 4290.59 1560.49 4290.23 1559.22 4289.84 1557.97 4289.41 1556.73 4288.94 1555.5 4288.43 1554.29 4287.89 1553.09 4287.31 1551.91 4286.7 1550.74 4286.05 1549.6 4285.37 1548.48 4284.65 1547.38 4283.9 1546.3 4283.12 1545.24 4282.31 1544.21 4281.46 1543.2 4280.59 1542.22 4279.68 1541.27 4278.75 1540.34 4277.79 1539.44 4276.8 1538.57 4275.79 1537.74 4274.75 1536.93 4273.69 1536.16 4272.6 1535.42 4271.49 1534.71 4270.37 1534.03 4269.22 1533.39 4268.05 1532.79 4266.86 1532.22 4265.66 1531.69 4264.45 1531.19 4263.21 1530.73 4261.97 1530.31 4260.71 1529.93 4259.44 1529.58 4258.16 1529.27 4256.88 1529.01 4255.58 1528.78 4254.28 1528.59 4252.98 1528.44 4251.67 1528.33 4250.35 1528.26 4249.04 1528.23 4247.72 1528.24 4246.41 1528.29 4245.1 1528.38 4243.79 1528.51 4242.49 1528.68 4241.19 1528.89 4239.9 1529.14 4238.62 1529.42 4237.34 1529.75 4236.08 1530.11 4234.83 1530.52 4233.59 1530.96 4232.36 1531.43 4231.15 1531.95 4229.96 1532.5 4228.78 1533.09 4227.63 1533.71 4226.49 1534.37 4225.37 1535.06 4224.27 1535.78 4223.2 1536.54 4222.15 1537.33 4221.12 1538.15 4220.12 1539 4219.15 1539.89 4218.2 1540.8 4217.28 1541.74 4216.39 1542.71 4215.53 1543.7 4214.7 1544.72 4213.9 1545.77 4213.14 1546.83 4212.41 1547.92 4211.71 1549.04 4211.04 1550.17 4210.41 1551.32 4209.81 1552.5 4209.25 1553.68 4208.73 1554.89 4208.24 1556.11 4207.79 1557.35 4207.38 1558.59 4207.01 1559.86 4206.67 1561.13 4206.37 1562.41 4206.12 1563.7 4205.9 1564.99 4205.72 1566.29 4205.58 1567.6 4205.48 1568.91 4205.42 1570.23 4205.4 1571.54 M 4205.4 269.77 4205.42 271.08 4205.48 272.4 4205.58 273.71 4205.72 275.02 4205.9 276.32 4206.12 277.61 4206.37 278.9 4206.67 280.18 4207.01 281.45 4207.38 282.72 4207.79 283.96 4208.24 285.2 4208.73 286.42 4209.25 287.63 4209.81 288.81 4210.41 289.99 4211.04 291.14 4211.71 292.27 4212.41 293.39 4213.14 294.48 4213.9 295.54 4214.7 296.59 4215.53 297.61 4216.39 298.6 4217.28 299.57 4218.2 300.51 4219.15 301.42 4220.12 302.31 4221.12 303.16 4222.15 303.98 4223.2 304.77 4224.27 305.53 4225.37 306.25 4226.49 306.94 4227.63 307.6 4228.78 308.22 4229.96 308.81 4231.15 309.36 4232.36 309.88 4233.59 310.35 4234.83 310.79 4236.08 311.2 4237.34 311.56 4238.62 311.89 4239.9 312.17 4241.19 312.42 4242.49 312.63 4243.79 312.8 4245.1 312.93 4246.41 313.02 4247.72 313.07 4249.04 313.08 4250.35 313.05 4251.67 312.98 4252.98 312.87 4254.28 312.72 4255.58 312.53 4256.88 312.3 4258.16 312.04 4259.44 311.73 4260.71 311.38 4261.97 311 4263.21 310.58 4264.45 310.12 4265.66 309.62 4266.86 309.09 4268.05 308.52 4269.22 307.92 4270.36 307.28 4271.49 306.6 4272.6 305.89 4273.69 305.15 4274.75 304.38 4275.79 303.57 4276.8 302.74 4277.79 301.87 4278.75 300.97 4279.68 300.04 4280.59 299.09 4281.46 298.11 4282.31 297.1 4283.12 296.07 4283.9 295.01 4284.65 293.93 4285.37 292.83 4286.05 291.71 4286.7 290.57 4287.31 289.4 4287.89 288.22 4288.43 287.02 4288.94 285.81 4289.41 284.58 4289.84 283.34 4290.23 282.09 4290.59 280.82 4290.9 279.54 4291.18 278.26 4291.42 276.97 4291.62 275.67 4291.78 274.36 4291.9 273.05 4291.98 271.74 4292.02 270.43 4292.02 269.11 4291.98 267.8 4291.9 266.49 4291.78 265.18 4291.62 263.87 4291.42 262.57 4291.18 261.28 4290.9 260 4290.59 258.72 4290.23 257.45 4289.84 256.2 4289.41 254.96 4288.94 253.73 4288.43 252.52 4287.89 251.32 4287.31 250.14 4286.7 248.97 4286.05 247.83 4285.37 246.71 4284.65 245.61 4283.9 244.53 4283.12 243.47 4282.31 242.44 4281.46 241.43 4280.59 240.45 4279.68 239.5 4278.75 238.57 4277.79 237.67 4276.8 236.8 4275.79 235.97 4274.75 235.16 4273.69 234.39 4272.6 233.65 4271.49 232.94 4270.37 232.26 4269.22 231.62 4268.05 231.02 4266.86 230.45 4265.66 229.92 4264.45 229.42 4263.21 228.96 4261.97 228.54 4260.71 228.16 4259.44 227.81 4258.16 227.5 4256.88 227.24 4255.58 227.01 4254.28 226.82 4252.98 226.67 4251.67 226.56 4250.35 226.49 4249.04 226.46 4247.72 226.47 4246.41 226.52 4245.1 226.61 4243.79 226.74 4242.49 226.91 4241.19 227.12 4239.9 227.37 4238.62 227.65 4237.34 227.98 4236.08 228.34 4234.83 228.75 4233.59 229.19 4232.36 229.66 4231.15 230.18 4229.96 230.73 4228.78 231.32 4227.63 231.94 4226.49 232.6 4225.37 233.29 4224.27 234.01 4223.2 234.77 4222.15 235.56 4221.12 236.38 4220.12 237.23 4219.15 238.12 4218.2 239.03 4217.28 239.97 4216.39 240.94 4215.53 241.93 4214.7 242.95 4213.9 244 4213.14 245.06 4212.41 246.15 4211.71 247.27 4211.04 248.4 4210.41 249.55 4209.81 250.73 4209.25 251.91 4208.73 253.12 4208.24 254.34 4207.79 255.58 4207.38 256.82 4207.01 258.09 4206.67 259.36 4206.37 260.64 4206.12 261.93 4205.9 263.22 4205.72 264.52 4205.58 265.83 4205.48 267.14 4205.42 268.46 4205.4 269.77 M 4205.4 118 4205.42 119.31 4205.48 120.63 4205.58 121.94 4205.72 123.25 4205.9 124.55 4206.12 125.84 4206.37 127.13 4206.67 128.41 4207.01 129.68 4207.38 130.95 4207.79 132.19 4208.24 133.43 4208.73 134.65 4209.25 135.86 4209.81 137.04 4210.41 138.22 4211.04 139.37 4211.71 140.5 4212.41 141.62 4213.14 142.71 4213.9 143.77 4214.7 144.82 4215.53 145.84 4216.39 146.83 4217.28 147.8 4218.2 148.74 4219.15 149.65 4220.12 150.54 4221.12 151.39 4222.15 152.21 4223.2 153 4224.27 153.76 4225.37 154.48 4226.49 155.17 4227.63 155.83 4228.78 156.45 4229.96 157.04 4231.15 157.59 4232.36 158.11 4233.59 158.58 4234.83 159.02 4236.08 159.43 4237.34 159.79 4238.62 160.12 4239.9 160.4 4241.19 160.65 4242.49 160.86 4243.79 161.03 4245.1 161.16 4246.41 161.25 4247.72 161.3 4249.04 161.31 4250.35 161.28 4251.67 161.21 4252.98 161.1 4254.28 160.95 4255.58 160.76 4256.88 160.53 4258.16 160.27 4259.44 159.96 4260.71 159.61 4261.97 159.23 4263.21 158.81 4264.45 158.35 4265.66 157.85 4266.86 157.32 4268.05 156.75 4269.22 156.15 4270.36 155.51 4271.49 154.83 4272.6 154.12 4273.69 153.38 4274.75 152.61 4275.79 151.8 4276.8 150.97 4277.79 150.1 4278.75 149.2 4279.68 148.27 4280.59 147.32 4281.46 146.34 4282.31 145.33 4283.12 144.3 4283.9 143.24 4284.65 142.16 4285.37 141.06 4286.05 139.94 4286.7 138.8 4287.31 137.63 4287.89 136.45 4288.43 135.25 4288.94 134.04 4289.41 132.81 4289.84 131.57 4290.23 130.32 4290.59 129.05 4290.9 127.77 4291.18 126.49 4291.42 125.2 4291.62 123.9 4291.78 122.59 4291.9 121.28 4291.98 119.97 4292.02 118.66 4292.02 117.34 4291.98 116.03 4291.9 114.72 4291.78 113.41 4291.62 112.1 4291.42 110.8 4291.18 109.51 4290.9 108.23 4290.59 106.95 4290.23 105.68 4289.84 104.43 4289.41 103.19 4288.94 101.96 4288.43 100.75 4287.89 99.55 4287.31 98.37 4286.7 97.2 4286.05 96.06 4285.37 94.94 4284.65 93.84 4283.9 92.76 4283.12 91.7 4282.31 90.67 4281.46 89.66 4280.59 88.68 4279.68 87.73 4278.75 86.8 4277.79 85.9 4276.8 85.03 4275.79 84.2 4274.75 83.39 4273.69 82.62 4272.6 81.88 4271.49 81.17 4270.37 80.49 4269.22 79.85 4268.05 79.25 4266.86 78.68 4265.66 78.15 4264.45 77.65 4263.21 77.19 4261.97 76.77 4260.71 76.39 4259.44 76.04 4258.16 75.73 4256.88 75.47 4255.58 75.24 4254.28 75.05 4252.98 74.9 4251.67 74.79 4250.35 74.72 4249.04 74.69 4247.72 74.7 4246.41 74.75 4245.1 74.84 4243.79 74.97 4242.49 75.14 4241.19 75.35 4239.9 75.6 4238.62 75.88 4237.34 76.21 4236.08 76.57 4234.83 76.98 4233.59 77.42 4232.36 77.89 4231.15 78.41 4229.96 78.96 4228.78 79.55 4227.63 80.17 4226.49 80.83 4225.37 81.52 4224.27 82.24 4223.2 83 4222.15 83.79 4221.12 84.61 4220.12 85.46 4219.15 86.35 4218.2 87.26 4217.28 88.2 4216.39 89.17 4215.53 90.16 4214.7 91.18 4213.9 92.23 4213.14 93.29 4212.41 94.38 4211.71 95.5 4211.04 96.63 4210.41 97.78 4209.81 98.96 4209.25 100.14 4208.73 101.35 4208.24 102.57 4207.79 103.81 4207.38 105.05 4207.01 106.32 4206.67 107.59 4206.37 108.87 4206.12 110.16 4205.9 111.45 4205.72 112.75 4205.58 114.06 4205.48 115.37 4205.42 116.69 4205.4 118 M 74.69 1571.54 74.71 1572.85 74.77 1574.17 74.87 1575.48 75.01 1576.79 75.19 1578.09 75.41 1579.38 75.66 1580.67 75.96 1581.95 76.3 1583.22 76.67 1584.49 77.08 1585.73 77.53 1586.97 78.02 1588.19 78.54 1589.4 79.1 1590.58 79.7 1591.76 80.33 1592.91 81 1594.04 81.7 1595.16 82.43 1596.25 83.19 1597.31 83.99 1598.36 84.82 1599.38 85.68 1600.37 86.57 1601.34 87.49 1602.28 88.44 1603.19 89.41 1604.08 90.41 1604.93 91.44 1605.75 92.49 1606.54 93.56 1607.3 94.66 1608.02 95.78 1608.71 96.92 1609.37 98.07 1609.99 99.25 1610.58 100.44 1611.13 101.65 1611.65 102.88 1612.12 104.12 1612.56 105.37 1612.97 106.63 1613.33 107.91 1613.66 109.19 1613.94 110.48 1614.19 111.78 1614.4 113.08 1614.57 114.39 1614.7 115.7 1614.79 117.01 1614.84 118.33 1614.85 119.64 1614.82 120.96 1614.75 122.27 1614.64 123.57 1614.49 124.87 1614.3 126.17 1614.07 127.45 1613.81 128.73 1613.5 130 1613.15 131.26 1612.77 132.5 1612.35 133.74 1611.89 134.95 1611.39 136.15 1610.86 137.34 1610.29 138.51 1609.69 139.65 1609.05 140.78 1608.37 141.89 1607.66 142.98 1606.92 144.04 1606.15 145.08 1605.34 146.09 1604.51 147.08 1603.64 148.04 1602.74 148.97 1601.81 149.88 1600.86 150.75 1599.88 151.6 1598.87 152.41 1597.84 153.19 1596.78 153.94 1595.7 154.66 1594.6 155.34 1593.48 155.99 1592.34 156.6 1591.17 157.18 1589.99 157.72 1588.79 158.23 1587.58 158.7 1586.35 159.13 1585.11 159.52 1583.86 159.88 1582.59 160.19 1581.31 160.47 1580.03 160.71 1578.74 160.91 1577.44 161.07 1576.13 161.19 1574.82 161.27 1573.51 161.31 1572.2 161.31 1570.88 161.27 1569.57 161.19 1568.26 161.07 1566.95 160.91 1565.64 160.71 1564.34 160.47 1563.05 160.19 1561.77 159.88 1560.49 159.52 1559.22 159.13 1557.97 158.7 1556.73 158.23 1555.5 157.72 1554.29 157.18 1553.09 156.6 1551.91 155.99 1550.74 155.34 1549.6 154.66 1548.48 153.94 1547.38 153.19 1546.3 152.41 1545.24 151.6 1544.21 150.75 1543.2 149.88 1542.22 148.97 1541.27 148.04 1540.34 147.08 1539.44 146.09 1538.57 145.08 1537.74 144.04 1536.93 142.98 1536.16 141.89 1535.42 140.78 1534.71 139.66 1534.03 138.51 1533.39 137.34 1532.79 136.15 1532.22 134.95 1531.69 133.74 1531.19 132.5 1530.73 131.26 1530.31 130 1529.93 128.73 1529.58 127.45 1529.27 126.17 1529.01 124.87 1528.78 123.57 1528.59 122.27 1528.44 120.96 1528.33 119.64 1528.26 118.33 1528.23 117.01 1528.24 115.7 1528.29 114.39 1528.38 113.08 1528.51 111.78 1528.68 110.48 1528.89 109.19 1529.14 107.91 1529.42 106.63 1529.75 105.37 1530.11 104.12 1530.52 102.88 1530.96 101.65 1531.43 100.44 1531.95 99.25 1532.5 98.07 1533.09 96.92 1533.71 95.78 1534.37 94.66 1535.06 93.56 1535.78 92.49 1536.54 91.44 1537.33 90.41 1538.15 89.41 1539 88.44 1539.89 87.49 1540.8 86.57 1541.74 85.68 1542.71 84.82 1543.7 83.99 1544.72 83.19 1545.77 82.43 1546.83 81.7 1547.92 81 1549.04 80.33 1550.17 79.7 1551.32 79.1 1552.5 78.54 1553.68 78.02 1554.89 77.53 1556.11 77.08 1557.35 76.67 1558.59 76.3 1559.86 75.96 1561.13 75.66 1562.41 75.41 1563.7 75.19 1564.99 75.01 1566.29 74.87 1567.6 74.77 1568.91 74.71 1570.23 74.69 1571.54" fill="none" stroke-width="0"/></g></svg>