<svg version="1.1" xmlns="http://www.w3.org/2000/svg" xmlns:xlink="http://www.w3.org/1999/xlink" stroke-linecap="round" stroke-linejoin="round" stroke-width="0" fill-rule="evenodd" width="4.22518in" height="1.2358in" viewBox="15.5 221.2 4225.18 1235.8" id="R6ljn-f310inyaONWRz0"><g transform="translate(0,1678.1999999999998) scale(1,-1)" fill="currentColor" stroke="currentColor"><path d="M 3046.35 612.29 3046.35 762.29 3071.35 787.29 3121.35 787.29 3146.35 762.29 3146.35 612.29 3121.35 587.29 3071.35 587.29 3046.35 612.29 M 3146.35 612.29 3171.35 587.29 3221.35 587.29 3246.35 612.29 3246.35 762.29 3221.35 787.29 3171.35 787.29 3146.35 762.29 M 3246.35 762.29 3271.35 787.29 3321.35 787.29 3346.35 762.29 3346.35 612.29 3321.35 587.29 3271.35 587.29 3246.35 612.29 M 3346.35 612.29 3371.35 587.29 3421.35 587.29 3446.35 612.29 3446.35 762.29 3421.35 787.29 3371.35 787.29 3346.35 762.29 M 3865.64 1154.02 3865.66 1155.43 3865.72 1156.84 3865.82 1158.24 3865.96 1159.64 3866.14 1161.04 3866.35 1162.43 3866.61 1163.82 3866.9 1165.2 3867.24 1166.56 3867.61 1167.92 3868.02 1169.27 3868.47 1170.61 3868.96 1171.93 3869.48 1173.24 3870.04 1174.53 3870.64 1175.8 3871.27 1177.06 3871.93 1178.3 3872.64 1179.53 3873.37 1180.73 3874.14 1181.91 3874.94 1183.07 3875.78 1184.2 3876.64 1185.31 3877.54 1186.4 3878.47 1187.46 3879.42 1188.49 3880.41 1189.5 3881.42 1190.48 3882.46 1191.43 3883.53 1192.35 3884.62 1193.24 3885.74 1194.09 3886.88 1194.92 3888.04 1195.72 3889.23 1196.48 3890.44 1197.2 3891.66 1197.9 3892.91 1198.55 3894.17 1199.18 3895.45 1199.76 3896.75 1200.31 3898.06 1200.83 3899.39 1201.3 3900.73 1201.74 3902.08 1202.15 3903.44 1202.51 3904.81 1202.83 3906.19 1203.12 3907.57 1203.37 3908.97 1203.57 3910.37 1203.74 3911.77 1203.87 3913.18 1203.96 3914.58 1204.01 3915.99 1204.02 3917.4 1203.99 3918.81 1203.92 3920.21 1203.81 3921.61 1203.66 3923.01 1203.47 3924.4 1203.25 3925.78 1202.98 3927.16 1202.68 3928.52 1202.33 3929.88 1201.95 3931.22 1201.53 3932.56 1201.07 3933.88 1200.58 3935.18 1200.04 3936.47 1199.47 3937.74 1198.87 3939 1198.23 3940.23 1197.55 3941.45 1196.84 3942.65 1196.1 3943.82 1195.32 3944.97 1194.51 3946.1 1193.67 3947.21 1192.8 3948.29 1191.89 3949.34 1190.96 3950.37 1189.99 3951.37 1189 3952.34 1187.98 3953.28 1186.93 3954.19 1185.86 3955.07 1184.76 3955.92 1183.64 3956.74 1182.49 3957.53 1181.32 3958.28 1180.13 3959 1178.92 3959.68 1177.69 3960.33 1176.44 3960.95 1175.17 3961.52 1173.88 3962.07 1172.58 3962.57 1171.27 3963.04 1169.94 3963.47 1168.6 3963.86 1167.24 3964.21 1165.88 3964.53 1164.51 3964.8 1163.13 3965.04 1161.74 3965.24 1160.34 3965.4 1158.94 3965.52 1157.54 3965.6 1156.13 3965.64 1154.72 3965.64 1153.32 3965.6 1151.91 3965.52 1150.5 3965.4 1149.1 3965.24 1147.7 3965.04 1146.3 3964.8 1144.91 3964.53 1143.53 3964.21 1142.16 3963.86 1140.8 3963.47 1139.44 3963.04 1138.1 3962.57 1136.77 3962.07 1135.46 3961.52 1134.16 3960.95 1132.87 3960.33 1131.6 3959.68 1130.35 3959 1129.12 3958.28 1127.91 3957.53 1126.72 3956.74 1125.55 3955.92 1124.4 3955.07 1123.28 3954.19 1122.18 3953.28 1121.11 3952.34 1120.06 3951.37 1119.04 3950.37 1118.05 3949.34 1117.08 3948.29 1116.15 3947.21 1115.24 3946.1 1114.37 3944.97 1113.53 3943.82 1112.72 3942.65 1111.94 3941.45 1111.2 3940.23 1110.49 3939 1109.81 3937.74 1109.17 3936.47 1108.57 3935.18 1108 3933.88 1107.46 3932.56 1106.97 3931.22 1106.51 3929.88 1106.09 3928.52 1105.71 3927.16 1105.36 3925.78 1105.06 3924.4 1104.79 3923.01 1104.57 3921.61 1104.38 3920.21 1104.23 3918.81 1104.12 3917.4 1104.05 3915.99 1104.02 3914.58 1104.03 3913.18 1104.08 3911.77 1104.17 3910.37 1104.3 3908.97 1104.47 3907.57 1104.67 3906.19 1104.92 3904.81 1105.21 3903.44 1105.53 3902.08 1105.89 3900.73 1106.3 3899.39 1106.74 3898.06 1107.21 3896.75 1107.73 3895.45 1108.28 3894.17 1108.86 3892.91 1109.49 3891.66 1110.14 3890.44 1110.84 3889.23 1111.56 3888.04 1112.32 3886.88 1113.12 3885.74 1113.95 3884.62 1114.8 3883.53 1115.69 3882.46 1116.61 3881.42 1117.56 3880.41 1118.54 3879.42 1119.55 3878.47 1120.58 3877.54 1121.64 3876.64 1122.73 3875.78 1123.84 3874.94 1124.97 3874.14 1126.13 3873.37 1127.31 3872.64 1128.51 3871.93 1129.74 3871.27 1130.98 3870.64 1132.24 3870.04 1133.51 3869.48 1134.8 3868.96 1136.11 3868.47 1137.43 3868.02 1138.77 3867.61 1140.12 3867.24 1141.48 3866.9 1142.84 3866.61 1144.22 3866.35 1145.61 3866.14 1147 3865.96 1148.4 3865.82 1149.8 3865.72 1151.2 3865.66 1152.61 3865.64 1154.02 M 3640.64 1154.02 3640.72 1160.77 3640.97 1167.51 3641.39 1174.25 3641.96 1180.97 3642.71 1187.68 3643.62 1194.37 3644.69 1201.03 3645.92 1207.67 3647.32 1214.27 3648.88 1220.84 3650.6 1227.37 3652.48 1233.85 3654.52 1240.28 3656.72 1246.66 3659.07 1252.99 3661.57 1259.26 3664.23 1265.46 3667.04 1271.6 3670 1277.66 3673.11 1283.65 3676.37 1289.57 3679.76 1295.4 3683.31 1301.14 3686.99 1306.8 3690.8 1312.37 3694.76 1317.84 3698.84 1323.21 3703.06 1328.48 3707.41 1333.64 3711.88 1338.7 3716.47 1343.64 3721.19 1348.47 3726.02 1353.19 3730.96 1357.78 3736.02 1362.25 3741.18 1366.6 3746.45 1370.82 3751.82 1374.9 3757.29 1378.86 3762.86 1382.67 3768.52 1386.35 3774.26 1389.9 3780.09 1393.29 3786.01 1396.55 3792 1399.66 3798.06 1402.62 3804.2 1405.43 3810.4 1408.09 3816.67 1410.59 3823 1412.94 3829.38 1415.14 3835.81 1417.18 3842.29 1419.06 3848.82 1420.78 3855.39 1422.34 3861.99 1423.74 3868.63 1424.97 3875.29 1426.04 3881.98 1426.95 3888.69 1427.7 3895.41 1428.27 3902.15 1428.69 3908.89 1428.94 3915.64 1429.02 3922.39 1428.94 3929.13 1428.69 3935.87 1428.27 3942.59 1427.7 3949.3 1426.95 3955.99 1426.04 3962.65 1424.97 3969.29 1423.74 3975.89 1422.34 3982.46 1420.78 3988.99 1419.06 3995.47 1417.18 4001.9 1415.14 4008.28 1412.94 4014.61 1410.59 4020.88 1408.09 4027.08 1405.43 4033.22 1402.62 4039.28 1399.66 4045.27 1396.55 4051.19 1393.29 4057.02 1389.9 4062.76 1386.35 4068.42 1382.67 4073.99 1378.86 4079.46 1374.9 4084.83 1370.82 4090.1 1366.6 4095.26 1362.25 4100.32 1357.78 4105.26 1353.19 4110.09 1348.47 4114.81 1343.64 4119.4 1338.7 4123.87 1333.64 4128.22 1328.48 4132.44 1323.21 4136.52 1317.84 4140.48 1312.37 4144.29 1306.8 4147.97 1301.14 4151.52 1295.4 4154.91 1289.57 4158.17 1283.65 4161.28 1277.66 4164.24 1271.6 4167.05 1265.46 4169.71 1259.26 4172.21 1252.99 4174.56 1246.66 4176.76 1240.28 4178.8 1233.85 4180.68 1227.37 4182.4 1220.84 4183.96 1214.27 4185.36 1207.67 4186.59 1201.03 4187.66 1194.37 4188.57 1187.68 4189.32 1180.97 4189.89 1174.25 4190.31 1167.51 4190.56 1160.77 4190.64 1154.02 4190.56 1147.27 4190.31 1140.53 4189.89 1133.79 4189.32 1127.07 4188.57 1120.36 4187.66 1113.67 4186.59 1107.01 4185.36 1100.37 4183.96 1093.77 4182.4 1087.2 4180.68 1080.67 4178.8 1074.19 4176.76 1067.76 4174.56 1061.38 4172.21 1055.05 4169.71 1048.78 4167.05 1042.58 4164.24 1036.44 4161.28 1030.38 4158.17 1024.39 4154.91 1018.47 4151.52 1012.64 4147.97 1006.9 4144.29 1001.24 4140.48 995.67 4136.52 990.2 4132.44 984.83 4128.22 979.56 4123.87 974.4 4119.4 969.34 4114.81 964.4 4110.09 959.57 4105.26 954.85 4100.32 950.26 4095.26 945.79 4090.1 941.44 4084.83 937.22 4079.46 933.14 4073.99 929.18 4068.42 925.37 4062.76 921.69 4057.02 918.14 4051.19 914.75 4045.27 911.49 4039.28 908.38 4033.22 905.42 4027.08 902.61 4020.88 899.95 4014.61 897.45 4008.28 895.1 4001.9 892.9 3995.47 890.86 3988.99 888.98 3982.46 887.26 3975.89 885.7 3969.29 884.3 3962.65 883.07 3955.99 882 3949.3 881.09 3942.59 880.34 3935.87 879.77 3929.13 879.35 3922.39 879.1 3915.64 879.02 3908.89 879.1 3902.15 879.35 3895.41 879.77 3888.69 880.34 3881.98 881.09 3875.29 882 3868.63 883.07 3861.99 884.3 3855.39 885.7 3848.82 887.26 3842.29 888.98 3835.81 890.86 3829.38 892.9 3823 895.1 3816.67 897.45 3810.4 899.95 3804.2 902.61 3798.06 905.42 3792 908.38 3786.01 911.49 3780.09 914.75 3774.26 918.14 3768.52 921.69 3762.86 925.37 3757.29 929.18 3751.82 933.14 3746.45 937.22 3741.18 941.44 3736.02 945.79 3730.96 950.26 3726.02 954.85 3721.19 959.57 3716.47 964.4 3711.88 969.34 3707.41 974.4 3703.06 979.56 3698.84 984.83 3694.76 990.2 3690.8 995.67 3686.99 1001.24 3683.31 1006.9 3679.76 1012.64 3676.37 1018.47 3673.11 1024.39 3670 1030.38 3667.04 1036.44 3664.23 1042.58 3661.57 1048.78 3659.07 1055.05 3656.72 1061.38 3654.52 1067.76 3652.48 1074.19 3650.6 1080.67 3648.88 1087.2 3647.32 1093.77 3645.92 1100.37 3644.69 1107.01 3643.62 1113.67 3642.71 1120.36 3641.96 1127.07 3641.39 1133.79 3640.97 1140.53 3640.72 1147.27 3640.64 1154.02 M 3985.64 1304.02 3985.66 1305.43 3985.72 1306.84 3985.82 1308.24 3985.96 1309.64 3986.14 1311.04 3986.35 1312.43 3986.61 1313.82 3986.9 1315.2 3987.24 1316.56 3987.61 1317.92 3988.02 1319.27 3988.47 1320.61 3988.96 1321.93 3989.48 1323.24 3990.04 1324.53 3990.64 1325.8 3991.27 1327.06 3991.93 1328.3 3992.64 1329.53 3993.37 1330.73 3994.14 1331.91 3994.94 1333.07 3995.78 1334.2 3996.64 1335.31 3997.54 1336.4 3998.47 1337.46 3999.42 1338.49 4000.41 1339.5 4001.42 1340.48 4002.46 1341.43 4003.53 1342.35 4004.62 1343.24 4005.74 1344.09 4006.88 1344.92 4008.04 1345.72 4009.23 1346.48 4010.44 1347.2 4011.66 1347.9 4012.91 1348.55 4014.17 1349.18 4015.45 1349.76 4016.75 1350.31 4018.06 1350.83 4019.39 1351.3 4020.73 1351.74 4022.08 1352.15 4023.44 1352.51 4024.81 1352.83 4026.19 1353.12 4027.57 1353.37 4028.97 1353.57 4030.37 1353.74 4031.77 1353.87 4033.18 1353.96 4034.58 1354.01 4035.99 1354.02 4037.4 1353.99 4038.81 1353.92 4040.21 1353.81 4041.61 1353.66 4043.01 1353.47 4044.4 1353.25 4045.78 1352.98 4047.16 1352.68 4048.52 1352.33 4049.88 1351.95 4051.22 1351.53 4052.56 1351.07 4053.88 1350.58 4055.18 1350.04 4056.47 1349.47 4057.74 1348.87 4059 1348.23 4060.23 1347.55 4061.45 1346.84 4062.65 1346.1 4063.82 1345.32 4064.97 1344.51 4066.1 1343.67 4067.21 1342.8 4068.29 1341.89 4069.34 1340.96 4070.37 1339.99 4071.37 1339 4072.34 1337.98 4073.28 1336.93 4074.19 1335.86 4075.07 1334.76 4075.92 1333.64 4076.74 1332.49 4077.53 1331.32 4078.28 1330.13 4079 1328.92 4079.68 1327.69 4080.33 1326.44 4080.95 1325.17 4081.52 1323.88 4082.07 1322.58 4082.57 1321.27 4083.04 1319.94 4083.47 1318.6 4083.86 1317.24 4084.21 1315.88 4084.53 1314.51 4084.8 1313.13 4085.04 1311.74 4085.24 1310.34 4085.4 1308.94 4085.52 1307.54 4085.6 1306.13 4085.64 1304.72 4085.64 1303.32 4085.6 1301.91 4085.52 1300.5 4085.4 1299.1 4085.24 1297.7 4085.04 1296.3 4084.8 1294.91 4084.53 1293.53 4084.21 1292.16 4083.86 1290.8 4083.47 1289.44 4083.04 1288.1 4082.57 1286.77 4082.07 1285.46 4081.52 1284.16 4080.95 1282.87 4080.33 1281.6 4079.68 1280.35 4079 1279.12 4078.28 1277.91 4077.53 1276.72 4076.74 1275.55 4075.92 1274.4 4075.07 1273.28 4074.19 1272.18 4073.28 1271.11 4072.34 1270.06 4071.37 1269.04 4070.37 1268.05 4069.34 1267.08 4068.29 1266.15 4067.21 1265.24 4066.1 1264.37 4064.97 1263.53 4063.82 1262.72 4062.65 1261.94 4061.45 1261.2 4060.23 1260.49 4059 1259.81 4057.74 1259.17 4056.47 1258.57 4055.18 1258 4053.88 1257.46 4052.56 1256.97 4051.22 1256.51 4049.88 1256.09 4048.52 1255.71 4047.16 1255.36 4045.78 1255.06 4044.4 1254.79 4043.01 1254.57 4041.61 1254.38 4040.21 1254.23 4038.81 1254.12 4037.4 1254.05 4035.99 1254.02 4034.58 1254.03 4033.18 1254.08 4031.77 1254.17 4030.37 1254.3 4028.97 1254.47 4027.57 1254.67 4026.19 1254.92 4024.81 1255.21 4023.44 1255.53 4022.08 1255.89 4020.73 1256.3 4019.39 1256.74 4018.06 1257.21 4016.75 1257.73 4015.45 1258.28 4014.17 1258.86 4012.91 1259.49 4011.66 1260.14 4010.44 1260.84 4009.23 1261.56 4008.04 1262.32 4006.88 1263.12 4005.74 1263.95 4004.62 1264.8 4003.53 1265.69 4002.46 1266.61 4001.42 1267.56 4000.41 1268.54 3999.42 1269.55 3998.47 1270.58 3997.54 1271.64 3996.64 1272.73 3995.78 1273.84 3994.94 1274.97 3994.14 1276.13 3993.37 1277.31 3992.64 1278.51 3991.93 1279.74 3991.27 1280.98 3990.64 1282.24 3990.04 1283.51 3989.48 1284.8 3988.96 1286.11 3988.47 1287.43 3988.02 1288.77 3987.61 1290.12 3987.24 1291.48 3986.9 1292.84 3986.61 1294.22 3986.35 1295.61 3986.14 1297 3985.96 1298.4 3985.82 1299.8 3985.72 1301.2 3985.66 1302.61 3985.64 1304.02" fill="none" stroke-width="6"/><path d="M 4193.14 1310.07 4193.14 1325.08 4200.64 1332.59 4215.66 1332.59 4215.66 1317.58 M 4230.67 1332.59 4238.18 1325.08 4238.18 1310.07 4230.67 1302.56 4200.64 1302.56 4193.14 1310.07 M 4200.64 1286.55 4193.14 1279.04 4193.14 1264.03 4200.64 1256.52 M 4215.66 1264.03 4215.66 1279.04 4208.15 1286.55 4200.64 1286.55 M 4230.67 1286.55 4238.18 1279.04 4238.18 1264.03 4230.67 1256.52 4223.16 1256.52 4215.66 1264.03 M 4223.16 1348.6 4238.18 1363.61 4193.14 1363.61 M 4193.14 1348.6 4193.14 1378.63 M 3428.83 859.83 3413.82 859.83 M 3421.33 859.83 3421.33 822.3 3428.83 814.79 3436.34 814.79 3443.85 822.3 M 3397.81 829.8 3375.29 829.8 3367.78 837.31 3367.78 852.32 3375.29 859.83 3397.81 859.83 3397.81 814.79 M 3351.77 814.79 3321.74 814.79 M 3336.76 814.79 3336.76 859.83 3351.77 844.82 M 2025.87 1258.16 2025.87 431.39 18 431.39 18 746.35 18 943.2 175.48 943.2 175.48 746.35 18 746.35 M 18 943.2 18 1258.16 2025.87 1258.16" fill="none" stroke-width="5"/><path d="M 4010.64 1304.02 4060.64 1304.02 M 4035.64 1279.02 4035.64 1329.02" fill="none" stroke-width="10"/><path d="M 70.98 223.2 55.63 238.54 70.98 253.89 101.67 253.89 M 101.67 269.24 101.67 292.26 94 299.93 86.32 299.93 78.65 292.26 78.65 269.24 M 55.63 269.24 101.67 269.24 M 55.63 269.24 55.63 292.26 63.3 299.93 70.98 299.93 78.65 292.26 M 63.3 315.28 55.63 322.95 55.63 338.29 63.3 345.97 101.67 345.97 M 94 361.31 86.32 361.31 78.65 368.99 78.65 384.33 70.98 392.01 63.3 392.01 55.63 384.33 55.63 368.99 63.3 361.31 M 94 361.31 101.67 368.99 101.67 384.33 94 392.01 M 155.63 384.33 155.63 368.99 163.3 361.31 M 178.65 368.99 178.65 384.33 170.98 392.01 163.3 392.01 155.63 384.33 M 178.65 368.99 186.32 361.31 194 361.31 201.67 368.99 201.67 384.33 194 392.01 M 255.63 361.31 263.3 368.99 294 368.99 301.67 361.31 301.67 338.3 255.63 338.3 255.63 361.31 M 201.67 345.97 194 345.97 178.65 330.62 155.63 330.62 M 178.65 330.62 194 315.28 201.67 315.28 M 194 299.93 201.67 292.26 201.67 276.91 194 269.24 186.32 269.24 178.65 276.91 178.65 292.26 170.98 299.93 163.3 299.93 155.63 292.26 155.63 276.91 163.3 269.24 M 170.98 253.89 201.67 253.89 M 170.98 253.89 155.63 238.54 170.98 223.2 201.67 223.2 M 255.63 253.89 255.63 269.24 263.3 276.91 278.65 276.91 278.65 261.56 M 294 246.22 301.67 253.89 301.67 269.24 294 276.91 M 301.67 292.26 255.63 292.26 M 255.63 322.95 301.67 292.26 M 301.67 322.95 255.63 322.95 M 355.63 322.95 363.3 315.28 M 355.63 322.95 355.63 338.29 363.3 345.97 370.98 345.97 378.65 338.29 378.65 330.62 M 378.65 338.29 386.32 345.97 394 345.97 401.67 338.29 401.67 322.95 394 315.28 M 401.67 299.93 370.98 299.93 355.63 284.58 370.98 269.24 401.67 269.24 M 394 253.89 386.32 253.89 378.65 246.22 370.98 253.89 363.3 253.89 355.63 246.22 355.63 230.87 363.3 223.2 M 378.65 238.54 378.65 246.22 M 394 253.89 401.67 246.22 401.67 230.87 394 223.2 M 455.63 253.89 463.3 246.22 M 455.63 253.89 455.63 269.24 463.3 276.91 470.98 276.91 478.65 269.24 478.65 261.56 M 478.65 269.24 486.32 276.91 494 276.91 501.67 269.24 501.67 253.89 494 246.22 M 555.63 253.89 586.32 253.89 601.67 238.54 586.32 223.2 555.63 223.2 M 578.65 223.2 578.65 253.89 M 570.98 269.24 570.98 292.26 578.65 299.93 594 299.93 601.67 292.26 601.67 269.24 555.63 269.24 M 570.98 284.58 555.63 299.93 M 555.63 315.28 555.63 345.97 M 555.63 361.31 601.67 361.31 601.67 392.01 M 578.65 376.66 578.65 361.31 M 601.67 345.97 601.67 315.28 555.63 315.28 M 578.65 315.28 578.65 330.62 M 501.67 322.95 470.98 322.95 455.63 307.6 470.98 292.26 501.67 292.26 M 494 338.3 501.67 345.97 501.67 361.31 494 368.99 486.32 368.99 478.65 361.31 470.98 368.99 463.3 368.99 455.63 361.31 455.63 345.97 463.3 338.3 M 478.65 353.64 478.65 361.31 M 401.67 361.31 355.63 361.31 355.63 392.01 M 378.65 376.66 378.65 361.31 M 401.67 361.31 401.67 392.01 M 655.63 384.33 655.63 368.99 663.3 361.31 670.98 361.31 678.65 368.99 678.65 384.33 670.98 392.01 663.3 392.01 655.63 384.33 M 678.65 384.33 686.32 392.01 694 392.01 701.67 384.33 701.67 368.99 694 361.31 686.32 361.31 678.65 368.99 M 686.32 345.97 694 345.97 701.67 338.29 701.67 322.95 694 315.28 M 694 299.93 678.65 299.93 670.98 292.26 670.98 269.24 M 655.63 269.24 701.67 269.24 701.67 292.26 694 299.93 M 655.63 315.28 686.32 345.97 M 655.63 345.97 655.63 315.28 M 755.63 322.95 801.67 322.95 M 801.67 338.3 755.63 338.3 755.63 361.31 763.3 368.99 794 368.99 801.67 361.31 801.67 338.3 M 801.67 292.26 755.63 322.95 M 755.63 292.26 801.67 292.26 M 794 276.91 801.67 269.24 801.67 253.89 794 246.22 763.3 246.22 755.63 253.89 755.63 269.24 763.3 276.91 778.65 276.91 778.65 261.56 M 701.67 246.22 701.67 230.87 694 223.2 663.3 223.2 655.63 230.87 655.63 246.22 663.3 253.89 678.65 253.89 678.65 238.54 M 694 253.89 701.67 246.22 M 855.63 246.22 855.63 230.87 863.3 223.2 894 223.2 901.67 230.87 901.67 246.22 894 253.89 M 878.65 253.89 878.65 238.54 M 878.65 253.89 863.3 253.89 855.63 246.22 M 855.63 269.24 901.67 269.24 901.67 292.26 894 299.93 878.65 299.93 870.98 292.26 870.98 269.24 M 955.63 269.24 1001.67 269.24 1001.67 292.26 994 299.93 978.65 299.93 970.98 292.26 970.98 269.24 M 978.65 253.89 978.65 238.54 M 978.65 253.89 963.3 253.89 955.63 246.22 955.63 230.87 963.3 223.2 994 223.2 1001.67 230.87 1001.67 246.22 994 253.89 M 1055.63 246.22 1101.67 246.22 1101.67 269.24 1094 276.91 1078.65 276.91 1070.98 269.24 1070.98 246.22 M 1070.98 261.56 1055.63 276.91 M 1063.3 292.26 1055.63 299.93 1055.63 315.28 1063.3 322.95 1101.67 322.95 M 1101.67 338.3 1055.63 338.3 M 1055.63 368.99 1101.67 368.99 M 1101.67 338.3 1055.63 368.99 M 1001.67 392.01 994 376.66 978.65 361.31 978.65 384.33 970.98 392.01 963.3 392.01 955.63 384.33 955.63 368.99 963.3 361.31 978.65 361.31 M 986.32 345.97 994 345.97 1001.67 338.29 1001.67 322.95 994 315.28 M 986.32 345.97 955.63 315.28 955.63 345.97 M 901.67 338.29 901.67 322.95 894 315.28 M 886.32 345.97 855.63 315.28 855.63 345.97 M 855.63 361.31 863.3 361.31 894 392.01 901.67 392.01 901.67 361.31 M 894 345.97 901.67 338.29 M 894 345.97 886.32 345.97 M 1063.3 292.26 1101.67 292.26 M 1155.63 315.28 1186.32 345.97 1194 345.97 1201.67 338.29 1201.67 322.95 1194 315.28 M 1194 299.93 1178.65 299.93 1170.98 292.26 1170.98 269.24 M 1155.63 269.24 1201.67 269.24 1201.67 292.26 1194 299.93 M 1155.63 315.28 1155.63 345.97 M 1155.63 361.31 1186.32 392.01 1194 392.01 1201.67 384.33 1201.67 368.99 1194 361.31 M 1155.63 361.31 1155.63 392.01 M 1255.63 361.31 1263.3 368.99 1294 368.99 1301.67 361.31 1301.67 338.3 1255.63 338.3 1255.63 361.31 M 1255.63 322.95 1301.67 322.95 M 1301.67 292.26 1255.63 322.95 M 1255.63 292.26 1301.67 292.26 M 1294 276.91 1301.67 269.24 1301.67 253.89 1294 246.22 1263.3 246.22 1255.63 253.89 1255.63 269.24 1263.3 276.91 1278.65 276.91 1278.65 261.56 M 1355.63 269.24 1401.67 269.24 1401.67 292.26 1394 299.93 1378.65 299.93 1370.98 292.26 1370.98 269.24 M 1378.65 253.89 1378.65 238.54 M 1378.65 253.89 1363.3 253.89 1355.63 246.22 1355.63 230.87 1363.3 223.2 1394 223.2 1401.67 230.87 1401.67 246.22 1394 253.89 M 1455.63 246.22 1455.63 230.87 1463.3 223.2 1494 223.2 1501.67 230.87 1501.67 246.22 1494 253.89 M 1478.65 253.89 1478.65 238.54 M 1478.65 253.89 1463.3 253.89 1455.63 246.22 M 1455.63 269.24 1501.67 269.24 1501.67 292.26 1494 299.93 1478.65 299.93 1470.98 292.26 1470.98 269.24 M 1555.63 269.24 1601.67 269.24 1601.67 292.26 1594 299.93 1578.65 299.93 1570.98 292.26 1570.98 269.24 M 1578.65 253.89 1563.3 253.89 1555.63 246.22 1555.63 230.87 1563.3 223.2 1594 223.2 1601.67 230.87 1601.67 246.22 1594 253.89 M 1578.65 253.89 1578.65 238.54 M 1655.63 230.87 1655.63 246.22 1663.3 253.89 1678.65 253.89 1678.65 238.54 M 1694 223.2 1663.3 223.2 1655.63 230.87 M 1694 223.2 1701.67 230.87 1701.67 246.22 1694 253.89 M 1701.67 269.24 1701.67 292.26 1694 299.93 1678.65 299.93 1670.98 292.26 1670.98 269.24 M 1655.63 269.24 1701.67 269.24 M 1755.63 269.24 1763.3 276.91 1778.65 276.91 1778.65 261.56 M 1794 246.22 1763.3 246.22 1755.63 253.89 1755.63 269.24 M 1794 276.91 1801.67 269.24 1801.67 253.89 1794 246.22 M 1855.63 246.22 1855.63 230.87 1863.3 223.2 1894 223.2 1901.67 230.87 1901.67 246.22 1894 253.89 M 1878.65 253.89 1878.65 238.54 M 1878.65 253.89 1863.3 253.89 1855.63 246.22 M 1855.63 269.24 1901.67 269.24 1901.67 292.26 1894 299.93 1878.65 299.93 1870.98 292.26 1870.98 269.24 M 1801.67 292.26 1755.63 292.26 M 1755.63 322.95 1801.67 292.26 M 1855.63 315.28 1855.63 345.97 M 1855.63 361.31 1863.3 361.31 1894 392.01 1901.67 392.01 1901.67 361.31 M 1955.63 368.99 1955.63 384.33 1963.3 392.01 1970.98 392.01 1978.65 384.33 1978.65 361.31 1963.3 361.31 1955.63 368.99 M 1955.63 345.97 1955.63 315.28 M 1955.63 330.62 2001.67 330.62 1986.32 315.28 M 1978.65 299.93 1970.98 292.26 1970.98 269.24 M 1955.63 269.24 2001.67 269.24 2001.67 292.26 1994 299.93 1978.65 299.93 M 1978.65 253.89 1963.3 253.89 1955.63 246.22 1955.63 230.87 1963.3 223.2 1994 223.2 2001.67 230.87 2001.67 246.22 1994 253.89 M 1978.65 253.89 1978.65 238.54 M 1901.67 330.62 1886.32 315.28 M 1901.67 330.62 1855.63 330.62 M 1801.67 322.95 1755.63 322.95 M 1755.63 338.3 1755.63 361.31 1763.3 368.99 1794 368.99 1801.67 361.31 1801.67 338.3 1755.63 338.3 M 1701.67 330.62 1686.32 315.28 M 1701.67 330.62 1655.63 330.62 M 1655.63 315.28 1655.63 345.97 M 1663.3 361.31 1655.63 368.99 1655.63 384.33 1663.3 392.01 1670.98 392.01 1678.65 384.33 1678.65 368.99 1686.32 361.31 1694 361.31 1701.67 368.99 1701.67 384.33 1694 392.01 1686.32 392.01 1678.65 384.33 M 1678.65 368.99 1670.98 361.31 1663.3 361.31 M 1601.67 368.99 1594 361.31 1586.32 361.31 1578.65 368.99 1578.65 392.01 M 1594 392.01 1601.67 384.33 1601.67 368.99 M 1563.3 361.31 1555.63 368.99 1555.63 384.33 1563.3 392.01 1594 392.01 M 1501.67 384.33 1501.67 368.99 1494 361.31 1463.3 361.31 1494 392.01 1463.3 392.01 1455.63 384.33 1455.63 368.99 1463.3 361.31 M 1455.63 345.97 1455.63 315.28 1486.32 345.97 1494 345.97 1501.67 338.29 1501.67 322.95 1494 315.28 M 1555.63 315.28 1555.63 345.97 M 1555.63 330.62 1601.67 330.62 1586.32 315.28 M 1501.67 384.33 1494 392.01 M 1401.67 376.66 1355.63 376.66 M 1355.63 361.31 1355.63 392.01 M 1386.32 361.31 1401.67 376.66 M 1394 345.97 1401.67 338.29 1401.67 322.95 1394 315.28 M 1386.32 345.97 1355.63 315.28 1355.63 345.97 M 1386.32 345.97 1394 345.97 M 1201.67 246.22 1194 253.89 M 1201.67 246.22 1201.67 230.87 1194 223.2 1163.3 223.2 1155.63 230.87 1155.63 246.22 1163.3 253.89 1178.65 253.89 1178.65 238.54 M 1955.63 544.83 1986.32 575.52 1994 575.52 2001.67 567.85 2001.67 552.5 1994 544.83 M 1955.63 544.83 1955.63 575.52 M 1955.63 590.87 1955.63 621.56 M 1955.63 606.21 2001.67 606.21 1986.32 590.87 M 2096.95 721.77 2089.28 729.44 2089.28 760.14 2096.95 767.81 2112.3 767.81 2119.97 760.14 2119.97 729.44 2112.3 721.77 2096.95 721.77 M 2135.32 721.77 2150.66 721.77 M 2142.99 721.77 2142.99 767.81 M 2150.66 767.81 2135.32 767.81 M 2166.01 760.14 2173.68 767.81 2196.7 767.81 2196.7 721.77 2173.68 721.77 2166.01 729.44 2166.01 760.14 M 2212.05 767.81 2212.05 721.77 2227.39 737.12 2242.74 721.77 2242.74 767.81 M 2258.09 760.14 2265.76 767.81 2281.11 767.81 2288.78 760.14 2288.78 752.46 2281.11 744.79 2265.76 744.79 2258.09 737.12 2258.09 729.44 2265.76 721.77 2281.11 721.77 2288.78 729.44 M 2242.74 821.77 2227.39 821.77 2219.72 829.44 2219.72 844.79 2235.07 844.79 M 2250.41 860.14 2250.41 829.44 2242.74 821.77 M 2204.37 821.77 2204.37 867.81 2173.68 821.77 2173.68 867.81 M 2158.33 867.81 2135.32 867.81 2127.64 860.14 2127.64 829.44 2135.32 821.77 2158.33 821.77 2158.33 867.81 M 2219.72 860.14 2227.39 867.81 2242.74 867.81 2250.41 860.14 M 2250.41 921.77 2235.07 937.12 2219.72 921.77 2219.72 967.81 M 2204.37 960.14 2196.7 967.81 2181.35 967.81 2173.68 960.14 M 2158.33 967.81 2158.33 921.77 2127.64 921.77 M 2112.3 921.77 2112.3 967.81 M 2112.3 937.12 2081.6 967.81 M 2104.62 944.79 2081.6 921.77 M 2173.68 929.44 2181.35 921.77 2196.7 921.77 2204.37 929.44 2204.37 960.14 M 2250.41 967.81 2250.41 921.77 M 2265.76 929.44 2273.43 921.77 2288.78 921.77 2296.45 929.44 M 2288.78 944.79 2273.43 944.79 2265.76 937.12 2265.76 929.44 M 2288.78 944.79 2296.45 952.46 2296.45 960.14 2288.78 967.81 2273.43 967.81 2265.76 960.14 M 2001.67 1064.31 1994 1056.64 M 2001.67 1064.31 2001.67 1079.66 1994 1087.33 1986.32 1087.33 1955.63 1056.64 1955.63 1087.33 M 1963.3 1102.68 1994 1133.37 1963.3 1133.37 1955.63 1125.7 1955.63 1110.35 1963.3 1102.68 1994 1102.68 2001.67 1110.35 2001.67 1125.7 1994 1133.37 M 1994 1286.19 1963.3 1286.19 1955.63 1293.86 1955.63 1309.21 1963.3 1316.88 1978.65 1316.88 1978.65 1301.54 M 1994 1316.88 2001.67 1309.21 2001.67 1293.86 1994 1286.19 M 2001.67 1332.23 1955.63 1332.23 M 1970.98 1332.23 1970.98 1355.25 1978.65 1362.92 1994 1362.92 2001.67 1355.25 2001.67 1332.23 M 1901.67 1332.23 1901.67 1355.25 1894 1362.92 1878.65 1362.92 1870.98 1355.25 1870.98 1332.23 M 1855.63 1332.23 1901.67 1332.23 M 1894 1316.88 1901.67 1309.21 1901.67 1293.86 1894 1286.19 1863.3 1286.19 1855.63 1293.86 1855.63 1309.21 1863.3 1316.88 1878.65 1316.88 1878.65 1301.54 M 1801.67 1316.88 1794 1309.21 1763.3 1309.21 1755.63 1316.88 1755.63 1332.23 1763.3 1339.9 1778.65 1339.9 1778.65 1324.55 M 1794 1339.9 1801.67 1332.23 1801.67 1316.88 M 1801.67 1355.25 1755.63 1355.25 M 1755.63 1385.94 1801.67 1355.25 M 1855.63 1378.27 1855.63 1408.96 M 1855.63 1393.61 1901.67 1393.61 1886.32 1378.27 M 1955.63 1378.27 1955.63 1408.96 M 1955.63 1393.61 2001.67 1393.61 1986.32 1378.27 M 1978.65 1424.31 1986.32 1439.65 1986.32 1447.33 1978.65 1455 1963.3 1455 1955.63 1447.33 1955.63 1431.98 1963.3 1424.31 M 1978.65 1424.31 2001.67 1424.31 2001.67 1455 M 1901.67 1447.33 1878.65 1424.31 1878.65 1455 M 1855.63 1447.33 1901.67 1447.33 M 1801.67 1424.31 1801.67 1401.29 1755.63 1401.29 1755.63 1424.31 1763.3 1431.98 1794 1431.98 1801.67 1424.31 M 1801.67 1385.94 1755.63 1385.94 M 1701.67 1393.61 1686.32 1378.27 M 1678.65 1362.92 1670.98 1355.25 1670.98 1332.23 M 1655.63 1332.23 1701.67 1332.23 1701.67 1355.25 1694 1362.92 1678.65 1362.92 M 1655.63 1378.27 1655.63 1408.96 M 1655.63 1393.61 1701.67 1393.61 M 1694 1424.31 1701.67 1431.98 1701.67 1447.33 1694 1455 1686.32 1455 1678.65 1447.33 1670.98 1455 1663.3 1455 1655.63 1447.33 1655.63 1431.98 1663.3 1424.31 M 1678.65 1439.65 1678.65 1447.33 M 1601.67 1447.33 1601.67 1431.98 1594 1424.31 M 1601.67 1447.33 1594 1455 1586.32 1455 1555.63 1424.31 1555.63 1455 M 1501.67 1439.65 1455.63 1439.65 M 1455.63 1424.31 1455.63 1455 M 1486.32 1424.31 1501.67 1439.65 M 1455.63 1408.96 1455.63 1378.27 M 1455.63 1393.61 1501.67 1393.61 1486.32 1378.27 M 1478.65 1362.92 1470.98 1355.25 1470.98 1332.23 M 1455.63 1332.23 1501.67 1332.23 1501.67 1355.25 1494 1362.92 1478.65 1362.92 M 1401.67 1355.25 1394 1362.92 1378.65 1362.92 1370.98 1355.25 1370.98 1332.23 M 1355.63 1332.23 1401.67 1332.23 1401.67 1355.25 M 1386.32 1378.27 1401.67 1393.61 1355.63 1393.61 M 1355.63 1378.27 1355.63 1408.96 M 1363.3 1424.31 1394 1455 1363.3 1455 1355.63 1447.33 1355.63 1431.98 1363.3 1424.31 1394 1424.31 1401.67 1431.98 1401.67 1447.33 1394 1455 M 1301.67 1424.31 1301.67 1401.29 1255.63 1401.29 1255.63 1424.31 1263.3 1431.98 1294 1431.98 1301.67 1424.31 M 1301.67 1385.94 1255.63 1385.94 1301.67 1355.25 1255.63 1355.25 M 1263.3 1339.9 1278.65 1339.9 1278.65 1324.55 M 1294 1309.21 1263.3 1309.21 1255.63 1316.88 1255.63 1332.23 1263.3 1339.9 M 1294 1339.9 1301.67 1332.23 1301.67 1316.88 1294 1309.21 M 1355.63 1309.21 1355.63 1293.86 1363.3 1286.19 1394 1286.19 1401.67 1293.86 1401.67 1309.21 1394 1316.88 M 1378.65 1316.88 1378.65 1301.54 M 1378.65 1316.88 1363.3 1316.88 1355.63 1309.21 M 1455.63 1309.21 1455.63 1293.86 1463.3 1286.19 1494 1286.19 1501.67 1293.86 1501.67 1309.21 1494 1316.88 M 1478.65 1316.88 1478.65 1301.54 M 1478.65 1316.88 1463.3 1316.88 1455.63 1309.21 M 1555.63 1309.21 1555.63 1293.86 1563.3 1286.19 1594 1286.19 1601.67 1293.86 1601.67 1309.21 1594 1316.88 M 1578.65 1316.88 1578.65 1301.54 M 1578.65 1316.88 1563.3 1316.88 1555.63 1309.21 M 1555.63 1332.23 1601.67 1332.23 1601.67 1355.25 1594 1362.92 1578.65 1362.92 1570.98 1355.25 1570.98 1332.23 M 1655.63 1309.21 1655.63 1293.86 1663.3 1286.19 1694 1286.19 1701.67 1293.86 1701.67 1309.21 1694 1316.88 M 1678.65 1316.88 1678.65 1301.54 M 1678.65 1316.88 1663.3 1316.88 1655.63 1309.21 M 1586.32 1378.27 1601.67 1393.61 1555.63 1393.61 M 1555.63 1378.27 1555.63 1408.96 M 1201.67 1408.96 1194 1401.29 1186.32 1401.29 1178.65 1408.96 1178.65 1431.98 M 1163.3 1431.98 1194 1431.98 1201.67 1424.31 1201.67 1408.96 M 1194 1385.94 1178.65 1385.94 1170.98 1378.27 1170.98 1355.25 M 1155.63 1355.25 1201.67 1355.25 1201.67 1378.27 1194 1385.94 M 1163.3 1401.29 1155.63 1408.96 1155.63 1424.31 1163.3 1431.98 M 1101.67 1424.31 1101.67 1408.96 1094 1401.29 1086.32 1401.29 1078.65 1408.96 1078.65 1424.31 1070.98 1431.98 1063.3 1431.98 1055.63 1424.31 1055.63 1408.96 1063.3 1401.29 1070.98 1401.29 1078.65 1408.96 M 1078.65 1424.31 1086.32 1431.98 1094 1431.98 1101.67 1424.31 M 1094 1385.94 1078.65 1385.94 1070.98 1378.27 1070.98 1355.25 M 1055.63 1355.25 1101.67 1355.25 1101.67 1378.27 1094 1385.94 M 1094 1339.9 1101.67 1332.23 1101.67 1316.88 1094 1309.21 1063.3 1309.21 1055.63 1316.88 1055.63 1332.23 1063.3 1339.9 1078.65 1339.9 1078.65 1324.55 M 1155.63 1316.88 1155.63 1332.23 1163.3 1339.9 1178.65 1339.9 1178.65 1324.55 M 1194 1309.21 1163.3 1309.21 1155.63 1316.88 M 1194 1309.21 1201.67 1316.88 1201.67 1332.23 1194 1339.9 M 1001.67 1332.23 1001.67 1316.88 994 1309.21 963.3 1309.21 955.63 1316.88 955.63 1332.23 963.3 1339.9 978.65 1339.9 978.65 1324.55 M 994 1339.9 1001.67 1332.23 M 1001.67 1355.25 955.63 1355.25 M 970.98 1355.25 970.98 1378.27 978.65 1385.94 994 1385.94 1001.67 1378.27 1001.67 1355.25 M 1001.67 1401.29 1001.67 1431.98 994 1431.98 963.3 1401.29 955.63 1401.29 M 901.67 1378.27 894 1385.94 878.65 1385.94 870.98 1378.27 870.98 1355.25 M 855.63 1355.25 901.67 1355.25 901.67 1378.27 M 878.65 1401.29 863.3 1401.29 855.63 1408.96 855.63 1424.31 863.3 1431.98 870.98 1431.98 878.65 1424.31 878.65 1401.29 894 1416.63 901.67 1431.98 M 801.67 1424.31 801.67 1401.29 755.63 1401.29 755.63 1424.31 763.3 1431.98 794 1431.98 801.67 1424.31 M 801.67 1385.94 755.63 1385.94 801.67 1355.25 755.63 1355.25 M 763.3 1339.9 778.65 1339.9 778.65 1324.55 M 794 1309.21 763.3 1309.21 755.63 1316.88 755.63 1332.23 763.3 1339.9 M 794 1339.9 801.67 1332.23 801.67 1316.88 794 1309.21 M 855.63 1316.88 855.63 1332.23 863.3 1339.9 878.65 1339.9 878.65 1324.55 M 894 1309.21 863.3 1309.21 855.63 1316.88 M 894 1309.21 901.67 1316.88 901.67 1332.23 894 1339.9 M 701.67 1332.23 701.67 1316.88 694 1309.21 663.3 1309.21 655.63 1316.88 655.63 1332.23 663.3 1339.9 678.65 1339.9 678.65 1324.55 M 694 1339.9 701.67 1332.23 M 701.67 1355.25 655.63 1355.25 M 670.98 1355.25 670.98 1378.27 678.65 1385.94 694 1385.94 701.67 1378.27 701.67 1355.25 M 701.67 1401.29 678.65 1401.29 686.32 1416.63 686.32 1424.31 678.65 1431.98 663.3 1431.98 655.63 1424.31 655.63 1408.96 663.3 1401.29 M 701.67 1401.29 701.67 1431.98 M 601.67 1424.31 578.65 1401.29 578.65 1431.98 M 555.63 1424.31 601.67 1424.31 M 594 1385.94 578.65 1385.94 570.98 1378.27 570.98 1355.25 M 555.63 1355.25 601.67 1355.25 601.67 1378.27 594 1385.94 M 501.67 1378.27 501.67 1355.25 455.63 1355.25 M 470.98 1355.25 470.98 1378.27 478.65 1385.94 494 1385.94 501.67 1378.27 M 494 1401.29 501.67 1408.96 501.67 1424.31 494 1431.98 486.32 1431.98 478.65 1424.31 470.98 1431.98 463.3 1431.98 455.63 1424.31 455.63 1408.96 463.3 1401.29 M 478.65 1416.63 478.65 1424.31 M 401.67 1424.31 401.67 1408.96 394 1401.29 M 394 1385.94 378.65 1385.94 370.98 1378.27 370.98 1355.25 M 355.63 1355.25 401.67 1355.25 401.67 1378.27 394 1385.94 M 355.63 1401.29 386.32 1431.98 394 1431.98 401.67 1424.31 M 355.63 1431.98 355.63 1401.29 M 301.67 1401.29 301.67 1424.31 294 1431.98 263.3 1431.98 255.63 1424.31 255.63 1401.29 301.67 1401.29 M 301.67 1385.94 255.63 1385.94 301.67 1355.25 255.63 1355.25 M 263.3 1339.9 278.65 1339.9 278.65 1324.55 M 294 1309.21 263.3 1309.21 255.63 1316.88 255.63 1332.23 263.3 1339.9 M 294 1339.9 301.67 1332.23 301.67 1316.88 294 1309.21 M 355.63 1316.88 355.63 1332.23 363.3 1339.9 378.65 1339.9 378.65 1324.55 M 394 1309.21 363.3 1309.21 355.63 1316.88 M 394 1309.21 401.67 1316.88 401.67 1332.23 394 1339.9 M 455.63 1332.23 463.3 1339.9 478.65 1339.9 478.65 1324.55 M 494 1309.21 463.3 1309.21 455.63 1316.88 455.63 1332.23 M 494 1339.9 501.67 1332.23 501.67 1316.88 494 1309.21 M 555.63 1316.88 555.63 1332.23 563.3 1339.9 578.65 1339.9 578.65 1324.55 M 594 1309.21 563.3 1309.21 555.63 1316.88 M 594 1309.21 601.67 1316.88 601.67 1332.23 594 1339.9 M 201.67 1332.23 201.67 1316.88 194 1309.21 163.3 1309.21 155.63 1316.88 155.63 1332.23 163.3 1339.9 178.65 1339.9 178.65 1324.55 M 194 1339.9 201.67 1332.23 M 201.67 1355.25 155.63 1355.25 M 170.98 1355.25 170.98 1378.27 178.65 1385.94 194 1385.94 201.67 1378.27 201.67 1355.25 M 186.32 1401.29 201.67 1416.63 155.63 1416.63 M 155.63 1401.29 155.63 1431.98 M 101.67 1424.31 101.67 1408.96 94 1401.29 63.3 1401.29 94 1431.98 63.3 1431.98 55.63 1424.31 55.63 1408.96 63.3 1401.29 M 78.65 1385.94 70.98 1378.27 70.98 1355.25 M 55.63 1355.25 101.67 1355.25 101.67 1378.27 94 1385.94 78.65 1385.94 M 101.67 1424.31 94 1431.98 M 94 1339.9 101.67 1332.23 101.67 1316.88 94 1309.21 63.3 1309.21 55.63 1316.88 55.63 1332.23 63.3 1339.9 78.65 1339.9 78.65 1324.55 M 55.63 1110.35 55.63 1079.66 M 55.63 1095 101.67 1095 86.32 1079.66 M 89.09 900.48 81.41 900.48 73.74 892.81 73.74 869.79 119.78 869.79 119.78 892.81 112.11 900.48 104.43 900.48 96.76 892.81 96.76 869.79 M 89.09 854.44 81.41 854.44 73.74 846.77 73.74 831.42 81.41 823.75 M 81.41 808.41 119.78 808.41 M 112.11 823.75 104.43 823.75 96.76 831.42 96.76 846.77 89.09 854.44 M 112.11 854.44 119.78 846.77 119.78 831.42 112.11 823.75 M 81.41 808.41 73.74 800.73 73.74 785.39 81.41 777.71 119.78 777.71 M 96.76 892.81 89.09 900.48 M 94 621.56 63.3 621.56 55.63 613.89 55.63 598.54 63.3 590.87 94 621.56 101.67 613.89 101.67 598.54 94 590.87 63.3 590.87 M 78.65 575.52 78.65 544.83 101.67 567.85 55.63 567.85 M 63.3 315.28 101.67 315.28 M 255.63 253.89 263.3 246.22 294 246.22 M 101.67 223.2 70.98 223.2 M 1978.65 361.31 1994 376.66 2001.67 392.01" fill="none" stroke-width="4"/></g></svg>