<svg version="1.1" xmlns="http://www.w3.org/2000/svg" xmlns:xlink="http://www.w3.org/1999/xlink" stroke-linecap="round" stroke-linejoin="round" stroke-width="0" fill-rule="evenodd" width="4.242005in" height="1.54515in" viewBox="52.51 72.195 4242.005 1545.15" id="wOR9NLbHxMJxikfQKNF-"><defs><circle cx="0" cy="0" r="45.805" id="wOR9NLbHxMJxikfQKNF-_pad-10"/><polygon points="35.49993,14.70455 14.70455,35.49993 -14.70455,35.49993 -35.49993,14.70455 -35.49993,-14.70455 -14.70455,-35.49993 14.70455,-35.49993 35.49993,-14.70455" id="wOR9NLbHxMJxikfQKNF-_pad-11"/><rect x="-33.995" y="-28.09" width="67.99" height="56.18" id="wOR9NLbHxMJxikfQKNF-_pad-12"/><rect x="-28.09" y="-33.995" width="56.18" height="67.99" id="wOR9NLbHxMJxikfQKNF-_pad-13"/><polygon points="52.49989,21.74617 21.74617,52.49989 -21.74617,52.49989 -52.49989,21.74617 -52.49989,-21.74617 -21.74617,-52.49989 21.74617,-52.49989 52.49989,-21.74617" id="wOR9NLbHxMJxikfQKNF-_pad-14"/><circle cx="0" cy="0" r="52.5" id="wOR9NLbHxMJxikfQKNF-_pad-15"/><polygon points="37.49992,15.53298 15.53298,37.49992 -15.53298,37.49992 -37.49992,15.53298 -37.49992,-15.53298 -15.53298,-37.49992 15.53298,-37.49992 37.49992,-15.53298" id="wOR9NLbHxMJxikfQKNF-_pad-17"/><rect x="-20.215" y="-20.215" width="40.43" height="40.43" id="wOR9NLbHxMJxikfQKNF-_pad-18"/></defs><g transform="translate(0,1689.54) scale(1,-1)" fill="currentColor" stroke="currentColor"><use xlink:href="#wOR9NLbHxMJxikfQKNF-_pad-10" x="118" y="118"/><use xlink:href="#wOR9NLbHxMJxikfQKNF-_pad-10" x="3059.34" y="1356.58"/><use xlink:href="#wOR9NLbHxMJxikfQKNF-_pad-10" x="3433.35" y="1356.58"/><use xlink:href="#wOR9NLbHxMJxikfQKNF-_pad-10" x="4248.71" y="1419.77"/><use xlink:href="#wOR9NLbHxMJxikfQKNF-_pad-10" x="4248.71" y="1571.54"/><use xlink:href="#wOR9NLbHxMJxikfQKNF-_pad-10" x="4248.71" y="269.77"/><use xlink:href="#wOR9NLbHxMJxikfQKNF-_pad-10" x="4248.71" y="118"/><use xlink:href="#wOR9NLbHxMJxikfQKNF-_pad-10" x="118" y="1571.54"/><use xlink:href="#wOR9NLbHxMJxikfQKNF-_pad-11" x="765.24" y="1061.31"/><use xlink:href="#wOR9NLbHxMJxikfQKNF-_pad-11" x="865.24" y="1061.31"/><use xlink:href="#wOR9NLbHxMJxikfQKNF-_pad-11" x="1296.74" y="1061.31"/><use xlink:href="#wOR9NLbHxMJxikfQKNF-_pad-11" x="1396.74" y="1061.31"/><use xlink:href="#wOR9NLbHxMJxikfQKNF-_pad-11" x="3096.35" y="737.29"/><use xlink:href="#wOR9NLbHxMJxikfQKNF-_pad-11" x="3196.35" y="737.29"/><use xlink:href="#wOR9NLbHxMJxikfQKNF-_pad-11" x="3296.35" y="737.29"/><use xlink:href="#wOR9NLbHxMJxikfQKNF-_pad-11" x="3396.35" y="737.29"/><use xlink:href="#wOR9NLbHxMJxikfQKNF-_pad-11" x="3396.35" y="637.29"/><use xlink:href="#wOR9NLbHxMJxikfQKNF-_pad-11" x="3296.35" y="637.29"/><use xlink:href="#wOR9NLbHxMJxikfQKNF-_pad-11" x="3196.35" y="637.29"/><use xlink:href="#wOR9NLbHxMJxikfQKNF-_pad-11" x="3096.35" y="637.29"/><use xlink:href="#wOR9NLbHxMJxikfQKNF-_pad-12" x="1818" y="632.37"/><use xlink:href="#wOR9NLbHxMJxikfQKNF-_pad-12" x="1818" y="707.17"/><use xlink:href="#wOR9NLbHxMJxikfQKNF-_pad-12" x="1618" y="707.17"/><use xlink:href="#wOR9NLbHxMJxikfQKNF-_pad-12" x="1618" y="632.37"/><use xlink:href="#wOR9NLbHxMJxikfQKNF-_pad-13" x="3657.37" y="1374.1"/><use xlink:href="#wOR9NLbHxMJxikfQKNF-_pad-13" x="3732.17" y="1374.1"/><use xlink:href="#wOR9NLbHxMJxikfQKNF-_pad-14" x="3915.64" y="1304.02"/><use xlink:href="#wOR9NLbHxMJxikfQKNF-_pad-14" x="3915.64" y="1004.02"/><use xlink:href="#wOR9NLbHxMJxikfQKNF-_pad-15" x="1740.44" y="844.77"/><use xlink:href="#wOR9NLbHxMJxikfQKNF-_pad-15" x="1484.54" y="844.77"/><use xlink:href="#wOR9NLbHxMJxikfQKNF-_pad-15" x="1208.94" y="844.77"/><use xlink:href="#wOR9NLbHxMJxikfQKNF-_pad-15" x="953.04" y="844.77"/><use xlink:href="#wOR9NLbHxMJxikfQKNF-_pad-15" x="677.45" y="844.77"/><use xlink:href="#wOR9NLbHxMJxikfQKNF-_pad-15" x="421.54" y="844.77"/><path d="M 378.63 494.77 378.63 447.53 M 478.63 447.53 478.63 494.77 M 578.63 494.77 578.63 447.53 M 678.63 447.53 678.63 494.77 M 778.63 494.77 778.63 447.53 M 878.63 447.53 878.63 494.77 M 978.63 494.77 978.63 447.53 M 1078.63 447.53 1078.63 494.77 M 1178.63 494.77 1178.63 447.53 M 1278.63 447.53 1278.63 494.77 M 1378.63 494.77 1378.63 447.53 M 1478.63 447.53 1478.63 494.77 M 1578.63 494.77 1578.63 447.53 M 1678.63 447.53 1678.63 494.77 M 1778.63 494.77 1778.63 447.53 M 1878.63 447.53 1878.63 494.77 M 1978.63 494.77 1978.63 447.53 M 1986.5 744.77 1939.26 744.77 M 1939.26 844.77 1986.5 844.77 M 1986.5 944.77 1939.26 944.77 M 1978.63 1194.77 1978.63 1242.02 M 1878.63 1242.02 1878.63 1194.77 M 1778.63 1194.77 1778.63 1242.02 M 1678.63 1242.02 1678.63 1194.77 M 1578.63 1194.77 1578.63 1242.02 M 1478.63 1242.02 1478.63 1194.77 M 1378.63 1194.77 1378.63 1242.02 M 1278.63 1242.02 1278.63 1194.77 M 1178.63 1194.77 1178.63 1242.02 M 1078.63 1242.02 1078.63 1194.77 M 978.63 1194.77 978.63 1242.02 M 878.63 1242.02 878.63 1194.77 M 778.63 1194.77 778.63 1242.02 M 678.63 1242.02 678.63 1194.77 M 578.63 1194.77 578.63 1242.02 M 478.63 1242.02 478.63 1194.77 M 378.63 1194.77 378.63 1242.02 M 278.63 1242.02 278.63 1194.77 M 178.63 1194.77 178.63 1242.02 M 78.63 1242.02 78.63 1194.77 M 78.63 494.77 78.63 447.53 M 178.63 447.53 178.63 494.77 M 278.63 494.77 278.63 447.53" fill="none" stroke-width="52.24"/><use xlink:href="#wOR9NLbHxMJxikfQKNF-_pad-17" x="2248.71" y="494.77"/><use xlink:href="#wOR9NLbHxMJxikfQKNF-_pad-17" x="2248.71" y="394.77"/><use xlink:href="#wOR9NLbHxMJxikfQKNF-_pad-17" x="2248.71" y="594.77"/><use xlink:href="#wOR9NLbHxMJxikfQKNF-_pad-17" x="2248.71" y="694.77"/><use xlink:href="#wOR9NLbHxMJxikfQKNF-_pad-17" x="2248.71" y="794.77"/><use xlink:href="#wOR9NLbHxMJxikfQKNF-_pad-17" x="2248.71" y="894.77"/><use xlink:href="#wOR9NLbHxMJxikfQKNF-_pad-17" x="2248.71" y="994.77"/><use xlink:href="#wOR9NLbHxMJxikfQKNF-_pad-17" x="2248.71" y="1094.77"/><use xlink:href="#wOR9NLbHxMJxikfQKNF-_pad-17" x="2248.71" y="1194.77"/><use xlink:href="#wOR9NLbHxMJxikfQKNF-_pad-17" x="2248.71" y="1294.77"/><use xlink:href="#wOR9NLbHxMJxikfQKNF-_pad-18" x="2468" y="1259.93"/><use xlink:href="#wOR9NLbHxMJxikfQKNF-_pad-18" x="2518" y="1305.4"/><use xlink:href="#wOR9NLbHxMJxikfQKNF-_pad-18" x="2568" y="1345.56"/><use xlink:href="#wOR9NLbHxMJxikfQKNF-_pad-18" x="2618" y="1385.72"/><use xlink:href="#wOR9NLbHxMJxikfQKNF-_pad-18" x="2834.93" y="1502.06"/><use xlink:href="#wOR9NLbHxMJxikfQKNF-_pad-18" x="2934.93" y="1203.63"/><use xlink:href="#wOR9NLbHxMJxikfQKNF-_pad-18" x="3154.61" y="1155.2"/><use xlink:href="#wOR9NLbHxMJxikfQKNF-_pad-18" x="2618" y="1019.77"/><use xlink:href="#wOR9NLbHxMJxikfQKNF-_pad-18" x="2568" y="869.77"/><use xlink:href="#wOR9NLbHxMJxikfQKNF-_pad-18" x="2734.93" y="874.1"/><use xlink:href="#wOR9NLbHxMJxikfQKNF-_pad-18" x="2625.09" y="724.89"/><use xlink:href="#wOR9NLbHxMJxikfQKNF-_pad-18" x="2468" y="719.77"/><use xlink:href="#wOR9NLbHxMJxikfQKNF-_pad-18" x="2468" y="594.77"/><use xlink:href="#wOR9NLbHxMJxikfQKNF-_pad-18" x="2834.93" y="584.73"/><use xlink:href="#wOR9NLbHxMJxikfQKNF-_pad-18" x="2418" y="396.94"/><use xlink:href="#wOR9NLbHxMJxikfQKNF-_pad-18" x="2368" y="316.62"/><use xlink:href="#wOR9NLbHxMJxikfQKNF-_pad-18" x="2493.98" y="265.05"/><use xlink:href="#wOR9NLbHxMJxikfQKNF-_pad-18" x="2554.61" y="214.26"/><use xlink:href="#wOR9NLbHxMJxikfQKNF-_pad-18" x="1568" y="569.77"/><use xlink:href="#wOR9NLbHxMJxikfQKNF-_pad-18" x="1718" y="619.77"/><use xlink:href="#wOR9NLbHxMJxikfQKNF-_pad-18" x="1968" y="619.77"/><use xlink:href="#wOR9NLbHxMJxikfQKNF-_pad-18" x="1418" y="769.77"/><use xlink:href="#wOR9NLbHxMJxikfQKNF-_pad-18" x="1668" y="919.77"/><use xlink:href="#wOR9NLbHxMJxikfQKNF-_pad-18" x="1618" y="969.77"/><use xlink:href="#wOR9NLbHxMJxikfQKNF-_pad-18" x="918" y="719.77"/></g></svg>