<svg version="1.1" xmlns="http://www.w3.org/2000/svg" xmlns:xlink="http://www.w3.org/1999/xlink" stroke-linecap="round" stroke-linejoin="round" stroke-width="0" fill-rule="evenodd" width="4.3007100000000005in" height="1.62354in" viewBox="33 33 4300.71 1623.54" id="nP9Py4t5eYnBILcgVI5L"><defs><polygon points="32.99993,13.66902 13.66902,32.99993 -13.66902,32.99993 -32.99993,13.66902 -32.99993,-13.66902 -13.66902,-32.99993 13.66902,-32.99993 32.99993,-13.66902" id="nP9Py4t5eYnBILcgVI5L_pad-10"/><rect x="-31.495" y="-25.59" width="62.99" height="51.18" id="nP9Py4t5eYnBILcgVI5L_pad-11"/><rect x="-25.59" y="-31.495" width="51.18" height="62.99" id="nP9Py4t5eYnBILcgVI5L_pad-12"/><polygon points="49.9999,20.71064 20.71064,49.9999 -20.71064,49.9999 -49.9999,20.71064 -49.9999,-20.71064 -20.71064,-49.9999 20.71064,-49.9999 49.9999,-20.71064" id="nP9Py4t5eYnBILcgVI5L_pad-13"/><circle cx="0" cy="0" r="50" id="nP9Py4t5eYnBILcgVI5L_pad-14"/><polygon points="34.99993,14.49745 14.49745,34.99993 -14.49745,34.99993 -34.99993,14.49745 -34.99993,-14.49745 -14.49745,-34.99993 14.49745,-34.99993 34.99993,-14.49745" id="nP9Py4t5eYnBILcgVI5L_pad-16"/><rect x="-17.715" y="-17.715" width="35.43" height="35.43" id="nP9Py4t5eYnBILcgVI5L_pad-19"/></defs><g transform="translate(0,1689.54) scale(1,-1)" fill="currentColor" stroke="currentColor"><use xlink:href="#nP9Py4t5eYnBILcgVI5L_pad-10" x="765.24" y="1061.31"/><use xlink:href="#nP9Py4t5eYnBILcgVI5L_pad-10" x="865.24" y="1061.31"/><use xlink:href="#nP9Py4t5eYnBILcgVI5L_pad-10" x="1296.74" y="1061.31"/><use xlink:href="#nP9Py4t5eYnBILcgVI5L_pad-10" x="1396.74" y="1061.31"/><use xlink:href="#nP9Py4t5eYnBILcgVI5L_pad-10" x="3096.35" y="737.29"/><use xlink:href="#nP9Py4t5eYnBILcgVI5L_pad-10" x="3196.35" y="737.29"/><use xlink:href="#nP9Py4t5eYnBILcgVI5L_pad-10" x="3296.35" y="737.29"/><use xlink:href="#nP9Py4t5eYnBILcgVI5L_pad-10" x="3396.35" y="737.29"/><use xlink:href="#nP9Py4t5eYnBILcgVI5L_pad-10" x="3396.35" y="637.29"/><use xlink:href="#nP9Py4t5eYnBILcgVI5L_pad-10" x="3296.35" y="637.29"/><use xlink:href="#nP9Py4t5eYnBILcgVI5L_pad-10" x="3196.35" y="637.29"/><use xlink:href="#nP9Py4t5eYnBILcgVI5L_pad-10" x="3096.35" y="637.29"/><use xlink:href="#nP9Py4t5eYnBILcgVI5L_pad-11" x="1818" y="632.37"/><use xlink:href="#nP9Py4t5eYnBILcgVI5L_pad-11" x="1818" y="707.17"/><use xlink:href="#nP9Py4t5eYnBILcgVI5L_pad-11" x="1618" y="707.17"/><use xlink:href="#nP9Py4t5eYnBILcgVI5L_pad-11" x="1618" y="632.37"/><use xlink:href="#nP9Py4t5eYnBILcgVI5L_pad-12" x="3657.37" y="1374.1"/><use xlink:href="#nP9Py4t5eYnBILcgVI5L_pad-12" x="3732.17" y="1374.1"/><use xlink:href="#nP9Py4t5eYnBILcgVI5L_pad-13" x="3915.64" y="1304.02"/><use xlink:href="#nP9Py4t5eYnBILcgVI5L_pad-13" x="3915.64" y="1004.02"/><use xlink:href="#nP9Py4t5eYnBILcgVI5L_pad-14" x="1740.44" y="844.77"/><use xlink:href="#nP9Py4t5eYnBILcgVI5L_pad-14" x="1484.54" y="844.77"/><use xlink:href="#nP9Py4t5eYnBILcgVI5L_pad-14" x="1208.94" y="844.77"/><use xlink:href="#nP9Py4t5eYnBILcgVI5L_pad-14" x="953.04" y="844.77"/><use xlink:href="#nP9Py4t5eYnBILcgVI5L_pad-14" x="677.45" y="844.77"/><use xlink:href="#nP9Py4t5eYnBILcgVI5L_pad-14" x="421.54" y="844.77"/><path d="M 378.63 494.77 378.63 447.53 M 478.63 447.53 478.63 494.77 M 578.63 494.77 578.63 447.53 M 678.63 447.53 678.63 494.77 M 778.63 494.77 778.63 447.53 M 878.63 447.53 878.63 494.77 M 978.63 494.77 978.63 447.53 M 1078.63 447.53 1078.63 494.77 M 1178.63 494.77 1178.63 447.53 M 1278.63 447.53 1278.63 494.77 M 1378.63 494.77 1378.63 447.53 M 1478.63 447.53 1478.63 494.77 M 1578.63 494.77 1578.63 447.53 M 1678.63 447.53 1678.63 494.77 M 1778.63 494.77 1778.63 447.53 M 1878.63 447.53 1878.63 494.77 M 1978.63 494.77 1978.63 447.53 M 1986.5 744.77 1939.26 744.77 M 1939.26 844.77 1986.5 844.77 M 1986.5 944.77 1939.26 944.77 M 1978.63 1194.77 1978.63 1242.02 M 1878.63 1242.02 1878.63 1194.77 M 1778.63 1194.77 1778.63 1242.02 M 1678.63 1242.02 1678.63 1194.77 M 1578.63 1194.77 1578.63 1242.02 M 1478.63 1242.02 1478.63 1194.77 M 1378.63 1194.77 1378.63 1242.02 M 1278.63 1242.02 1278.63 1194.77 M 1178.63 1194.77 1178.63 1242.02 M 1078.63 1242.02 1078.63 1194.77 M 978.63 1194.77 978.63 1242.02 M 878.63 1242.02 878.63 1194.77 M 778.63 1194.77 778.63 1242.02 M 678.63 1242.02 678.63 1194.77 M 578.63 1194.77 578.63 1242.02 M 478.63 1242.02 478.63 1194.77 M 378.63 1194.77 378.63 1242.02 M 278.63 1242.02 278.63 1194.77 M 178.63 1194.77 178.63 1242.02 M 78.63 1242.02 78.63 1194.77 M 78.63 494.77 78.63 447.53 M 178.63 447.53 178.63 494.77 M 278.63 494.77 278.63 447.53" fill="none" stroke-width="47.24"/><use xlink:href="#nP9Py4t5eYnBILcgVI5L_pad-16" x="2248.71" y="494.77"/><use xlink:href="#nP9Py4t5eYnBILcgVI5L_pad-16" x="2248.71" y="394.77"/><use xlink:href="#nP9Py4t5eYnBILcgVI5L_pad-16" x="2248.71" y="594.77"/><use xlink:href="#nP9Py4t5eYnBILcgVI5L_pad-16" x="2248.71" y="694.77"/><use xlink:href="#nP9Py4t5eYnBILcgVI5L_pad-16" x="2248.71" y="794.77"/><use xlink:href="#nP9Py4t5eYnBILcgVI5L_pad-16" x="2248.71" y="894.77"/><use xlink:href="#nP9Py4t5eYnBILcgVI5L_pad-16" x="2248.71" y="994.77"/><use xlink:href="#nP9Py4t5eYnBILcgVI5L_pad-16" x="2248.71" y="1094.77"/><use xlink:href="#nP9Py4t5eYnBILcgVI5L_pad-16" x="2248.71" y="1194.77"/><use xlink:href="#nP9Py4t5eYnBILcgVI5L_pad-16" x="2248.71" y="1294.77"/><path d="M 41 1648.54 41 41 4325.71 41 4325.71 1648.54 41 1648.54 M 41 1648.48 4325.71 1648.48 M 4325.71 1632.5 4274.82 1632.5 M 4286.27 1627.76 4261.9 1637.85 4235.52 1637.85 4211.15 1627.76 4192.5 1609.1 4182.4 1584.73 4182.4 1558.35 4192.5 1533.98 4211.15 1515.33 4235.52 1505.24 4261.9 1505.24 4286.27 1515.33 4304.92 1533.98 4315.02 1558.35 4315.02 1584.73 4304.92 1609.1 4286.27 1627.76 M 4297.51 1616.51 4325.71 1616.51 M 4325.71 1600.53 4308.47 1600.53 M 4315.02 1584.54 4325.71 1584.54 M 4325.71 1568.56 4315.02 1568.56 M 4312.62 1552.57 4325.71 1552.57 M 4325.71 1536.59 4306 1536.59 M 4291.54 1520.6 4325.71 1520.6 M 4325.71 1504.62 3490.2 1504.62 M 3524.1 1491.7 3327.47 1566.61 3324.36 1569.72 3319.29 1569.72 3314.56 1571.53 3310.54 1569.72 256.55 1569.72 249.92 1571.14 247.72 1569.72 245.11 1569.72 240.31 1564.93 234.62 1561.24 234.07 1558.69 232.22 1556.84 232.22 1550.05 174.31 1279.64 171.15 1279.64 157.32 1273.91 146.74 1263.33 141.01 1249.5 141.01 1187.29 146.74 1173.46 157.32 1162.88 171.15 1157.15 186.11 1157.15 199.94 1162.88 210.52 1173.46 216.25 1187.29 216.25 1249.5 214.01 1254.91 272.01 1525.72 497.97 1525.72 497.97 1524.84 394.65 1369.49 390.74 1366.89 389.8 1362.21 387.15 1358.23 388.08 1353.63 373.23 1279.64 371.15 1279.64 357.32 1273.91 346.74 1263.33 341.01 1249.5 341.01 1187.29 346.74 1173.46 357.32 1162.88 371.15 1157.15 386.11 1157.15 399.94 1162.88 410.52 1173.46 416.25 1187.29 416.25 1249.5 413.42 1256.32 431.24 1345.05 531.76 1496.2 557.02 1496.2 557.02 1494.64 493.99 1387.04 490.48 1384.61 489.56 1379.49 486.93 1375 488.01 1370.87 471.57 1279.64 471.15 1279.64 457.32 1273.91 446.74 1263.33 441.01 1249.5 441.01 1187.29 446.74 1173.46 457.32 1162.88 471.15 1157.15 486.11 1157.15 499.94 1162.88 510.52 1173.46 516.25 1187.29 516.25 1249.5 512.48 1258.59 531.48 1363.99 591.63 1466.67 625.92 1466.67 625.92 1465.56 594.19 1415.79 590.18 1412.86 589.49 1408.41 587.07 1404.62 588.15 1399.76 569.41 1278.92 557.32 1273.91 546.74 1263.33 541.01 1249.5 541.01 1187.29 546.74 1173.46 557.32 1162.88 571.15 1157.15 586.11 1157.15 599.94 1162.88 610.52 1173.46 616.25 1187.29 616.25 1249.5 611.25 1261.58 631.55 1392.55 659.99 1437.14 940.85 1437.14 883.5 1363.69 878.5 1359.87 878.09 1356.75 876.15 1354.28 876.92 1348.04 867.58 1278.16 857.32 1273.91 846.74 1263.33 841.01 1249.5 841.01 1187.29 846.74 1173.46 857.32 1162.88 871.15 1157.15 886.11 1157.15 899.94 1162.88 910.52 1173.46 916.25 1187.29 916.25 1249.5 910.52 1263.33 910.05 1263.8 920.12 1339.09 973.6 1407.6 1027.01 1407.52 987.94 1353.16 983.54 1350.07 982.83 1346.05 980.45 1342.73 981.32 1337.42 971.18 1279.64 971.15 1279.64 957.32 1273.91 946.74 1263.33 941.01 1249.5 941.01 1187.29 946.74 1173.46 957.32 1162.88 971.15 1157.15 986.11 1157.15 999.94 1162.88 1010.52 1173.46 1016.25 1187.29 1016.25 1249.5 1012.26 1259.14 1024.43 1328.54 1061.18 1379.67 1420.8 1379.87 1385.33 1279.64 1371.15 1279.64 1357.32 1273.91 1346.74 1263.33 1341.01 1249.5 1341.01 1187.29 1346.74 1173.46 1357.32 1162.88 1371.15 1157.15 1386.11 1157.15 1399.94 1162.88 1410.52 1173.46 1416.25 1187.29 1416.25 1235.14 1458.55 1354.66 1496.78 1354.66 1496 1353.88 1496 1347.61 1478.16 1279.64 1471.15 1279.64 1457.32 1273.91 1446.74 1263.33 1441.01 1249.5 1441.01 1187.29 1446.74 1173.46 1457.32 1162.88 1471.15 1157.15 1486.11 1157.15 1499.94 1162.88 1510.52 1173.46 1516.25 1187.29 1516.25 1249.5 1515.94 1250.26 1534.97 1322.77 2201.76 1322.77 2195.71 1316.72 2195.71 1296.77 2246.71 1296.77 2246.71 1292.77 2195.71 1292.77 2195.71 1272.82 2226.58 1241.94 2199.71 1215.07 2199.71 1174.48 2228.41 1145.77 2269.01 1145.77 2285.11 1161.87 2740.69 1080.68 3313.71 955.28 3361.43 768.84 3349.35 756.76 3349.35 717.82 3376.88 690.29 3415.81 690.29 3422.69 697.16 3496.03 664.63 3498.19 283.41 3183.43 199.3 2998.25 198.53 2586.33 198.53 2586.33 237.78 2578.13 245.98 2531.1 245.98 2522.9 237.78 2522.9 231.72 2482.62 225.65 2469.06 225.8 2482.46 233.33 2517.5 233.33 2525.7 241.53 2525.7 288.56 2517.5 296.76 2494.32 296.76 2635.47 366.32 2701.77 394.73 3263.4 509.7 3266.78 508.67 3272 511.46 3277.8 512.64 3279.74 515.59 3282.86 517.25 3284.58 522.92 3287.84 527.85 3287.13 531.31 3305.05 590.29 3315.81 590.29 3343.35 617.82 3343.35 656.76 3315.81 684.29 3276.88 684.29 3249.35 656.76 3249.35 617.82 3263.22 603.95 3247.22 551.3 2697.21 438.71 2694.87 439.65 2688.56 436.94 2681.83 435.56 2680.44 433.46 2625.36 409.85 2624.72 410.07 2617.06 406.3 2609.23 402.94 2608.97 402.31 2458.71 328.27 2455.34 328.45 2450.83 324.38 2445.38 321.7 2444.29 318.51 2411.47 289 2395.82 289.21 2399.72 293.11 2399.72 340.14 2391.52 348.34 2350.94 348.34 2396.03 365.22 2441.52 365.22 2449.72 373.42 2449.72 420.45 2441.52 428.65 2394.48 428.65 2386.28 420.45 2386.28 408.55 2297.71 375.39 2297.71 415.07 2269.01 443.77 2228.41 443.77 2200.3 415.66 2017.75 411.46 1989.86 411.46 1999.94 415.63 2010.52 426.22 2016.25 440.04 2016.25 502.26 2010.52 516.08 1999.94 526.67 1986.11 532.39 1971.15 532.39 1957.32 526.67 1946.74 516.08 1941.01 502.26 1941.01 440.04 1946.74 426.22 1957.32 415.63 1967.4 411.46 1889.86 411.46 1899.94 415.63 1910.52 426.22 1916.25 440.04 1916.25 502.26 1910.52 516.08 1899.94 526.67 1886.11 532.39 1871.15 532.39 1857.32 526.67 1846.74 516.08 1841.01 502.26 1841.01 440.04 1846.74 426.22 1857.32 415.63 1867.4 411.46 1799.52 411.46 1800.44 411.93 1805.74 415.78 1810.38 420.41 1814.23 425.71 1817.2 431.55 1819.23 437.78 1820.25 444.25 1820.25 494.77 1778.63 494.77 1778.63 494.77 1737.01 494.77 1737.01 444.25 1738.03 437.78 1740.06 431.55 1743.03 425.71 1746.88 420.41 1751.51 415.78 1756.82 411.93 1757.74 411.46 1689.86 411.46 1699.94 415.63 1710.52 426.22 1716.25 440.04 1716.25 502.26 1710.52 516.08 1699.94 526.67 1686.11 532.39 1671.15 532.39 1657.32 526.67 1646.74 516.08 1641.01 502.26 1641.01 440.04 1646.74 426.22 1657.32 415.63 1667.4 411.46 1589.86 411.46 1599.94 415.63 1610.52 426.22 1616.25 440.04 1616.25 502.26 1610.52 516.08 1599.94 526.67 1586.11 532.39 1571.15 532.39 1557.32 526.67 1546.74 516.08 1541.01 502.26 1541.01 440.04 1546.74 426.22 1557.32 415.63 1567.4 411.46 1524.84 411.46 1516.25 442.08 1516.25 502.26 1510.52 516.08 1499.94 526.67 1486.11 532.39 1471.15 532.39 1457.32 526.67 1446.74 516.08 1441.01 502.26 1441.01 440.04 1446.74 426.22 1457.32 415.63 1471.15 409.91 1479.58 409.91 1486.16 386.43 1486.16 380.34 1488.53 377.97 1489.43 374.74 1494.74 371.76 1498.51 368 1434.96 368.74 1416.08 439.63 1416.25 440.04 1416.25 502.26 1410.52 516.08 1399.94 526.67 1386.11 532.39 1371.15 532.39 1357.32 526.67 1346.74 516.08 1341.01 502.26 1341.01 440.04 1346.74 426.22 1357.32 415.63 1371.15 409.91 1378.46 409.91 1395.97 344.18 1395.89 338.08 1398 335.93 1209.31 337.65 1204.75 420.44 1210.52 426.22 1216.25 440.04 1216.25 502.26 1210.52 516.08 1199.94 526.67 1186.11 532.39 1171.15 532.39 1157.32 526.67 1146.74 516.08 1141.01 502.26 1141.01 440.04 1146.74 426.22 1157.32 415.63 1161.03 414.09 1166.47 315.33 1166.39 306.92 1166.96 306.34 1167.01 305.53 1167.65 304.95 1046.06 306.51 1014.99 437.01 1016.25 440.04 1016.25 502.26 1010.52 516.08 999.94 526.67 986.11 532.39 971.15 532.39 957.32 526.67 946.74 516.08 941.01 502.26 941.01 440.04 946.74 426.22 957.32 415.63 971.15 409.91 976.22 409.91 1006.6 282.29 1006.51 275.9 1007.13 275.28 937.46 276.18 911.85 429.42 916.25 440.04 916.25 502.26 910.52 516.08 899.94 526.67 886.11 532.39 871.15 532.39 857.32 526.67 846.74 516.08 841.01 502.26 841.01 440.04 846.74 426.22 857.32 415.63 870.46 410.19 896.76 252.73 896.67 245.59 898.22 244 898.29 243.61 764.69 245.12 715.61 438.5 716.25 440.04 716.25 502.26 710.52 516.08 699.94 526.67 686.11 532.39 671.15 532.39 657.32 526.67 646.74 516.08 641.01 502.26 641.01 440.04 646.74 426.22 657.32 415.63 671.15 409.91 677.47 409.91 725.5 220.69 725.43 214.45 727.66 212.17 728.45 209.07 733.81 205.88 738.17 201.42 741.36 201.38 744.11 199.75 750.15 201.28 993.33 198.53 587.77 198.53 516.25 456.4 516.25 502.26 510.52 516.08 499.94 526.67 486.11 532.39 471.15 532.39 457.32 526.67 446.74 516.08 441.01 502.26 441.01 440.04 446.74 426.22 457.32 415.63 471.15 409.91 475.19 409.91 542 168.99 542 167.36 543.37 164.05 544.33 160.6 545.33 159.31 545.96 157.8 548.49 155.27 550.7 152.44 552.12 151.64 553.27 150.49 556.58 149.12 559.7 147.35 561.32 147.15 562.83 146.53 566.41 146.53 569.96 146.09 571.54 146.53 2993.2 146.53 2993.25 146.51 2998.38 146.53 3003.49 146.53 3003.54 146.55 3185.24 147.31 3188.61 146.86 3190.36 147.33 3192.18 147.34 3195.32 148.65 3527.79 237.49 3529.62 237.5 3532.74 238.82 3536.01 239.69 3537.46 240.8 3539.15 241.51 3541.53 243.92 3544.22 245.98 3545.14 247.57 3546.42 248.87 3547.7 252 3549.4 254.93 3549.64 256.75 3550.33 258.45 3550.31 261.83 3550.75 265.19 3550.28 266.96 3547.94 681.33 3548.06 686.11 3547.91 686.49 3547.91 686.9 3546.05 691.3 3544.34 695.76 3544.05 696.06 3543.9 696.43 3540.5 699.79 3537.21 703.25 3536.83 703.42 3536.54 703.71 3532.12 705.51 3443.35 744.89 3443.35 756.76 3415.81 784.29 3411.15 784.29 3360.35 982.78 3359.61 986.93 3359.08 987.76 3358.83 988.71 3356.3 992.08 3354.03 995.64 3353.22 996.2 3352.63 996.99 3349 999.14 3345.54 1001.55 3344.58 1001.76 3343.73 1002.26 3339.56 1002.85 2755.85 1130.59 2755.41 1130.88 2750.82 1131.7 2746.26 1132.69 2745.74 1132.6 2297.71 1212.45 2297.71 1215.07 2270.83 1241.94 2301.71 1272.82 2301.71 1292.77 2250.71 1292.77 2250.71 1296.77 2301.71 1296.77 2301.71 1316.72 2295.66 1322.77 2359.92 1322.77 2436.28 1257.99 2436.28 1236.41 2444.48 1228.21 2491.52 1228.21 2499.72 1236.41 2499.72 1273.69 2541.52 1273.69 2549.72 1281.89 2549.72 1313.84 2591.52 1313.84 2599.72 1322.04 2599.72 1354 2641.52 1354 2649.72 1362.2 2649.72 1397.7 2903.21 1200.43 2903.21 1180.11 2911.41 1171.91 2958.44 1171.91 2966.65 1180.11 2966.65 1227.15 2958.44 1235.35 2929.99 1235.35 2647.42 1455.24 3122.9 1149.45 3122.9 1131.69 3131.1 1123.49 3178.13 1123.49 3186.33 1131.69 3186.33 1178.72 3178.13 1186.92 3145.97 1186.92 2665.08 1496.2 2693.9 1496.2 2803.21 1483.57 2803.21 1478.54 2811.41 1470.34 2858.44 1470.34 2866.65 1478.54 2866.65 1525.57 2866.49 1525.72 3311.2 1525.72 3511.55 1449.4 3617.78 1374.98 3617.78 1336.81 3625.98 1328.61 3688.76 1328.61 3694.77 1334.62 3700.78 1328.61 3763.56 1328.61 3771.67 1336.72 3789.78 1330.28 3851.64 1305.74 3851.64 1277.51 3889.13 1240.02 3942.15 1240.02 3979.64 1277.51 3979.64 1330.53 3942.15 1368.02 3889.13 1368.02 3867.78 1346.67 3813.68 1368.13 3813.48 1368.55 3805.27 1371.47 3797.17 1374.68 3796.74 1374.5 3771.76 1383.38 3771.76 1411.4 3763.56 1419.6 3700.78 1419.6 3694.77 1413.59 3688.76 1419.6 3630.77 1419.6 3539.53 1483.52 3538.28 1486.3 3532.32 1488.57 3527.1 1492.23 3524.1 1491.7 M 3532.24 1488.63 4325.71 1488.63 M 4325.71 1472.65 4289.61 1472.65 M 4286.27 1475.98 4261.9 1486.08 4235.52 1486.08 4211.15 1475.98 4192.5 1457.33 4182.4 1432.96 4182.4 1406.58 4192.5 1382.21 4211.15 1363.56 4235.52 1353.46 4261.9 1353.46 4286.27 1363.56 4304.92 1382.21 4315.02 1406.58 4315.02 1432.96 4304.92 1457.33 4286.27 1475.98 M 4305.2 1456.66 4325.71 1456.66 M 4325.71 1440.68 4311.82 1440.68 M 4315.02 1424.69 4325.71 1424.69 M 4325.71 1408.7 4315.02 1408.7 M 4309.27 1392.72 4325.71 1392.72 M 4325.71 1376.73 4299.44 1376.73 M 4279.49 1360.75 4325.71 1360.75 M 4325.71 1344.76 3965.41 1344.76 M 3979.64 1328.78 4325.71 1328.78 M 4325.71 1312.79 3979.64 1312.79 M 3979.64 1296.81 4325.71 1296.81 M 4325.71 1280.82 3979.64 1280.82 M 3966.96 1264.84 4325.71 1264.84 M 4325.71 1248.85 3950.98 1248.85 M 3880.3 1248.85 3049.67 1248.85 M 3074.53 1232.87 4325.71 1232.87 M 4325.71 1216.88 3099.38 1216.88 M 3124.24 1200.9 4325.71 1200.9 M 4325.71 1184.91 3180.14 1184.91 M 3186.33 1168.93 4325.71 1168.93 M 4325.71 1152.94 3186.33 1152.94 M 3186.33 1136.96 4325.71 1136.96 M 4325.71 1120.97 2799.82 1120.97 M 2872.86 1104.99 4325.71 1104.99 M 4325.71 1089 2945.91 1089 M 3018.95 1073.02 4325.71 1073.02 M 4325.71 1057.03 3958.8 1057.03 M 3943.8 1072.02 3917.64 1072.02 3917.64 1006.02 3983.64 1006.02 3983.64 1032.19 3943.8 1072.02 M 3917.64 1057.03 3913.64 1057.03 M 3913.64 1072.02 3887.47 1072.02 3847.64 1032.19 3847.64 1006.02 3913.64 1006.02 3913.64 1002.02 3917.64 1002.02 3917.64 936.02 3943.8 936.02 3983.64 975.86 3983.64 1002.02 3917.64 1002.02 3917.64 1006.02 3913.64 1006.02 3913.64 1072.02 M 3872.48 1057.03 3091.99 1057.03 M 3165.04 1041.05 3856.49 1041.05 M 3847.64 1025.06 3238.08 1025.06 M 3311.12 1009.08 3847.64 1009.08 M 3847.64 1002.02 3847.64 975.86 3887.47 936.02 3913.64 936.02 3913.64 1002.02 3847.64 1002.02 M 3847.64 993.09 3355.66 993.09 M 3361.8 977.11 3847.64 977.11 M 3862.37 961.12 3365.9 961.12 M 3369.99 945.14 3878.36 945.14 M 3913.64 945.14 3917.64 945.14 M 3917.64 961.12 3913.64 961.12 M 3913.64 977.11 3917.64 977.11 M 3917.64 993.09 3913.64 993.09 M 3913.64 1009.08 3917.64 1009.08 M 3917.64 1025.06 3913.64 1025.06 M 3913.64 1041.05 3917.64 1041.05 M 3974.78 1041.05 4325.71 1041.05 M 4325.71 1025.06 3983.64 1025.06 M 3983.64 1009.08 4325.71 1009.08 M 4325.71 993.09 3983.64 993.09 M 3983.64 977.11 4325.71 977.11 M 4325.71 961.12 3968.9 961.12 M 3952.92 945.14 4325.71 945.14 M 4325.71 929.15 3374.08 929.15 M 3378.17 913.17 4325.71 913.17 M 4325.71 897.18 3382.26 897.18 M 3386.35 881.2 4325.71 881.2 M 4325.71 865.21 3390.44 865.21 M 3394.54 849.23 4325.71 849.23 M 4325.71 833.24 3398.63 833.24 M 3402.72 817.26 4325.71 817.26 M 4325.71 801.27 3406.81 801.27 M 3410.9 785.29 4325.71 785.29 M 4325.71 769.3 3430.81 769.3 M 3443.35 753.32 4325.71 753.32 M 4325.71 737.33 3460.38 737.33 M 3496.42 721.34 4325.71 721.34 M 4325.71 705.36 3532.49 705.36 M 3546.87 689.37 4325.71 689.37 M 4325.71 673.39 3547.98 673.39 M 3548.07 657.4 4325.71 657.4 M 4325.71 641.42 3548.16 641.42 M 3548.25 625.43 4325.71 625.43 M 4325.71 609.45 3548.34 609.45 M 3548.44 593.46 4325.71 593.46 M 4325.71 577.48 3548.53 577.48 M 3548.62 561.49 4325.71 561.49 M 4325.71 545.51 3548.71 545.51 M 3548.8 529.52 4325.71 529.52 M 4325.71 513.54 3548.89 513.54 M 3548.98 497.55 4325.71 497.55 M 4325.71 481.57 3549.07 481.57 M 3549.16 465.58 4325.71 465.58 M 4325.71 449.6 3549.25 449.6 M 3549.34 433.61 4325.71 433.61 M 4325.71 417.63 3549.43 417.63 M 3549.52 401.64 4325.71 401.64 M 4325.71 385.66 3549.61 385.66 M 3549.7 369.67 4325.71 369.67 M 4325.71 353.69 3549.79 353.69 M 3549.88 337.7 4325.71 337.7 M 4325.71 321.72 4290.54 321.72 M 4286.27 325.98 4261.9 336.08 4235.52 336.08 4211.15 325.98 4192.5 307.33 4182.4 282.96 4182.4 256.58 4192.5 232.21 4211.15 213.56 4235.52 203.46 4261.9 203.46 4286.27 213.56 4304.92 232.21 4315.02 256.58 4315.02 282.96 4304.92 307.33 4286.27 325.98 M 4305.58 305.73 4325.71 305.73 M 4325.71 289.75 4312.2 289.75 M 4315.02 273.76 4325.71 273.76 M 4325.71 257.78 4315.02 257.78 M 4308.89 241.79 4325.71 241.79 M 4325.71 225.81 4298.52 225.81 M 4277.24 209.82 4325.71 209.82 M 4325.71 193.84 3364.41 193.84 M 3424.23 209.82 4220.17 209.82 M 4198.9 225.81 3484.05 225.81 M 3539.43 241.79 4188.53 241.79 M 4182.4 257.78 3550.05 257.78 M 3550.24 273.76 4182.4 273.76 M 4185.21 289.75 3550.15 289.75 M 3550.06 305.73 4191.83 305.73 M 4206.88 321.72 3549.97 321.72 M 3497.97 321.72 2544.96 321.72 M 2577.4 337.7 3497.88 337.7 M 3497.79 353.69 2609.84 353.69 M 2643.3 369.67 3497.7 369.67 M 3497.61 385.66 2680.6 385.66 M 2695.17 415.83 2626.27 386.31 2463.28 305.99 2419.79 266.9 1028.63 284.73 978.63 494.77 M 1016.25 497.55 1041.01 497.55 M 1041.01 502.26 1041.01 440.04 1046.74 426.22 1057.32 415.63 1071.15 409.91 1086.11 409.91 1099.94 415.63 1110.52 426.22 1116.25 440.04 1116.25 502.26 1110.52 516.08 1099.94 526.67 1086.11 532.39 1071.15 532.39 1057.32 526.67 1046.74 516.08 1041.01 502.26 M 1045.68 513.54 1011.58 513.54 M 993.04 529.52 1064.22 529.52 M 1093.04 529.52 1164.22 529.52 M 1145.68 513.54 1111.58 513.54 M 1116.25 497.55 1141.01 497.55 M 1141.01 481.57 1116.25 481.57 M 1116.25 465.58 1141.01 465.58 M 1141.01 449.6 1116.25 449.6 M 1113.59 433.61 1143.67 433.61 M 1155.32 417.63 1101.94 417.63 M 1055.32 417.63 1019.61 417.63 M 1015.8 433.61 1043.67 433.61 M 1041.01 449.6 1016.25 449.6 M 1016.25 465.58 1041.01 465.58 M 1041.01 481.57 1016.25 481.57 M 941.01 481.57 916.25 481.57 M 916.25 497.55 941.01 497.55 M 945.68 513.54 911.58 513.54 M 893.04 529.52 964.22 529.52 M 878.63 494.77 918.79 254.42 2440.05 234.73 2493.98 265.05 M 2525.7 257.78 3402.27 257.78 M 3342.45 241.79 2582.31 241.79 M 2586.33 225.81 3282.63 225.81 M 3222.8 209.82 2586.33 209.82 M 2554.61 214.26 2484.14 203.63 747.53 223.31 678.63 494.77 M 716.25 497.55 737.01 497.55 M 737.01 498.05 737.01 494.77 737.01 444.25 738.03 437.78 740.06 431.55 743.03 425.71 746.88 420.41 751.51 415.78 756.82 411.93 762.65 408.95 768.88 406.93 775.35 405.91 778.63 405.91 781.91 405.91 788.38 406.93 794.61 408.95 800.44 411.93 805.74 415.78 810.38 420.41 814.23 425.71 817.2 431.55 819.23 437.78 820.25 444.25 820.25 494.77 778.63 494.77 778.63 405.91 778.63 494.77 778.63 494.77 778.63 494.77 737.01 494.77 778.63 494.77 778.63 494.77 820.25 494.77 820.25 498.05 819.23 504.52 817.2 510.75 814.23 516.59 810.38 521.89 805.74 526.52 800.44 530.37 794.61 533.34 788.38 535.37 781.91 536.39 778.63 536.39 775.35 536.39 768.88 535.37 762.65 533.34 756.82 530.37 751.51 526.52 746.88 521.89 743.03 516.59 740.06 510.75 738.03 504.52 737.01 498.05 M 741.48 513.54 711.58 513.54 M 693.04 529.52 755.65 529.52 M 778.63 529.52 778.63 529.52 M 778.63 536.39 778.63 494.77 778.63 494.77 778.63 536.39 M 778.63 513.54 778.63 513.54 M 778.63 497.55 778.63 497.55 M 778.63 481.57 778.63 481.57 M 778.63 465.58 778.63 465.58 M 778.63 449.6 778.63 449.6 M 778.63 433.61 778.63 433.61 M 778.63 417.63 778.63 417.63 M 807.59 417.63 855.32 417.63 M 843.67 433.61 817.87 433.61 M 820.25 449.6 841.01 449.6 M 841.01 465.58 820.25 465.58 M 820.25 481.57 841.01 481.57 M 841.01 497.55 820.25 497.55 M 815.78 513.54 845.68 513.54 M 864.22 529.52 801.61 529.52 M 737.01 481.57 716.25 481.57 M 716.25 465.58 737.01 465.58 M 737.01 449.6 716.25 449.6 M 716.85 433.61 739.39 433.61 M 749.67 417.63 720.91 417.63 M 724.96 401.64 871.88 401.64 M 874.56 385.66 729.02 385.66 M 733.08 369.67 877.23 369.67 M 879.9 353.69 737.14 353.69 M 741.19 337.7 882.57 337.7 M 885.24 321.72 745.25 321.72 M 749.31 305.73 887.91 305.73 M 890.58 289.75 753.36 289.75 M 757.42 273.76 893.25 273.76 M 895.92 257.78 761.48 257.78 M 720.14 241.79 575.77 241.79 M 580.2 225.81 724.2 225.81 M 728.25 209.82 584.64 209.82 M 535.11 193.84 41 193.84 M 41 209.82 530.68 209.82 M 526.24 225.81 41 225.81 M 41 241.79 521.81 241.79 M 517.38 257.78 41 257.78 M 41 273.76 512.94 273.76 M 508.51 289.75 41 289.75 M 41 305.73 504.08 305.73 M 499.64 321.72 41 321.72 M 41 337.7 495.21 337.7 M 490.78 353.69 41 353.69 M 41 369.67 486.34 369.67 M 481.91 385.66 41 385.66 M 41 401.64 477.48 401.64 M 455.32 417.63 401.94 417.63 M 399.94 415.63 410.52 426.22 416.25 440.04 416.25 502.26 410.52 516.08 399.94 526.67 386.11 532.39 371.15 532.39 357.32 526.67 346.74 516.08 341.01 502.26 341.01 440.04 346.74 426.22 357.32 415.63 371.15 409.91 386.11 409.91 399.94 415.63 M 413.59 433.61 443.67 433.61 M 441.01 449.6 416.25 449.6 M 416.25 465.58 441.01 465.58 M 441.01 481.57 416.25 481.57 M 416.25 497.55 441.01 497.55 M 445.68 513.54 411.58 513.54 M 393.04 529.52 464.22 529.52 M 493.04 529.52 564.22 529.52 M 557.32 526.67 546.74 516.08 541.01 502.26 541.01 440.04 546.74 426.22 557.32 415.63 571.15 409.91 586.11 409.91 599.94 415.63 610.52 426.22 616.25 440.04 616.25 502.26 610.52 516.08 599.94 526.67 586.11 532.39 571.15 532.39 557.32 526.67 M 545.68 513.54 511.58 513.54 M 516.25 497.55 541.01 497.55 M 541.01 481.57 516.25 481.57 M 516.25 465.58 541.01 465.58 M 541.01 449.6 518.14 449.6 M 522.57 433.61 543.67 433.61 M 555.32 417.63 527.01 417.63 M 531.44 401.64 679.57 401.64 M 683.63 385.66 535.87 385.66 M 540.31 369.67 687.68 369.67 M 691.74 353.69 544.74 353.69 M 549.17 337.7 695.8 337.7 M 699.85 321.72 553.61 321.72 M 558.04 305.73 703.91 305.73 M 707.97 289.75 562.47 289.75 M 566.91 273.76 712.03 273.76 M 716.08 257.78 571.34 257.78 M 539.54 177.85 146.78 177.85 M 155.56 174.21 131.19 184.31 104.81 184.31 80.44 174.21 61.79 155.56 51.69 131.19 51.69 104.81 61.79 80.44 80.44 61.79 104.81 51.69 131.19 51.69 155.56 61.79 174.21 80.44 184.31 104.81 184.31 131.19 174.21 155.56 155.56 174.21 M 167.91 161.87 543.98 161.87 M 184.31 129.9 4182.4 129.9 M 4182.4 131.19 4182.4 104.81 4192.5 80.44 4211.15 61.79 4235.52 51.69 4261.9 51.69 4286.27 61.79 4304.92 80.44 4315.02 104.81 4315.02 131.19 4304.92 155.56 4286.27 174.21 4261.9 184.31 4235.52 184.31 4211.15 174.21 4192.5 155.56 4182.4 131.19 M 4188.49 145.88 178.22 145.88 M 184.31 113.91 4182.4 113.91 M 4185.25 97.93 181.45 97.93 M 174.83 81.94 4191.87 81.94 M 4206.98 65.96 159.73 65.96 M 76.27 65.96 41 65.96 M 41 81.94 61.17 81.94 M 54.54 97.93 41 97.93 M 41 113.91 51.69 113.91 M 51.69 129.9 41 129.9 M 41 145.88 57.78 145.88 M 68.09 161.87 41 161.87 M 41 177.85 89.22 177.85 M 41 49.97 4325.71 49.97 M 4325.71 65.96 4290.44 65.96 M 4305.54 81.94 4325.71 81.94 M 4325.71 97.93 4312.16 97.93 M 4315.02 113.91 4325.71 113.91 M 4325.71 129.9 4315.02 129.9 M 4308.93 145.88 4325.71 145.88 M 4325.71 161.87 4298.61 161.87 M 4277.48 177.85 4325.71 177.85 M 4219.93 177.85 3304.59 177.85 M 3244.77 161.87 4198.8 161.87 M 3498.15 289.75 2524.52 289.75 M 2525.7 273.76 3462.09 273.76 M 3498.06 305.73 2512.52 305.73 M 2477.86 337.7 2399.72 337.7 M 2399.72 321.72 2445.42 321.72 M 2430.08 305.73 2399.72 305.73 M 2396.36 289.75 2412.3 289.75 M 2368 316.62 2268 305.99 1188.47 315.83 1178.63 494.77 M 1216.25 497.55 1237.01 497.55 M 1237.01 498.05 1237.01 494.77 1237.01 444.25 1238.03 437.78 1240.06 431.55 1243.03 425.71 1246.88 420.41 1251.51 415.78 1256.82 411.93 1262.65 408.95 1268.88 406.93 1275.35 405.91 1278.63 405.91 1281.91 405.91 1288.38 406.93 1294.61 408.95 1300.44 411.93 1305.74 415.78 1310.38 420.41 1314.23 425.71 1317.2 431.55 1319.23 437.78 1320.25 444.25 1320.25 494.77 1278.63 494.77 1278.63 405.91 1278.63 494.77 1278.63 494.77 1278.63 494.77 1237.01 494.77 1278.63 494.77 1278.63 494.77 1320.25 494.77 1320.25 498.05 1319.23 504.52 1317.2 510.75 1314.23 516.59 1310.38 521.89 1305.74 526.52 1300.44 530.37 1294.61 533.34 1288.38 535.37 1281.91 536.39 1278.63 536.39 1275.35 536.39 1268.88 535.37 1262.65 533.34 1256.82 530.37 1251.51 526.52 1246.88 521.89 1243.03 516.59 1240.06 510.75 1238.03 504.52 1237.01 498.05 M 1241.48 513.54 1211.58 513.54 M 1193.04 529.52 1255.65 529.52 M 1278.63 529.52 1278.63 529.52 M 1278.63 536.39 1278.63 494.77 1278.63 494.77 1278.63 536.39 M 1278.63 513.54 1278.63 513.54 M 1278.63 497.55 1278.63 497.55 M 1278.63 481.57 1278.63 481.57 M 1278.63 465.58 1278.63 465.58 M 1278.63 449.6 1278.63 449.6 M 1278.63 433.61 1278.63 433.61 M 1278.63 417.63 1278.63 417.63 M 1307.59 417.63 1355.32 417.63 M 1343.67 433.61 1317.87 433.61 M 1320.25 449.6 1341.01 449.6 M 1341.01 465.58 1320.25 465.58 M 1320.25 481.57 1341.01 481.57 M 1341.01 497.55 1320.25 497.55 M 1315.78 513.54 1345.68 513.54 M 1364.22 529.52 1301.61 529.52 M 1378.63 494.77 1418 346.94 2258.16 337.09 2418 396.94 M 2449.72 401.64 2607.62 401.64 M 2575.18 385.66 2449.72 385.66 M 2445.97 369.67 2542.74 369.67 M 2510.3 353.69 2365.22 353.69 M 2325.13 385.66 2297.71 385.66 M 2297.71 401.64 2367.82 401.64 M 2386.28 417.63 2295.15 417.63 M 2279.16 433.61 2680.54 433.61 M 2695.17 415.83 3264.46 532.37 3296.35 637.29 M 3343.35 641.42 3345.35 641.42 M 3345.35 639.29 3394.35 639.29 3394.35 688.29 3375.22 688.29 3345.35 658.42 3345.35 639.29 M 3345.35 635.29 3345.35 616.17 3375.22 586.29 3394.35 586.29 3394.35 635.29 3398.35 635.29 3398.35 639.29 3447.35 639.29 3447.35 658.42 3417.47 688.29 3398.35 688.29 3398.35 639.29 3394.35 639.29 3394.35 635.29 3345.35 635.29 M 3345.35 625.43 3343.35 625.43 M 3334.97 609.45 3352.06 609.45 M 3368.05 593.46 3318.99 593.46 M 3301.16 577.48 3496.52 577.48 M 3496.43 593.46 3424.64 593.46 M 3417.47 586.29 3398.35 586.29 3398.35 635.29 3447.35 635.29 3447.35 616.17 3417.47 586.29 M 3398.35 593.46 3394.35 593.46 M 3394.35 609.45 3398.35 609.45 M 3398.35 625.43 3394.35 625.43 M 3394.35 641.42 3398.35 641.42 M 3398.35 657.4 3394.35 657.4 M 3394.35 673.39 3398.35 673.39 M 3432.37 673.39 3476.28 673.39 M 3496.07 657.4 3447.35 657.4 M 3447.35 641.42 3496.16 641.42 M 3496.25 625.43 3447.35 625.43 M 3440.63 609.45 3496.34 609.45 M 3496.62 561.49 3296.3 561.49 M 3291.44 545.51 3496.71 545.51 M 3496.8 529.52 3287.5 529.52 M 3278.39 513.54 3496.89 513.54 M 3496.98 497.55 3204.07 497.55 M 3140.85 529.52 2283.25 529.52 M 2269.01 543.77 2228.41 543.77 2220.79 536.15 2131.49 587.4 2127.11 591.77 2123.86 591.77 2121.05 593.39 2115.07 591.77 1995.23 591.77 1999.72 596.26 1999.72 643.29 1991.52 651.49 1944.48 651.49 1937.41 644.42 1863.5 650.63 1863.5 663.76 1857.48 669.77 1863.5 675.78 1863.5 738.56 1855.3 746.76 1804.9 746.76 1760.51 783.81 1776.69 790.52 1794.7 808.52 1804.44 832.04 1804.44 857.5 1794.7 881.02 1776.69 899.03 1753.17 908.77 1727.71 908.77 1704.19 899.03 1686.18 881.02 1676.44 857.5 1676.44 832.04 1686.18 808.52 1702.93 791.77 1527.17 791.77 1529.47 793.54 1535.77 799.84 1541.2 806.91 1545.65 814.63 1549.06 822.87 1551.37 831.48 1552.49 839.98 1489.33 839.98 1489.33 849.57 1552.49 849.57 1551.37 858.07 1549.06 866.68 1545.65 874.91 1541.2 882.63 1535.77 889.7 1529.47 896.01 1527.17 897.77 1636.28 897.77 1636.28 896.26 1644.48 888.06 1691.52 888.06 1699.72 896.26 1699.72 943.29 1691.52 951.49 1649.72 951.49 1649.72 993.29 1641.52 1001.49 1594.48 1001.49 1586.28 993.29 1586.28 991.77 971.57 991.77 966.31 993.52 962.81 991.77 958.89 991.77 954.97 987.85 859.03 939.89 725.43 887.3 713.7 899.03 690.18 908.77 664.72 908.77 641.2 899.03 623.19 881.02 613.45 857.5 613.45 832.04 623.19 808.52 641.2 790.52 664.72 780.77 690.18 780.77 713.7 790.52 731.71 808.52 741.45 832.04 741.45 846.32 868.62 896.37 869.69 896.02 876.97 899.66 884.54 902.64 884.98 903.67 973.19 947.77 1586.28 947.77 1586.28 946.26 1590.77 941.77 1026.2 941.77 1025.52 942.37 1017.21 941.77 1008.89 941.77 1008.24 941.13 1007.34 941.06 1001.89 934.77 996 928.88 996 927.97 975.78 904.63 965.77 908.77 940.31 908.77 916.79 899.03 898.78 881.02 889.04 857.5 889.04 832.04 898.78 808.52 916.79 790.52 940.31 780.77 965.77 780.77 989.29 790.52 1007.3 808.52 1017.04 832.04 1017.04 857.5 1009.32 876.14 1028.05 897.77 1166.31 897.77 1164.01 896.01 1157.71 889.7 1152.28 882.63 1147.83 874.91 1144.42 866.68 1142.11 858.07 1140.99 849.57 1204.15 849.57 1204.15 839.98 1140.99 839.98 1142.11 831.48 1144.42 822.87 1147.83 814.63 1152.28 806.91 1157.71 799.84 1164.01 793.54 1171.09 788.11 1178.8 783.65 1187.04 780.24 1195.65 777.94 1204.15 776.82 1204.15 839.98 1213.74 839.98 1213.74 849.57 1276.9 849.57 1275.78 858.07 1273.47 866.68 1270.06 874.91 1265.61 882.63 1260.18 889.7 1253.88 896.01 1251.58 897.77 1441.9 897.77 1439.6 896.01 1433.3 889.7 1427.87 882.63 1423.42 874.91 1420.01 866.68 1417.7 858.07 1416.58 849.57 1479.74 849.57 1479.74 839.98 1416.58 839.98 1417.7 831.48 1420.01 822.87 1423.42 814.63 1427.87 806.91 1432.04 801.49 1394.48 801.49 1386.28 793.29 1386.28 746.26 1390.77 741.77 949.72 741.77 949.72 743.29 941.52 751.49 894.48 751.49 886.28 743.29 886.28 696.26 894.48 688.06 941.52 688.06 949.72 696.26 949.72 697.77 1572.5 697.77 1572.5 675.78 1578.52 669.77 1572.5 663.76 1572.5 601.49 1544.48 601.49 1536.28 593.29 1536.28 546.26 1544.48 538.06 1591.52 538.06 1599.72 546.26 1599.72 547.77 2112.14 547.77 2199.71 497.52 2199.71 474.48 2228.41 445.77 2269.01 445.77 2297.71 474.48 2297.71 515.07 2269.01 543.77 M 2269.01 545.77 2296 572.77 2436.28 572.77 2436.28 571.26 2444.48 563.06 2491.52 563.06 2499.72 571.26 2499.72 618.29 2491.52 626.49 2444.48 626.49 2436.28 618.29 2436.28 616.77 2296 616.77 2269.01 643.77 2228.41 643.77 2199.71 615.07 2199.71 574.48 2228.41 545.77 2269.01 545.77 M 2284.73 561.49 2803.21 561.49 M 2803.21 561.22 2811.41 553.02 2858.44 553.02 2863.43 558 2960.31 542.84 2961.72 541.44 2969.08 541.47 2976.36 540.33 2977.96 541.5 3182.36 542.25 3189.5 541.06 3191.22 542.29 3193.34 542.29 3198.44 547.44 3204.34 551.65 3204.69 553.73 3206.18 555.23 3206.15 562.47 3210.8 590.29 3215.81 590.29 3243.35 617.82 3243.35 656.76 3215.81 684.29 3176.88 684.29 3149.35 656.76 3149.35 617.82 3167.72 599.45 3165.5 586.19 2972.43 585.48 2866.65 602.04 2866.65 608.25 2858.44 616.45 2811.41 616.45 2803.21 608.25 2803.21 561.22 M 2803.21 577.48 2499.72 577.48 M 2499.72 593.46 2803.21 593.46 M 2804.41 609.45 2499.72 609.45 M 2492.57 625.43 3049.35 625.43 M 3049.35 617.82 3076.88 590.29 3115.81 590.29 3143.35 617.82 3143.35 656.76 3115.81 684.29 3076.88 684.29 3049.35 656.76 3049.35 617.82 M 3057.72 609.45 2865.44 609.45 M 2921.41 593.46 3073.71 593.46 M 3118.99 593.46 3166.72 593.46 M 3157.72 609.45 3134.97 609.45 M 3143.35 625.43 3149.35 625.43 M 3149.35 641.42 3143.35 641.42 M 3142.7 657.4 3149.99 657.4 M 3165.98 673.39 3126.72 673.39 M 3115.81 690.29 3076.88 690.29 3053.03 714.14 2656.8 703.72 2656.8 701.37 2648.6 693.17 2601.57 693.17 2593.37 701.37 2593.37 748.41 2601.57 756.61 2648.6 756.61 2656.8 748.41 2656.8 747.73 3050.68 758.1 3076.88 784.29 3115.81 784.29 3143.35 756.76 3143.35 717.82 3115.81 690.29 M 3130.88 705.36 3161.81 705.36 M 3149.35 717.82 3176.88 690.29 3215.81 690.29 3243.35 717.82 3243.35 756.76 3215.81 784.29 3176.88 784.29 3149.35 756.76 3149.35 717.82 M 3149.35 721.34 3143.35 721.34 M 3143.35 737.33 3149.35 737.33 M 3149.35 753.32 3143.35 753.32 M 3130.81 769.3 3161.89 769.3 M 3230.81 769.3 3261.89 769.3 M 3265.69 773.1 3249.35 756.76 3249.35 717.82 3276.88 690.29 3315.81 690.29 3343.35 717.82 3343.35 756.76 3315.81 784.29 3308.27 784.29 3296.48 836.39 3296.9 842.22 3294.54 844.95 3293.75 848.48 3288.81 851.59 3284.99 856.01 3281.39 856.27 3278.33 858.2 3272.64 856.91 2766.65 893.85 2766.65 897.62 2758.44 905.82 2711.41 905.82 2703.21 897.62 2703.21 850.59 2711.41 842.39 2758.44 842.39 2765.85 849.79 3256.44 813.98 3265.69 773.1 M 3262.93 785.29 2304.53 785.29 M 2297.71 783.68 2541.57 840.97 2544.48 838.06 2591.52 838.06 2599.72 846.26 2599.72 893.29 2591.52 901.49 2544.48 901.49 2536.28 893.29 2536.28 884.92 2286.52 826.25 2269.01 843.77 2228.41 843.77 2199.71 815.07 2199.71 774.48 2228.41 745.77 2269.01 745.77 2297.71 774.48 2297.71 783.68 M 2292.53 769.3 3061.89 769.3 M 3096.35 737.29 2625.09 724.89 M 2593.37 721.34 2499.72 721.34 M 2499.72 705.36 2593.37 705.36 M 2593.37 737.33 2499.72 737.33 M 2499.72 743.29 2491.52 751.49 2444.48 751.49 2436.28 743.29 2436.28 738.3 2291.04 721.74 2269.01 743.77 2228.41 743.77 2199.71 715.07 2199.71 674.48 2228.41 645.77 2269.01 645.77 2297.71 674.48 2297.71 678.22 2438.3 694.24 2444.48 688.06 2491.52 688.06 2499.72 696.26 2499.72 743.29 M 2468 719.77 2248.71 694.77 M 2199.71 689.37 1863.5 689.37 M 1863.5 705.36 2199.71 705.36 M 2205.99 721.34 2016.28 721.34 M 2018.4 723.46 2024.13 737.29 2024.13 752.26 2018.4 766.08 2007.82 776.67 1993.99 782.39 1931.78 782.39 1917.95 776.67 1907.37 766.08 1901.64 752.26 1901.64 737.29 1907.37 723.46 1917.95 712.88 1931.78 707.15 1993.99 707.15 2007.82 712.88 2018.4 723.46 M 2024.13 737.33 2221.97 737.33 M 2220.87 753.32 2023.69 753.32 M 2015.18 769.3 2204.88 769.3 M 2199.71 785.29 1764.07 785.29 M 1777.9 769.3 1910.58 769.3 M 1902.08 753.32 1797.05 753.32 M 1863.5 737.33 1901.64 737.33 M 1909.48 721.34 1863.5 721.34 M 1818 707.17 1743 769.77 1418 769.77 M 1386.28 769.3 41 769.3 M 41 753.32 1386.28 753.32 M 1386.28 785.29 1241.91 785.29 M 1239.09 783.65 1246.8 788.11 1253.88 793.54 1260.18 799.84 1265.61 806.91 1270.06 814.63 1273.47 822.87 1275.78 831.48 1276.9 839.98 1213.74 839.98 1213.74 776.82 1222.24 777.94 1230.85 780.24 1239.09 783.65 M 1213.74 785.29 1204.15 785.29 M 1204.15 801.27 1213.74 801.27 M 1213.74 817.26 1204.15 817.26 M 1204.15 833.24 1213.74 833.24 M 1213.74 849.23 1479.74 849.23 M 1489.33 849.23 1676.44 849.23 M 1676.44 833.24 1551.6 833.24 M 1546.74 817.26 1682.57 817.26 M 1693.43 801.27 1536.87 801.27 M 1422.33 817.26 1271.15 817.26 M 1276.01 833.24 1417.47 833.24 M 1419.61 865.21 1273.87 865.21 M 1266.43 881.2 1427.05 881.2 M 1441.13 897.18 1252.35 897.18 M 1165.54 897.18 1027.54 897.18 M 1013.69 881.2 1151.45 881.2 M 1144.02 865.21 1013.85 865.21 M 1017.04 849.23 1204.15 849.23 M 1141.88 833.24 1017.04 833.24 M 1010.91 817.26 1146.74 817.26 M 1156.61 801.27 1000.05 801.27 M 976.67 785.29 1175.98 785.29 M 1261.28 801.27 1394.27 801.27 M 1549.46 865.21 1679.63 865.21 M 1686.36 881.2 1542.03 881.2 M 1527.94 897.18 1636.28 897.18 M 1668 919.77 1018 919.77 953.04 844.77 M 895.16 817.26 735.32 817.26 M 741.45 833.24 889.04 833.24 M 889.04 849.23 748.83 849.23 M 789.45 865.21 892.23 865.21 M 898.95 881.2 830.06 881.2 M 872.01 897.18 914.94 897.18 M 903.98 913.17 983.17 913.17 M 996.27 929.15 935.95 929.15 M 967.92 945.14 1587.4 945.14 M 1649.72 961.12 1905.31 961.12 M 1907.37 966.08 1901.64 952.26 1901.64 937.29 1907.37 923.46 1917.95 912.88 1931.78 907.15 1993.99 907.15 2007.82 912.88 2018.4 923.46 2024.13 937.29 2024.13 952.26 2018.4 966.08 2007.82 976.67 1993.99 982.39 1931.78 982.39 1917.95 976.67 1907.37 966.08 M 1919.01 977.11 1649.72 977.11 M 1649.72 993.09 2199.71 993.09 M 2199.71 977.11 2006.75 977.11 M 2020.45 961.12 2213.06 961.12 M 2199.71 974.48 2228.41 945.77 2269.01 945.77 2297.71 974.48 2297.71 976.04 2586.92 995.62 2594.48 988.06 2641.52 988.06 2649.72 996.26 2649.72 1043.29 2641.52 1051.49 2594.48 1051.49 2586.28 1043.29 2586.28 1039.67 2292.96 1019.82 2269.01 1043.77 2228.41 1043.77 2199.71 1015.07 2199.71 974.48 M 2248.71 994.77 2618 1019.77 M 2649.72 1025.06 2994.84 1025.06 M 2921.8 1041.05 2649.72 1041.05 M 2586.28 1041.05 2271.73 1041.05 M 2269.01 1045.77 2297.71 1074.48 2297.71 1115.07 2269.01 1143.77 2228.41 1143.77 2199.71 1115.07 2199.71 1074.48 2228.41 1045.77 2269.01 1045.77 M 2280.27 1057.03 2848.76 1057.03 M 2775.71 1073.02 2296.25 1073.02 M 2297.71 1089 2694 1089 M 2604.31 1104.99 2297.71 1104.99 M 2291.8 1120.97 2514.61 1120.97 M 2424.92 1136.96 2275.82 1136.96 M 2276.18 1152.94 2335.23 1152.94 M 2362.52 1200.9 2902.62 1200.9 M 2903.21 1184.91 2452.21 1184.91 M 2439.83 1232.87 2279.91 1232.87 M 2277.74 1248.85 2436.28 1248.85 M 2428.21 1264.84 2293.73 1264.84 M 2301.71 1280.82 2409.37 1280.82 M 2390.53 1296.81 2301.71 1296.81 M 2301.71 1312.79 2371.68 1312.79 M 2368 1344.77 1518 1344.77 1478.63 1194.77 M 1505.99 1168.93 1551.27 1168.93 M 1546.74 1173.46 1557.32 1162.88 1571.15 1157.15 1586.11 1157.15 1599.94 1162.88 1610.52 1173.46 1616.25 1187.29 1616.25 1249.5 1610.52 1263.33 1599.94 1273.91 1586.11 1279.64 1571.15 1279.64 1557.32 1273.91 1546.74 1263.33 1541.01 1249.5 1541.01 1187.29 1546.74 1173.46 M 1541.99 1184.91 1515.27 1184.91 M 1516.25 1200.9 1541.01 1200.9 M 1541.01 1216.88 1516.25 1216.88 M 1516.25 1232.87 1541.01 1232.87 M 1541.01 1248.85 1516.25 1248.85 M 1519.77 1264.84 1548.25 1264.84 M 1523.96 1280.82 1763.38 1280.82 M 1762.65 1280.59 1756.82 1277.61 1751.51 1273.76 1746.88 1269.13 1743.03 1263.83 1740.06 1257.99 1738.03 1251.76 1737.01 1245.29 1737.01 1194.77 1737.01 1191.5 1738.03 1185.03 1740.06 1178.79 1743.03 1172.96 1746.88 1167.66 1751.51 1163.02 1756.82 1159.17 1762.65 1156.2 1768.88 1154.17 1775.35 1153.15 1778.63 1153.15 1781.91 1153.15 1788.38 1154.17 1794.61 1156.2 1800.44 1159.17 1805.74 1163.02 1810.38 1167.66 1814.23 1172.96 1817.2 1178.79 1819.23 1185.03 1820.25 1191.5 1820.25 1194.77 1778.63 1194.77 1778.63 1153.15 1778.63 1194.77 1778.63 1194.77 1778.63 1194.77 1737.01 1194.77 1778.63 1194.77 1778.63 1194.77 1820.25 1194.77 1820.25 1245.29 1819.23 1251.76 1817.2 1257.99 1814.23 1263.83 1810.38 1269.13 1805.74 1273.76 1800.44 1277.61 1794.61 1280.59 1788.38 1282.61 1781.91 1283.64 1778.63 1283.64 1775.35 1283.64 1768.88 1282.61 1762.65 1280.59 M 1778.63 1280.82 1778.63 1280.82 M 1778.63 1283.64 1778.63 1194.77 1778.63 1194.77 1778.63 1283.64 M 1793.88 1280.82 2195.71 1280.82 M 2195.71 1296.81 1528.16 1296.81 M 1532.35 1312.79 2195.71 1312.79 M 2203.69 1264.84 2009.01 1264.84 M 2010.52 1263.33 1999.94 1273.91 1986.11 1279.64 1971.15 1279.64 1957.32 1273.91 1946.74 1263.33 1941.01 1249.5 1941.01 1187.29 1946.74 1173.46 1957.32 1162.88 1971.15 1157.15 1986.11 1157.15 1999.94 1162.88 2010.52 1173.46 2016.25 1187.29 2016.25 1249.5 2010.52 1263.33 M 2016.25 1248.85 2219.67 1248.85 M 2217.51 1232.87 2016.25 1232.87 M 2016.25 1216.88 2201.52 1216.88 M 2199.71 1200.9 2016.25 1200.9 M 2015.27 1184.91 2199.71 1184.91 M 2205.26 1168.93 2005.99 1168.93 M 1951.27 1168.93 1905.99 1168.93 M 1910.52 1173.46 1916.25 1187.29 1916.25 1249.5 1910.52 1263.33 1899.94 1273.91 1886.11 1279.64 1871.15 1279.64 1857.32 1273.91 1846.74 1263.33 1841.01 1249.5 1841.01 1187.29 1846.74 1173.46 1857.32 1162.88 1871.15 1157.15 1886.11 1157.15 1899.94 1162.88 1910.52 1173.46 M 1915.27 1184.91 1941.99 1184.91 M 1941.01 1200.9 1916.25 1200.9 M 1916.25 1216.88 1941.01 1216.88 M 1941.01 1232.87 1916.25 1232.87 M 1916.25 1248.85 1941.01 1248.85 M 1948.25 1264.84 1909.01 1264.84 M 1848.25 1264.84 1813.5 1264.84 M 1819.69 1248.85 1841.01 1248.85 M 1841.01 1232.87 1820.25 1232.87 M 1820.25 1216.88 1841.01 1216.88 M 1841.01 1200.9 1820.25 1200.9 M 1819.19 1184.91 1841.99 1184.91 M 1851.27 1168.93 1811.3 1168.93 M 1778.63 1168.93 1778.63 1168.93 M 1778.63 1184.91 1778.63 1184.91 M 1778.63 1200.9 1778.63 1200.9 M 1778.63 1216.88 1778.63 1216.88 M 1778.63 1232.87 1778.63 1232.87 M 1778.63 1248.85 1778.63 1248.85 M 1778.63 1264.84 1778.63 1264.84 M 1743.76 1264.84 1709.01 1264.84 M 1710.52 1263.33 1699.94 1273.91 1686.11 1279.64 1671.15 1279.64 1657.32 1273.91 1646.74 1263.33 1641.01 1249.5 1641.01 1187.29 1646.74 1173.46 1657.32 1162.88 1671.15 1157.15 1686.11 1157.15 1699.94 1162.88 1710.52 1173.46 1716.25 1187.29 1716.25 1249.5 1710.52 1263.33 M 1716.25 1248.85 1737.57 1248.85 M 1737.01 1232.87 1716.25 1232.87 M 1716.25 1216.88 1737.01 1216.88 M 1737.01 1200.9 1716.25 1200.9 M 1715.27 1184.91 1738.07 1184.91 M 1745.96 1168.93 1705.99 1168.93 M 1651.27 1168.93 1605.99 1168.93 M 1615.27 1184.91 1641.99 1184.91 M 1641.01 1200.9 1616.25 1200.9 M 1616.25 1216.88 1641.01 1216.88 M 1641.01 1232.87 1616.25 1232.87 M 1616.25 1248.85 1641.01 1248.85 M 1648.25 1264.84 1609.01 1264.84 M 1482.67 1296.81 1438.08 1296.81 M 1443.73 1312.79 1486.86 1312.79 M 1491.06 1328.78 1449.39 1328.78 M 1455.05 1344.76 1495.25 1344.76 M 1443 1376.66 1378.63 1194.77 M 1405.99 1168.93 1451.27 1168.93 M 1441.99 1184.91 1415.27 1184.91 M 1416.25 1200.9 1441.01 1200.9 M 1441.01 1216.88 1416.25 1216.88 M 1416.25 1232.87 1441.01 1232.87 M 1441.01 1248.85 1421.11 1248.85 M 1426.76 1264.84 1448.25 1264.84 M 1432.42 1280.82 1478.47 1280.82 M 1397.06 1312.79 1021.67 1312.79 M 1018.86 1296.81 1391.4 1296.81 M 1385.75 1280.82 1293.88 1280.82 M 1294.61 1280.59 1288.38 1282.61 1281.91 1283.64 1278.63 1283.64 1275.35 1283.64 1268.88 1282.61 1262.65 1280.59 1256.82 1277.61 1251.51 1273.76 1246.88 1269.13 1243.03 1263.83 1240.06 1257.99 1238.03 1251.76 1237.01 1245.29 1237.01 1194.77 1237.01 1191.5 1238.03 1185.03 1240.06 1178.79 1243.03 1172.96 1246.88 1167.66 1251.51 1163.02 1256.82 1159.17 1262.65 1156.2 1268.88 1154.17 1275.35 1153.15 1278.63 1153.15 1281.91 1153.15 1288.38 1154.17 1294.61 1156.2 1300.44 1159.17 1305.74 1163.02 1310.38 1167.66 1314.23 1172.96 1317.2 1178.79 1319.23 1185.03 1320.25 1191.5 1320.25 1194.77 1278.63 1194.77 1278.63 1153.15 1278.63 1194.77 1278.63 1194.77 1278.63 1194.77 1237.01 1194.77 1278.63 1194.77 1278.63 1194.77 1320.25 1194.77 1320.25 1245.29 1319.23 1251.76 1317.2 1257.99 1314.23 1263.83 1310.38 1269.13 1305.74 1273.76 1300.44 1277.61 1294.61 1280.59 M 1278.63 1280.82 1278.63 1280.82 M 1278.63 1283.64 1278.63 1194.77 1278.63 1194.77 1278.63 1283.64 M 1263.38 1280.82 1016.06 1280.82 M 1013.26 1264.84 1048.25 1264.84 M 1046.74 1263.33 1041.01 1249.5 1041.01 1187.29 1046.74 1173.46 1057.32 1162.88 1071.15 1157.15 1086.11 1157.15 1099.94 1162.88 1110.52 1173.46 1116.25 1187.29 1116.25 1249.5 1110.52 1263.33 1099.94 1273.91 1086.11 1279.64 1071.15 1279.64 1057.32 1273.91 1046.74 1263.33 M 1041.01 1248.85 1016.25 1248.85 M 1016.25 1232.87 1041.01 1232.87 M 1041.01 1216.88 1016.25 1216.88 M 1016.25 1200.9 1041.01 1200.9 M 1041.99 1184.91 1015.27 1184.91 M 1005.99 1168.93 1051.27 1168.93 M 1105.99 1168.93 1151.27 1168.93 M 1146.74 1173.46 1157.32 1162.88 1171.15 1157.15 1186.11 1157.15 1199.94 1162.88 1210.52 1173.46 1216.25 1187.29 1216.25 1249.5 1210.52 1263.33 1199.94 1273.91 1186.11 1279.64 1171.15 1279.64 1157.32 1273.91 1146.74 1263.33 1141.01 1249.5 1141.01 1187.29 1146.74 1173.46 M 1141.99 1184.91 1115.27 1184.91 M 1116.25 1200.9 1141.01 1200.9 M 1141.01 1216.88 1116.25 1216.88 M 1116.25 1232.87 1141.01 1232.87 M 1141.01 1248.85 1116.25 1248.85 M 1109.01 1264.84 1148.25 1264.84 M 1209.01 1264.84 1243.76 1264.84 M 1237.57 1248.85 1216.25 1248.85 M 1216.25 1232.87 1237.01 1232.87 M 1237.01 1216.88 1216.25 1216.88 M 1216.25 1200.9 1237.01 1200.9 M 1238.07 1184.91 1215.27 1184.91 M 1205.99 1168.93 1245.96 1168.93 M 1278.63 1168.93 1278.63 1168.93 M 1278.63 1184.91 1278.63 1184.91 M 1278.63 1200.9 1278.63 1200.9 M 1278.63 1216.88 1278.63 1216.88 M 1278.63 1232.87 1278.63 1232.87 M 1278.63 1248.85 1278.63 1248.85 M 1278.63 1264.84 1278.63 1264.84 M 1313.5 1264.84 1348.25 1264.84 M 1341.01 1248.85 1319.69 1248.85 M 1320.25 1232.87 1341.01 1232.87 M 1341.01 1216.88 1320.25 1216.88 M 1320.25 1200.9 1341.01 1200.9 M 1341.99 1184.91 1319.19 1184.91 M 1311.3 1168.93 1351.27 1168.93 M 1317.86 1112.31 1296.74 1112.31 1275.62 1112.31 1245.74 1082.43 1245.74 1061.31 1296.74 1061.31 1296.74 1112.31 1296.74 1061.31 1296.74 1061.31 1347.74 1061.31 1347.74 1082.43 1317.86 1112.31 M 1325.18 1104.99 1373.95 1104.99 M 1377.27 1108.31 1349.74 1080.77 1349.74 1041.84 1377.27 1014.31 1416.21 1014.31 1443.74 1041.84 1443.74 1080.77 1416.21 1108.31 1377.27 1108.31 M 1357.97 1089 1341.17 1089 M 1347.74 1073.02 1349.74 1073.02 M 1347.74 1061.31 1296.74 1061.31 1296.74 1061.31 1296.74 1061.31 1245.74 1061.31 1245.74 1040.18 1275.62 1010.31 1296.74 1010.31 1317.86 1010.31 1347.74 1040.18 1347.74 1061.31 M 1347.74 1057.03 1349.74 1057.03 M 1350.53 1041.05 1347.74 1041.05 M 1332.62 1025.06 1366.52 1025.06 M 1426.96 1025.06 2209.7 1025.06 M 2199.71 1009.08 41 1009.08 M 41 1025.06 735.02 1025.06 M 745.78 1014.31 718.24 1041.84 718.24 1080.77 745.78 1108.31 784.71 1108.31 812.24 1080.77 812.24 1041.84 784.71 1014.31 745.78 1014.31 M 719.04 1041.05 41 1041.05 M 41 1057.03 718.24 1057.03 M 718.24 1073.02 41 1073.02 M 41 1089 726.47 1089 M 742.46 1104.99 41 1104.99 M 41 1120.97 2205.61 1120.97 M 2199.71 1104.99 1419.53 1104.99 M 1435.51 1089 2199.71 1089 M 2201.17 1073.02 1443.74 1073.02 M 1443.74 1057.03 2217.15 1057.03 M 2225.69 1041.05 1442.95 1041.05 M 1586.28 993.09 967.61 993.09 M 965.45 993.09 41 993.09 M 41 977.11 933.48 977.11 M 968 969.77 1618 969.77 M 1697.87 945.14 1901.64 945.14 M 1905.01 929.15 1699.72 929.15 M 1699.72 913.17 1917.66 913.17 M 1931.78 882.39 1917.95 876.67 1907.37 866.08 1901.64 852.26 1901.64 837.29 1907.37 823.46 1917.95 812.88 1931.78 807.15 1993.99 807.15 2007.82 812.88 2018.4 823.46 2024.13 837.29 2024.13 852.26 2018.4 866.08 2007.82 876.67 1993.99 882.39 1931.78 882.39 M 1928.89 881.2 1794.53 881.2 M 1801.25 865.21 1907 865.21 M 1901.64 849.23 1804.44 849.23 M 1804.44 833.24 1903.31 833.24 M 1913.57 817.26 1798.32 817.26 M 1787.45 801.27 2199.71 801.27 M 2201.9 817.26 2012.19 817.26 M 2022.45 833.24 2217.88 833.24 M 2228.41 845.77 2269.01 845.77 2297.71 874.48 2297.71 915.07 2269.01 943.77 2228.41 943.77 2199.71 915.07 2199.71 874.48 2228.41 845.77 M 2224.96 849.23 2024.13 849.23 M 2018.76 865.21 2208.97 865.21 M 2199.71 881.2 1996.88 881.2 M 2008.1 913.17 2199.71 913.17 M 2199.71 897.18 1778.54 897.18 M 1702.34 897.18 1699.72 897.18 M 2020.76 929.15 2213.79 929.15 M 2283.63 929.15 3320.4 929.15 M 3324.49 913.17 2297.71 913.17 M 2297.71 897.18 2540.18 897.18 M 2520.43 881.2 2297.71 881.2 M 2288.44 865.21 2452.38 865.21 M 2508.69 833.24 2992.53 833.24 M 2939.94 881.2 3332.68 881.2 M 3328.58 897.18 2766.65 897.18 M 2734.93 874.1 3274.3 834.73 3296.35 737.29 M 3343.35 737.33 3349.35 737.33 M 3349.35 721.34 3343.35 721.34 M 3330.88 705.36 3361.81 705.36 M 3360.32 673.39 3326.72 673.39 M 3342.7 657.4 3345.35 657.4 M 3265.98 673.39 3226.72 673.39 M 3242.7 657.4 3249.99 657.4 M 3249.35 641.42 3243.35 641.42 M 3243.35 625.43 3249.35 625.43 M 3257.72 609.45 3234.97 609.45 M 3218.99 593.46 3260.03 593.46 M 3255.17 577.48 3208.66 577.48 M 3206.15 561.49 3250.31 561.49 M 3218.94 545.51 3196.53 545.51 M 3184.14 564.26 2970.76 563.47 2834.93 584.73 M 2943.26 545.51 2204.49 545.51 M 2212.69 561.49 2176.63 561.49 M 2199.71 577.48 2148.77 577.48 M 2118 569.77 1568 569.77 M 1536.28 577.48 41 577.48 M 41 593.46 1536.46 593.46 M 1572.5 609.45 41 609.45 M 41 625.43 1572.5 625.43 M 1572.5 641.42 41 641.42 M 41 657.4 1572.5 657.4 M 1574.9 673.39 41 673.39 M 41 689.37 893.16 689.37 M 886.28 705.36 41 705.36 M 41 721.34 886.28 721.34 M 886.28 737.33 41 737.33 M 41 785.29 388.58 785.29 M 391.4 783.65 399.64 780.24 408.25 777.94 416.75 776.82 416.75 839.98 353.59 839.98 354.71 831.48 357.01 822.87 360.43 814.63 364.88 806.91 370.31 799.84 376.61 793.54 383.68 788.11 391.4 783.65 M 416.75 785.29 426.34 785.29 M 426.34 776.82 434.84 777.94 443.45 780.24 451.68 783.65 459.4 788.11 466.47 793.54 472.78 799.84 478.2 806.91 482.66 814.63 486.07 822.87 488.38 831.48 489.5 839.98 426.34 839.98 426.34 849.57 416.75 849.57 416.75 912.73 408.25 911.61 399.64 909.3 391.4 905.89 383.68 901.43 376.61 896.01 370.31 889.7 364.88 882.63 360.43 874.91 357.01 866.68 354.71 858.07 353.59 849.57 416.75 849.57 416.75 839.98 426.34 839.98 426.34 776.82 M 454.51 785.29 653.82 785.29 M 630.44 801.27 473.88 801.27 M 483.75 817.26 619.57 817.26 M 613.45 833.24 488.61 833.24 M 489.5 849.57 488.38 858.07 486.07 866.68 482.66 874.91 478.2 882.63 472.78 889.7 466.47 896.01 459.4 901.43 451.68 905.89 443.45 909.3 434.84 911.61 426.34 912.73 426.34 849.57 489.5 849.57 M 486.47 865.21 616.64 865.21 M 613.45 849.23 426.34 849.23 M 416.75 849.23 41 849.23 M 41 865.21 356.62 865.21 M 364.05 881.2 41 881.2 M 41 897.18 378.14 897.18 M 416.75 897.18 426.34 897.18 M 426.34 881.2 416.75 881.2 M 416.75 865.21 426.34 865.21 M 479.03 881.2 623.36 881.2 M 639.35 897.18 464.94 897.18 M 426.34 833.24 416.75 833.24 M 416.75 817.26 426.34 817.26 M 426.34 801.27 416.75 801.27 M 369.21 801.27 41 801.27 M 41 817.26 359.34 817.26 M 354.47 833.24 41 833.24 M 41 913.17 791.15 913.17 M 831.76 929.15 41 929.15 M 41 945.14 869.54 945.14 M 868 919.77 968 969.77 M 901.51 961.12 41 961.12 M 41 1136.96 2221.6 1136.96 M 2221.24 1152.94 41 1152.94 M 41 1168.93 51.27 1168.93 M 46.74 1173.46 57.32 1162.88 71.15 1157.15 86.11 1157.15 99.94 1162.88 110.52 1173.46 116.25 1187.29 116.25 1249.5 110.52 1263.33 99.94 1273.91 86.11 1279.64 71.15 1279.64 57.32 1273.91 46.74 1263.33 41.01 1249.5 41.01 1187.29 46.74 1173.46 M 41.99 1184.91 41 1184.91 M 41 1200.9 41.01 1200.9 M 41 1216.88 41.01 1216.88 M 41 1232.87 41.01 1232.87 M 41 1248.85 41.01 1248.85 M 41 1264.84 48.25 1264.84 M 41 1280.82 174.56 1280.82 M 177.98 1296.81 41 1296.81 M 41 1312.79 181.41 1312.79 M 184.83 1328.78 41 1328.78 M 41 1344.76 188.25 1344.76 M 191.68 1360.75 41 1360.75 M 41 1376.73 195.1 1376.73 M 198.52 1392.72 41 1392.72 M 41 1408.7 201.95 1408.7 M 205.37 1424.69 41 1424.69 M 41 1440.68 208.8 1440.68 M 212.22 1456.66 41 1456.66 M 41 1472.65 215.64 1472.65 M 219.07 1488.63 41 1488.63 M 41 1504.62 222.49 1504.62 M 225.91 1520.6 160.83 1520.6 M 155.56 1515.33 174.21 1533.98 184.31 1558.35 184.31 1584.73 174.21 1609.1 155.56 1627.76 131.19 1637.85 104.81 1637.85 80.44 1627.76 61.79 1609.1 51.69 1584.73 51.69 1558.35 61.79 1533.98 80.44 1515.33 104.81 1505.24 131.19 1505.24 155.56 1515.33 M 175.29 1536.59 229.34 1536.59 M 232.22 1552.57 181.91 1552.57 M 184.31 1568.56 243.94 1568.56 M 254.22 1547.72 178.63 1194.77 M 205.99 1168.93 245.96 1168.93 M 246.88 1167.66 251.51 1163.02 256.82 1159.17 262.65 1156.2 268.88 1154.17 275.35 1153.15 278.63 1153.15 281.91 1153.15 288.38 1154.17 294.61 1156.2 300.44 1159.17 305.74 1163.02 310.38 1167.66 314.23 1172.96 317.2 1178.79 319.23 1185.03 320.25 1191.5 320.25 1194.77 278.63 1194.77 278.63 1153.15 278.63 1194.77 278.63 1194.77 278.63 1194.77 237.01 1194.77 237.01 1191.5 238.03 1185.03 240.06 1178.79 243.03 1172.96 246.88 1167.66 M 238.07 1184.91 215.27 1184.91 M 216.25 1200.9 237.01 1200.9 M 237.01 1194.77 278.63 1194.77 278.63 1194.77 320.25 1194.77 320.25 1245.29 319.23 1251.76 317.2 1257.99 314.23 1263.83 310.38 1269.13 305.74 1273.76 300.44 1277.61 294.61 1280.59 288.38 1282.61 281.91 1283.64 278.63 1283.64 275.35 1283.64 268.88 1282.61 262.65 1280.59 256.82 1277.61 251.51 1273.76 246.88 1269.13 243.03 1263.83 240.06 1257.99 238.03 1251.76 237.01 1245.29 237.01 1194.77 M 278.63 1194.77 278.63 1283.64 278.63 1194.77 278.63 1194.77 M 278.63 1200.9 278.63 1200.9 M 278.63 1216.88 278.63 1216.88 M 278.63 1232.87 278.63 1232.87 M 278.63 1248.85 278.63 1248.85 M 278.63 1264.84 278.63 1264.84 M 278.63 1280.82 278.63 1280.82 M 293.88 1280.82 373.47 1280.82 M 376.67 1296.81 222.98 1296.81 M 226.41 1312.79 379.88 1312.79 M 383.09 1328.78 229.83 1328.78 M 233.25 1344.76 386.3 1344.76 M 388.83 1360.75 236.68 1360.75 M 240.1 1376.73 399.46 1376.73 M 410.1 1392.72 243.52 1392.72 M 246.95 1408.7 420.73 1408.7 M 431.36 1424.69 250.37 1424.69 M 253.79 1440.68 441.99 1440.68 M 452.62 1456.66 257.22 1456.66 M 260.64 1472.65 463.25 1472.65 M 473.88 1488.63 264.06 1488.63 M 267.49 1504.62 484.51 1504.62 M 495.15 1520.6 270.91 1520.6 M 254.22 1547.72 3315.24 1547.72 3521.94 1468.98 3657.37 1374.1 M 3617.78 1360.75 3499.66 1360.75 M 3499.66 1369.77 3499.66 1343.39 3489.57 1319.02 3470.91 1300.37 3446.54 1290.28 3420.16 1290.28 3395.79 1300.37 3377.14 1319.02 3367.05 1343.39 3367.05 1369.77 3377.14 1394.14 3395.79 1412.8 3420.16 1422.89 3446.54 1422.89 3470.91 1412.8 3489.57 1394.14 3499.66 1369.77 M 3496.78 1376.73 3615.27 1376.73 M 3592.45 1392.72 3490.16 1392.72 M 3475 1408.7 3569.64 1408.7 M 3546.82 1424.69 2776.26 1424.69 M 2751.41 1440.68 3524 1440.68 M 3492.49 1456.66 2726.55 1456.66 M 2701.7 1472.65 2809.11 1472.65 M 2834.93 1502.06 2695.17 1518.2 519.97 1518.2 410.52 1353.63 378.63 1194.77 M 405.99 1168.93 451.27 1168.93 M 441.99 1184.91 415.27 1184.91 M 416.25 1200.9 441.01 1200.9 M 441.01 1216.88 416.25 1216.88 M 416.25 1232.87 441.01 1232.87 M 441.01 1248.85 416.25 1248.85 M 415.13 1264.84 448.25 1264.84 M 471.78 1280.82 418.34 1280.82 M 421.55 1296.81 474.66 1296.81 M 477.54 1312.79 424.76 1312.79 M 427.97 1328.78 480.42 1328.78 M 483.3 1344.76 431.18 1344.76 M 441.68 1360.75 486.19 1360.75 M 487.95 1376.73 452.31 1376.73 M 462.94 1392.72 497.31 1392.72 M 506.68 1408.7 473.57 1408.7 M 484.2 1424.69 516.04 1424.69 M 525.41 1440.68 494.83 1440.68 M 505.46 1456.66 534.77 1456.66 M 544.14 1472.65 516.09 1472.65 M 526.73 1488.63 553.5 1488.63 M 579.02 1488.67 2636.11 1488.67 3154.61 1155.2 M 3122.9 1136.96 2721.3 1136.96 M 2631.6 1152.94 3117.46 1152.94 M 3092.6 1168.93 2541.91 1168.93 M 2496.17 1232.87 2861.53 1232.87 M 2840.99 1248.85 2499.72 1248.85 M 2499.72 1264.84 2820.45 1264.84 M 2799.91 1280.82 2548.65 1280.82 M 2549.72 1296.81 2779.37 1296.81 M 2758.82 1312.79 2549.72 1312.79 M 2518 1305.4 2418 1376.66 1443 1376.66 M 1419.69 1376.73 1059.07 1376.73 M 1047.58 1360.75 1414.03 1360.75 M 1408.37 1344.76 1036.09 1344.76 M 1024.6 1328.78 1402.72 1328.78 M 1049.89 1401.66 2453.63 1402.45 2568 1345.56 M 2599.72 1344.76 2717.74 1344.76 M 2738.28 1328.78 2599.72 1328.78 M 2648.27 1360.75 2697.2 1360.75 M 2676.66 1376.73 2649.72 1376.73 M 2649.72 1392.72 2656.12 1392.72 M 2618 1385.72 2498.31 1427.45 962.88 1429.61 899.1 1347.92 878.63 1194.77 M 905.99 1168.93 951.27 1168.93 M 941.99 1184.91 915.27 1184.91 M 916.25 1200.9 941.01 1200.9 M 941.01 1216.88 916.25 1216.88 M 916.25 1232.87 941.01 1232.87 M 941.01 1248.85 916.25 1248.85 M 910.19 1264.84 948.25 1264.84 M 971.39 1280.82 912.33 1280.82 M 914.47 1296.81 974.19 1296.81 M 977 1312.79 916.6 1312.79 M 918.74 1328.78 979.8 1328.78 M 981.91 1344.76 924.55 1344.76 M 937.03 1360.75 993.4 1360.75 M 1004.88 1376.73 949.51 1376.73 M 961.99 1392.72 1016.37 1392.72 M 1049.89 1401.66 1003.63 1337.29 978.63 1194.77 M 851.27 1168.93 811.3 1168.93 M 810.38 1167.66 814.23 1172.96 817.2 1178.79 819.23 1185.03 820.25 1191.5 820.25 1194.77 778.63 1194.77 778.63 1153.15 781.91 1153.15 788.38 1154.17 794.61 1156.2 800.44 1159.17 805.74 1163.02 810.38 1167.66 M 819.19 1184.91 841.99 1184.91 M 841.01 1200.9 820.25 1200.9 M 820.25 1194.77 778.63 1194.77 778.63 1194.77 778.63 1153.15 775.35 1153.15 768.88 1154.17 762.65 1156.2 756.82 1159.17 751.51 1163.02 746.88 1167.66 743.03 1172.96 740.06 1178.79 738.03 1185.03 737.01 1191.5 737.01 1194.77 778.63 1194.77 778.63 1194.77 778.63 1194.77 737.01 1194.77 737.01 1245.29 738.03 1251.76 740.06 1257.99 743.03 1263.83 746.88 1269.13 751.51 1273.76 756.82 1277.61 762.65 1280.59 768.88 1282.61 775.35 1283.64 778.63 1283.64 778.63 1194.77 778.63 1194.77 778.63 1283.64 781.91 1283.64 788.38 1282.61 794.61 1280.59 800.44 1277.61 805.74 1273.76 810.38 1269.13 814.23 1263.83 817.2 1257.99 819.23 1251.76 820.25 1245.29 820.25 1194.77 M 778.63 1200.9 778.63 1200.9 M 778.63 1216.88 778.63 1216.88 M 778.63 1232.87 778.63 1232.87 M 778.63 1248.85 778.63 1248.85 M 778.63 1264.84 778.63 1264.84 M 778.63 1280.82 778.63 1280.82 M 793.88 1280.82 867.94 1280.82 M 870.07 1296.81 616.71 1296.81 M 619.19 1312.79 872.21 1312.79 M 874.35 1328.78 621.67 1328.78 M 624.14 1344.76 876.48 1344.76 M 879.66 1360.75 626.62 1360.75 M 629.1 1376.73 893.69 1376.73 M 906.17 1392.72 631.66 1392.72 M 641.85 1408.7 918.65 1408.7 M 931.13 1424.69 652.05 1424.69 M 610.06 1440.68 576.4 1440.68 M 585.77 1456.66 620.25 1456.66 M 647.92 1459.14 2606.58 1459.14 2934.93 1203.63 M 2966.65 1200.9 3042.89 1200.9 M 3018.04 1216.88 2966.65 1216.88 M 2960.92 1232.87 2993.18 1232.87 M 2968.33 1248.85 2912.64 1248.85 M 2892.09 1264.84 2943.47 1264.84 M 2918.62 1280.82 2871.55 1280.82 M 2851.01 1296.81 2893.76 1296.81 M 2868.91 1312.79 2830.47 1312.79 M 2844.05 1328.78 2809.93 1328.78 M 2819.2 1344.76 2789.39 1344.76 M 2794.34 1360.75 2768.84 1360.75 M 2769.49 1376.73 2748.3 1376.73 M 2744.63 1392.72 2727.76 1392.72 M 2719.78 1408.7 2707.22 1408.7 M 2694.92 1424.69 2686.68 1424.69 M 2670.06 1440.68 2666.14 1440.68 M 2676.84 1488.63 2759.41 1488.63 M 2860.75 1472.65 3450.53 1472.65 M 3408.57 1488.63 2866.65 1488.63 M 2866.65 1504.62 3366.61 1504.62 M 3324.65 1520.6 2866.65 1520.6 M 3021.78 1412.8 3046.15 1422.89 3072.53 1422.89 3096.9 1412.8 3115.55 1394.14 3125.65 1369.77 3125.65 1343.39 3115.55 1319.02 3096.9 1300.37 3072.53 1290.28 3046.15 1290.28 3021.78 1300.37 3003.13 1319.02 2993.03 1343.39 2993.03 1369.77 3003.13 1394.14 3021.78 1412.8 M 3017.69 1408.7 2801.12 1408.7 M 2825.97 1392.72 3002.54 1392.72 M 2995.92 1376.73 2850.83 1376.73 M 2875.68 1360.75 2993.03 1360.75 M 2993.03 1344.76 2900.54 1344.76 M 2925.39 1328.78 2999.08 1328.78 M 3009.35 1312.79 2950.25 1312.79 M 2975.1 1296.81 3030.38 1296.81 M 2999.96 1280.82 3851.64 1280.82 M 3851.64 1296.81 3462.32 1296.81 M 3483.34 1312.79 3833.86 1312.79 M 3793.56 1328.78 3763.74 1328.78 M 3797.53 1350.87 3732.17 1374.1 M 3771.76 1392.72 4188.14 1392.72 M 4182.4 1408.7 3771.76 1408.7 M 3790.46 1376.73 4197.97 1376.73 M 4217.93 1360.75 3949.42 1360.75 M 3881.85 1360.75 3832.3 1360.75 M 3797.53 1350.87 3915.64 1304.02 M 3864.31 1264.84 3024.82 1264.84 M 3088.3 1296.81 3404.39 1296.81 M 3383.37 1312.79 3109.32 1312.79 M 3119.59 1328.78 3373.1 1328.78 M 3367.05 1344.76 3125.65 1344.76 M 3125.65 1360.75 3367.05 1360.75 M 3369.93 1376.73 3122.76 1376.73 M 3116.14 1392.72 3376.55 1392.72 M 3391.7 1408.7 3100.99 1408.7 M 3406.28 1536.59 4191.42 1536.59 M 4184.8 1552.57 3364.32 1552.57 M 3325.53 1568.56 4182.4 1568.56 M 4182.4 1584.54 184.31 1584.54 M 177.77 1600.53 4188.94 1600.53 M 4199.9 1616.51 166.8 1616.51 M 144.11 1632.5 4222.59 1632.5 M 4205.88 1520.6 3448.24 1520.6 M 3555.05 1472.65 4207.81 1472.65 M 4192.22 1456.66 3577.87 1456.66 M 3600.69 1440.68 4185.6 1440.68 M 4182.4 1424.69 3623.5 1424.69 M 3617.78 1344.76 3499.66 1344.76 M 3493.61 1328.78 3625.81 1328.78 M 3688.93 1328.78 3700.61 1328.78 M 3067.75 1184.91 2966.65 1184.91 M 2882.07 1216.88 2295.89 1216.88 M 2368 1344.77 2468 1259.93 M 2370.43 1025.06 2287.71 1025.06 M 2313.49 977.11 3213.97 977.11 M 3140.93 993.09 2646.55 993.09 M 2649.72 1009.08 3067.89 1009.08 M 3287.02 961.12 2284.36 961.12 M 2272.46 849.23 2384.32 849.23 M 2316.27 833.24 2279.54 833.24 M 2248.71 794.77 2568 869.77 M 2599.72 865.21 2703.21 865.21 M 2703.21 881.2 2599.72 881.2 M 2595.82 897.18 2703.21 897.18 M 2704.57 849.23 2599.72 849.23 M 2440.64 817.26 3211.53 817.26 M 3259.31 801.27 2372.58 801.27 M 2276.55 753.32 2598.28 753.32 M 2651.89 753.32 2868.97 753.32 M 2719.24 705.36 3061.81 705.36 M 3065.98 673.39 2296.62 673.39 M 2280.64 657.4 3049.99 657.4 M 3049.35 641.42 2271.36 641.42 M 2287.34 625.43 2443.43 625.43 M 2468 594.77 2248.71 594.77 M 2199.71 593.46 1996.92 593.46 M 1999.72 609.45 2199.71 609.45 M 2210.07 625.43 1999.72 625.43 M 1999.72 641.42 2226.06 641.42 M 2216.78 657.4 1863.5 657.4 M 1861.1 673.39 2200.79 673.39 M 2275.45 737.33 2427.79 737.33 M 2443.16 689.37 2395.6 689.37 M 2492.84 689.37 3440.25 689.37 M 3349.35 753.32 3343.35 753.32 M 3330.81 769.3 3361.32 769.3 M 3357.22 785.29 3308.04 785.29 M 3304.43 801.27 3353.13 801.27 M 3349.04 817.26 3300.81 817.26 M 3297.19 833.24 3344.95 833.24 M 3340.86 849.23 3292.56 849.23 M 3336.77 865.21 3158.94 865.21 M 3316.31 945.14 2024.13 945.14 M 2549.61 993.09 2589.45 993.09 M 2765.28 849.23 2773.54 849.23 M 3230.88 705.36 3261.81 705.36 M 3249.35 721.34 3243.35 721.34 M 3243.35 737.33 3249.35 737.33 M 3249.35 753.32 3243.35 753.32 M 3196.35 637.29 3184.14 564.26 M 3062.76 513.54 2297.71 513.54 M 2297.71 497.55 2984.67 497.55 M 3047.9 465.58 3497.16 465.58 M 3497.25 449.6 2969.81 449.6 M 2906.58 481.57 2297.71 481.57 M 2288.82 465.58 2828.49 465.58 M 2891.72 433.61 3497.34 433.61 M 3497.43 417.63 2813.63 417.63 M 2750.4 449.6 2272.83 449.6 M 2224.59 449.6 2016.25 449.6 M 2016.25 465.58 2208.6 465.58 M 2199.71 481.57 2016.25 481.57 M 2016.25 497.55 2199.66 497.55 M 2171.8 513.54 2011.58 513.54 M 1993.04 529.52 2143.94 529.52 M 2116.08 545.51 1598.97 545.51 M 1593.04 529.52 1664.22 529.52 M 1645.68 513.54 1611.58 513.54 M 1616.25 497.55 1641.01 497.55 M 1641.01 481.57 1616.25 481.57 M 1616.25 465.58 1641.01 465.58 M 1641.01 449.6 1616.25 449.6 M 1613.59 433.61 1643.67 433.61 M 1655.32 417.63 1601.94 417.63 M 1555.32 417.63 1523.11 417.63 M 1518.63 433.61 1543.67 433.61 M 1541.01 449.6 1516.25 449.6 M 1516.25 465.58 1541.01 465.58 M 1541.01 481.57 1516.25 481.57 M 1516.25 497.55 1541.01 497.55 M 1545.68 513.54 1511.58 513.54 M 1493.04 529.52 1564.22 529.52 M 1537.03 545.51 41 545.51 M 41 561.49 1536.28 561.49 M 1464.22 529.52 1393.04 529.52 M 1411.58 513.54 1445.68 513.54 M 1441.01 497.55 1416.25 497.55 M 1416.25 481.57 1441.01 481.57 M 1441.01 465.58 1416.25 465.58 M 1416.25 449.6 1441.01 449.6 M 1443.67 433.61 1417.68 433.61 M 1421.94 417.63 1455.32 417.63 M 1481.89 401.64 1426.2 401.64 M 1430.45 385.66 1486.16 385.66 M 1496.83 369.67 1434.71 369.67 M 1393.44 353.69 1208.42 353.69 M 1207.54 369.67 1389.18 369.67 M 1384.92 385.66 1206.66 385.66 M 1205.79 401.64 1380.66 401.64 M 1508.16 389.46 1478.63 494.77 M 1693.04 529.52 1755.65 529.52 M 1756.82 530.37 1751.51 526.52 1746.88 521.89 1743.03 516.59 1740.06 510.75 1738.03 504.52 1737.01 498.05 1737.01 494.77 1778.63 494.77 1778.63 494.77 1820.25 494.77 1820.25 498.05 1819.23 504.52 1817.2 510.75 1814.23 516.59 1810.38 521.89 1805.74 526.52 1800.44 530.37 1794.61 533.34 1788.38 535.37 1781.91 536.39 1778.63 536.39 1775.35 536.39 1768.88 535.37 1762.65 533.34 1756.82 530.37 M 1778.63 529.52 1778.63 529.52 M 1778.63 536.39 1778.63 494.77 1778.63 494.77 1778.63 536.39 M 1778.63 513.54 1778.63 513.54 M 1778.63 497.55 1778.63 497.55 M 1815.78 513.54 1845.68 513.54 M 1841.01 497.55 1820.25 497.55 M 1820.25 481.57 1841.01 481.57 M 1841.01 465.58 1820.25 465.58 M 1820.25 449.6 1841.01 449.6 M 1843.67 433.61 1817.87 433.61 M 1807.59 417.63 1855.32 417.63 M 1901.94 417.63 1955.32 417.63 M 1943.67 433.61 1913.59 433.61 M 1916.25 449.6 1941.01 449.6 M 1941.01 465.58 1916.25 465.58 M 1916.25 481.57 1941.01 481.57 M 1941.01 497.55 1916.25 497.55 M 1911.58 513.54 1945.68 513.54 M 1964.22 529.52 1893.04 529.52 M 1864.22 529.52 1801.61 529.52 M 1741.48 513.54 1711.58 513.54 M 1716.25 497.55 1737.01 497.55 M 1737.01 481.57 1716.25 481.57 M 1716.25 465.58 1737.01 465.58 M 1737.01 449.6 1716.25 449.6 M 1713.59 433.61 1739.39 433.61 M 1749.67 417.63 1701.94 417.63 M 1508.16 389.46 2018 389.46 2248.71 394.77 M 2202.27 417.63 2001.94 417.63 M 2013.59 433.61 2218.25 433.61 M 2248.71 494.77 2118 569.77 M 1968 619.77 1818 632.37 M 1718 619.77 1618 632.37 M 1572.5 689.37 942.84 689.37 M 918 719.77 1605.4 719.77 1618 707.17 M 1237.01 481.57 1216.25 481.57 M 1216.25 465.58 1237.01 465.58 M 1237.01 449.6 1216.25 449.6 M 1213.59 433.61 1239.39 433.61 M 1249.67 417.63 1204.91 417.63 M 1161.72 401.64 1023.41 401.64 M 1027.22 385.66 1162.6 385.66 M 1163.48 369.67 1031.02 369.67 M 1034.83 353.69 1164.36 353.69 M 1165.24 337.7 1038.64 337.7 M 1042.44 321.72 1166.12 321.72 M 1166.99 305.73 1106.77 305.73 M 1004.82 289.75 935.19 289.75 M 932.52 305.73 1001.02 305.73 M 997.21 321.72 929.85 321.72 M 927.18 337.7 993.41 337.7 M 989.6 353.69 924.51 353.69 M 921.84 369.67 985.8 369.67 M 981.99 385.66 919.17 385.66 M 916.49 401.64 978.18 401.64 M 955.32 417.63 913.82 417.63 M 913.59 433.61 943.67 433.61 M 941.01 449.6 916.25 449.6 M 916.25 465.58 941.01 465.58 M 664.22 529.52 593.04 529.52 M 611.58 513.54 645.68 513.54 M 641.01 497.55 616.25 497.55 M 616.25 481.57 641.01 481.57 M 641.01 465.58 616.25 465.58 M 616.25 449.6 641.01 449.6 M 643.67 433.61 613.59 433.61 M 601.94 417.63 655.32 417.63 M 355.32 417.63 307.59 417.63 M 305.74 415.78 310.38 420.41 314.23 425.71 317.2 431.55 319.23 437.78 320.25 444.25 320.25 494.77 278.63 494.77 278.63 405.91 281.91 405.91 288.38 406.93 294.61 408.95 300.44 411.93 305.74 415.78 M 317.87 433.61 343.67 433.61 M 341.01 449.6 320.25 449.6 M 320.25 465.58 341.01 465.58 M 341.01 481.57 320.25 481.57 M 320.25 494.77 278.63 494.77 278.63 494.77 278.63 405.91 275.35 405.91 268.88 406.93 262.65 408.95 256.82 411.93 251.51 415.78 246.88 420.41 243.03 425.71 240.06 431.55 238.03 437.78 237.01 444.25 237.01 494.77 278.63 494.77 278.63 494.77 278.63 494.77 237.01 494.77 237.01 498.05 238.03 504.52 240.06 510.75 243.03 516.59 246.88 521.89 251.51 526.52 256.82 530.37 262.65 533.34 268.88 535.37 275.35 536.39 278.63 536.39 278.63 494.77 278.63 494.77 278.63 536.39 281.91 536.39 288.38 535.37 294.61 533.34 300.44 530.37 305.74 526.52 310.38 521.89 314.23 516.59 317.2 510.75 319.23 504.52 320.25 498.05 320.25 494.77 M 320.25 497.55 341.01 497.55 M 345.68 513.54 315.78 513.54 M 301.61 529.52 364.22 529.52 M 278.63 529.52 278.63 529.52 M 278.63 513.54 278.63 513.54 M 278.63 497.55 278.63 497.55 M 278.63 481.57 278.63 481.57 M 278.63 465.58 278.63 465.58 M 278.63 449.6 278.63 449.6 M 278.63 433.61 278.63 433.61 M 278.63 417.63 278.63 417.63 M 249.67 417.63 201.94 417.63 M 199.94 415.63 210.52 426.22 216.25 440.04 216.25 502.26 210.52 516.08 199.94 526.67 186.11 532.39 171.15 532.39 157.32 526.67 146.74 516.08 141.01 502.26 141.01 440.04 146.74 426.22 157.32 415.63 171.15 409.91 186.11 409.91 199.94 415.63 M 213.59 433.61 239.39 433.61 M 237.01 449.6 216.25 449.6 M 216.25 465.58 237.01 465.58 M 237.01 481.57 216.25 481.57 M 216.25 497.55 237.01 497.55 M 241.48 513.54 211.58 513.54 M 193.04 529.52 255.65 529.52 M 164.22 529.52 93.04 529.52 M 99.94 526.67 86.11 532.39 71.15 532.39 57.32 526.67 46.74 516.08 41.01 502.26 41.01 440.04 46.74 426.22 57.32 415.63 71.15 409.91 86.11 409.91 99.94 415.63 110.52 426.22 116.25 440.04 116.25 502.26 110.52 516.08 99.94 526.67 M 111.58 513.54 145.68 513.54 M 141.01 497.55 116.25 497.55 M 116.25 481.57 141.01 481.57 M 141.01 465.58 116.25 465.58 M 116.25 449.6 141.01 449.6 M 143.67 433.61 113.59 433.61 M 101.94 417.63 155.32 417.63 M 55.32 417.63 41 417.63 M 41 433.61 43.67 433.61 M 41.01 449.6 41 449.6 M 41 465.58 41.01 465.58 M 41 481.57 41.01 481.57 M 41 497.55 41.01 497.55 M 41 513.54 45.68 513.54 M 41 529.52 64.22 529.52 M 701.08 785.29 929.41 785.29 M 906.03 801.27 724.46 801.27 M 677.45 844.77 868 919.77 M 750.54 897.18 715.55 897.18 M 844.12 1010.31 865.24 1010.31 865.24 1061.31 865.24 1061.31 814.24 1061.31 814.24 1082.43 844.12 1112.31 865.24 1112.31 865.24 1061.31 865.24 1061.31 814.24 1061.31 814.24 1040.18 844.12 1010.31 M 829.36 1025.06 795.47 1025.06 M 811.45 1041.05 814.24 1041.05 M 814.24 1057.03 812.24 1057.03 M 812.24 1073.02 814.24 1073.02 M 820.81 1089 804.02 1089 M 788.03 1104.99 836.8 1104.99 M 865.24 1104.99 865.24 1104.99 M 865.24 1112.31 886.37 1112.31 916.24 1082.43 916.24 1061.31 865.25 1061.31 865.25 1061.31 M 865.24 1061.31 865.24 1112.31 M 865.24 1089 865.24 1089 M 865.24 1073.02 865.24 1073.02 M 865.25 1061.31 916.24 1061.31 916.24 1040.18 886.37 1010.31 865.24 1010.31 865.24 1061.31 865.24 1061.31 M 865.24 1057.03 865.24 1057.03 M 865.24 1041.05 865.24 1041.05 M 865.24 1025.06 865.24 1025.06 M 901.12 1025.06 1260.86 1025.06 M 1245.74 1041.05 916.24 1041.05 M 916.24 1057.03 1245.74 1057.03 M 1245.74 1073.02 916.24 1073.02 M 909.67 1089 1252.31 1089 M 1268.3 1104.99 893.69 1104.99 M 778.63 1168.93 778.63 1168.93 M 778.63 1184.91 778.63 1184.91 M 745.96 1168.93 705.99 1168.93 M 710.52 1173.46 716.25 1187.29 716.25 1249.5 710.52 1263.33 699.94 1273.91 686.11 1279.64 671.15 1279.64 657.32 1273.91 646.74 1263.33 641.01 1249.5 641.01 1187.29 646.74 1173.46 657.32 1162.88 671.15 1157.15 686.11 1157.15 699.94 1162.88 710.52 1173.46 M 715.27 1184.91 738.07 1184.91 M 737.01 1200.9 716.25 1200.9 M 716.25 1216.88 737.01 1216.88 M 737.01 1232.87 716.25 1232.87 M 716.25 1248.85 737.57 1248.85 M 743.76 1264.84 709.01 1264.84 M 763.38 1280.82 614.23 1280.82 M 611.75 1264.84 648.25 1264.84 M 641.01 1248.85 616.25 1248.85 M 616.25 1232.87 641.01 1232.87 M 641.01 1216.88 616.25 1216.88 M 616.25 1200.9 641.01 1200.9 M 641.99 1184.91 615.27 1184.91 M 605.99 1168.93 651.27 1168.93 M 578.63 1194.77 610.52 1400.48 647.92 1459.14 M 599.86 1424.69 567.04 1424.69 M 557.67 1408.7 589.53 1408.7 M 587.05 1392.72 548.31 1392.72 M 538.94 1376.73 584.58 1376.73 M 582.1 1360.75 530.89 1360.75 M 528.01 1344.76 579.62 1344.76 M 577.14 1328.78 525.13 1328.78 M 522.25 1312.79 574.66 1312.79 M 572.19 1296.81 519.37 1296.81 M 516.49 1280.82 569.71 1280.82 M 548.25 1264.84 513.61 1264.84 M 516.25 1248.85 541.01 1248.85 M 541.01 1232.87 516.25 1232.87 M 516.25 1216.88 541.01 1216.88 M 541.01 1200.9 516.25 1200.9 M 515.27 1184.91 541.99 1184.91 M 551.27 1168.93 505.99 1168.93 M 478.63 1194.77 510.52 1371.74 579.02 1488.67 M 91.89 1632.5 41 1632.5 M 41 1616.51 69.2 1616.51 M 58.23 1600.53 41 1600.53 M 41 1584.54 51.69 1584.54 M 51.69 1568.56 41 1568.56 M 41 1552.57 54.09 1552.57 M 60.71 1536.59 41 1536.59 M 41 1520.6 75.17 1520.6 M 219.56 1280.82 263.38 1280.82 M 243.76 1264.84 216.13 1264.84 M 216.25 1248.85 237.57 1248.85 M 237.01 1232.87 216.25 1232.87 M 216.25 1216.88 237.01 1216.88 M 278.63 1184.91 278.63 1184.91 M 278.63 1168.93 278.63 1168.93 M 311.3 1168.93 351.27 1168.93 M 341.99 1184.91 319.19 1184.91 M 320.25 1200.9 341.01 1200.9 M 341.01 1216.88 320.25 1216.88 M 320.25 1232.87 341.01 1232.87 M 341.01 1248.85 319.69 1248.85 M 313.5 1264.84 348.25 1264.84 M 148.25 1264.84 109.01 1264.84 M 116.25 1248.85 141.01 1248.85 M 141.01 1232.87 116.25 1232.87 M 116.25 1216.88 141.01 1216.88 M 141.01 1200.9 116.25 1200.9 M 115.27 1184.91 141.99 1184.91 M 151.27 1168.93 105.99 1168.93 M 813.5 1264.84 848.25 1264.84 M 841.01 1248.85 819.69 1248.85 M 820.25 1232.87 841.01 1232.87 M 841.01 1216.88 820.25 1216.88 M 1296.74 1104.99 1296.74 1104.99 M 1296.74 1089 1296.74 1089 M 1296.74 1073.02 1296.74 1073.02 M 1296.74 1061.31 1296.74 1010.31 1296.74 1061.31 1296.74 1061.31 M 1296.74 1057.03 1296.74 1057.03 M 1296.74 1041.05 1296.74 1041.05 M 1296.74 1025.06 1296.74 1025.06 M 2449.72 417.63 2643.5 417.63 M 2735.54 401.64 3497.52 401.64 M 3497.07 481.57 3125.98 481.57 M 2526.91 241.79 2525.7 241.79 M 2483.66 225.81 2469.07 225.81 M 1396.27 337.7 1209.3 337.7" fill="none" stroke-width="16"/><path d="M 568 172.53 478.63 494.77 M 568 172.53 2998.31 172.53 3186.9 173.31 3524.3 263.47 3521.94 681.58 3396.35 737.29 3334.93 977.25 2745.76 1106.19 2248.71 1194.77" fill="none" stroke-width="24"/><use xlink:href="#nP9Py4t5eYnBILcgVI5L_pad-19" x="2468" y="1259.93"/><use xlink:href="#nP9Py4t5eYnBILcgVI5L_pad-19" x="2518" y="1305.4"/><use xlink:href="#nP9Py4t5eYnBILcgVI5L_pad-19" x="2568" y="1345.56"/><use xlink:href="#nP9Py4t5eYnBILcgVI5L_pad-19" x="2618" y="1385.72"/><use xlink:href="#nP9Py4t5eYnBILcgVI5L_pad-19" x="2834.93" y="1502.06"/><use xlink:href="#nP9Py4t5eYnBILcgVI5L_pad-19" x="2934.93" y="1203.63"/><use xlink:href="#nP9Py4t5eYnBILcgVI5L_pad-19" x="3154.61" y="1155.2"/><use xlink:href="#nP9Py4t5eYnBILcgVI5L_pad-19" x="2618" y="1019.77"/><use xlink:href="#nP9Py4t5eYnBILcgVI5L_pad-19" x="2568" y="869.77"/><use xlink:href="#nP9Py4t5eYnBILcgVI5L_pad-19" x="2734.93" y="874.1"/><use xlink:href="#nP9Py4t5eYnBILcgVI5L_pad-19" x="2625.09" y="724.89"/><use xlink:href="#nP9Py4t5eYnBILcgVI5L_pad-19" x="2468" y="719.77"/><use xlink:href="#nP9Py4t5eYnBILcgVI5L_pad-19" x="2468" y="594.77"/><use xlink:href="#nP9Py4t5eYnBILcgVI5L_pad-19" x="2834.93" y="584.73"/><use xlink:href="#nP9Py4t5eYnBILcgVI5L_pad-19" x="2418" y="396.94"/><use xlink:href="#nP9Py4t5eYnBILcgVI5L_pad-19" x="2368" y="316.62"/><use xlink:href="#nP9Py4t5eYnBILcgVI5L_pad-19" x="2493.98" y="265.05"/><use xlink:href="#nP9Py4t5eYnBILcgVI5L_pad-19" x="2554.61" y="214.26"/><use xlink:href="#nP9Py4t5eYnBILcgVI5L_pad-19" x="1568" y="569.77"/><use xlink:href="#nP9Py4t5eYnBILcgVI5L_pad-19" x="1718" y="619.77"/><use xlink:href="#nP9Py4t5eYnBILcgVI5L_pad-19" x="1968" y="619.77"/><use xlink:href="#nP9Py4t5eYnBILcgVI5L_pad-19" x="1418" y="769.77"/><use xlink:href="#nP9Py4t5eYnBILcgVI5L_pad-19" x="1668" y="919.77"/><use xlink:href="#nP9Py4t5eYnBILcgVI5L_pad-19" x="1618" y="969.77"/><use xlink:href="#nP9Py4t5eYnBILcgVI5L_pad-19" x="918" y="719.77"/></g></svg>