<svg version="1.1" xmlns="http://www.w3.org/2000/svg" xmlns:xlink="http://www.w3.org/1999/xlink" stroke-linecap="round" stroke-linejoin="round" stroke-width="0" fill-rule="evenodd" width="4.22915in" height="1.5400999999999998in" viewBox="62.85 74.7 4229.15 1540.1" id="C_RJ9AghBnBftomlnO_-"><defs><circle cx="0" cy="0" r="11.8" id="C_RJ9AghBnBftomlnO_-_pad-1"/><circle cx="0" cy="0" r="15.75" id="C_RJ9AghBnBftomlnO_-_pad-2"/><circle cx="0" cy="0" r="16" id="C_RJ9AghBnBftomlnO_-_pad-3"/><circle cx="0" cy="0" r="20" id="C_RJ9AghBnBftomlnO_-_pad-4"/><circle cx="0" cy="0" r="25.6" id="C_RJ9AghBnBftomlnO_-_pad-5"/><circle cx="0" cy="0" r="43.3" id="C_RJ9AghBnBftomlnO_-_pad-6"/></defs><g transform="translate(0,1689.5) scale(1,-1)" fill="currentColor" stroke="currentColor"><use xlink:href="#C_RJ9AghBnBftomlnO_-_pad-1" x="1568" y="569.8"/><use xlink:href="#C_RJ9AghBnBftomlnO_-_pad-1" x="1718" y="619.8"/><use xlink:href="#C_RJ9AghBnBftomlnO_-_pad-1" x="1968" y="619.8"/><use xlink:href="#C_RJ9AghBnBftomlnO_-_pad-1" x="2468" y="594.8"/><use xlink:href="#C_RJ9AghBnBftomlnO_-_pad-1" x="2468" y="719.8"/><use xlink:href="#C_RJ9AghBnBftomlnO_-_pad-1" x="2625.1" y="724.9"/><use xlink:href="#C_RJ9AghBnBftomlnO_-_pad-1" x="2834.9" y="584.7"/><use xlink:href="#C_RJ9AghBnBftomlnO_-_pad-1" x="2418" y="396.9"/><use xlink:href="#C_RJ9AghBnBftomlnO_-_pad-1" x="2368" y="316.6"/><use xlink:href="#C_RJ9AghBnBftomlnO_-_pad-1" x="2494" y="265"/><use xlink:href="#C_RJ9AghBnBftomlnO_-_pad-1" x="2554.6" y="214.3"/><use xlink:href="#C_RJ9AghBnBftomlnO_-_pad-1" x="1418" y="769.8"/><use xlink:href="#C_RJ9AghBnBftomlnO_-_pad-1" x="1668" y="919.8"/><use xlink:href="#C_RJ9AghBnBftomlnO_-_pad-1" x="1618" y="969.8"/><use xlink:href="#C_RJ9AghBnBftomlnO_-_pad-1" x="918" y="719.8"/><use xlink:href="#C_RJ9AghBnBftomlnO_-_pad-1" x="2468" y="1259.9"/><use xlink:href="#C_RJ9AghBnBftomlnO_-_pad-1" x="2518" y="1305.4"/><use xlink:href="#C_RJ9AghBnBftomlnO_-_pad-1" x="2568" y="1345.6"/><use xlink:href="#C_RJ9AghBnBftomlnO_-_pad-1" x="2618" y="1385.7"/><use xlink:href="#C_RJ9AghBnBftomlnO_-_pad-1" x="2834.9" y="1502.1"/><use xlink:href="#C_RJ9AghBnBftomlnO_-_pad-1" x="2934.9" y="1203.6"/><use xlink:href="#C_RJ9AghBnBftomlnO_-_pad-1" x="3154.6" y="1155.2"/><use xlink:href="#C_RJ9AghBnBftomlnO_-_pad-1" x="2618" y="1019.8"/><use xlink:href="#C_RJ9AghBnBftomlnO_-_pad-1" x="2568" y="869.8"/><use xlink:href="#C_RJ9AghBnBftomlnO_-_pad-1" x="2734.9" y="874.1"/><use xlink:href="#C_RJ9AghBnBftomlnO_-_pad-2" x="1962.9" y="844.8"/><use xlink:href="#C_RJ9AghBnBftomlnO_-_pad-2" x="1962.9" y="944.8"/><use xlink:href="#C_RJ9AghBnBftomlnO_-_pad-2" x="1962.9" y="744.8"/><use xlink:href="#C_RJ9AghBnBftomlnO_-_pad-2" x="1978.6" y="494.8"/><use xlink:href="#C_RJ9AghBnBftomlnO_-_pad-2" x="1878.6" y="494.8"/><use xlink:href="#C_RJ9AghBnBftomlnO_-_pad-2" x="1778.6" y="494.8"/><use xlink:href="#C_RJ9AghBnBftomlnO_-_pad-2" x="1678.6" y="494.8"/><use xlink:href="#C_RJ9AghBnBftomlnO_-_pad-2" x="1578.6" y="494.8"/><use xlink:href="#C_RJ9AghBnBftomlnO_-_pad-2" x="1478.6" y="494.8"/><use xlink:href="#C_RJ9AghBnBftomlnO_-_pad-2" x="1378.6" y="494.8"/><use xlink:href="#C_RJ9AghBnBftomlnO_-_pad-2" x="1278.6" y="494.8"/><use xlink:href="#C_RJ9AghBnBftomlnO_-_pad-2" x="1178.6" y="494.8"/><use xlink:href="#C_RJ9AghBnBftomlnO_-_pad-2" x="1078.6" y="494.8"/><use xlink:href="#C_RJ9AghBnBftomlnO_-_pad-2" x="978.6" y="494.8"/><use xlink:href="#C_RJ9AghBnBftomlnO_-_pad-2" x="878.6" y="494.8"/><use xlink:href="#C_RJ9AghBnBftomlnO_-_pad-2" x="778.6" y="494.8"/><use xlink:href="#C_RJ9AghBnBftomlnO_-_pad-2" x="678.6" y="494.8"/><use xlink:href="#C_RJ9AghBnBftomlnO_-_pad-2" x="578.6" y="494.8"/><use xlink:href="#C_RJ9AghBnBftomlnO_-_pad-2" x="478.6" y="494.8"/><use xlink:href="#C_RJ9AghBnBftomlnO_-_pad-2" x="378.6" y="494.8"/><use xlink:href="#C_RJ9AghBnBftomlnO_-_pad-2" x="278.6" y="494.8"/><use xlink:href="#C_RJ9AghBnBftomlnO_-_pad-2" x="178.6" y="494.8"/><use xlink:href="#C_RJ9AghBnBftomlnO_-_pad-2" x="78.6" y="494.8"/><use xlink:href="#C_RJ9AghBnBftomlnO_-_pad-2" x="78.6" y="1194.8"/><use xlink:href="#C_RJ9AghBnBftomlnO_-_pad-2" x="178.6" y="1194.8"/><use xlink:href="#C_RJ9AghBnBftomlnO_-_pad-2" x="278.6" y="1194.8"/><use xlink:href="#C_RJ9AghBnBftomlnO_-_pad-2" x="378.6" y="1194.8"/><use xlink:href="#C_RJ9AghBnBftomlnO_-_pad-2" x="478.6" y="1194.8"/><use xlink:href="#C_RJ9AghBnBftomlnO_-_pad-2" x="578.6" y="1194.8"/><use xlink:href="#C_RJ9AghBnBftomlnO_-_pad-2" x="678.6" y="1194.8"/><use xlink:href="#C_RJ9AghBnBftomlnO_-_pad-2" x="778.6" y="1194.8"/><use xlink:href="#C_RJ9AghBnBftomlnO_-_pad-2" x="878.6" y="1194.8"/><use xlink:href="#C_RJ9AghBnBftomlnO_-_pad-2" x="978.6" y="1194.8"/><use xlink:href="#C_RJ9AghBnBftomlnO_-_pad-2" x="1078.6" y="1194.8"/><use xlink:href="#C_RJ9AghBnBftomlnO_-_pad-2" x="1178.6" y="1194.8"/><use xlink:href="#C_RJ9AghBnBftomlnO_-_pad-2" x="1278.6" y="1194.8"/><use xlink:href="#C_RJ9AghBnBftomlnO_-_pad-2" x="1378.6" y="1194.8"/><use xlink:href="#C_RJ9AghBnBftomlnO_-_pad-2" x="1478.6" y="1194.8"/><use xlink:href="#C_RJ9AghBnBftomlnO_-_pad-2" x="1578.6" y="1194.8"/><use xlink:href="#C_RJ9AghBnBftomlnO_-_pad-2" x="1678.6" y="1194.8"/><use xlink:href="#C_RJ9AghBnBftomlnO_-_pad-2" x="1778.6" y="1194.8"/><use xlink:href="#C_RJ9AghBnBftomlnO_-_pad-2" x="1878.6" y="1194.8"/><use xlink:href="#C_RJ9AghBnBftomlnO_-_pad-2" x="1978.6" y="1194.8"/><use xlink:href="#C_RJ9AghBnBftomlnO_-_pad-3" x="1396.7" y="1061.3"/><use xlink:href="#C_RJ9AghBnBftomlnO_-_pad-3" x="1296.7" y="1061.3"/><use xlink:href="#C_RJ9AghBnBftomlnO_-_pad-3" x="865.2" y="1061.3"/><use xlink:href="#C_RJ9AghBnBftomlnO_-_pad-3" x="765.2" y="1061.3"/><use xlink:href="#C_RJ9AghBnBftomlnO_-_pad-4" x="2248.7" y="1094.8"/><use xlink:href="#C_RJ9AghBnBftomlnO_-_pad-4" x="2248.7" y="1194.8"/><use xlink:href="#C_RJ9AghBnBftomlnO_-_pad-4" x="2248.7" y="1294.8"/><use xlink:href="#C_RJ9AghBnBftomlnO_-_pad-4" x="2248.7" y="994.8"/><use xlink:href="#C_RJ9AghBnBftomlnO_-_pad-4" x="2248.7" y="894.8"/><use xlink:href="#C_RJ9AghBnBftomlnO_-_pad-4" x="2248.7" y="794.8"/><use xlink:href="#C_RJ9AghBnBftomlnO_-_pad-4" x="2248.7" y="694.8"/><use xlink:href="#C_RJ9AghBnBftomlnO_-_pad-4" x="2248.7" y="594.8"/><use xlink:href="#C_RJ9AghBnBftomlnO_-_pad-4" x="2248.7" y="494.8"/><use xlink:href="#C_RJ9AghBnBftomlnO_-_pad-4" x="2248.7" y="394.8"/><use xlink:href="#C_RJ9AghBnBftomlnO_-_pad-4" x="3096.3" y="637.3"/><use xlink:href="#C_RJ9AghBnBftomlnO_-_pad-4" x="3196.3" y="637.3"/><use xlink:href="#C_RJ9AghBnBftomlnO_-_pad-4" x="3296.3" y="637.3"/><use xlink:href="#C_RJ9AghBnBftomlnO_-_pad-4" x="3396.3" y="637.3"/><use xlink:href="#C_RJ9AghBnBftomlnO_-_pad-4" x="3396.3" y="737.3"/><use xlink:href="#C_RJ9AghBnBftomlnO_-_pad-4" x="3296.3" y="737.3"/><use xlink:href="#C_RJ9AghBnBftomlnO_-_pad-4" x="3196.3" y="737.3"/><use xlink:href="#C_RJ9AghBnBftomlnO_-_pad-4" x="3096.3" y="737.3"/><use xlink:href="#C_RJ9AghBnBftomlnO_-_pad-4" x="3915.6" y="1004"/><use xlink:href="#C_RJ9AghBnBftomlnO_-_pad-4" x="3915.6" y="1304"/><use xlink:href="#C_RJ9AghBnBftomlnO_-_pad-5" x="1740.4" y="844.8"/><use xlink:href="#C_RJ9AghBnBftomlnO_-_pad-5" x="1484.5" y="844.8"/><use xlink:href="#C_RJ9AghBnBftomlnO_-_pad-5" x="1208.9" y="844.8"/><use xlink:href="#C_RJ9AghBnBftomlnO_-_pad-5" x="953" y="844.8"/><use xlink:href="#C_RJ9AghBnBftomlnO_-_pad-5" x="677.4" y="844.8"/><use xlink:href="#C_RJ9AghBnBftomlnO_-_pad-5" x="421.5" y="844.8"/><use xlink:href="#C_RJ9AghBnBftomlnO_-_pad-6" x="118" y="118"/><use xlink:href="#C_RJ9AghBnBftomlnO_-_pad-6" x="3059.3" y="1356.6"/><use xlink:href="#C_RJ9AghBnBftomlnO_-_pad-6" x="3433.4" y="1356.6"/><use xlink:href="#C_RJ9AghBnBftomlnO_-_pad-6" x="4248.7" y="1419.8"/><use xlink:href="#C_RJ9AghBnBftomlnO_-_pad-6" x="4248.7" y="1571.5"/><use xlink:href="#C_RJ9AghBnBftomlnO_-_pad-6" x="4248.7" y="269.8"/><use xlink:href="#C_RJ9AghBnBftomlnO_-_pad-6" x="4248.7" y="118"/><use xlink:href="#C_RJ9AghBnBftomlnO_-_pad-6" x="118" y="1571.5"/></g></svg>