<svg version="1.1" xmlns="http://www.w3.org/2000/svg" xmlns:xlink="http://www.w3.org/1999/xlink" stroke-linecap="round" stroke-linejoin="round" stroke-width="0" fill-rule="evenodd" width="4.3007100000000005in" height="1.62354in" viewBox="33 33 4300.71 1623.54" id="FAvSsBbPmYpY-PtXekyR"><defs><polygon points="32.99993,13.66902 13.66902,32.99993 -13.66902,32.99993 -32.99993,13.66902 -32.99993,-13.66902 -13.66902,-32.99993 13.66902,-32.99993 32.99993,-13.66902" id="FAvSsBbPmYpY-PtXekyR_pad-10"/><polygon points="49.9999,20.71064 20.71064,49.9999 -20.71064,49.9999 -49.9999,20.71064 -49.9999,-20.71064 -20.71064,-49.9999 20.71064,-49.9999 49.9999,-20.71064" id="FAvSsBbPmYpY-PtXekyR_pad-11"/><circle cx="0" cy="0" r="50" id="FAvSsBbPmYpY-PtXekyR_pad-12"/><polygon points="34.99993,14.49745 14.49745,34.99993 -14.49745,34.99993 -34.99993,14.49745 -34.99993,-14.49745 -14.49745,-34.99993 14.49745,-34.99993 34.99993,-14.49745" id="FAvSsBbPmYpY-PtXekyR_pad-14"/><rect x="-17.715" y="-17.715" width="35.43" height="35.43" id="FAvSsBbPmYpY-PtXekyR_pad-16"/></defs><g transform="translate(0,1689.54) scale(1,-1)" fill="currentColor" stroke="currentColor"><use xlink:href="#FAvSsBbPmYpY-PtXekyR_pad-10" x="765.24" y="1061.31"/><use xlink:href="#FAvSsBbPmYpY-PtXekyR_pad-10" x="865.24" y="1061.31"/><use xlink:href="#FAvSsBbPmYpY-PtXekyR_pad-10" x="1296.74" y="1061.31"/><use xlink:href="#FAvSsBbPmYpY-PtXekyR_pad-10" x="1396.74" y="1061.31"/><use xlink:href="#FAvSsBbPmYpY-PtXekyR_pad-10" x="3096.35" y="737.29"/><use xlink:href="#FAvSsBbPmYpY-PtXekyR_pad-10" x="3196.35" y="737.29"/><use xlink:href="#FAvSsBbPmYpY-PtXekyR_pad-10" x="3296.35" y="737.29"/><use xlink:href="#FAvSsBbPmYpY-PtXekyR_pad-10" x="3396.35" y="737.29"/><use xlink:href="#FAvSsBbPmYpY-PtXekyR_pad-10" x="3396.35" y="637.29"/><use xlink:href="#FAvSsBbPmYpY-PtXekyR_pad-10" x="3296.35" y="637.29"/><use xlink:href="#FAvSsBbPmYpY-PtXekyR_pad-10" x="3196.35" y="637.29"/><use xlink:href="#FAvSsBbPmYpY-PtXekyR_pad-10" x="3096.35" y="637.29"/><use xlink:href="#FAvSsBbPmYpY-PtXekyR_pad-11" x="3915.64" y="1004.02"/><use xlink:href="#FAvSsBbPmYpY-PtXekyR_pad-11" x="3915.64" y="1304.02"/><use xlink:href="#FAvSsBbPmYpY-PtXekyR_pad-12" x="1740.44" y="844.77"/><use xlink:href="#FAvSsBbPmYpY-PtXekyR_pad-12" x="1484.54" y="844.77"/><use xlink:href="#FAvSsBbPmYpY-PtXekyR_pad-12" x="1208.94" y="844.77"/><use xlink:href="#FAvSsBbPmYpY-PtXekyR_pad-12" x="953.04" y="844.77"/><use xlink:href="#FAvSsBbPmYpY-PtXekyR_pad-12" x="677.45" y="844.77"/><use xlink:href="#FAvSsBbPmYpY-PtXekyR_pad-12" x="421.54" y="844.77"/><path d="M 378.63 494.77 378.63 447.53 M 478.63 447.53 478.63 494.77 M 578.63 494.77 578.63 447.53 M 678.63 447.53 678.63 494.77 M 778.63 494.77 778.63 447.53 M 878.63 447.53 878.63 494.77 M 978.63 494.77 978.63 447.53 M 1078.63 447.53 1078.63 494.77 M 1178.63 494.77 1178.63 447.53 M 1278.63 447.53 1278.63 494.77 M 1378.63 494.77 1378.63 447.53 M 1478.63 447.53 1478.63 494.77 M 1578.63 494.77 1578.63 447.53 M 1678.63 447.53 1678.63 494.77 M 1778.63 494.77 1778.63 447.53 M 1878.63 447.53 1878.63 494.77 M 1978.63 494.77 1978.63 447.53 M 1986.5 744.77 1939.26 744.77 M 1939.26 844.77 1986.5 844.77 M 1986.5 944.77 1939.26 944.77 M 1978.63 1194.77 1978.63 1242.02 M 1878.63 1242.02 1878.63 1194.77 M 1778.63 1194.77 1778.63 1242.02 M 1678.63 1242.02 1678.63 1194.77 M 1578.63 1194.77 1578.63 1242.02 M 1478.63 1242.02 1478.63 1194.77 M 1378.63 1194.77 1378.63 1242.02 M 1278.63 1242.02 1278.63 1194.77 M 1178.63 1194.77 1178.63 1242.02 M 1078.63 1242.02 1078.63 1194.77 M 978.63 1194.77 978.63 1242.02 M 878.63 1242.02 878.63 1194.77 M 778.63 1194.77 778.63 1242.02 M 678.63 1242.02 678.63 1194.77 M 578.63 1194.77 578.63 1242.02 M 478.63 1242.02 478.63 1194.77 M 378.63 1194.77 378.63 1242.02 M 278.63 1242.02 278.63 1194.77 M 178.63 1194.77 178.63 1242.02 M 78.63 1242.02 78.63 1194.77 M 78.63 494.77 78.63 447.53 M 178.63 447.53 178.63 494.77 M 278.63 494.77 278.63 447.53" fill="none" stroke-width="47.24"/><use xlink:href="#FAvSsBbPmYpY-PtXekyR_pad-14" x="2248.71" y="494.77"/><use xlink:href="#FAvSsBbPmYpY-PtXekyR_pad-14" x="2248.71" y="394.77"/><use xlink:href="#FAvSsBbPmYpY-PtXekyR_pad-14" x="2248.71" y="594.77"/><use xlink:href="#FAvSsBbPmYpY-PtXekyR_pad-14" x="2248.71" y="694.77"/><use xlink:href="#FAvSsBbPmYpY-PtXekyR_pad-14" x="2248.71" y="794.77"/><use xlink:href="#FAvSsBbPmYpY-PtXekyR_pad-14" x="2248.71" y="894.77"/><use xlink:href="#FAvSsBbPmYpY-PtXekyR_pad-14" x="2248.71" y="994.77"/><use xlink:href="#FAvSsBbPmYpY-PtXekyR_pad-14" x="2248.71" y="1094.77"/><use xlink:href="#FAvSsBbPmYpY-PtXekyR_pad-14" x="2248.71" y="1194.77"/><use xlink:href="#FAvSsBbPmYpY-PtXekyR_pad-14" x="2248.71" y="1294.77"/><path d="M 41 1648.54 41 41 4325.71 41 4325.71 1648.54 41 1648.54 M 41 1648.48 4325.71 1648.48 M 4325.71 1632.5 4274.82 1632.5 M 4286.27 1627.76 4261.9 1637.85 4235.52 1637.85 4211.15 1627.76 4192.5 1609.1 4182.4 1584.73 4182.4 1558.35 4192.5 1533.98 4211.15 1515.33 4235.52 1505.24 4261.9 1505.24 4286.27 1515.33 4304.92 1533.98 4315.02 1558.35 4315.02 1584.73 4304.92 1609.1 4286.27 1627.76 M 4297.51 1616.51 4325.71 1616.51 M 4325.71 1600.53 4308.47 1600.53 M 4315.02 1584.54 4325.71 1584.54 M 4325.71 1568.56 4315.02 1568.56 M 4312.62 1552.57 4325.71 1552.57 M 4325.71 1536.59 4306 1536.59 M 4291.54 1520.6 4325.71 1520.6 M 4325.71 1504.62 2866.65 1504.62 M 2866.65 1520.6 4205.88 1520.6 M 4191.42 1536.59 175.29 1536.59 M 174.21 1533.98 155.56 1515.33 131.19 1505.24 104.81 1505.24 80.44 1515.33 61.79 1533.98 51.69 1558.35 51.69 1584.73 61.79 1609.1 80.44 1627.76 104.81 1637.85 131.19 1637.85 155.56 1627.76 174.21 1609.1 184.31 1584.73 184.31 1558.35 174.21 1533.98 M 160.83 1520.6 2803.21 1520.6 M 2803.21 1525.57 2803.21 1478.54 2811.41 1470.34 2812.93 1470.34 2812.93 616.45 2811.41 616.45 2803.21 608.25 2803.21 561.22 2811.41 553.02 2858.44 553.02 2866.65 561.22 2866.65 608.25 2858.44 616.45 2856.93 616.45 2856.93 1470.34 2858.44 1470.34 2866.65 1478.54 2866.65 1525.57 2858.44 1533.77 2811.41 1533.77 2803.21 1525.57 M 2803.21 1504.62 41 1504.62 M 41 1520.6 75.17 1520.6 M 60.71 1536.59 41 1536.59 M 41 1552.57 54.09 1552.57 M 51.69 1568.56 41 1568.56 M 41 1584.54 51.69 1584.54 M 58.23 1600.53 41 1600.53 M 41 1616.51 69.2 1616.51 M 91.89 1632.5 41 1632.5 M 144.11 1632.5 4222.59 1632.5 M 4199.9 1616.51 166.8 1616.51 M 177.77 1600.53 4188.94 1600.53 M 4182.4 1584.54 184.31 1584.54 M 184.31 1568.56 4182.4 1568.56 M 4184.8 1552.57 181.91 1552.57 M 41 1488.63 2803.21 1488.63 M 2809.11 1472.65 41 1472.65 M 41 1456.66 2812.93 1456.66 M 2812.93 1440.68 41 1440.68 M 41 1424.69 2812.93 1424.69 M 2812.93 1408.7 2649.72 1408.7 M 2649.72 1409.23 2641.52 1417.43 2594.48 1417.43 2586.28 1409.23 2586.28 1377.28 2544.48 1377.28 2536.28 1369.07 2536.28 1337.12 2494.48 1337.12 2486.28 1328.92 2486.28 1291.65 2444.48 1291.65 2436.28 1283.44 2436.28 1236.41 2444.48 1228.21 2446 1228.21 2446 751.49 2444.48 751.49 2440 747 2440 1068.16 2441.1 1075.57 2440 1077.05 2440 1078.88 2434.7 1084.19 2430.23 1090.2 2428.41 1090.47 2427.11 1091.77 2419.62 1091.77 2297.71 1109.77 2297.71 1115.07 2269.01 1143.77 2228.41 1143.77 2199.71 1115.07 2199.71 1074.48 2228.41 1045.77 2269.01 1045.77 2289.71 1066.48 2396 1050.78 2396 428.65 2394.48 428.65 2390 424.17 2390 867.49 2391.4 874.18 2390 876.32 2390 878.88 2385.17 883.72 2381.43 889.43 2378.92 889.96 2377.11 891.77 2370.28 891.77 2297.71 906.98 2297.71 915.07 2269.01 943.77 2228.41 943.77 2199.71 915.07 2199.71 874.48 2228.41 845.77 2269.01 845.77 2287.42 864.18 2346 851.9 2346 348.34 2344.48 348.34 2336.28 340.14 2336.28 293.11 2344.48 284.91 2391.52 284.91 2399.72 293.11 2399.72 340.14 2391.52 348.34 2390 348.34 2390 369.71 2394.48 365.22 2441.52 365.22 2449.72 373.42 2449.72 420.45 2441.52 428.65 2440 428.65 2440 567.54 2444.48 563.06 2491.52 563.06 2499.72 571.26 2499.72 586.03 2523.19 597.77 2527.11 597.77 2531.03 601.69 2535.99 604.17 2537.23 607.89 2540 610.66 2540 616.2 2541.75 621.46 2540 624.97 2540 842.54 2544.48 838.06 2591.52 838.06 2599.72 846.26 2599.72 893.29 2591.52 901.49 2590 901.49 2590 992.54 2594.48 988.06 2641.52 988.06 2649.72 996.26 2649.72 1043.29 2641.52 1051.49 2640 1051.49 2640 1354 2641.52 1354 2649.72 1362.2 2649.72 1409.23 M 2649.72 1392.72 2812.93 1392.72 M 2812.93 1376.73 2649.72 1376.73 M 2648.27 1360.75 2812.93 1360.75 M 2812.93 1344.76 2640 1344.76 M 2640 1328.78 2812.93 1328.78 M 2812.93 1312.79 2640 1312.79 M 2640 1296.81 2812.93 1296.81 M 2812.93 1280.82 2640 1280.82 M 2640 1264.84 2812.93 1264.84 M 2812.93 1248.85 2640 1248.85 M 2640 1232.87 2812.93 1232.87 M 2812.93 1216.88 2640 1216.88 M 2640 1200.9 2812.93 1200.9 M 2812.93 1184.91 2640 1184.91 M 2640 1168.93 2812.93 1168.93 M 2812.93 1152.94 2640 1152.94 M 2640 1136.96 2812.93 1136.96 M 2812.93 1120.97 2640 1120.97 M 2640 1104.99 2812.93 1104.99 M 2812.93 1089 2640 1089 M 2640 1073.02 2812.93 1073.02 M 2812.93 1057.03 2640 1057.03 M 2649.72 1041.05 2812.93 1041.05 M 2812.93 1025.06 2649.72 1025.06 M 2649.72 1009.08 2812.93 1009.08 M 2812.93 993.09 2646.55 993.09 M 2590 977.11 2812.93 977.11 M 2812.93 961.12 2590 961.12 M 2590 945.14 2812.93 945.14 M 2812.93 929.15 2590 929.15 M 2590 913.17 2812.93 913.17 M 2812.93 897.18 2766.65 897.18 M 2766.65 897.62 2758.44 905.82 2711.41 905.82 2703.21 897.62 2703.21 850.59 2705.16 848.64 2540.47 245.98 2531.1 245.98 2522.9 237.78 2522.9 190.74 2531.1 182.54 2578.13 182.54 2586.33 190.74 2586.33 237.78 2584.38 239.73 2749.07 842.39 2758.44 842.39 2766.65 850.59 2766.65 897.62 M 2766.65 881.2 2812.93 881.2 M 2812.93 865.21 2766.65 865.21 M 2765.28 849.23 2812.93 849.23 M 2812.93 833.24 2746.57 833.24 M 2742.2 817.26 2812.93 817.26 M 2812.93 801.27 2737.83 801.27 M 2733.46 785.29 2812.93 785.29 M 2812.93 769.3 2729.1 769.3 M 2724.73 753.32 2812.93 753.32 M 2812.93 737.33 2720.36 737.33 M 2715.99 721.34 2812.93 721.34 M 2812.93 705.36 2711.62 705.36 M 2707.26 689.37 2812.93 689.37 M 2812.93 673.39 2702.89 673.39 M 2698.52 657.4 2812.93 657.4 M 2812.93 641.42 2694.15 641.42 M 2689.78 625.43 2812.93 625.43 M 2804.41 609.45 2685.41 609.45 M 2681.05 593.46 2803.21 593.46 M 2803.21 577.48 2676.68 577.48 M 2672.31 561.49 2803.21 561.49 M 2834.93 584.73 2834.93 1502.06 M 2866.65 1488.63 4325.71 1488.63 M 4325.71 1472.65 4289.61 1472.65 M 4286.27 1475.98 4261.9 1486.08 4235.52 1486.08 4211.15 1475.98 4192.5 1457.33 4182.4 1432.96 4182.4 1406.58 4192.5 1382.21 4211.15 1363.56 4235.52 1353.46 4261.9 1353.46 4286.27 1363.56 4304.92 1382.21 4315.02 1406.58 4315.02 1432.96 4304.92 1457.33 4286.27 1475.98 M 4305.2 1456.66 4325.71 1456.66 M 4325.71 1440.68 4311.82 1440.68 M 4315.02 1424.69 4325.71 1424.69 M 4325.71 1408.7 4315.02 1408.7 M 4309.27 1392.72 4325.71 1392.72 M 4325.71 1376.73 4299.44 1376.73 M 4279.49 1360.75 4325.71 1360.75 M 4325.71 1344.76 3965.41 1344.76 M 3979.64 1330.53 3942.15 1368.02 3889.13 1368.02 3851.64 1330.53 3851.64 1277.51 3889.13 1240.02 3942.15 1240.02 3979.64 1277.51 3979.64 1330.53 M 3979.64 1328.78 4325.71 1328.78 M 4325.71 1312.79 3979.64 1312.79 M 3979.64 1296.81 4325.71 1296.81 M 4325.71 1280.82 3979.64 1280.82 M 3966.96 1264.84 4325.71 1264.84 M 4325.71 1248.85 3950.98 1248.85 M 3880.3 1248.85 2856.93 1248.85 M 2856.93 1232.87 2908.94 1232.87 M 2911.41 1235.35 2903.21 1227.15 2903.21 1180.11 2911.41 1171.91 2912.93 1171.91 2912.93 676.58 2911.45 670.11 2912.93 667.76 2912.93 664.99 2917.62 660.3 2921.15 654.68 2923.86 654.06 2925.82 652.1 2932.45 652.1 3049.35 625.44 3049.35 617.82 3076.88 590.29 3115.81 590.29 3143.35 617.82 3143.35 656.76 3115.81 684.29 3076.88 684.29 3060.6 668.01 2956.93 691.65 2956.93 1171.91 2958.44 1171.91 2966.65 1180.11 2966.65 1227.15 2958.44 1235.35 2911.41 1235.35 M 2903.21 1216.88 2856.93 1216.88 M 2856.93 1200.9 2903.21 1200.9 M 2903.21 1184.91 2856.93 1184.91 M 2856.93 1168.93 2912.93 1168.93 M 2912.93 1152.94 2856.93 1152.94 M 2856.93 1136.96 2912.93 1136.96 M 2912.93 1120.97 2856.93 1120.97 M 2856.93 1104.99 2912.93 1104.99 M 2912.93 1089 2856.93 1089 M 2856.93 1073.02 2912.93 1073.02 M 2912.93 1057.03 2856.93 1057.03 M 2856.93 1041.05 2912.93 1041.05 M 2912.93 1025.06 2856.93 1025.06 M 2856.93 1009.08 2912.93 1009.08 M 2912.93 993.09 2856.93 993.09 M 2856.93 977.11 2912.93 977.11 M 2912.93 961.12 2856.93 961.12 M 2856.93 945.14 2912.93 945.14 M 2912.93 929.15 2856.93 929.15 M 2856.93 913.17 2912.93 913.17 M 2912.93 897.18 2856.93 897.18 M 2856.93 881.2 2912.93 881.2 M 2912.93 865.21 2856.93 865.21 M 2856.93 849.23 2912.93 849.23 M 2912.93 833.24 2856.93 833.24 M 2856.93 817.26 2912.93 817.26 M 2912.93 801.27 2856.93 801.27 M 2856.93 785.29 2912.93 785.29 M 2912.93 769.3 2856.93 769.3 M 2856.93 753.32 2912.93 753.32 M 2912.93 737.33 2856.93 737.33 M 2856.93 721.34 2912.93 721.34 M 2912.93 705.36 2856.93 705.36 M 2856.93 689.37 2912.93 689.37 M 2912.2 673.39 2856.93 673.39 M 2856.93 657.4 2919.44 657.4 M 2934.93 674.1 2934.93 1203.63 M 2966.65 1200.9 4325.71 1200.9 M 4325.71 1216.88 2966.65 1216.88 M 2960.92 1232.87 4325.71 1232.87 M 4325.71 1184.91 3180.14 1184.91 M 3178.13 1186.92 3131.1 1186.92 3122.9 1178.72 3122.9 1131.69 3131.1 1123.49 3135.67 1123.49 3170.21 777.62 3149.35 756.76 3149.35 717.82 3176.88 690.29 3215.81 690.29 3243.35 717.82 3243.35 756.76 3215.81 784.29 3213.76 784.29 3179.73 1125.09 3186.33 1131.69 3186.33 1178.72 3178.13 1186.92 M 3186.33 1168.93 4325.71 1168.93 M 4325.71 1152.94 3186.33 1152.94 M 3186.33 1136.96 4325.71 1136.96 M 4325.71 1120.97 3180.14 1120.97 M 3181.74 1104.99 4325.71 1104.99 M 4325.71 1089 3183.33 1089 M 3184.93 1073.02 4325.71 1073.02 M 4325.71 1057.03 3958.8 1057.03 M 3943.8 1072.02 3917.64 1072.02 3917.64 1006.02 3983.64 1006.02 3983.64 1032.19 3943.8 1072.02 M 3917.64 1057.03 3913.64 1057.03 M 3913.64 1072.02 3887.47 1072.02 3847.64 1032.19 3847.64 1006.02 3913.64 1006.02 3913.64 1002.02 3917.64 1002.02 3917.64 936.02 3943.8 936.02 3983.64 975.86 3983.64 1002.02 3917.64 1002.02 3917.64 1006.02 3913.64 1006.02 3913.64 1072.02 M 3872.48 1057.03 3186.53 1057.03 M 3188.12 1041.05 3856.49 1041.05 M 3847.64 1025.06 3189.72 1025.06 M 3191.32 1009.08 3847.64 1009.08 M 3847.64 1002.02 3847.64 975.86 3887.47 936.02 3913.64 936.02 3913.64 1002.02 3847.64 1002.02 M 3847.64 993.09 3192.91 993.09 M 3194.51 977.11 3847.64 977.11 M 3862.37 961.12 3196.1 961.12 M 3197.7 945.14 3878.36 945.14 M 3913.64 945.14 3917.64 945.14 M 3917.64 961.12 3913.64 961.12 M 3913.64 977.11 3917.64 977.11 M 3917.64 993.09 3913.64 993.09 M 3913.64 1009.08 3917.64 1009.08 M 3917.64 1025.06 3913.64 1025.06 M 3913.64 1041.05 3917.64 1041.05 M 3974.78 1041.05 4325.71 1041.05 M 4325.71 1025.06 3983.64 1025.06 M 3983.64 1009.08 4325.71 1009.08 M 4325.71 993.09 3983.64 993.09 M 3983.64 977.11 4325.71 977.11 M 4325.71 961.12 3968.9 961.12 M 3952.92 945.14 4325.71 945.14 M 4325.71 929.15 3199.3 929.15 M 3200.89 913.17 4325.71 913.17 M 4325.71 897.18 3202.49 897.18 M 3204.09 881.2 4325.71 881.2 M 4325.71 865.21 3205.68 865.21 M 3207.28 849.23 4325.71 849.23 M 4325.71 833.24 3208.87 833.24 M 3210.47 817.26 4325.71 817.26 M 4325.71 801.27 3212.07 801.27 M 3213.66 785.29 4325.71 785.29 M 4325.71 769.3 3430.81 769.3 M 3443.35 756.76 3415.81 784.29 3376.88 784.29 3349.35 756.76 3349.35 717.82 3376.88 690.29 3415.81 690.29 3443.35 717.82 3443.35 756.76 M 3443.35 753.32 4325.71 753.32 M 4325.71 737.33 3443.35 737.33 M 3443.35 721.34 4325.71 721.34 M 4325.71 705.36 3430.88 705.36 M 3417.47 688.29 3398.35 688.29 3398.35 639.29 3447.35 639.29 3447.35 658.42 3417.47 688.29 M 3432.37 673.39 4325.71 673.39 M 4325.71 689.37 2966.91 689.37 M 2956.93 705.36 3061.81 705.36 M 3049.35 717.82 3076.88 690.29 3115.81 690.29 3143.35 717.82 3143.35 756.76 3115.81 784.29 3076.88 784.29 3049.35 756.76 3049.35 717.82 M 3049.35 721.34 2956.93 721.34 M 2956.93 737.33 3049.35 737.33 M 3049.35 753.32 2956.93 753.32 M 2956.93 769.3 3061.89 769.3 M 3130.81 769.3 3161.89 769.3 M 3169.44 785.29 2956.93 785.29 M 2956.93 801.27 3167.85 801.27 M 3166.25 817.26 2956.93 817.26 M 2956.93 833.24 3164.66 833.24 M 3163.06 849.23 2956.93 849.23 M 2956.93 865.21 3161.46 865.21 M 3159.87 881.2 2956.93 881.2 M 2956.93 897.18 3158.27 897.18 M 3156.67 913.17 2956.93 913.17 M 2956.93 929.15 3155.08 929.15 M 3153.48 945.14 2956.93 945.14 M 2956.93 961.12 3151.89 961.12 M 3150.29 977.11 2956.93 977.11 M 2956.93 993.09 3148.69 993.09 M 3147.1 1009.08 2956.93 1009.08 M 2956.93 1025.06 3145.5 1025.06 M 3143.9 1041.05 2956.93 1041.05 M 2956.93 1057.03 3142.31 1057.03 M 3140.71 1073.02 2956.93 1073.02 M 2956.93 1089 3139.12 1089 M 3137.52 1104.99 2956.93 1104.99 M 2956.93 1120.97 3135.92 1120.97 M 3122.9 1136.96 2956.93 1136.96 M 2956.93 1152.94 3122.9 1152.94 M 3122.9 1168.93 2956.93 1168.93 M 2966.65 1184.91 3129.09 1184.91 M 3154.61 1155.2 3196.35 737.29 M 3243.35 737.33 3249.35 737.33 M 3249.35 721.34 3243.35 721.34 M 3249.35 717.82 3276.88 690.29 3315.81 690.29 3343.35 717.82 3343.35 756.76 3315.81 784.29 3276.88 784.29 3249.35 756.76 3249.35 717.82 M 3261.81 705.36 3230.88 705.36 M 3215.81 684.29 3176.88 684.29 3149.35 656.76 3149.35 617.82 3176.88 590.29 3215.81 590.29 3243.35 617.82 3243.35 656.76 3215.81 684.29 M 3226.72 673.39 3265.98 673.39 M 3276.88 684.29 3249.35 656.76 3249.35 617.82 3276.88 590.29 3315.81 590.29 3343.35 617.82 3343.35 656.76 3315.81 684.29 3276.88 684.29 M 3326.72 673.39 3360.32 673.39 M 3375.22 688.29 3345.35 658.42 3345.35 639.29 3394.35 639.29 3394.35 688.29 3375.22 688.29 M 3361.81 705.36 3330.88 705.36 M 3343.35 721.34 3349.35 721.34 M 3349.35 737.33 3343.35 737.33 M 3343.35 753.32 3349.35 753.32 M 3361.89 769.3 3330.81 769.3 M 3261.89 769.3 3230.81 769.3 M 3243.35 753.32 3249.35 753.32 M 3149.35 753.32 3143.35 753.32 M 3143.35 737.33 3149.35 737.33 M 3149.35 721.34 3143.35 721.34 M 3130.88 705.36 3161.81 705.36 M 3165.98 673.39 3126.72 673.39 M 3142.7 657.4 3149.99 657.4 M 3149.35 641.42 3143.35 641.42 M 3143.35 625.43 3149.35 625.43 M 3157.72 609.45 3134.97 609.45 M 3118.99 593.46 3173.71 593.46 M 3218.99 593.46 3273.71 593.46 M 3257.72 609.45 3234.97 609.45 M 3243.35 625.43 3249.35 625.43 M 3249.35 641.42 3243.35 641.42 M 3242.7 657.4 3249.99 657.4 M 3342.7 657.4 3345.35 657.4 M 3345.35 641.42 3343.35 641.42 M 3345.35 635.29 3345.35 616.17 3375.22 586.29 3394.35 586.29 3394.35 635.29 3398.35 635.29 3398.35 639.29 3394.35 639.29 3394.35 635.29 3345.35 635.29 M 3345.35 625.43 3343.35 625.43 M 3334.97 609.45 3352.06 609.45 M 3368.05 593.46 3318.99 593.46 M 3394.35 593.46 3398.35 593.46 M 3398.35 586.29 3417.47 586.29 3447.35 616.17 3447.35 635.29 3398.35 635.29 3398.35 586.29 M 3424.64 593.46 4325.71 593.46 M 4325.71 577.48 2866.65 577.48 M 2866.65 593.46 3073.71 593.46 M 3057.72 609.45 2865.44 609.45 M 2856.93 625.43 3049.35 625.43 M 3096.35 637.29 2934.93 674.1 M 2979.3 641.42 2856.93 641.42 M 2866.65 561.49 4325.71 561.49 M 4325.71 545.51 2667.94 545.51 M 2663.57 529.52 4325.71 529.52 M 4325.71 513.54 2659.2 513.54 M 2654.84 497.55 4325.71 497.55 M 4325.71 481.57 2650.47 481.57 M 2646.1 465.58 4325.71 465.58 M 4325.71 449.6 2641.73 449.6 M 2637.36 433.61 4325.71 433.61 M 4325.71 417.63 2632.99 417.63 M 2628.63 401.64 4325.71 401.64 M 4325.71 385.66 2624.26 385.66 M 2619.89 369.67 4325.71 369.67 M 4325.71 353.69 2615.52 353.69 M 2611.15 337.7 4325.71 337.7 M 4325.71 321.72 4290.54 321.72 M 4286.27 325.98 4261.9 336.08 4235.52 336.08 4211.15 325.98 4192.5 307.33 4182.4 282.96 4182.4 256.58 4192.5 232.21 4211.15 213.56 4235.52 203.46 4261.9 203.46 4286.27 213.56 4304.92 232.21 4315.02 256.58 4315.02 282.96 4304.92 307.33 4286.27 325.98 M 4305.58 305.73 4325.71 305.73 M 4325.71 289.75 4312.2 289.75 M 4315.02 273.76 4325.71 273.76 M 4325.71 257.78 4315.02 257.78 M 4308.89 241.79 4325.71 241.79 M 4325.71 225.81 4298.52 225.81 M 4277.24 209.82 4325.71 209.82 M 4325.71 193.84 2586.33 193.84 M 2586.33 209.82 4220.17 209.82 M 4198.9 225.81 2586.33 225.81 M 2584.94 241.79 4188.53 241.79 M 4182.4 257.78 2589.31 257.78 M 2593.68 273.76 4182.4 273.76 M 4185.21 289.75 2598.05 289.75 M 2602.42 305.73 4191.83 305.73 M 4206.88 321.72 2606.79 321.72 M 2565.54 337.7 2537.57 337.7 M 2533.02 321.72 2561.17 321.72 M 2556.8 305.73 2528.46 305.73 M 2524.04 290.22 2638.92 693.17 2648.6 693.17 2656.8 701.37 2656.8 748.41 2648.6 756.61 2601.57 756.61 2593.37 748.41 2593.37 701.37 2595.03 699.71 2480.15 296.76 2470.47 296.76 2462.27 288.56 2462.27 241.53 2470.47 233.33 2517.5 233.33 2525.7 241.53 2525.7 288.56 2524.04 290.22 M 2524.52 289.75 2552.44 289.75 M 2548.07 273.76 2525.7 273.76 M 2525.7 257.78 2543.7 257.78 M 2526.91 241.79 2525.7 241.79 M 2522.9 225.81 41 225.81 M 41 241.79 2462.27 241.79 M 2462.27 257.78 41 257.78 M 41 273.76 2462.27 273.76 M 2463.45 289.75 2396.36 289.75 M 2399.72 305.73 2482.71 305.73 M 2487.26 321.72 2399.72 321.72 M 2399.72 337.7 2491.82 337.7 M 2496.38 353.69 2390 353.69 M 2390 369.67 2390.03 369.67 M 2346 369.67 2292.91 369.67 M 2297.71 374.48 2269.01 345.77 2228.41 345.77 2199.71 374.48 2199.71 415.07 2228.41 443.77 2269.01 443.77 2297.71 415.07 2297.71 374.48 M 2297.71 385.66 2346 385.66 M 2346 401.64 2297.71 401.64 M 2295.15 417.63 2346 417.63 M 2346 433.61 2279.16 433.61 M 2269.01 445.77 2297.71 474.48 2297.71 515.07 2269.01 543.77 2228.41 543.77 2199.71 515.07 2199.71 474.48 2228.41 445.77 2269.01 445.77 M 2272.83 449.6 2346 449.6 M 2346 465.58 2288.82 465.58 M 2297.71 481.57 2346 481.57 M 2346 497.55 2297.71 497.55 M 2297.71 513.54 2346 513.54 M 2346 529.52 2283.25 529.52 M 2269.01 545.77 2297.71 574.48 2297.71 615.07 2269.01 643.77 2228.41 643.77 2199.71 615.07 2199.71 574.48 2228.41 545.77 2269.01 545.77 M 2284.73 561.49 2346 561.49 M 2346 545.51 1996.39 545.51 M 1995.04 561.49 2212.69 561.49 M 2199.71 577.48 1993.68 577.48 M 1992.68 589.22 1999.72 596.26 1999.72 643.29 1991.52 651.49 1944.48 651.49 1936.28 643.29 1936.28 596.26 1944.48 588.06 1948.62 588.06 1954.11 523.46 1946.74 516.08 1941.01 502.26 1941.01 440.04 1946.74 426.22 1957.32 415.63 1971.15 409.91 1986.11 409.91 1999.94 415.63 2010.52 426.22 2016.25 440.04 2016.25 502.26 2010.52 516.08 1999.94 526.67 1997.93 527.5 1992.68 589.22 M 1996.92 593.46 2199.71 593.46 M 2199.71 609.45 1999.72 609.45 M 1999.72 625.43 2210.07 625.43 M 2226.06 641.42 1999.72 641.42 M 1968 619.77 1978.63 494.77 M 2016.25 497.55 2199.71 497.55 M 2199.71 481.57 2016.25 481.57 M 2016.25 465.58 2208.6 465.58 M 2224.59 449.6 2016.25 449.6 M 2013.59 433.61 2218.25 433.61 M 2202.27 417.63 2001.94 417.63 M 1955.32 417.63 1901.94 417.63 M 1899.94 415.63 1910.52 426.22 1916.25 440.04 1916.25 502.26 1910.52 516.08 1899.94 526.67 1886.11 532.39 1884.83 532.39 1840 624.83 1840 628.88 1836.18 632.71 1833.82 637.57 1829.98 638.9 1827.11 641.77 1821.71 641.77 1816.6 643.54 1812.95 641.77 1749.72 641.77 1749.72 643.29 1741.52 651.49 1694.48 651.49 1686.28 643.29 1686.28 596.26 1694.48 588.06 1741.52 588.06 1749.72 596.26 1749.72 597.77 1804.22 597.77 1845.4 512.87 1841.01 502.26 1841.01 440.04 1846.74 426.22 1857.32 415.63 1871.15 409.91 1886.11 409.91 1899.94 415.63 M 1913.59 433.61 1943.67 433.61 M 1941.01 449.6 1916.25 449.6 M 1916.25 465.58 1941.01 465.58 M 1941.01 481.57 1916.25 481.57 M 1916.25 497.55 1941.01 497.55 M 1945.68 513.54 1911.58 513.54 M 1893.04 529.52 1953.6 529.52 M 1952.24 545.51 1878.47 545.51 M 1870.72 561.49 1950.88 561.49 M 1949.52 577.48 1862.96 577.48 M 1855.21 593.46 1939.08 593.46 M 1936.28 609.45 1847.46 609.45 M 1840 625.43 1936.28 625.43 M 1936.28 641.42 1827.46 641.42 M 1818 619.77 1718 619.77 M 1686.28 625.43 1590 625.43 M 1590 609.45 1686.28 609.45 M 1689.08 593.46 1599.54 593.46 M 1599.72 593.29 1591.52 601.49 1590 601.49 1590 819.46 1593.39 939.15 1594.48 938.06 1636.28 938.06 1636.28 896.26 1644.48 888.06 1691.52 888.06 1699.72 896.26 1699.72 920.38 1827.11 1047.77 1887.74 1047.77 1900.63 1060.66 1900.63 1163.57 1910.52 1173.46 1916.25 1187.29 1916.25 1249.5 1910.52 1263.33 1899.94 1273.91 1886.11 1279.64 1871.15 1279.64 1857.32 1273.91 1846.74 1263.33 1841.01 1249.5 1841.01 1187.29 1846.74 1173.46 1856.63 1163.57 1856.63 1091.77 1808.89 1091.77 1668.6 951.49 1649.72 951.49 1649.72 993.29 1647.67 995.33 1691.93 1159.56 1699.94 1162.88 1710.52 1173.46 1716.25 1187.29 1716.25 1249.5 1710.52 1263.33 1699.94 1273.91 1686.11 1279.64 1671.15 1279.64 1657.32 1273.91 1646.74 1263.33 1641.01 1249.5 1641.01 1187.29 1646.74 1173.46 1649.39 1170.81 1603.76 1001.49 1595.16 1001.49 1599.73 1162.79 1599.94 1162.88 1610.52 1173.46 1616.25 1187.29 1616.25 1249.5 1610.52 1263.33 1599.94 1273.91 1586.11 1279.64 1571.15 1279.64 1557.32 1273.91 1546.74 1263.33 1541.01 1249.5 1541.01 1187.29 1546.74 1173.46 1555.76 1164.43 1547.43 870.62 1545.65 874.91 1541.2 882.63 1535.77 889.7 1529.47 896.01 1522.4 901.43 1514.68 905.89 1506.44 909.3 1497.83 911.61 1489.33 912.73 1489.33 849.57 1479.74 849.57 1479.74 912.73 1471.24 911.61 1462.63 909.3 1454.4 905.89 1446.68 901.43 1439.6 896.01 1433.3 889.7 1427.87 882.63 1423.42 874.91 1420.01 866.68 1417.7 858.07 1416.58 849.57 1479.74 849.57 1479.74 839.98 1416.58 839.98 1417.7 831.48 1420.01 822.87 1423.42 814.63 1427.87 806.91 1432.04 801.49 1426.74 801.49 1415.08 824.8 1418.04 1016.14 1443.74 1041.84 1443.74 1080.77 1416.21 1108.31 1377.27 1108.31 1349.74 1080.77 1349.74 1041.84 1374.06 1017.52 1371.06 823.51 1369.25 818.08 1370.92 814.74 1370.86 811 1374.84 806.9 1386.28 784.01 1386.28 746.26 1394.48 738.06 1441.52 738.06 1449.72 746.26 1449.72 786.35 1454.4 783.65 1462.63 780.24 1471.24 777.94 1479.74 776.82 1479.74 839.98 1489.33 839.98 1489.33 776.82 1497.83 777.94 1506.44 780.24 1514.68 783.65 1522.4 788.11 1529.47 793.54 1535.77 799.84 1541.2 806.91 1545.65 814.63 1545.86 815.13 1545.75 811.29 1546 811.02 1546 601.49 1544.48 601.49 1536.28 593.29 1536.28 546.26 1544.48 538.06 1591.52 538.06 1599.72 546.26 1599.72 593.29 M 1599.72 577.48 1814.06 577.48 M 1806.31 593.46 1746.92 593.46 M 1818 619.77 1878.63 494.77 M 1841.01 497.55 1820.25 497.55 M 1820.25 498.05 1819.23 504.52 1817.2 510.75 1814.23 516.59 1810.38 521.89 1805.74 526.52 1800.44 530.37 1794.61 533.34 1788.38 535.37 1781.91 536.39 1778.63 536.39 1775.35 536.39 1768.88 535.37 1762.65 533.34 1756.82 530.37 1751.51 526.52 1746.88 521.89 1743.03 516.59 1740.06 510.75 1738.03 504.52 1737.01 498.05 1737.01 494.77 1737.01 444.25 1738.03 437.78 1740.06 431.55 1743.03 425.71 1746.88 420.41 1751.51 415.78 1756.82 411.93 1762.65 408.95 1768.88 406.93 1775.35 405.91 1778.63 405.91 1781.91 405.91 1788.38 406.93 1794.61 408.95 1800.44 411.93 1805.74 415.78 1810.38 420.41 1814.23 425.71 1817.2 431.55 1819.23 437.78 1820.25 444.25 1820.25 494.77 1778.63 494.77 1778.63 405.91 1778.63 494.77 1778.63 494.77 1778.63 494.77 1737.01 494.77 1778.63 494.77 1778.63 494.77 1820.25 494.77 1820.25 498.05 M 1815.78 513.54 1845.08 513.54 M 1837.32 529.52 1801.61 529.52 M 1778.63 529.52 1778.63 529.52 M 1778.63 536.39 1778.63 494.77 1778.63 494.77 1778.63 536.39 M 1778.63 513.54 1778.63 513.54 M 1778.63 497.55 1778.63 497.55 M 1778.63 481.57 1778.63 481.57 M 1778.63 465.58 1778.63 465.58 M 1778.63 449.6 1778.63 449.6 M 1778.63 433.61 1778.63 433.61 M 1778.63 417.63 1778.63 417.63 M 1807.59 417.63 1855.32 417.63 M 1843.67 433.61 1817.87 433.61 M 1820.25 449.6 1841.01 449.6 M 1841.01 465.58 1820.25 465.58 M 1820.25 481.57 1841.01 481.57 M 1755.65 529.52 1693.04 529.52 M 1699.94 526.67 1686.11 532.39 1671.15 532.39 1657.32 526.67 1646.74 516.08 1641.01 502.26 1641.01 440.04 1646.74 426.22 1657.32 415.63 1671.15 409.91 1686.11 409.91 1699.94 415.63 1710.52 426.22 1716.25 440.04 1716.25 502.26 1710.52 516.08 1699.94 526.67 M 1711.58 513.54 1741.48 513.54 M 1737.01 497.55 1716.25 497.55 M 1716.25 481.57 1737.01 481.57 M 1737.01 465.58 1716.25 465.58 M 1716.25 449.6 1737.01 449.6 M 1739.39 433.61 1713.59 433.61 M 1701.94 417.63 1749.67 417.63 M 1655.32 417.63 1601.94 417.63 M 1599.94 415.63 1610.52 426.22 1616.25 440.04 1616.25 502.26 1610.52 516.08 1599.94 526.67 1586.11 532.39 1571.15 532.39 1557.32 526.67 1546.74 516.08 1541.01 502.26 1541.01 440.04 1546.74 426.22 1557.32 415.63 1571.15 409.91 1586.11 409.91 1599.94 415.63 M 1613.59 433.61 1643.67 433.61 M 1641.01 449.6 1616.25 449.6 M 1616.25 465.58 1641.01 465.58 M 1641.01 481.57 1616.25 481.57 M 1616.25 497.55 1641.01 497.55 M 1645.68 513.54 1611.58 513.54 M 1593.04 529.52 1664.22 529.52 M 1598.97 545.51 1829.57 545.51 M 1821.82 561.49 1599.72 561.49 M 1568 569.77 1568 819.77 1578.63 1194.77 M 1605.99 1168.93 1648.88 1168.93 M 1644.57 1152.94 1599.45 1152.94 M 1599 1136.96 1640.27 1136.96 M 1635.96 1120.97 1598.55 1120.97 M 1598.09 1104.99 1631.65 1104.99 M 1627.34 1089 1597.64 1089 M 1597.19 1073.02 1623.04 1073.02 M 1618.73 1057.03 1596.73 1057.03 M 1596.28 1041.05 1614.42 1041.05 M 1610.11 1025.06 1595.83 1025.06 M 1595.37 1009.08 1605.81 1009.08 M 1651.38 1009.08 1726.19 1009.08 M 1742.18 1025.06 1655.68 1025.06 M 1659.99 1041.05 1758.16 1041.05 M 1774.15 1057.03 1664.3 1057.03 M 1668.61 1073.02 1790.13 1073.02 M 1806.12 1089 1672.91 1089 M 1677.22 1104.99 1856.63 1104.99 M 1856.63 1120.97 1681.53 1120.97 M 1685.84 1136.96 1856.63 1136.96 M 1856.63 1152.94 1690.14 1152.94 M 1705.99 1168.93 1745.96 1168.93 M 1746.88 1167.66 1743.03 1172.96 1740.06 1178.79 1738.03 1185.03 1737.01 1191.5 1737.01 1194.77 1778.63 1194.77 1778.63 1153.15 1781.91 1153.15 1788.38 1154.17 1794.61 1156.2 1800.44 1159.17 1805.74 1163.02 1810.38 1167.66 1814.23 1172.96 1817.2 1178.79 1819.23 1185.03 1820.25 1191.5 1820.25 1194.77 1778.63 1194.77 1778.63 1194.77 1778.63 1153.15 1775.35 1153.15 1768.88 1154.17 1762.65 1156.2 1756.82 1159.17 1751.51 1163.02 1746.88 1167.66 M 1738.07 1184.91 1715.27 1184.91 M 1716.25 1200.9 1737.01 1200.9 M 1737.01 1194.77 1778.63 1194.77 1778.63 1194.77 1778.63 1194.77 1820.25 1194.77 1820.25 1245.29 1819.23 1251.76 1817.2 1257.99 1814.23 1263.83 1810.38 1269.13 1805.74 1273.76 1800.44 1277.61 1794.61 1280.59 1788.38 1282.61 1781.91 1283.64 1778.63 1283.64 1775.35 1283.64 1768.88 1282.61 1762.65 1280.59 1756.82 1277.61 1751.51 1273.76 1746.88 1269.13 1743.03 1263.83 1740.06 1257.99 1738.03 1251.76 1737.01 1245.29 1737.01 1194.77 M 1778.63 1194.77 1778.63 1283.64 1778.63 1194.77 1778.63 1194.77 M 1778.63 1200.9 1778.63 1200.9 M 1778.63 1216.88 1778.63 1216.88 M 1778.63 1232.87 1778.63 1232.87 M 1778.63 1248.85 1778.63 1248.85 M 1778.63 1264.84 1778.63 1264.84 M 1778.63 1280.82 1778.63 1280.82 M 1793.88 1280.82 2195.71 1280.82 M 2195.71 1272.82 2226.58 1241.94 2199.71 1215.07 2199.71 1174.48 2228.41 1145.77 2269.01 1145.77 2297.71 1174.48 2297.71 1215.07 2270.83 1241.94 2301.71 1272.82 2301.71 1292.77 2250.71 1292.77 2250.71 1296.77 2301.71 1296.77 2301.71 1316.72 2270.66 1347.77 2250.71 1347.77 2250.71 1296.77 2246.71 1296.77 2246.71 1292.77 2195.71 1292.77 2195.71 1272.82 M 2203.69 1264.84 2009.01 1264.84 M 2010.52 1263.33 1999.94 1273.91 1986.11 1279.64 1971.15 1279.64 1957.32 1273.91 1946.74 1263.33 1941.01 1249.5 1941.01 1187.29 1946 1175.24 1946 1041.77 1858.89 1041.77 1846 1028.88 1730.45 913.33 1730.24 913.33 1724.57 907.47 1704.19 899.03 1686.18 881.02 1676.44 857.5 1676.44 832.04 1686.18 808.52 1704.19 790.52 1727.71 780.77 1753.17 780.77 1776.69 790.52 1794.7 808.52 1804.44 832.04 1804.44 857.5 1794.7 881.02 1777.53 898.19 1877.11 997.77 1977.11 997.77 1990 1010.66 1990 1158.76 1999.94 1162.88 2010.52 1173.46 2016.25 1187.29 2016.25 1249.5 2010.52 1263.33 M 2016.25 1248.85 2219.67 1248.85 M 2217.51 1232.87 2016.25 1232.87 M 2016.25 1216.88 2201.52 1216.88 M 2199.71 1200.9 2016.25 1200.9 M 2015.27 1184.91 2199.71 1184.91 M 2205.26 1168.93 2005.99 1168.93 M 1990 1152.94 2221.24 1152.94 M 2221.6 1136.96 1990 1136.96 M 1990 1120.97 2205.61 1120.97 M 2199.71 1104.99 1990 1104.99 M 1990 1089 2199.71 1089 M 2201.17 1073.02 1990 1073.02 M 1990 1057.03 2217.15 1057.03 M 2228.41 1043.77 2199.71 1015.07 2199.71 974.48 2228.41 945.77 2269.01 945.77 2297.71 974.48 2297.71 1015.07 2269.01 1043.77 2228.41 1043.77 M 2225.69 1041.05 1990 1041.05 M 1990 1025.06 2209.7 1025.06 M 2199.71 1009.08 1988.42 1009.08 M 1968 1019.77 1968 1184.14 1978.63 1194.77 M 1941.99 1184.91 1915.27 1184.91 M 1916.25 1200.9 1941.01 1200.9 M 1941.01 1216.88 1916.25 1216.88 M 1916.25 1232.87 1941.01 1232.87 M 1941.01 1248.85 1916.25 1248.85 M 1909.01 1264.84 1948.25 1264.84 M 1848.25 1264.84 1813.5 1264.84 M 1819.69 1248.85 1841.01 1248.85 M 1841.01 1232.87 1820.25 1232.87 M 1820.25 1216.88 1841.01 1216.88 M 1841.01 1200.9 1820.25 1200.9 M 1819.19 1184.91 1841.99 1184.91 M 1851.27 1168.93 1811.3 1168.93 M 1778.63 1168.93 1778.63 1168.93 M 1778.63 1184.91 1778.63 1184.91 M 1737.01 1216.88 1716.25 1216.88 M 1716.25 1232.87 1737.01 1232.87 M 1737.57 1248.85 1716.25 1248.85 M 1709.01 1264.84 1743.76 1264.84 M 1763.38 1280.82 1293.88 1280.82 M 1294.61 1280.59 1288.38 1282.61 1281.91 1283.64 1278.63 1283.64 1275.35 1283.64 1268.88 1282.61 1262.65 1280.59 1256.82 1277.61 1251.51 1273.76 1246.88 1269.13 1243.03 1263.83 1240.06 1257.99 1238.03 1251.76 1237.01 1245.29 1237.01 1194.77 1237.01 1191.5 1238.03 1185.03 1240.06 1178.79 1243.03 1172.96 1246.88 1167.66 1251.51 1163.02 1256.82 1159.17 1262.65 1156.2 1268.88 1154.17 1275.35 1153.15 1278.63 1153.15 1281.91 1153.15 1288.38 1154.17 1294.61 1156.2 1300.44 1159.17 1305.74 1163.02 1310.38 1167.66 1314.23 1172.96 1317.2 1178.79 1319.23 1185.03 1320.25 1191.5 1320.25 1194.77 1278.63 1194.77 1278.63 1153.15 1278.63 1194.77 1278.63 1194.77 1278.63 1194.77 1237.01 1194.77 1278.63 1194.77 1278.63 1194.77 1320.25 1194.77 1320.25 1245.29 1319.23 1251.76 1317.2 1257.99 1314.23 1263.83 1310.38 1269.13 1305.74 1273.76 1300.44 1277.61 1294.61 1280.59 M 1278.63 1280.82 1278.63 1280.82 M 1278.63 1283.64 1278.63 1194.77 1278.63 1194.77 1278.63 1283.64 M 1263.38 1280.82 793.88 1280.82 M 794.61 1280.59 788.38 1282.61 781.91 1283.64 778.63 1283.64 775.35 1283.64 768.88 1282.61 762.65 1280.59 756.82 1277.61 751.51 1273.76 746.88 1269.13 743.03 1263.83 740.06 1257.99 738.03 1251.76 737.01 1245.29 737.01 1194.77 737.01 1191.5 738.03 1185.03 740.06 1178.79 743.03 1172.96 746.88 1167.66 751.51 1163.02 756.82 1159.17 762.65 1156.2 768.88 1154.17 775.35 1153.15 778.63 1153.15 781.91 1153.15 788.38 1154.17 794.61 1156.2 800.44 1159.17 805.74 1163.02 810.38 1167.66 814.23 1172.96 817.2 1178.79 819.23 1185.03 820.25 1191.5 820.25 1194.77 778.63 1194.77 778.63 1153.15 778.63 1194.77 778.63 1194.77 778.63 1194.77 737.01 1194.77 778.63 1194.77 778.63 1194.77 820.25 1194.77 820.25 1245.29 819.23 1251.76 817.2 1257.99 814.23 1263.83 810.38 1269.13 805.74 1273.76 800.44 1277.61 794.61 1280.59 M 778.63 1280.82 778.63 1280.82 M 778.63 1283.64 778.63 1194.77 778.63 1194.77 778.63 1283.64 M 763.38 1280.82 293.88 1280.82 M 294.61 1280.59 288.38 1282.61 281.91 1283.64 278.63 1283.64 275.35 1283.64 268.88 1282.61 262.65 1280.59 256.82 1277.61 251.51 1273.76 246.88 1269.13 243.03 1263.83 240.06 1257.99 238.03 1251.76 237.01 1245.29 237.01 1194.77 237.01 1191.5 238.03 1185.03 240.06 1178.79 243.03 1172.96 246.88 1167.66 251.51 1163.02 256.82 1159.17 262.65 1156.2 268.88 1154.17 275.35 1153.15 278.63 1153.15 281.91 1153.15 288.38 1154.17 294.61 1156.2 300.44 1159.17 305.74 1163.02 310.38 1167.66 314.23 1172.96 317.2 1178.79 319.23 1185.03 320.25 1191.5 320.25 1194.77 278.63 1194.77 278.63 1153.15 278.63 1194.77 278.63 1194.77 278.63 1194.77 237.01 1194.77 278.63 1194.77 278.63 1194.77 320.25 1194.77 320.25 1245.29 319.23 1251.76 317.2 1257.99 314.23 1263.83 310.38 1269.13 305.74 1273.76 300.44 1277.61 294.61 1280.59 M 278.63 1280.82 278.63 1280.82 M 278.63 1283.64 278.63 1194.77 278.63 1194.77 278.63 1283.64 M 263.38 1280.82 41 1280.82 M 41 1264.84 48.25 1264.84 M 46.74 1263.33 41.01 1249.5 41.01 1187.29 46.74 1173.46 57.32 1162.88 71.15 1157.15 86.11 1157.15 99.94 1162.88 110.52 1173.46 116.25 1187.29 116.25 1249.5 110.52 1263.33 99.94 1273.91 86.11 1279.64 71.15 1279.64 57.32 1273.91 46.74 1263.33 M 41 1248.85 41.01 1248.85 M 41 1232.87 41.01 1232.87 M 41 1216.88 41.01 1216.88 M 41 1200.9 41.01 1200.9 M 41 1184.91 41.99 1184.91 M 41 1168.93 51.27 1168.93 M 41 1152.94 1555.44 1152.94 M 1554.98 1136.96 41 1136.96 M 41 1120.97 1554.53 1120.97 M 1554.08 1104.99 1419.53 1104.99 M 1435.51 1089 1553.62 1089 M 1553.17 1073.02 1443.74 1073.02 M 1443.74 1057.03 1552.72 1057.03 M 1552.26 1041.05 1442.95 1041.05 M 1426.96 1025.06 1551.81 1025.06 M 1551.36 1009.08 1417.93 1009.08 M 1417.69 993.09 1550.9 993.09 M 1550.45 977.11 1417.44 977.11 M 1417.19 961.12 1550 961.12 M 1549.54 945.14 1416.94 945.14 M 1416.7 929.15 1549.09 929.15 M 1548.64 913.17 1416.45 913.17 M 1416.2 897.18 1441.13 897.18 M 1427.05 881.2 1415.95 881.2 M 1415.71 865.21 1419.61 865.21 M 1415.46 849.23 1479.74 849.23 M 1479.74 865.21 1489.33 865.21 M 1489.33 881.2 1479.74 881.2 M 1479.74 897.18 1489.33 897.18 M 1527.94 897.18 1548.19 897.18 M 1547.73 881.2 1542.03 881.2 M 1591.75 881.2 1686.36 881.2 M 1679.63 865.21 1591.3 865.21 M 1590.84 849.23 1676.44 849.23 M 1676.44 833.24 1590.39 833.24 M 1590 817.26 1682.57 817.26 M 1693.43 801.27 1590 801.27 M 1590 785.29 1716.81 785.29 M 1764.07 785.29 2199.71 785.29 M 2199.71 774.48 2228.41 745.77 2269.01 745.77 2297.71 774.48 2297.71 815.07 2269.01 843.77 2228.41 843.77 2199.71 815.07 2199.71 774.48 M 2204.88 769.3 2015.18 769.3 M 2018.4 766.08 2007.82 776.67 1993.99 782.39 1931.78 782.39 1917.95 776.67 1907.37 766.08 1901.64 752.26 1901.64 737.29 1907.37 723.46 1917.95 712.88 1931.78 707.15 1993.99 707.15 2007.82 712.88 2018.4 723.46 2024.13 737.29 2024.13 752.26 2018.4 766.08 M 2023.69 753.32 2220.87 753.32 M 2228.41 743.77 2199.71 715.07 2199.71 674.48 2228.41 645.77 2269.01 645.77 2297.71 674.48 2297.71 715.07 2269.01 743.77 2228.41 743.77 M 2221.97 737.33 2024.13 737.33 M 2016.28 721.34 2205.99 721.34 M 2199.71 705.36 1590 705.36 M 1590 721.34 1909.48 721.34 M 1901.64 737.33 1590 737.33 M 1590 753.32 1902.08 753.32 M 1910.58 769.3 1590 769.3 M 1546 769.3 1449.72 769.3 M 1449.72 753.32 1546 753.32 M 1546 737.33 949.72 737.33 M 949.72 743.29 941.52 751.49 917.4 751.49 786.89 881.99 787.16 1016.75 812.24 1041.84 812.24 1080.77 784.71 1108.31 745.78 1108.31 718.24 1080.77 718.24 1041.84 743.16 1016.93 742.89 882.03 742.88 882.01 742.88 872.94 742.86 863.83 742.88 863.81 742.88 863.78 749.3 857.35 755.72 850.91 755.74 850.91 886.28 720.38 886.28 696.26 894.48 688.06 941.52 688.06 949.72 696.26 949.72 743.29 M 949.72 721.34 1546 721.34 M 1546 705.36 949.72 705.36 M 942.84 689.37 1546 689.37 M 1546 673.39 41 673.39 M 41 689.37 893.16 689.37 M 886.28 705.36 41 705.36 M 41 721.34 885.31 721.34 M 869.33 737.33 41 737.33 M 41 753.32 853.34 753.32 M 837.36 769.3 41 769.3 M 41 785.29 388.58 785.29 M 391.4 783.65 399.64 780.24 408.25 777.94 416.75 776.82 416.75 839.98 353.59 839.98 354.71 831.48 357.01 822.87 360.43 814.63 364.88 806.91 370.31 799.84 376.61 793.54 383.68 788.11 391.4 783.65 M 416.75 785.29 426.34 785.29 M 426.34 776.82 434.84 777.94 443.45 780.24 451.68 783.65 459.4 788.11 466.47 793.54 472.78 799.84 478.2 806.91 482.66 814.63 486.07 822.87 488.38 831.48 489.5 839.98 426.34 839.98 426.34 849.57 416.75 849.57 416.75 912.73 408.25 911.61 399.64 909.3 391.4 905.89 383.68 901.43 376.61 896.01 370.31 889.7 364.88 882.63 360.43 874.91 357.01 866.68 354.71 858.07 353.59 849.57 416.75 849.57 416.75 839.98 426.34 839.98 426.34 776.82 M 454.51 785.29 653.82 785.29 M 664.72 780.77 641.2 790.52 623.19 808.52 613.45 832.04 613.45 857.5 623.19 881.02 641.2 899.03 664.72 908.77 690.18 908.77 713.7 899.03 731.71 881.02 741.45 857.5 741.45 832.04 731.71 808.52 713.7 790.52 690.18 780.77 664.72 780.77 M 701.08 785.29 821.37 785.29 M 805.39 801.27 724.46 801.27 M 735.32 817.26 789.4 817.26 M 773.42 833.24 741.45 833.24 M 741.45 849.23 757.43 849.23 M 742.86 865.21 738.26 865.21 M 742.88 881.2 731.53 881.2 M 742.92 897.18 715.55 897.18 M 742.95 913.17 41 913.17 M 41 929.15 742.99 929.15 M 743.02 945.14 41 945.14 M 41 961.12 743.05 961.12 M 743.08 977.11 41 977.11 M 41 993.09 743.11 993.09 M 743.14 1009.08 41 1009.08 M 41 1025.06 735.02 1025.06 M 719.04 1041.05 41 1041.05 M 41 1057.03 718.24 1057.03 M 718.24 1073.02 41 1073.02 M 41 1089 726.47 1089 M 742.46 1104.99 41 1104.99 M 146.74 1173.46 157.32 1162.88 171.15 1157.15 186.11 1157.15 199.94 1162.88 210.52 1173.46 216.25 1187.29 216.25 1249.5 210.52 1263.33 199.94 1273.91 186.11 1279.64 171.15 1279.64 157.32 1273.91 146.74 1263.33 141.01 1249.5 141.01 1187.29 146.74 1173.46 M 151.27 1168.93 105.99 1168.93 M 115.27 1184.91 141.99 1184.91 M 141.01 1200.9 116.25 1200.9 M 116.25 1216.88 141.01 1216.88 M 141.01 1232.87 116.25 1232.87 M 116.25 1248.85 141.01 1248.85 M 148.25 1264.84 109.01 1264.84 M 41 1296.81 2195.71 1296.81 M 2195.71 1296.77 2246.71 1296.77 2246.71 1347.77 2226.76 1347.77 2195.71 1316.72 2195.71 1296.77 M 2195.71 1312.79 41 1312.79 M 41 1328.78 2207.76 1328.78 M 2223.75 1344.76 41 1344.76 M 41 1360.75 2536.28 1360.75 M 2536.28 1344.76 2273.67 1344.76 M 2289.65 1328.78 2486.28 1328.78 M 2486.28 1312.79 2301.71 1312.79 M 2301.71 1296.81 2486.28 1296.81 M 2518 1305.4 2518 619.77 2468 594.77 M 2499.72 577.48 2560.18 577.48 M 2564.74 593.46 2514.58 593.46 M 2538.79 609.45 2569.3 609.45 M 2573.86 625.43 2540 625.43 M 2540 641.42 2578.41 641.42 M 2582.97 657.4 2540 657.4 M 2540 673.39 2587.53 673.39 M 2592.08 689.37 2540 689.37 M 2540 705.36 2593.37 705.36 M 2593.37 721.34 2540 721.34 M 2540 737.33 2593.37 737.33 M 2598.28 753.32 2540 753.32 M 2540 769.3 2683.48 769.3 M 2679.12 753.32 2651.89 753.32 M 2656.8 737.33 2674.75 737.33 M 2670.38 721.34 2656.8 721.34 M 2656.8 705.36 2666.01 705.36 M 2661.64 689.37 2637.84 689.37 M 2633.28 673.39 2657.27 673.39 M 2652.91 657.4 2628.72 657.4 M 2624.17 641.42 2648.54 641.42 M 2644.17 625.43 2619.61 625.43 M 2615.05 609.45 2639.8 609.45 M 2635.43 593.46 2610.49 593.46 M 2605.94 577.48 2631.06 577.48 M 2626.7 561.49 2601.38 561.49 M 2596.82 545.51 2622.33 545.51 M 2617.96 529.52 2592.26 529.52 M 2587.71 513.54 2613.59 513.54 M 2609.22 497.55 2583.15 497.55 M 2578.59 481.57 2604.85 481.57 M 2600.49 465.58 2574.03 465.58 M 2569.48 449.6 2596.12 449.6 M 2591.75 433.61 2564.92 433.61 M 2560.36 417.63 2587.38 417.63 M 2583.01 401.64 2555.8 401.64 M 2551.25 385.66 2578.65 385.66 M 2574.28 369.67 2546.69 369.67 M 2542.13 353.69 2569.91 353.69 M 2500.94 369.67 2445.97 369.67 M 2449.72 385.66 2505.49 385.66 M 2510.05 401.64 2449.72 401.64 M 2449.72 417.63 2514.61 417.63 M 2519.17 433.61 2440 433.61 M 2440 449.6 2523.72 449.6 M 2528.28 465.58 2440 465.58 M 2440 481.57 2532.84 481.57 M 2537.4 497.55 2440 497.55 M 2440 513.54 2541.95 513.54 M 2546.51 529.52 2440 529.52 M 2440 545.51 2551.07 545.51 M 2555.63 561.49 2440 561.49 M 2396 561.49 2390 561.49 M 2390 545.51 2396 545.51 M 2396 529.52 2390 529.52 M 2390 513.54 2396 513.54 M 2396 497.55 2390 497.55 M 2390 481.57 2396 481.57 M 2396 465.58 2390 465.58 M 2390 449.6 2396 449.6 M 2396 433.61 2390 433.61 M 2418 396.94 2418 1069.77 2248.71 1094.77 M 2280.27 1057.03 2353.67 1057.03 M 2396 1041.05 2271.73 1041.05 M 2287.71 1025.06 2396 1025.06 M 2396 1009.08 2297.71 1009.08 M 2297.71 993.09 2396 993.09 M 2396 977.11 2297.71 977.11 M 2284.36 961.12 2396 961.12 M 2396 945.14 2024.13 945.14 M 2024.13 952.26 2024.13 937.29 2018.4 923.46 2007.82 912.88 1993.99 907.15 1931.78 907.15 1917.95 912.88 1907.37 923.46 1901.64 937.29 1901.64 952.26 1907.37 966.08 1917.95 976.67 1931.78 982.39 1993.99 982.39 2007.82 976.67 2018.4 966.08 2024.13 952.26 M 2020.45 961.12 2213.06 961.12 M 2199.71 977.11 2006.75 977.11 M 1919.01 977.11 1856.45 977.11 M 1872.43 993.09 2199.71 993.09 M 2213.79 929.15 2020.76 929.15 M 2008.1 913.17 2199.71 913.17 M 2199.71 897.18 1778.54 897.18 M 1792.51 913.17 1917.66 913.17 M 1905.01 929.15 1808.49 929.15 M 1824.48 945.14 1901.64 945.14 M 1905.31 961.12 1840.46 961.12 M 1794.22 977.11 1756.45 977.11 M 1772.43 993.09 1810.21 993.09 M 1826.19 1009.08 1788.42 1009.08 M 1804.4 1025.06 1842.18 1025.06 M 1858.16 1041.05 1820.39 1041.05 M 1868 1019.77 1968 1019.77 M 1946 1057.03 1897 1057.03 M 1900.63 1073.02 1946 1073.02 M 1946 1089 1900.63 1089 M 1900.63 1104.99 1946 1104.99 M 1946 1120.97 1900.63 1120.97 M 1900.63 1136.96 1946 1136.96 M 1946 1152.94 1900.63 1152.94 M 1905.99 1168.93 1946 1168.93 M 1878.63 1194.77 1878.63 1069.77 1818 1069.77 1668 919.77 M 1699.72 913.17 1730.09 913.17 M 1746.27 929.15 1708.49 929.15 M 1724.48 945.14 1762.25 945.14 M 1778.24 961.12 1740.46 961.12 M 1694.22 977.11 1649.72 977.11 M 1649.72 993.09 1710.21 993.09 M 1678.24 961.12 1649.72 961.12 M 1618 969.77 1678.63 1194.77 M 1641.99 1184.91 1615.27 1184.91 M 1616.25 1200.9 1641.01 1200.9 M 1641.01 1216.88 1616.25 1216.88 M 1616.25 1232.87 1641.01 1232.87 M 1641.01 1248.85 1616.25 1248.85 M 1609.01 1264.84 1648.25 1264.84 M 1548.25 1264.84 1509.01 1264.84 M 1510.52 1263.33 1499.94 1273.91 1486.11 1279.64 1471.15 1279.64 1457.32 1273.91 1446.74 1263.33 1441.01 1249.5 1441.01 1187.29 1446.74 1173.46 1457.32 1162.88 1471.15 1157.15 1486.11 1157.15 1499.94 1162.88 1510.52 1173.46 1516.25 1187.29 1516.25 1249.5 1510.52 1263.33 M 1516.25 1248.85 1541.01 1248.85 M 1541.01 1232.87 1516.25 1232.87 M 1516.25 1216.88 1541.01 1216.88 M 1541.01 1200.9 1516.25 1200.9 M 1515.27 1184.91 1541.99 1184.91 M 1551.27 1168.93 1505.99 1168.93 M 1451.27 1168.93 1405.99 1168.93 M 1410.52 1173.46 1416.25 1187.29 1416.25 1249.5 1410.52 1263.33 1399.94 1273.91 1386.11 1279.64 1371.15 1279.64 1357.32 1273.91 1346.74 1263.33 1341.01 1249.5 1341.01 1187.29 1346.74 1173.46 1357.32 1162.88 1371.15 1157.15 1386.11 1157.15 1399.94 1162.88 1410.52 1173.46 M 1415.27 1184.91 1441.99 1184.91 M 1441.01 1200.9 1416.25 1200.9 M 1416.25 1216.88 1441.01 1216.88 M 1441.01 1232.87 1416.25 1232.87 M 1416.25 1248.85 1441.01 1248.85 M 1448.25 1264.84 1409.01 1264.84 M 1348.25 1264.84 1313.5 1264.84 M 1319.69 1248.85 1341.01 1248.85 M 1341.01 1232.87 1320.25 1232.87 M 1320.25 1216.88 1341.01 1216.88 M 1341.01 1200.9 1320.25 1200.9 M 1319.19 1184.91 1341.99 1184.91 M 1351.27 1168.93 1311.3 1168.93 M 1278.63 1168.93 1278.63 1168.93 M 1278.63 1184.91 1278.63 1184.91 M 1278.63 1200.9 1278.63 1200.9 M 1278.63 1216.88 1278.63 1216.88 M 1278.63 1232.87 1278.63 1232.87 M 1278.63 1248.85 1278.63 1248.85 M 1278.63 1264.84 1278.63 1264.84 M 1243.76 1264.84 1209.01 1264.84 M 1210.52 1263.33 1199.94 1273.91 1186.11 1279.64 1171.15 1279.64 1157.32 1273.91 1146.74 1263.33 1141.01 1249.5 1141.01 1187.29 1146.74 1173.46 1157.32 1162.88 1171.15 1157.15 1186.11 1157.15 1199.94 1162.88 1210.52 1173.46 1216.25 1187.29 1216.25 1249.5 1210.52 1263.33 M 1216.25 1248.85 1237.57 1248.85 M 1237.01 1232.87 1216.25 1232.87 M 1216.25 1216.88 1237.01 1216.88 M 1237.01 1200.9 1216.25 1200.9 M 1215.27 1184.91 1238.07 1184.91 M 1245.96 1168.93 1205.99 1168.93 M 1151.27 1168.93 1105.99 1168.93 M 1110.52 1173.46 1116.25 1187.29 1116.25 1249.5 1110.52 1263.33 1099.94 1273.91 1086.11 1279.64 1071.15 1279.64 1057.32 1273.91 1046.74 1263.33 1041.01 1249.5 1041.01 1187.29 1046.74 1173.46 1057.32 1162.88 1071.15 1157.15 1086.11 1157.15 1099.94 1162.88 1110.52 1173.46 M 1115.27 1184.91 1141.99 1184.91 M 1141.01 1200.9 1116.25 1200.9 M 1116.25 1216.88 1141.01 1216.88 M 1141.01 1232.87 1116.25 1232.87 M 1116.25 1248.85 1141.01 1248.85 M 1148.25 1264.84 1109.01 1264.84 M 1048.25 1264.84 1009.01 1264.84 M 1010.52 1263.33 999.94 1273.91 986.11 1279.64 971.15 1279.64 957.32 1273.91 946.74 1263.33 941.01 1249.5 941.01 1187.29 946.74 1173.46 957.32 1162.88 971.15 1157.15 986.11 1157.15 999.94 1162.88 1010.52 1173.46 1016.25 1187.29 1016.25 1249.5 1010.52 1263.33 M 1016.25 1248.85 1041.01 1248.85 M 1041.01 1232.87 1016.25 1232.87 M 1016.25 1216.88 1041.01 1216.88 M 1041.01 1200.9 1016.25 1200.9 M 1015.27 1184.91 1041.99 1184.91 M 1051.27 1168.93 1005.99 1168.93 M 951.27 1168.93 905.99 1168.93 M 910.52 1173.46 916.25 1187.29 916.25 1249.5 910.52 1263.33 899.94 1273.91 886.11 1279.64 871.15 1279.64 857.32 1273.91 846.74 1263.33 841.01 1249.5 841.01 1187.29 846.74 1173.46 857.32 1162.88 871.15 1157.15 886.11 1157.15 899.94 1162.88 910.52 1173.46 M 915.27 1184.91 941.99 1184.91 M 941.01 1200.9 916.25 1200.9 M 916.25 1216.88 941.01 1216.88 M 941.01 1232.87 916.25 1232.87 M 916.25 1248.85 941.01 1248.85 M 948.25 1264.84 909.01 1264.84 M 848.25 1264.84 813.5 1264.84 M 819.69 1248.85 841.01 1248.85 M 841.01 1232.87 820.25 1232.87 M 820.25 1216.88 841.01 1216.88 M 841.01 1200.9 820.25 1200.9 M 819.19 1184.91 841.99 1184.91 M 851.27 1168.93 811.3 1168.93 M 778.63 1168.93 778.63 1168.93 M 778.63 1184.91 778.63 1184.91 M 778.63 1200.9 778.63 1200.9 M 778.63 1216.88 778.63 1216.88 M 778.63 1232.87 778.63 1232.87 M 778.63 1248.85 778.63 1248.85 M 778.63 1264.84 778.63 1264.84 M 743.76 1264.84 709.01 1264.84 M 710.52 1263.33 699.94 1273.91 686.11 1279.64 671.15 1279.64 657.32 1273.91 646.74 1263.33 641.01 1249.5 641.01 1187.29 646.74 1173.46 657.32 1162.88 671.15 1157.15 686.11 1157.15 699.94 1162.88 710.52 1173.46 716.25 1187.29 716.25 1249.5 710.52 1263.33 M 716.25 1248.85 737.57 1248.85 M 737.01 1232.87 716.25 1232.87 M 716.25 1216.88 737.01 1216.88 M 737.01 1200.9 716.25 1200.9 M 715.27 1184.91 738.07 1184.91 M 745.96 1168.93 705.99 1168.93 M 651.27 1168.93 605.99 1168.93 M 610.52 1173.46 616.25 1187.29 616.25 1249.5 610.52 1263.33 599.94 1273.91 586.11 1279.64 571.15 1279.64 557.32 1273.91 546.74 1263.33 541.01 1249.5 541.01 1187.29 546.74 1173.46 557.32 1162.88 571.15 1157.15 586.11 1157.15 599.94 1162.88 610.52 1173.46 M 615.27 1184.91 641.99 1184.91 M 641.01 1200.9 616.25 1200.9 M 616.25 1216.88 641.01 1216.88 M 641.01 1232.87 616.25 1232.87 M 616.25 1248.85 641.01 1248.85 M 648.25 1264.84 609.01 1264.84 M 548.25 1264.84 509.01 1264.84 M 510.52 1263.33 499.94 1273.91 486.11 1279.64 471.15 1279.64 457.32 1273.91 446.74 1263.33 441.01 1249.5 441.01 1187.29 446.74 1173.46 457.32 1162.88 471.15 1157.15 486.11 1157.15 499.94 1162.88 510.52 1173.46 516.25 1187.29 516.25 1249.5 510.52 1263.33 M 516.25 1248.85 541.01 1248.85 M 541.01 1232.87 516.25 1232.87 M 516.25 1216.88 541.01 1216.88 M 541.01 1200.9 516.25 1200.9 M 515.27 1184.91 541.99 1184.91 M 551.27 1168.93 505.99 1168.93 M 451.27 1168.93 405.99 1168.93 M 410.52 1173.46 416.25 1187.29 416.25 1249.5 410.52 1263.33 399.94 1273.91 386.11 1279.64 371.15 1279.64 357.32 1273.91 346.74 1263.33 341.01 1249.5 341.01 1187.29 346.74 1173.46 357.32 1162.88 371.15 1157.15 386.11 1157.15 399.94 1162.88 410.52 1173.46 M 415.27 1184.91 441.99 1184.91 M 441.01 1200.9 416.25 1200.9 M 416.25 1216.88 441.01 1216.88 M 441.01 1232.87 416.25 1232.87 M 416.25 1248.85 441.01 1248.85 M 448.25 1264.84 409.01 1264.84 M 348.25 1264.84 313.5 1264.84 M 319.69 1248.85 341.01 1248.85 M 341.01 1232.87 320.25 1232.87 M 320.25 1216.88 341.01 1216.88 M 341.01 1200.9 320.25 1200.9 M 319.19 1184.91 341.99 1184.91 M 351.27 1168.93 311.3 1168.93 M 278.63 1168.93 278.63 1168.93 M 278.63 1184.91 278.63 1184.91 M 278.63 1200.9 278.63 1200.9 M 278.63 1216.88 278.63 1216.88 M 278.63 1232.87 278.63 1232.87 M 278.63 1248.85 278.63 1248.85 M 278.63 1264.84 278.63 1264.84 M 243.76 1264.84 209.01 1264.84 M 216.25 1248.85 237.57 1248.85 M 237.01 1232.87 216.25 1232.87 M 216.25 1216.88 237.01 1216.88 M 237.01 1200.9 216.25 1200.9 M 215.27 1184.91 238.07 1184.91 M 245.96 1168.93 205.99 1168.93 M 41 1376.73 2543.94 1376.73 M 2586.28 1392.72 41 1392.72 M 41 1408.7 2586.28 1408.7 M 2618 1385.72 2618 1019.77 M 2446 1025.06 2440 1025.06 M 2440 1009.08 2446 1009.08 M 2446 993.09 2440 993.09 M 2440 977.11 2446 977.11 M 2446 961.12 2440 961.12 M 2440 945.14 2446 945.14 M 2446 929.15 2440 929.15 M 2440 913.17 2446 913.17 M 2446 897.18 2440 897.18 M 2440 881.2 2446 881.2 M 2446 865.21 2440 865.21 M 2440 849.23 2446 849.23 M 2446 833.24 2440 833.24 M 2440 817.26 2446 817.26 M 2446 801.27 2440 801.27 M 2440 785.29 2446 785.29 M 2446 769.3 2440 769.3 M 2440 753.32 2446 753.32 M 2468 719.77 2468 1259.93 M 2436.28 1264.84 2293.73 1264.84 M 2301.71 1280.82 2436.28 1280.82 M 2436.28 1248.85 2277.74 1248.85 M 2279.91 1232.87 2439.83 1232.87 M 2446 1216.88 2295.89 1216.88 M 2297.71 1200.9 2446 1200.9 M 2446 1184.91 2297.71 1184.91 M 2292.16 1168.93 2446 1168.93 M 2446 1152.94 2276.18 1152.94 M 2275.82 1136.96 2446 1136.96 M 2446 1120.97 2291.8 1120.97 M 2330.12 1104.99 2446 1104.99 M 2446 1089 2431.12 1089 M 2440.72 1073.02 2446 1073.02 M 2446 1057.03 2440 1057.03 M 2440 1041.05 2446 1041.05 M 2396 929.15 2283.63 929.15 M 2297.71 913.17 2396 913.17 M 2396 897.18 2344.47 897.18 M 2387.69 881.2 2396 881.2 M 2396 865.21 2390 865.21 M 2390 849.23 2396 849.23 M 2396 833.24 2390 833.24 M 2390 817.26 2396 817.26 M 2396 801.27 2390 801.27 M 2390 785.29 2396 785.29 M 2396 769.3 2390 769.3 M 2390 753.32 2396 753.32 M 2396 737.33 2390 737.33 M 2390 721.34 2396 721.34 M 2396 705.36 2390 705.36 M 2390 689.37 2396 689.37 M 2396 673.39 2390 673.39 M 2390 657.4 2396 657.4 M 2396 641.42 2390 641.42 M 2390 625.43 2396 625.43 M 2396 609.45 2390 609.45 M 2390 593.46 2396 593.46 M 2396 577.48 2390 577.48 M 2346 577.48 2297.71 577.48 M 2297.71 593.46 2346 593.46 M 2346 609.45 2297.71 609.45 M 2287.34 625.43 2346 625.43 M 2346 641.42 2271.36 641.42 M 2280.64 657.4 2346 657.4 M 2346 673.39 2296.62 673.39 M 2297.71 689.37 2346 689.37 M 2346 705.36 2297.71 705.36 M 2291.43 721.34 2346 721.34 M 2346 737.33 2275.45 737.33 M 2276.55 753.32 2346 753.32 M 2346 769.3 2292.53 769.3 M 2297.71 785.29 2346 785.29 M 2346 801.27 2297.71 801.27 M 2295.52 817.26 2346 817.26 M 2346 833.24 2279.54 833.24 M 2272.46 849.23 2346 849.23 M 2368 869.77 2368 316.62 M 2336.28 321.72 41 321.72 M 41 337.7 2336.28 337.7 M 2346 353.69 2276.92 353.69 M 2220.5 353.69 41 353.69 M 41 369.67 2204.51 369.67 M 2199.71 385.66 41 385.66 M 41 401.64 2199.71 401.64 M 2336.28 305.73 41 305.73 M 41 289.75 2339.64 289.75 M 2493.98 265.05 2625.09 724.89 M 2687.85 785.29 2540 785.29 M 2540 801.27 2692.22 801.27 M 2696.59 817.26 2540 817.26 M 2540 833.24 2700.96 833.24 M 2704.57 849.23 2599.72 849.23 M 2599.72 865.21 2703.21 865.21 M 2703.21 881.2 2599.72 881.2 M 2595.82 897.18 2703.21 897.18 M 2734.93 874.1 2554.61 214.26 M 2522.9 209.82 41 209.82 M 41 193.84 2522.9 193.84 M 2199.71 513.54 2011.58 513.54 M 1997.75 529.52 2214.16 529.52 M 2216.78 657.4 1590 657.4 M 1590 641.42 1686.28 641.42 M 1590 673.39 2200.79 673.39 M 2199.71 689.37 1590 689.37 M 1546 657.4 41 657.4 M 41 641.42 1546 641.42 M 1546 625.43 41 625.43 M 41 609.45 1546 609.45 M 1536.46 593.46 41 593.46 M 41 577.48 1536.28 577.48 M 1536.28 561.49 41 561.49 M 41 545.51 1537.03 545.51 M 1564.22 529.52 1493.04 529.52 M 1499.94 526.67 1486.11 532.39 1471.15 532.39 1457.32 526.67 1446.74 516.08 1441.01 502.26 1441.01 440.04 1446.74 426.22 1457.32 415.63 1471.15 409.91 1486.11 409.91 1499.94 415.63 1510.52 426.22 1516.25 440.04 1516.25 502.26 1510.52 516.08 1499.94 526.67 M 1511.58 513.54 1545.68 513.54 M 1541.01 497.55 1516.25 497.55 M 1516.25 481.57 1541.01 481.57 M 1541.01 465.58 1516.25 465.58 M 1516.25 449.6 1541.01 449.6 M 1543.67 433.61 1513.59 433.61 M 1501.94 417.63 1555.32 417.63 M 1455.32 417.63 1401.94 417.63 M 1399.94 415.63 1410.52 426.22 1416.25 440.04 1416.25 502.26 1410.52 516.08 1399.94 526.67 1386.11 532.39 1371.15 532.39 1357.32 526.67 1346.74 516.08 1341.01 502.26 1341.01 440.04 1346.74 426.22 1357.32 415.63 1371.15 409.91 1386.11 409.91 1399.94 415.63 M 1413.59 433.61 1443.67 433.61 M 1441.01 449.6 1416.25 449.6 M 1416.25 465.58 1441.01 465.58 M 1441.01 481.57 1416.25 481.57 M 1416.25 497.55 1441.01 497.55 M 1445.68 513.54 1411.58 513.54 M 1393.04 529.52 1464.22 529.52 M 1364.22 529.52 1301.61 529.52 M 1300.44 530.37 1294.61 533.34 1288.38 535.37 1281.91 536.39 1278.63 536.39 1275.35 536.39 1268.88 535.37 1262.65 533.34 1256.82 530.37 1251.51 526.52 1246.88 521.89 1243.03 516.59 1240.06 510.75 1238.03 504.52 1237.01 498.05 1237.01 494.77 1237.01 444.25 1238.03 437.78 1240.06 431.55 1243.03 425.71 1246.88 420.41 1251.51 415.78 1256.82 411.93 1262.65 408.95 1268.88 406.93 1275.35 405.91 1278.63 405.91 1281.91 405.91 1288.38 406.93 1294.61 408.95 1300.44 411.93 1305.74 415.78 1310.38 420.41 1314.23 425.71 1317.2 431.55 1319.23 437.78 1320.25 444.25 1320.25 494.77 1278.63 494.77 1278.63 405.91 1278.63 494.77 1278.63 494.77 1278.63 494.77 1237.01 494.77 1278.63 494.77 1278.63 494.77 1320.25 494.77 1320.25 498.05 1319.23 504.52 1317.2 510.75 1314.23 516.59 1310.38 521.89 1305.74 526.52 1300.44 530.37 M 1278.63 529.52 1278.63 529.52 M 1278.63 536.39 1278.63 494.77 1278.63 494.77 1278.63 536.39 M 1278.63 513.54 1278.63 513.54 M 1278.63 497.55 1278.63 497.55 M 1278.63 481.57 1278.63 481.57 M 1278.63 465.58 1278.63 465.58 M 1278.63 449.6 1278.63 449.6 M 1278.63 433.61 1278.63 433.61 M 1278.63 417.63 1278.63 417.63 M 1307.59 417.63 1355.32 417.63 M 1343.67 433.61 1317.87 433.61 M 1320.25 449.6 1341.01 449.6 M 1341.01 465.58 1320.25 465.58 M 1320.25 481.57 1341.01 481.57 M 1341.01 497.55 1320.25 497.55 M 1315.78 513.54 1345.68 513.54 M 1255.65 529.52 1193.04 529.52 M 1199.94 526.67 1186.11 532.39 1171.15 532.39 1157.32 526.67 1146.74 516.08 1141.01 502.26 1141.01 440.04 1146.74 426.22 1157.32 415.63 1171.15 409.91 1186.11 409.91 1199.94 415.63 1210.52 426.22 1216.25 440.04 1216.25 502.26 1210.52 516.08 1199.94 526.67 M 1211.58 513.54 1241.48 513.54 M 1237.01 497.55 1216.25 497.55 M 1216.25 481.57 1237.01 481.57 M 1237.01 465.58 1216.25 465.58 M 1216.25 449.6 1237.01 449.6 M 1239.39 433.61 1213.59 433.61 M 1201.94 417.63 1249.67 417.63 M 1155.32 417.63 1101.94 417.63 M 1099.94 415.63 1110.52 426.22 1116.25 440.04 1116.25 502.26 1110.52 516.08 1099.94 526.67 1086.11 532.39 1071.15 532.39 1057.32 526.67 1046.74 516.08 1041.01 502.26 1041.01 440.04 1046.74 426.22 1057.32 415.63 1071.15 409.91 1086.11 409.91 1099.94 415.63 M 1113.59 433.61 1143.67 433.61 M 1141.01 449.6 1116.25 449.6 M 1116.25 465.58 1141.01 465.58 M 1141.01 481.57 1116.25 481.57 M 1116.25 497.55 1141.01 497.55 M 1145.68 513.54 1111.58 513.54 M 1093.04 529.52 1164.22 529.52 M 1064.22 529.52 993.04 529.52 M 999.94 526.67 986.11 532.39 971.15 532.39 957.32 526.67 946.74 516.08 941.01 502.26 941.01 440.04 946.74 426.22 957.32 415.63 971.15 409.91 986.11 409.91 999.94 415.63 1010.52 426.22 1016.25 440.04 1016.25 502.26 1010.52 516.08 999.94 526.67 M 1011.58 513.54 1045.68 513.54 M 1041.01 497.55 1016.25 497.55 M 1016.25 481.57 1041.01 481.57 M 1041.01 465.58 1016.25 465.58 M 1016.25 449.6 1041.01 449.6 M 1043.67 433.61 1013.59 433.61 M 1001.94 417.63 1055.32 417.63 M 955.32 417.63 901.94 417.63 M 899.94 415.63 910.52 426.22 916.25 440.04 916.25 502.26 910.52 516.08 899.94 526.67 886.11 532.39 871.15 532.39 857.32 526.67 846.74 516.08 841.01 502.26 841.01 440.04 846.74 426.22 857.32 415.63 871.15 409.91 886.11 409.91 899.94 415.63 M 913.59 433.61 943.67 433.61 M 941.01 449.6 916.25 449.6 M 916.25 465.58 941.01 465.58 M 941.01 481.57 916.25 481.57 M 916.25 497.55 941.01 497.55 M 945.68 513.54 911.58 513.54 M 893.04 529.52 964.22 529.52 M 864.22 529.52 801.61 529.52 M 800.44 530.37 794.61 533.34 788.38 535.37 781.91 536.39 778.63 536.39 775.35 536.39 768.88 535.37 762.65 533.34 756.82 530.37 751.51 526.52 746.88 521.89 743.03 516.59 740.06 510.75 738.03 504.52 737.01 498.05 737.01 494.77 737.01 444.25 738.03 437.78 740.06 431.55 743.03 425.71 746.88 420.41 751.51 415.78 756.82 411.93 762.65 408.95 768.88 406.93 775.35 405.91 778.63 405.91 781.91 405.91 788.38 406.93 794.61 408.95 800.44 411.93 805.74 415.78 810.38 420.41 814.23 425.71 817.2 431.55 819.23 437.78 820.25 444.25 820.25 494.77 778.63 494.77 778.63 405.91 778.63 494.77 778.63 494.77 778.63 494.77 737.01 494.77 778.63 494.77 778.63 494.77 820.25 494.77 820.25 498.05 819.23 504.52 817.2 510.75 814.23 516.59 810.38 521.89 805.74 526.52 800.44 530.37 M 778.63 529.52 778.63 529.52 M 778.63 536.39 778.63 494.77 778.63 494.77 778.63 536.39 M 778.63 513.54 778.63 513.54 M 778.63 497.55 778.63 497.55 M 778.63 481.57 778.63 481.57 M 778.63 465.58 778.63 465.58 M 778.63 449.6 778.63 449.6 M 778.63 433.61 778.63 433.61 M 778.63 417.63 778.63 417.63 M 807.59 417.63 855.32 417.63 M 843.67 433.61 817.87 433.61 M 820.25 449.6 841.01 449.6 M 841.01 465.58 820.25 465.58 M 820.25 481.57 841.01 481.57 M 841.01 497.55 820.25 497.55 M 815.78 513.54 845.68 513.54 M 755.65 529.52 693.04 529.52 M 699.94 526.67 686.11 532.39 671.15 532.39 657.32 526.67 646.74 516.08 641.01 502.26 641.01 440.04 646.74 426.22 657.32 415.63 671.15 409.91 686.11 409.91 699.94 415.63 710.52 426.22 716.25 440.04 716.25 502.26 710.52 516.08 699.94 526.67 M 711.58 513.54 741.48 513.54 M 737.01 497.55 716.25 497.55 M 716.25 481.57 737.01 481.57 M 737.01 465.58 716.25 465.58 M 716.25 449.6 737.01 449.6 M 739.39 433.61 713.59 433.61 M 701.94 417.63 749.67 417.63 M 655.32 417.63 601.94 417.63 M 599.94 415.63 610.52 426.22 616.25 440.04 616.25 502.26 610.52 516.08 599.94 526.67 586.11 532.39 571.15 532.39 557.32 526.67 546.74 516.08 541.01 502.26 541.01 440.04 546.74 426.22 557.32 415.63 571.15 409.91 586.11 409.91 599.94 415.63 M 613.59 433.61 643.67 433.61 M 641.01 449.6 616.25 449.6 M 616.25 465.58 641.01 465.58 M 641.01 481.57 616.25 481.57 M 616.25 497.55 641.01 497.55 M 645.68 513.54 611.58 513.54 M 593.04 529.52 664.22 529.52 M 564.22 529.52 493.04 529.52 M 499.94 526.67 486.11 532.39 471.15 532.39 457.32 526.67 446.74 516.08 441.01 502.26 441.01 440.04 446.74 426.22 457.32 415.63 471.15 409.91 486.11 409.91 499.94 415.63 510.52 426.22 516.25 440.04 516.25 502.26 510.52 516.08 499.94 526.67 M 511.58 513.54 545.68 513.54 M 541.01 497.55 516.25 497.55 M 516.25 481.57 541.01 481.57 M 541.01 465.58 516.25 465.58 M 516.25 449.6 541.01 449.6 M 543.67 433.61 513.59 433.61 M 501.94 417.63 555.32 417.63 M 455.32 417.63 401.94 417.63 M 399.94 415.63 410.52 426.22 416.25 440.04 416.25 502.26 410.52 516.08 399.94 526.67 386.11 532.39 371.15 532.39 357.32 526.67 346.74 516.08 341.01 502.26 341.01 440.04 346.74 426.22 357.32 415.63 371.15 409.91 386.11 409.91 399.94 415.63 M 413.59 433.61 443.67 433.61 M 441.01 449.6 416.25 449.6 M 416.25 465.58 441.01 465.58 M 441.01 481.57 416.25 481.57 M 416.25 497.55 441.01 497.55 M 445.68 513.54 411.58 513.54 M 393.04 529.52 464.22 529.52 M 364.22 529.52 301.61 529.52 M 300.44 530.37 294.61 533.34 288.38 535.37 281.91 536.39 278.63 536.39 275.35 536.39 268.88 535.37 262.65 533.34 256.82 530.37 251.51 526.52 246.88 521.89 243.03 516.59 240.06 510.75 238.03 504.52 237.01 498.05 237.01 494.77 237.01 444.25 238.03 437.78 240.06 431.55 243.03 425.71 246.88 420.41 251.51 415.78 256.82 411.93 262.65 408.95 268.88 406.93 275.35 405.91 278.63 405.91 281.91 405.91 288.38 406.93 294.61 408.95 300.44 411.93 305.74 415.78 310.38 420.41 314.23 425.71 317.2 431.55 319.23 437.78 320.25 444.25 320.25 494.77 278.63 494.77 278.63 405.91 278.63 494.77 278.63 494.77 278.63 494.77 237.01 494.77 278.63 494.77 278.63 494.77 320.25 494.77 320.25 498.05 319.23 504.52 317.2 510.75 314.23 516.59 310.38 521.89 305.74 526.52 300.44 530.37 M 278.63 529.52 278.63 529.52 M 278.63 536.39 278.63 494.77 278.63 494.77 278.63 536.39 M 278.63 513.54 278.63 513.54 M 278.63 497.55 278.63 497.55 M 278.63 481.57 278.63 481.57 M 278.63 465.58 278.63 465.58 M 278.63 449.6 278.63 449.6 M 278.63 433.61 278.63 433.61 M 278.63 417.63 278.63 417.63 M 307.59 417.63 355.32 417.63 M 343.67 433.61 317.87 433.61 M 320.25 449.6 341.01 449.6 M 341.01 465.58 320.25 465.58 M 320.25 481.57 341.01 481.57 M 341.01 497.55 320.25 497.55 M 315.78 513.54 345.68 513.54 M 255.65 529.52 193.04 529.52 M 199.94 526.67 186.11 532.39 171.15 532.39 157.32 526.67 146.74 516.08 141.01 502.26 141.01 440.04 146.74 426.22 157.32 415.63 171.15 409.91 186.11 409.91 199.94 415.63 210.52 426.22 216.25 440.04 216.25 502.26 210.52 516.08 199.94 526.67 M 211.58 513.54 241.48 513.54 M 237.01 497.55 216.25 497.55 M 216.25 481.57 237.01 481.57 M 237.01 465.58 216.25 465.58 M 216.25 449.6 237.01 449.6 M 239.39 433.61 213.59 433.61 M 201.94 417.63 249.67 417.63 M 155.32 417.63 101.94 417.63 M 99.94 415.63 110.52 426.22 116.25 440.04 116.25 502.26 110.52 516.08 99.94 526.67 86.11 532.39 71.15 532.39 57.32 526.67 46.74 516.08 41.01 502.26 41.01 440.04 46.74 426.22 57.32 415.63 71.15 409.91 86.11 409.91 99.94 415.63 M 113.59 433.61 143.67 433.61 M 141.01 449.6 116.25 449.6 M 116.25 465.58 141.01 465.58 M 141.01 481.57 116.25 481.57 M 116.25 497.55 141.01 497.55 M 145.68 513.54 111.58 513.54 M 93.04 529.52 164.22 529.52 M 64.22 529.52 41 529.52 M 41 513.54 45.68 513.54 M 41.01 497.55 41 497.55 M 41 481.57 41.01 481.57 M 41 465.58 41.01 465.58 M 41 449.6 41.01 449.6 M 41 433.61 43.67 433.61 M 41 417.63 55.32 417.63 M 104.81 184.31 80.44 174.21 61.79 155.56 51.69 131.19 51.69 104.81 61.79 80.44 80.44 61.79 104.81 51.69 131.19 51.69 155.56 61.79 174.21 80.44 184.31 104.81 184.31 131.19 174.21 155.56 155.56 174.21 131.19 184.31 104.81 184.31 M 89.22 177.85 41 177.85 M 41 161.87 68.09 161.87 M 57.78 145.88 41 145.88 M 41 129.9 51.69 129.9 M 51.69 113.91 41 113.91 M 41 97.93 54.54 97.93 M 61.17 81.94 41 81.94 M 41 65.96 76.27 65.96 M 41 49.97 4325.71 49.97 M 4325.71 65.96 4290.44 65.96 M 4286.27 61.79 4304.92 80.44 4315.02 104.81 4315.02 131.19 4304.92 155.56 4286.27 174.21 4261.9 184.31 4235.52 184.31 4211.15 174.21 4192.5 155.56 4182.4 131.19 4182.4 104.81 4192.5 80.44 4211.15 61.79 4235.52 51.69 4261.9 51.69 4286.27 61.79 M 4305.54 81.94 4325.71 81.94 M 4325.71 97.93 4312.16 97.93 M 4315.02 113.91 4325.71 113.91 M 4325.71 129.9 4315.02 129.9 M 4308.93 145.88 4325.71 145.88 M 4325.71 161.87 4298.61 161.87 M 4277.48 177.85 4325.71 177.85 M 4219.93 177.85 146.78 177.85 M 167.91 161.87 4198.8 161.87 M 4188.49 145.88 178.22 145.88 M 184.31 129.9 4182.4 129.9 M 4182.4 113.91 184.31 113.91 M 181.45 97.93 4185.25 97.93 M 4191.87 81.94 174.83 81.94 M 159.73 65.96 4206.98 65.96 M 4325.71 609.45 3440.63 609.45 M 3447.35 625.43 4325.71 625.43 M 4325.71 641.42 3447.35 641.42 M 3447.35 657.4 4325.71 657.4 M 3398.35 657.4 3394.35 657.4 M 3394.35 641.42 3398.35 641.42 M 3398.35 625.43 3394.35 625.43 M 3394.35 609.45 3398.35 609.45 M 3398.35 673.39 3394.35 673.39 M 3065.98 673.39 3037 673.39 M 2568 869.77 2568 1345.56 M 2856.93 1344.76 2993.03 1344.76 M 2993.03 1343.39 3003.13 1319.02 3021.78 1300.37 3046.15 1290.28 3072.53 1290.28 3096.9 1300.37 3115.55 1319.02 3125.65 1343.39 3125.65 1369.77 3115.55 1394.14 3096.9 1412.8 3072.53 1422.89 3046.15 1422.89 3021.78 1412.8 3003.13 1394.14 2993.03 1369.77 2993.03 1343.39 M 2999.08 1328.78 2856.93 1328.78 M 2856.93 1312.79 3009.35 1312.79 M 3030.38 1296.81 2856.93 1296.81 M 2856.93 1280.82 3851.64 1280.82 M 3851.64 1296.81 3462.32 1296.81 M 3470.91 1300.37 3489.57 1319.02 3499.66 1343.39 3499.66 1369.77 3489.57 1394.14 3470.91 1412.8 3446.54 1422.89 3420.16 1422.89 3395.79 1412.8 3377.14 1394.14 3367.05 1369.77 3367.05 1343.39 3377.14 1319.02 3395.79 1300.37 3420.16 1290.28 3446.54 1290.28 3470.91 1300.37 M 3483.34 1312.79 3851.64 1312.79 M 3851.64 1328.78 3493.61 1328.78 M 3499.66 1344.76 3865.87 1344.76 M 3881.85 1360.75 3499.66 1360.75 M 3496.78 1376.73 4197.97 1376.73 M 4188.14 1392.72 3490.16 1392.72 M 3475 1408.7 4182.4 1408.7 M 4182.4 1424.69 2856.93 1424.69 M 2856.93 1408.7 3017.69 1408.7 M 3002.54 1392.72 2856.93 1392.72 M 2856.93 1376.73 2995.92 1376.73 M 2993.03 1360.75 2856.93 1360.75 M 2856.93 1440.68 4185.6 1440.68 M 4192.22 1456.66 2856.93 1456.66 M 2860.75 1472.65 4207.81 1472.65 M 4217.93 1360.75 3949.42 1360.75 M 3864.31 1264.84 2856.93 1264.84 M 3088.3 1296.81 3404.39 1296.81 M 3383.37 1312.79 3109.32 1312.79 M 3119.59 1328.78 3373.1 1328.78 M 3367.05 1344.76 3125.65 1344.76 M 3125.65 1360.75 3367.05 1360.75 M 3369.93 1376.73 3122.76 1376.73 M 3116.14 1392.72 3376.55 1392.72 M 3391.7 1408.7 3100.99 1408.7 M 2250.71 1344.76 2246.71 1344.76 M 2246.71 1328.78 2250.71 1328.78 M 2250.71 1312.79 2246.71 1312.79 M 2246.71 1296.81 2250.71 1296.81 M 1868 1019.77 1739.7 891.47 1740.44 844.77 M 1787.45 801.27 2199.71 801.27 M 2201.9 817.26 2012.19 817.26 M 2007.82 812.88 2018.4 823.46 2024.13 837.29 2024.13 852.26 2018.4 866.08 2007.82 876.67 1993.99 882.39 1931.78 882.39 1917.95 876.67 1907.37 866.08 1901.64 852.26 1901.64 837.29 1907.37 823.46 1917.95 812.88 1931.78 807.15 1993.99 807.15 2007.82 812.88 M 2022.45 833.24 2217.88 833.24 M 2224.96 849.23 2024.13 849.23 M 2018.76 865.21 2208.97 865.21 M 2199.71 881.2 1996.88 881.2 M 1928.89 881.2 1794.53 881.2 M 1801.25 865.21 1907 865.21 M 1901.64 849.23 1804.44 849.23 M 1804.44 833.24 1903.31 833.24 M 1913.57 817.26 1798.32 817.26 M 1702.34 897.18 1699.72 897.18 M 1636.28 897.18 1592.2 897.18 M 1592.66 913.17 1636.28 913.17 M 1636.28 929.15 1593.11 929.15 M 1489.33 833.24 1479.74 833.24 M 1479.74 817.26 1489.33 817.26 M 1489.33 801.27 1479.74 801.27 M 1479.74 785.29 1489.33 785.29 M 1517.5 785.29 1546 785.29 M 1546 801.27 1536.87 801.27 M 1451.57 785.29 1449.72 785.29 M 1418 769.77 1393 819.77 1396.74 1061.31 M 1349.74 1057.03 1347.74 1057.03 M 1347.74 1061.31 1296.74 1061.31 1296.74 1112.31 1317.86 1112.31 1347.74 1082.43 1347.74 1061.31 1296.74 1061.31 1296.74 1061.31 1296.74 1112.31 1275.62 1112.31 1245.74 1082.43 1245.74 1061.31 1296.74 1061.31 1296.74 1061.31 1296.74 1061.31 1245.74 1061.31 1245.74 1040.18 1275.62 1010.31 1296.74 1010.31 1317.86 1010.31 1347.74 1040.18 1347.74 1061.31 M 1347.74 1073.02 1349.74 1073.02 M 1357.97 1089 1341.17 1089 M 1325.18 1104.99 1373.95 1104.99 M 1296.74 1104.99 1296.74 1104.99 M 1296.74 1089 1296.74 1089 M 1296.74 1073.02 1296.74 1073.02 M 1296.74 1061.31 1296.74 1010.31 1296.74 1061.31 1296.74 1061.31 M 1296.74 1057.03 1296.74 1057.03 M 1296.74 1041.05 1296.74 1041.05 M 1296.74 1025.06 1296.74 1025.06 M 1260.86 1025.06 901.12 1025.06 M 886.37 1010.31 865.24 1010.31 865.24 1061.31 865.24 1061.31 814.24 1061.31 814.24 1082.43 844.12 1112.31 865.24 1112.31 865.24 1061.31 865.24 1061.31 814.24 1061.31 814.24 1040.18 844.12 1010.31 865.24 1010.31 865.24 1061.31 865.24 1112.31 886.37 1112.31 916.24 1082.43 916.24 1061.31 865.25 1061.31 865.25 1061.31 916.24 1061.31 916.24 1040.18 886.37 1010.31 M 865.24 1025.06 865.24 1025.06 M 865.24 1041.05 865.24 1041.05 M 865.24 1057.03 865.24 1057.03 M 865.24 1061.31 865.24 1061.31 M 865.24 1073.02 865.24 1073.02 M 865.24 1089 865.24 1089 M 865.24 1104.99 865.24 1104.99 M 836.8 1104.99 788.03 1104.99 M 804.02 1089 820.81 1089 M 814.24 1073.02 812.24 1073.02 M 812.24 1057.03 814.24 1057.03 M 814.24 1041.05 811.45 1041.05 M 795.47 1025.06 829.36 1025.06 M 787.14 1009.08 1373.93 1009.08 M 1373.68 993.09 787.11 993.09 M 787.08 977.11 1373.43 977.11 M 1373.19 961.12 787.05 961.12 M 787.02 945.14 1372.94 945.14 M 1372.69 929.15 786.99 929.15 M 786.95 913.17 1372.44 913.17 M 1372.2 897.18 1252.35 897.18 M 1253.88 896.01 1246.8 901.43 1239.09 905.89 1230.85 909.3 1222.24 911.61 1213.74 912.73 1213.74 849.57 1204.15 849.57 1204.15 912.73 1195.65 911.61 1187.04 909.3 1178.8 905.89 1171.09 901.43 1164.01 896.01 1157.71 889.7 1152.28 882.63 1147.83 874.91 1144.42 866.68 1142.11 858.07 1140.99 849.57 1204.15 849.57 1204.15 839.98 1140.99 839.98 1142.11 831.48 1144.42 822.87 1147.83 814.63 1152.28 806.91 1157.71 799.84 1164.01 793.54 1171.09 788.11 1178.8 783.65 1187.04 780.24 1195.65 777.94 1204.15 776.82 1204.15 839.98 1213.74 839.98 1213.74 849.57 1276.9 849.57 1275.78 858.07 1273.47 866.68 1270.06 874.91 1265.61 882.63 1260.18 889.7 1253.88 896.01 M 1266.43 881.2 1371.95 881.2 M 1371.7 865.21 1273.87 865.21 M 1276.9 839.98 1213.74 839.98 1213.74 776.82 1222.24 777.94 1230.85 780.24 1239.09 783.65 1246.8 788.11 1253.88 793.54 1260.18 799.84 1265.61 806.91 1270.06 814.63 1273.47 822.87 1275.78 831.48 1276.9 839.98 M 1276.01 833.24 1371.21 833.24 M 1371.45 849.23 1213.74 849.23 M 1204.15 849.23 1017.04 849.23 M 1017.04 857.5 1007.3 881.02 989.29 899.03 965.77 908.77 940.31 908.77 916.79 899.03 898.78 881.02 889.04 857.5 889.04 832.04 898.78 808.52 916.79 790.52 940.31 780.77 965.77 780.77 989.29 790.52 1007.3 808.52 1017.04 832.04 1017.04 857.5 M 1013.85 865.21 1144.02 865.21 M 1151.45 881.2 1007.12 881.2 M 991.14 897.18 1165.54 897.18 M 1204.15 897.18 1213.74 897.18 M 1213.74 881.2 1204.15 881.2 M 1204.15 865.21 1213.74 865.21 M 1213.74 833.24 1204.15 833.24 M 1204.15 817.26 1213.74 817.26 M 1213.74 801.27 1204.15 801.27 M 1204.15 785.29 1213.74 785.29 M 1241.91 785.29 1385.65 785.29 M 1386.28 769.3 899.58 769.3 M 883.6 785.29 929.41 785.29 M 906.03 801.27 867.61 801.27 M 851.63 817.26 895.16 817.26 M 889.04 833.24 835.64 833.24 M 819.66 849.23 889.04 849.23 M 892.23 865.21 803.67 865.21 M 787.69 881.2 898.95 881.2 M 914.94 897.18 786.92 897.18 M 764.88 872.9 918 719.77 M 915.57 753.32 1386.28 753.32 M 1377.65 801.27 1261.28 801.27 M 1271.15 817.26 1369.66 817.26 M 1415.21 833.24 1417.47 833.24 M 1418.85 817.26 1422.33 817.26 M 1175.98 785.29 976.67 785.29 M 1000.05 801.27 1156.61 801.27 M 1146.74 817.26 1010.91 817.26 M 1017.04 833.24 1141.88 833.24 M 764.88 872.9 765.24 1061.31 M 893.69 1104.99 1268.3 1104.99 M 1252.31 1089 909.67 1089 M 916.24 1073.02 1245.74 1073.02 M 1245.74 1057.03 916.24 1057.03 M 916.24 1041.05 1245.74 1041.05 M 1332.62 1025.06 1366.52 1025.06 M 1350.53 1041.05 1347.74 1041.05 M 639.35 897.18 464.94 897.18 M 466.47 896.01 459.4 901.43 451.68 905.89 443.45 909.3 434.84 911.61 426.34 912.73 426.34 849.57 489.5 849.57 488.38 858.07 486.07 866.68 482.66 874.91 478.2 882.63 472.78 889.7 466.47 896.01 M 479.03 881.2 623.36 881.2 M 616.64 865.21 486.47 865.21 M 488.61 833.24 613.45 833.24 M 613.45 849.23 426.34 849.23 M 416.75 849.23 41 849.23 M 41 865.21 356.62 865.21 M 364.05 881.2 41 881.2 M 41 897.18 378.14 897.18 M 416.75 897.18 426.34 897.18 M 426.34 881.2 416.75 881.2 M 416.75 865.21 426.34 865.21 M 426.34 833.24 416.75 833.24 M 416.75 817.26 426.34 817.26 M 426.34 801.27 416.75 801.27 M 369.21 801.27 41 801.27 M 41 817.26 359.34 817.26 M 354.47 833.24 41 833.24 M 473.88 801.27 630.44 801.27 M 619.57 817.26 483.75 817.26 M 2248.71 894.77 2368 869.77" fill="none" stroke-width="16"/><use xlink:href="#FAvSsBbPmYpY-PtXekyR_pad-16" x="2568" y="869.77"/><use xlink:href="#FAvSsBbPmYpY-PtXekyR_pad-16" x="2734.93" y="874.1"/><use xlink:href="#FAvSsBbPmYpY-PtXekyR_pad-16" x="2625.09" y="724.89"/><use xlink:href="#FAvSsBbPmYpY-PtXekyR_pad-16" x="2468" y="719.77"/><use xlink:href="#FAvSsBbPmYpY-PtXekyR_pad-16" x="2468" y="594.77"/><use xlink:href="#FAvSsBbPmYpY-PtXekyR_pad-16" x="2834.93" y="584.73"/><use xlink:href="#FAvSsBbPmYpY-PtXekyR_pad-16" x="2418" y="396.94"/><use xlink:href="#FAvSsBbPmYpY-PtXekyR_pad-16" x="2368" y="316.62"/><use xlink:href="#FAvSsBbPmYpY-PtXekyR_pad-16" x="2493.98" y="265.05"/><use xlink:href="#FAvSsBbPmYpY-PtXekyR_pad-16" x="2554.61" y="214.26"/><use xlink:href="#FAvSsBbPmYpY-PtXekyR_pad-16" x="1568" y="569.77"/><use xlink:href="#FAvSsBbPmYpY-PtXekyR_pad-16" x="1718" y="619.77"/><use xlink:href="#FAvSsBbPmYpY-PtXekyR_pad-16" x="1968" y="619.77"/><use xlink:href="#FAvSsBbPmYpY-PtXekyR_pad-16" x="1418" y="769.77"/><use xlink:href="#FAvSsBbPmYpY-PtXekyR_pad-16" x="1668" y="919.77"/><use xlink:href="#FAvSsBbPmYpY-PtXekyR_pad-16" x="1618" y="969.77"/><use xlink:href="#FAvSsBbPmYpY-PtXekyR_pad-16" x="918" y="719.77"/><use xlink:href="#FAvSsBbPmYpY-PtXekyR_pad-16" x="2468" y="1259.93"/><use xlink:href="#FAvSsBbPmYpY-PtXekyR_pad-16" x="2518" y="1305.4"/><use xlink:href="#FAvSsBbPmYpY-PtXekyR_pad-16" x="2568" y="1345.56"/><use xlink:href="#FAvSsBbPmYpY-PtXekyR_pad-16" x="2618" y="1385.72"/><use xlink:href="#FAvSsBbPmYpY-PtXekyR_pad-16" x="2834.93" y="1502.06"/><use xlink:href="#FAvSsBbPmYpY-PtXekyR_pad-16" x="2934.93" y="1203.63"/><use xlink:href="#FAvSsBbPmYpY-PtXekyR_pad-16" x="3154.61" y="1155.2"/><use xlink:href="#FAvSsBbPmYpY-PtXekyR_pad-16" x="2618" y="1019.77"/></g></svg>