G75*
%MOIN*%
%OFA0B0*%
%FSLAX25Y25*%
%IPPOS*%
%LPD*%
%AMOC8*
5,1,8,0,0,1.08239X$1,22.5*
%
%ADD10C,0.00000*%
D10*
X0001800Y0001800D02*
X0001800Y0167154D01*
X0434871Y0167154D01*
X0434871Y0001800D01*
X0001800Y0001800D01*
X0007469Y0011800D02*
X0007471Y0011931D01*
X0007477Y0012063D01*
X0007487Y0012194D01*
X0007501Y0012325D01*
X0007519Y0012455D01*
X0007541Y0012584D01*
X0007566Y0012713D01*
X0007596Y0012841D01*
X0007630Y0012968D01*
X0007667Y0013095D01*
X0007708Y0013219D01*
X0007753Y0013343D01*
X0007802Y0013465D01*
X0007854Y0013586D01*
X0007910Y0013704D01*
X0007970Y0013822D01*
X0008033Y0013937D01*
X0008100Y0014050D01*
X0008170Y0014162D01*
X0008243Y0014271D01*
X0008319Y0014377D01*
X0008399Y0014482D01*
X0008482Y0014584D01*
X0008568Y0014683D01*
X0008657Y0014780D01*
X0008749Y0014874D01*
X0008844Y0014965D01*
X0008941Y0015054D01*
X0009041Y0015139D01*
X0009144Y0015221D01*
X0009249Y0015300D01*
X0009356Y0015376D01*
X0009466Y0015448D01*
X0009578Y0015517D01*
X0009692Y0015583D01*
X0009807Y0015645D01*
X0009925Y0015704D01*
X0010044Y0015759D01*
X0010165Y0015811D01*
X0010288Y0015858D01*
X0010412Y0015902D01*
X0010537Y0015943D01*
X0010663Y0015979D01*
X0010791Y0016012D01*
X0010919Y0016040D01*
X0011048Y0016065D01*
X0011178Y0016086D01*
X0011308Y0016103D01*
X0011439Y0016116D01*
X0011570Y0016125D01*
X0011701Y0016130D01*
X0011833Y0016131D01*
X0011964Y0016128D01*
X0012096Y0016121D01*
X0012227Y0016110D01*
X0012357Y0016095D01*
X0012487Y0016076D01*
X0012617Y0016053D01*
X0012745Y0016027D01*
X0012873Y0015996D01*
X0013000Y0015961D01*
X0013126Y0015923D01*
X0013250Y0015881D01*
X0013374Y0015835D01*
X0013495Y0015785D01*
X0013615Y0015732D01*
X0013734Y0015675D01*
X0013851Y0015615D01*
X0013965Y0015551D01*
X0014078Y0015483D01*
X0014189Y0015412D01*
X0014298Y0015338D01*
X0014404Y0015261D01*
X0014508Y0015180D01*
X0014609Y0015097D01*
X0014708Y0015010D01*
X0014804Y0014920D01*
X0014897Y0014827D01*
X0014988Y0014732D01*
X0015075Y0014634D01*
X0015160Y0014533D01*
X0015241Y0014430D01*
X0015319Y0014324D01*
X0015394Y0014216D01*
X0015466Y0014106D01*
X0015534Y0013994D01*
X0015599Y0013880D01*
X0015660Y0013763D01*
X0015718Y0013645D01*
X0015772Y0013525D01*
X0015823Y0013404D01*
X0015870Y0013281D01*
X0015913Y0013157D01*
X0015952Y0013032D01*
X0015988Y0012905D01*
X0016019Y0012777D01*
X0016047Y0012649D01*
X0016071Y0012520D01*
X0016091Y0012390D01*
X0016107Y0012259D01*
X0016119Y0012128D01*
X0016127Y0011997D01*
X0016131Y0011866D01*
X0016131Y0011734D01*
X0016127Y0011603D01*
X0016119Y0011472D01*
X0016107Y0011341D01*
X0016091Y0011210D01*
X0016071Y0011080D01*
X0016047Y0010951D01*
X0016019Y0010823D01*
X0015988Y0010695D01*
X0015952Y0010568D01*
X0015913Y0010443D01*
X0015870Y0010319D01*
X0015823Y0010196D01*
X0015772Y0010075D01*
X0015718Y0009955D01*
X0015660Y0009837D01*
X0015599Y0009720D01*
X0015534Y0009606D01*
X0015466Y0009494D01*
X0015394Y0009384D01*
X0015319Y0009276D01*
X0015241Y0009170D01*
X0015160Y0009067D01*
X0015075Y0008966D01*
X0014988Y0008868D01*
X0014897Y0008773D01*
X0014804Y0008680D01*
X0014708Y0008590D01*
X0014609Y0008503D01*
X0014508Y0008420D01*
X0014404Y0008339D01*
X0014298Y0008262D01*
X0014189Y0008188D01*
X0014078Y0008117D01*
X0013966Y0008049D01*
X0013851Y0007985D01*
X0013734Y0007925D01*
X0013615Y0007868D01*
X0013495Y0007815D01*
X0013374Y0007765D01*
X0013250Y0007719D01*
X0013126Y0007677D01*
X0013000Y0007639D01*
X0012873Y0007604D01*
X0012745Y0007573D01*
X0012617Y0007547D01*
X0012487Y0007524D01*
X0012357Y0007505D01*
X0012227Y0007490D01*
X0012096Y0007479D01*
X0011964Y0007472D01*
X0011833Y0007469D01*
X0011701Y0007470D01*
X0011570Y0007475D01*
X0011439Y0007484D01*
X0011308Y0007497D01*
X0011178Y0007514D01*
X0011048Y0007535D01*
X0010919Y0007560D01*
X0010791Y0007588D01*
X0010663Y0007621D01*
X0010537Y0007657D01*
X0010412Y0007698D01*
X0010288Y0007742D01*
X0010165Y0007789D01*
X0010044Y0007841D01*
X0009925Y0007896D01*
X0009807Y0007955D01*
X0009692Y0008017D01*
X0009578Y0008083D01*
X0009466Y0008152D01*
X0009356Y0008224D01*
X0009249Y0008300D01*
X0009144Y0008379D01*
X0009041Y0008461D01*
X0008941Y0008546D01*
X0008844Y0008635D01*
X0008749Y0008726D01*
X0008657Y0008820D01*
X0008568Y0008917D01*
X0008482Y0009016D01*
X0008399Y0009118D01*
X0008319Y0009223D01*
X0008243Y0009329D01*
X0008170Y0009438D01*
X0008100Y0009550D01*
X0008033Y0009663D01*
X0007970Y0009778D01*
X0007910Y0009896D01*
X0007854Y0010014D01*
X0007802Y0010135D01*
X0007753Y0010257D01*
X0007708Y0010381D01*
X0007667Y0010505D01*
X0007630Y0010632D01*
X0007596Y0010759D01*
X0007566Y0010887D01*
X0007541Y0011016D01*
X0007519Y0011145D01*
X0007501Y0011275D01*
X0007487Y0011406D01*
X0007477Y0011537D01*
X0007471Y0011669D01*
X0007469Y0011800D01*
X0301603Y0135658D02*
X0301605Y0135789D01*
X0301611Y0135921D01*
X0301621Y0136052D01*
X0301635Y0136183D01*
X0301653Y0136313D01*
X0301675Y0136442D01*
X0301700Y0136571D01*
X0301730Y0136699D01*
X0301764Y0136826D01*
X0301801Y0136953D01*
X0301842Y0137077D01*
X0301887Y0137201D01*
X0301936Y0137323D01*
X0301988Y0137444D01*
X0302044Y0137562D01*
X0302104Y0137680D01*
X0302167Y0137795D01*
X0302234Y0137908D01*
X0302304Y0138020D01*
X0302377Y0138129D01*
X0302453Y0138235D01*
X0302533Y0138340D01*
X0302616Y0138442D01*
X0302702Y0138541D01*
X0302791Y0138638D01*
X0302883Y0138732D01*
X0302978Y0138823D01*
X0303075Y0138912D01*
X0303175Y0138997D01*
X0303278Y0139079D01*
X0303383Y0139158D01*
X0303490Y0139234D01*
X0303600Y0139306D01*
X0303712Y0139375D01*
X0303826Y0139441D01*
X0303941Y0139503D01*
X0304059Y0139562D01*
X0304178Y0139617D01*
X0304299Y0139669D01*
X0304422Y0139716D01*
X0304546Y0139760D01*
X0304671Y0139801D01*
X0304797Y0139837D01*
X0304925Y0139870D01*
X0305053Y0139898D01*
X0305182Y0139923D01*
X0305312Y0139944D01*
X0305442Y0139961D01*
X0305573Y0139974D01*
X0305704Y0139983D01*
X0305835Y0139988D01*
X0305967Y0139989D01*
X0306098Y0139986D01*
X0306230Y0139979D01*
X0306361Y0139968D01*
X0306491Y0139953D01*
X0306621Y0139934D01*
X0306751Y0139911D01*
X0306879Y0139885D01*
X0307007Y0139854D01*
X0307134Y0139819D01*
X0307260Y0139781D01*
X0307384Y0139739D01*
X0307508Y0139693D01*
X0307629Y0139643D01*
X0307749Y0139590D01*
X0307868Y0139533D01*
X0307985Y0139473D01*
X0308099Y0139409D01*
X0308212Y0139341D01*
X0308323Y0139270D01*
X0308432Y0139196D01*
X0308538Y0139119D01*
X0308642Y0139038D01*
X0308743Y0138955D01*
X0308842Y0138868D01*
X0308938Y0138778D01*
X0309031Y0138685D01*
X0309122Y0138590D01*
X0309209Y0138492D01*
X0309294Y0138391D01*
X0309375Y0138288D01*
X0309453Y0138182D01*
X0309528Y0138074D01*
X0309600Y0137964D01*
X0309668Y0137852D01*
X0309733Y0137738D01*
X0309794Y0137621D01*
X0309852Y0137503D01*
X0309906Y0137383D01*
X0309957Y0137262D01*
X0310004Y0137139D01*
X0310047Y0137015D01*
X0310086Y0136890D01*
X0310122Y0136763D01*
X0310153Y0136635D01*
X0310181Y0136507D01*
X0310205Y0136378D01*
X0310225Y0136248D01*
X0310241Y0136117D01*
X0310253Y0135986D01*
X0310261Y0135855D01*
X0310265Y0135724D01*
X0310265Y0135592D01*
X0310261Y0135461D01*
X0310253Y0135330D01*
X0310241Y0135199D01*
X0310225Y0135068D01*
X0310205Y0134938D01*
X0310181Y0134809D01*
X0310153Y0134681D01*
X0310122Y0134553D01*
X0310086Y0134426D01*
X0310047Y0134301D01*
X0310004Y0134177D01*
X0309957Y0134054D01*
X0309906Y0133933D01*
X0309852Y0133813D01*
X0309794Y0133695D01*
X0309733Y0133578D01*
X0309668Y0133464D01*
X0309600Y0133352D01*
X0309528Y0133242D01*
X0309453Y0133134D01*
X0309375Y0133028D01*
X0309294Y0132925D01*
X0309209Y0132824D01*
X0309122Y0132726D01*
X0309031Y0132631D01*
X0308938Y0132538D01*
X0308842Y0132448D01*
X0308743Y0132361D01*
X0308642Y0132278D01*
X0308538Y0132197D01*
X0308432Y0132120D01*
X0308323Y0132046D01*
X0308212Y0131975D01*
X0308100Y0131907D01*
X0307985Y0131843D01*
X0307868Y0131783D01*
X0307749Y0131726D01*
X0307629Y0131673D01*
X0307508Y0131623D01*
X0307384Y0131577D01*
X0307260Y0131535D01*
X0307134Y0131497D01*
X0307007Y0131462D01*
X0306879Y0131431D01*
X0306751Y0131405D01*
X0306621Y0131382D01*
X0306491Y0131363D01*
X0306361Y0131348D01*
X0306230Y0131337D01*
X0306098Y0131330D01*
X0305967Y0131327D01*
X0305835Y0131328D01*
X0305704Y0131333D01*
X0305573Y0131342D01*
X0305442Y0131355D01*
X0305312Y0131372D01*
X0305182Y0131393D01*
X0305053Y0131418D01*
X0304925Y0131446D01*
X0304797Y0131479D01*
X0304671Y0131515D01*
X0304546Y0131556D01*
X0304422Y0131600D01*
X0304299Y0131647D01*
X0304178Y0131699D01*
X0304059Y0131754D01*
X0303941Y0131813D01*
X0303826Y0131875D01*
X0303712Y0131941D01*
X0303600Y0132010D01*
X0303490Y0132082D01*
X0303383Y0132158D01*
X0303278Y0132237D01*
X0303175Y0132319D01*
X0303075Y0132404D01*
X0302978Y0132493D01*
X0302883Y0132584D01*
X0302791Y0132678D01*
X0302702Y0132775D01*
X0302616Y0132874D01*
X0302533Y0132976D01*
X0302453Y0133081D01*
X0302377Y0133187D01*
X0302304Y0133296D01*
X0302234Y0133408D01*
X0302167Y0133521D01*
X0302104Y0133636D01*
X0302044Y0133754D01*
X0301988Y0133872D01*
X0301936Y0133993D01*
X0301887Y0134115D01*
X0301842Y0134239D01*
X0301801Y0134363D01*
X0301764Y0134490D01*
X0301730Y0134617D01*
X0301700Y0134745D01*
X0301675Y0134874D01*
X0301653Y0135003D01*
X0301635Y0135133D01*
X0301621Y0135264D01*
X0301611Y0135395D01*
X0301605Y0135527D01*
X0301603Y0135658D01*
X0339004Y0135658D02*
X0339006Y0135789D01*
X0339012Y0135921D01*
X0339022Y0136052D01*
X0339036Y0136183D01*
X0339054Y0136313D01*
X0339076Y0136442D01*
X0339101Y0136571D01*
X0339131Y0136699D01*
X0339165Y0136826D01*
X0339202Y0136953D01*
X0339243Y0137077D01*
X0339288Y0137201D01*
X0339337Y0137323D01*
X0339389Y0137444D01*
X0339445Y0137562D01*
X0339505Y0137680D01*
X0339568Y0137795D01*
X0339635Y0137908D01*
X0339705Y0138020D01*
X0339778Y0138129D01*
X0339854Y0138235D01*
X0339934Y0138340D01*
X0340017Y0138442D01*
X0340103Y0138541D01*
X0340192Y0138638D01*
X0340284Y0138732D01*
X0340379Y0138823D01*
X0340476Y0138912D01*
X0340576Y0138997D01*
X0340679Y0139079D01*
X0340784Y0139158D01*
X0340891Y0139234D01*
X0341001Y0139306D01*
X0341113Y0139375D01*
X0341227Y0139441D01*
X0341342Y0139503D01*
X0341460Y0139562D01*
X0341579Y0139617D01*
X0341700Y0139669D01*
X0341823Y0139716D01*
X0341947Y0139760D01*
X0342072Y0139801D01*
X0342198Y0139837D01*
X0342326Y0139870D01*
X0342454Y0139898D01*
X0342583Y0139923D01*
X0342713Y0139944D01*
X0342843Y0139961D01*
X0342974Y0139974D01*
X0343105Y0139983D01*
X0343236Y0139988D01*
X0343368Y0139989D01*
X0343499Y0139986D01*
X0343631Y0139979D01*
X0343762Y0139968D01*
X0343892Y0139953D01*
X0344022Y0139934D01*
X0344152Y0139911D01*
X0344280Y0139885D01*
X0344408Y0139854D01*
X0344535Y0139819D01*
X0344661Y0139781D01*
X0344785Y0139739D01*
X0344909Y0139693D01*
X0345030Y0139643D01*
X0345150Y0139590D01*
X0345269Y0139533D01*
X0345386Y0139473D01*
X0345500Y0139409D01*
X0345613Y0139341D01*
X0345724Y0139270D01*
X0345833Y0139196D01*
X0345939Y0139119D01*
X0346043Y0139038D01*
X0346144Y0138955D01*
X0346243Y0138868D01*
X0346339Y0138778D01*
X0346432Y0138685D01*
X0346523Y0138590D01*
X0346610Y0138492D01*
X0346695Y0138391D01*
X0346776Y0138288D01*
X0346854Y0138182D01*
X0346929Y0138074D01*
X0347001Y0137964D01*
X0347069Y0137852D01*
X0347134Y0137738D01*
X0347195Y0137621D01*
X0347253Y0137503D01*
X0347307Y0137383D01*
X0347358Y0137262D01*
X0347405Y0137139D01*
X0347448Y0137015D01*
X0347487Y0136890D01*
X0347523Y0136763D01*
X0347554Y0136635D01*
X0347582Y0136507D01*
X0347606Y0136378D01*
X0347626Y0136248D01*
X0347642Y0136117D01*
X0347654Y0135986D01*
X0347662Y0135855D01*
X0347666Y0135724D01*
X0347666Y0135592D01*
X0347662Y0135461D01*
X0347654Y0135330D01*
X0347642Y0135199D01*
X0347626Y0135068D01*
X0347606Y0134938D01*
X0347582Y0134809D01*
X0347554Y0134681D01*
X0347523Y0134553D01*
X0347487Y0134426D01*
X0347448Y0134301D01*
X0347405Y0134177D01*
X0347358Y0134054D01*
X0347307Y0133933D01*
X0347253Y0133813D01*
X0347195Y0133695D01*
X0347134Y0133578D01*
X0347069Y0133464D01*
X0347001Y0133352D01*
X0346929Y0133242D01*
X0346854Y0133134D01*
X0346776Y0133028D01*
X0346695Y0132925D01*
X0346610Y0132824D01*
X0346523Y0132726D01*
X0346432Y0132631D01*
X0346339Y0132538D01*
X0346243Y0132448D01*
X0346144Y0132361D01*
X0346043Y0132278D01*
X0345939Y0132197D01*
X0345833Y0132120D01*
X0345724Y0132046D01*
X0345613Y0131975D01*
X0345501Y0131907D01*
X0345386Y0131843D01*
X0345269Y0131783D01*
X0345150Y0131726D01*
X0345030Y0131673D01*
X0344909Y0131623D01*
X0344785Y0131577D01*
X0344661Y0131535D01*
X0344535Y0131497D01*
X0344408Y0131462D01*
X0344280Y0131431D01*
X0344152Y0131405D01*
X0344022Y0131382D01*
X0343892Y0131363D01*
X0343762Y0131348D01*
X0343631Y0131337D01*
X0343499Y0131330D01*
X0343368Y0131327D01*
X0343236Y0131328D01*
X0343105Y0131333D01*
X0342974Y0131342D01*
X0342843Y0131355D01*
X0342713Y0131372D01*
X0342583Y0131393D01*
X0342454Y0131418D01*
X0342326Y0131446D01*
X0342198Y0131479D01*
X0342072Y0131515D01*
X0341947Y0131556D01*
X0341823Y0131600D01*
X0341700Y0131647D01*
X0341579Y0131699D01*
X0341460Y0131754D01*
X0341342Y0131813D01*
X0341227Y0131875D01*
X0341113Y0131941D01*
X0341001Y0132010D01*
X0340891Y0132082D01*
X0340784Y0132158D01*
X0340679Y0132237D01*
X0340576Y0132319D01*
X0340476Y0132404D01*
X0340379Y0132493D01*
X0340284Y0132584D01*
X0340192Y0132678D01*
X0340103Y0132775D01*
X0340017Y0132874D01*
X0339934Y0132976D01*
X0339854Y0133081D01*
X0339778Y0133187D01*
X0339705Y0133296D01*
X0339635Y0133408D01*
X0339568Y0133521D01*
X0339505Y0133636D01*
X0339445Y0133754D01*
X0339389Y0133872D01*
X0339337Y0133993D01*
X0339288Y0134115D01*
X0339243Y0134239D01*
X0339202Y0134363D01*
X0339165Y0134490D01*
X0339131Y0134617D01*
X0339101Y0134745D01*
X0339076Y0134874D01*
X0339054Y0135003D01*
X0339036Y0135133D01*
X0339022Y0135264D01*
X0339012Y0135395D01*
X0339006Y0135527D01*
X0339004Y0135658D01*
X0420540Y0141977D02*
X0420542Y0142108D01*
X0420548Y0142240D01*
X0420558Y0142371D01*
X0420572Y0142502D01*
X0420590Y0142632D01*
X0420612Y0142761D01*
X0420637Y0142890D01*
X0420667Y0143018D01*
X0420701Y0143145D01*
X0420738Y0143272D01*
X0420779Y0143396D01*
X0420824Y0143520D01*
X0420873Y0143642D01*
X0420925Y0143763D01*
X0420981Y0143881D01*
X0421041Y0143999D01*
X0421104Y0144114D01*
X0421171Y0144227D01*
X0421241Y0144339D01*
X0421314Y0144448D01*
X0421390Y0144554D01*
X0421470Y0144659D01*
X0421553Y0144761D01*
X0421639Y0144860D01*
X0421728Y0144957D01*
X0421820Y0145051D01*
X0421915Y0145142D01*
X0422012Y0145231D01*
X0422112Y0145316D01*
X0422215Y0145398D01*
X0422320Y0145477D01*
X0422427Y0145553D01*
X0422537Y0145625D01*
X0422649Y0145694D01*
X0422763Y0145760D01*
X0422878Y0145822D01*
X0422996Y0145881D01*
X0423115Y0145936D01*
X0423236Y0145988D01*
X0423359Y0146035D01*
X0423483Y0146079D01*
X0423608Y0146120D01*
X0423734Y0146156D01*
X0423862Y0146189D01*
X0423990Y0146217D01*
X0424119Y0146242D01*
X0424249Y0146263D01*
X0424379Y0146280D01*
X0424510Y0146293D01*
X0424641Y0146302D01*
X0424772Y0146307D01*
X0424904Y0146308D01*
X0425035Y0146305D01*
X0425167Y0146298D01*
X0425298Y0146287D01*
X0425428Y0146272D01*
X0425558Y0146253D01*
X0425688Y0146230D01*
X0425816Y0146204D01*
X0425944Y0146173D01*
X0426071Y0146138D01*
X0426197Y0146100D01*
X0426321Y0146058D01*
X0426445Y0146012D01*
X0426566Y0145962D01*
X0426686Y0145909D01*
X0426805Y0145852D01*
X0426922Y0145792D01*
X0427036Y0145728D01*
X0427149Y0145660D01*
X0427260Y0145589D01*
X0427369Y0145515D01*
X0427475Y0145438D01*
X0427579Y0145357D01*
X0427680Y0145274D01*
X0427779Y0145187D01*
X0427875Y0145097D01*
X0427968Y0145004D01*
X0428059Y0144909D01*
X0428146Y0144811D01*
X0428231Y0144710D01*
X0428312Y0144607D01*
X0428390Y0144501D01*
X0428465Y0144393D01*
X0428537Y0144283D01*
X0428605Y0144171D01*
X0428670Y0144057D01*
X0428731Y0143940D01*
X0428789Y0143822D01*
X0428843Y0143702D01*
X0428894Y0143581D01*
X0428941Y0143458D01*
X0428984Y0143334D01*
X0429023Y0143209D01*
X0429059Y0143082D01*
X0429090Y0142954D01*
X0429118Y0142826D01*
X0429142Y0142697D01*
X0429162Y0142567D01*
X0429178Y0142436D01*
X0429190Y0142305D01*
X0429198Y0142174D01*
X0429202Y0142043D01*
X0429202Y0141911D01*
X0429198Y0141780D01*
X0429190Y0141649D01*
X0429178Y0141518D01*
X0429162Y0141387D01*
X0429142Y0141257D01*
X0429118Y0141128D01*
X0429090Y0141000D01*
X0429059Y0140872D01*
X0429023Y0140745D01*
X0428984Y0140620D01*
X0428941Y0140496D01*
X0428894Y0140373D01*
X0428843Y0140252D01*
X0428789Y0140132D01*
X0428731Y0140014D01*
X0428670Y0139897D01*
X0428605Y0139783D01*
X0428537Y0139671D01*
X0428465Y0139561D01*
X0428390Y0139453D01*
X0428312Y0139347D01*
X0428231Y0139244D01*
X0428146Y0139143D01*
X0428059Y0139045D01*
X0427968Y0138950D01*
X0427875Y0138857D01*
X0427779Y0138767D01*
X0427680Y0138680D01*
X0427579Y0138597D01*
X0427475Y0138516D01*
X0427369Y0138439D01*
X0427260Y0138365D01*
X0427149Y0138294D01*
X0427037Y0138226D01*
X0426922Y0138162D01*
X0426805Y0138102D01*
X0426686Y0138045D01*
X0426566Y0137992D01*
X0426445Y0137942D01*
X0426321Y0137896D01*
X0426197Y0137854D01*
X0426071Y0137816D01*
X0425944Y0137781D01*
X0425816Y0137750D01*
X0425688Y0137724D01*
X0425558Y0137701D01*
X0425428Y0137682D01*
X0425298Y0137667D01*
X0425167Y0137656D01*
X0425035Y0137649D01*
X0424904Y0137646D01*
X0424772Y0137647D01*
X0424641Y0137652D01*
X0424510Y0137661D01*
X0424379Y0137674D01*
X0424249Y0137691D01*
X0424119Y0137712D01*
X0423990Y0137737D01*
X0423862Y0137765D01*
X0423734Y0137798D01*
X0423608Y0137834D01*
X0423483Y0137875D01*
X0423359Y0137919D01*
X0423236Y0137966D01*
X0423115Y0138018D01*
X0422996Y0138073D01*
X0422878Y0138132D01*
X0422763Y0138194D01*
X0422649Y0138260D01*
X0422537Y0138329D01*
X0422427Y0138401D01*
X0422320Y0138477D01*
X0422215Y0138556D01*
X0422112Y0138638D01*
X0422012Y0138723D01*
X0421915Y0138812D01*
X0421820Y0138903D01*
X0421728Y0138997D01*
X0421639Y0139094D01*
X0421553Y0139193D01*
X0421470Y0139295D01*
X0421390Y0139400D01*
X0421314Y0139506D01*
X0421241Y0139615D01*
X0421171Y0139727D01*
X0421104Y0139840D01*
X0421041Y0139955D01*
X0420981Y0140073D01*
X0420925Y0140191D01*
X0420873Y0140312D01*
X0420824Y0140434D01*
X0420779Y0140558D01*
X0420738Y0140682D01*
X0420701Y0140809D01*
X0420667Y0140936D01*
X0420637Y0141064D01*
X0420612Y0141193D01*
X0420590Y0141322D01*
X0420572Y0141452D01*
X0420558Y0141583D01*
X0420548Y0141714D01*
X0420542Y0141846D01*
X0420540Y0141977D01*
X0420540Y0157154D02*
X0420542Y0157285D01*
X0420548Y0157417D01*
X0420558Y0157548D01*
X0420572Y0157679D01*
X0420590Y0157809D01*
X0420612Y0157938D01*
X0420637Y0158067D01*
X0420667Y0158195D01*
X0420701Y0158322D01*
X0420738Y0158449D01*
X0420779Y0158573D01*
X0420824Y0158697D01*
X0420873Y0158819D01*
X0420925Y0158940D01*
X0420981Y0159058D01*
X0421041Y0159176D01*
X0421104Y0159291D01*
X0421171Y0159404D01*
X0421241Y0159516D01*
X0421314Y0159625D01*
X0421390Y0159731D01*
X0421470Y0159836D01*
X0421553Y0159938D01*
X0421639Y0160037D01*
X0421728Y0160134D01*
X0421820Y0160228D01*
X0421915Y0160319D01*
X0422012Y0160408D01*
X0422112Y0160493D01*
X0422215Y0160575D01*
X0422320Y0160654D01*
X0422427Y0160730D01*
X0422537Y0160802D01*
X0422649Y0160871D01*
X0422763Y0160937D01*
X0422878Y0160999D01*
X0422996Y0161058D01*
X0423115Y0161113D01*
X0423236Y0161165D01*
X0423359Y0161212D01*
X0423483Y0161256D01*
X0423608Y0161297D01*
X0423734Y0161333D01*
X0423862Y0161366D01*
X0423990Y0161394D01*
X0424119Y0161419D01*
X0424249Y0161440D01*
X0424379Y0161457D01*
X0424510Y0161470D01*
X0424641Y0161479D01*
X0424772Y0161484D01*
X0424904Y0161485D01*
X0425035Y0161482D01*
X0425167Y0161475D01*
X0425298Y0161464D01*
X0425428Y0161449D01*
X0425558Y0161430D01*
X0425688Y0161407D01*
X0425816Y0161381D01*
X0425944Y0161350D01*
X0426071Y0161315D01*
X0426197Y0161277D01*
X0426321Y0161235D01*
X0426445Y0161189D01*
X0426566Y0161139D01*
X0426686Y0161086D01*
X0426805Y0161029D01*
X0426922Y0160969D01*
X0427036Y0160905D01*
X0427149Y0160837D01*
X0427260Y0160766D01*
X0427369Y0160692D01*
X0427475Y0160615D01*
X0427579Y0160534D01*
X0427680Y0160451D01*
X0427779Y0160364D01*
X0427875Y0160274D01*
X0427968Y0160181D01*
X0428059Y0160086D01*
X0428146Y0159988D01*
X0428231Y0159887D01*
X0428312Y0159784D01*
X0428390Y0159678D01*
X0428465Y0159570D01*
X0428537Y0159460D01*
X0428605Y0159348D01*
X0428670Y0159234D01*
X0428731Y0159117D01*
X0428789Y0158999D01*
X0428843Y0158879D01*
X0428894Y0158758D01*
X0428941Y0158635D01*
X0428984Y0158511D01*
X0429023Y0158386D01*
X0429059Y0158259D01*
X0429090Y0158131D01*
X0429118Y0158003D01*
X0429142Y0157874D01*
X0429162Y0157744D01*
X0429178Y0157613D01*
X0429190Y0157482D01*
X0429198Y0157351D01*
X0429202Y0157220D01*
X0429202Y0157088D01*
X0429198Y0156957D01*
X0429190Y0156826D01*
X0429178Y0156695D01*
X0429162Y0156564D01*
X0429142Y0156434D01*
X0429118Y0156305D01*
X0429090Y0156177D01*
X0429059Y0156049D01*
X0429023Y0155922D01*
X0428984Y0155797D01*
X0428941Y0155673D01*
X0428894Y0155550D01*
X0428843Y0155429D01*
X0428789Y0155309D01*
X0428731Y0155191D01*
X0428670Y0155074D01*
X0428605Y0154960D01*
X0428537Y0154848D01*
X0428465Y0154738D01*
X0428390Y0154630D01*
X0428312Y0154524D01*
X0428231Y0154421D01*
X0428146Y0154320D01*
X0428059Y0154222D01*
X0427968Y0154127D01*
X0427875Y0154034D01*
X0427779Y0153944D01*
X0427680Y0153857D01*
X0427579Y0153774D01*
X0427475Y0153693D01*
X0427369Y0153616D01*
X0427260Y0153542D01*
X0427149Y0153471D01*
X0427037Y0153403D01*
X0426922Y0153339D01*
X0426805Y0153279D01*
X0426686Y0153222D01*
X0426566Y0153169D01*
X0426445Y0153119D01*
X0426321Y0153073D01*
X0426197Y0153031D01*
X0426071Y0152993D01*
X0425944Y0152958D01*
X0425816Y0152927D01*
X0425688Y0152901D01*
X0425558Y0152878D01*
X0425428Y0152859D01*
X0425298Y0152844D01*
X0425167Y0152833D01*
X0425035Y0152826D01*
X0424904Y0152823D01*
X0424772Y0152824D01*
X0424641Y0152829D01*
X0424510Y0152838D01*
X0424379Y0152851D01*
X0424249Y0152868D01*
X0424119Y0152889D01*
X0423990Y0152914D01*
X0423862Y0152942D01*
X0423734Y0152975D01*
X0423608Y0153011D01*
X0423483Y0153052D01*
X0423359Y0153096D01*
X0423236Y0153143D01*
X0423115Y0153195D01*
X0422996Y0153250D01*
X0422878Y0153309D01*
X0422763Y0153371D01*
X0422649Y0153437D01*
X0422537Y0153506D01*
X0422427Y0153578D01*
X0422320Y0153654D01*
X0422215Y0153733D01*
X0422112Y0153815D01*
X0422012Y0153900D01*
X0421915Y0153989D01*
X0421820Y0154080D01*
X0421728Y0154174D01*
X0421639Y0154271D01*
X0421553Y0154370D01*
X0421470Y0154472D01*
X0421390Y0154577D01*
X0421314Y0154683D01*
X0421241Y0154792D01*
X0421171Y0154904D01*
X0421104Y0155017D01*
X0421041Y0155132D01*
X0420981Y0155250D01*
X0420925Y0155368D01*
X0420873Y0155489D01*
X0420824Y0155611D01*
X0420779Y0155735D01*
X0420738Y0155859D01*
X0420701Y0155986D01*
X0420667Y0156113D01*
X0420637Y0156241D01*
X0420612Y0156370D01*
X0420590Y0156499D01*
X0420572Y0156629D01*
X0420558Y0156760D01*
X0420548Y0156891D01*
X0420542Y0157023D01*
X0420540Y0157154D01*
X0420540Y0026977D02*
X0420542Y0027108D01*
X0420548Y0027240D01*
X0420558Y0027371D01*
X0420572Y0027502D01*
X0420590Y0027632D01*
X0420612Y0027761D01*
X0420637Y0027890D01*
X0420667Y0028018D01*
X0420701Y0028145D01*
X0420738Y0028272D01*
X0420779Y0028396D01*
X0420824Y0028520D01*
X0420873Y0028642D01*
X0420925Y0028763D01*
X0420981Y0028881D01*
X0421041Y0028999D01*
X0421104Y0029114D01*
X0421171Y0029227D01*
X0421241Y0029339D01*
X0421314Y0029448D01*
X0421390Y0029554D01*
X0421470Y0029659D01*
X0421553Y0029761D01*
X0421639Y0029860D01*
X0421728Y0029957D01*
X0421820Y0030051D01*
X0421915Y0030142D01*
X0422012Y0030231D01*
X0422112Y0030316D01*
X0422215Y0030398D01*
X0422320Y0030477D01*
X0422427Y0030553D01*
X0422537Y0030625D01*
X0422649Y0030694D01*
X0422763Y0030760D01*
X0422878Y0030822D01*
X0422996Y0030881D01*
X0423115Y0030936D01*
X0423236Y0030988D01*
X0423359Y0031035D01*
X0423483Y0031079D01*
X0423608Y0031120D01*
X0423734Y0031156D01*
X0423862Y0031189D01*
X0423990Y0031217D01*
X0424119Y0031242D01*
X0424249Y0031263D01*
X0424379Y0031280D01*
X0424510Y0031293D01*
X0424641Y0031302D01*
X0424772Y0031307D01*
X0424904Y0031308D01*
X0425035Y0031305D01*
X0425167Y0031298D01*
X0425298Y0031287D01*
X0425428Y0031272D01*
X0425558Y0031253D01*
X0425688Y0031230D01*
X0425816Y0031204D01*
X0425944Y0031173D01*
X0426071Y0031138D01*
X0426197Y0031100D01*
X0426321Y0031058D01*
X0426445Y0031012D01*
X0426566Y0030962D01*
X0426686Y0030909D01*
X0426805Y0030852D01*
X0426922Y0030792D01*
X0427036Y0030728D01*
X0427149Y0030660D01*
X0427260Y0030589D01*
X0427369Y0030515D01*
X0427475Y0030438D01*
X0427579Y0030357D01*
X0427680Y0030274D01*
X0427779Y0030187D01*
X0427875Y0030097D01*
X0427968Y0030004D01*
X0428059Y0029909D01*
X0428146Y0029811D01*
X0428231Y0029710D01*
X0428312Y0029607D01*
X0428390Y0029501D01*
X0428465Y0029393D01*
X0428537Y0029283D01*
X0428605Y0029171D01*
X0428670Y0029057D01*
X0428731Y0028940D01*
X0428789Y0028822D01*
X0428843Y0028702D01*
X0428894Y0028581D01*
X0428941Y0028458D01*
X0428984Y0028334D01*
X0429023Y0028209D01*
X0429059Y0028082D01*
X0429090Y0027954D01*
X0429118Y0027826D01*
X0429142Y0027697D01*
X0429162Y0027567D01*
X0429178Y0027436D01*
X0429190Y0027305D01*
X0429198Y0027174D01*
X0429202Y0027043D01*
X0429202Y0026911D01*
X0429198Y0026780D01*
X0429190Y0026649D01*
X0429178Y0026518D01*
X0429162Y0026387D01*
X0429142Y0026257D01*
X0429118Y0026128D01*
X0429090Y0026000D01*
X0429059Y0025872D01*
X0429023Y0025745D01*
X0428984Y0025620D01*
X0428941Y0025496D01*
X0428894Y0025373D01*
X0428843Y0025252D01*
X0428789Y0025132D01*
X0428731Y0025014D01*
X0428670Y0024897D01*
X0428605Y0024783D01*
X0428537Y0024671D01*
X0428465Y0024561D01*
X0428390Y0024453D01*
X0428312Y0024347D01*
X0428231Y0024244D01*
X0428146Y0024143D01*
X0428059Y0024045D01*
X0427968Y0023950D01*
X0427875Y0023857D01*
X0427779Y0023767D01*
X0427680Y0023680D01*
X0427579Y0023597D01*
X0427475Y0023516D01*
X0427369Y0023439D01*
X0427260Y0023365D01*
X0427149Y0023294D01*
X0427037Y0023226D01*
X0426922Y0023162D01*
X0426805Y0023102D01*
X0426686Y0023045D01*
X0426566Y0022992D01*
X0426445Y0022942D01*
X0426321Y0022896D01*
X0426197Y0022854D01*
X0426071Y0022816D01*
X0425944Y0022781D01*
X0425816Y0022750D01*
X0425688Y0022724D01*
X0425558Y0022701D01*
X0425428Y0022682D01*
X0425298Y0022667D01*
X0425167Y0022656D01*
X0425035Y0022649D01*
X0424904Y0022646D01*
X0424772Y0022647D01*
X0424641Y0022652D01*
X0424510Y0022661D01*
X0424379Y0022674D01*
X0424249Y0022691D01*
X0424119Y0022712D01*
X0423990Y0022737D01*
X0423862Y0022765D01*
X0423734Y0022798D01*
X0423608Y0022834D01*
X0423483Y0022875D01*
X0423359Y0022919D01*
X0423236Y0022966D01*
X0423115Y0023018D01*
X0422996Y0023073D01*
X0422878Y0023132D01*
X0422763Y0023194D01*
X0422649Y0023260D01*
X0422537Y0023329D01*
X0422427Y0023401D01*
X0422320Y0023477D01*
X0422215Y0023556D01*
X0422112Y0023638D01*
X0422012Y0023723D01*
X0421915Y0023812D01*
X0421820Y0023903D01*
X0421728Y0023997D01*
X0421639Y0024094D01*
X0421553Y0024193D01*
X0421470Y0024295D01*
X0421390Y0024400D01*
X0421314Y0024506D01*
X0421241Y0024615D01*
X0421171Y0024727D01*
X0421104Y0024840D01*
X0421041Y0024955D01*
X0420981Y0025073D01*
X0420925Y0025191D01*
X0420873Y0025312D01*
X0420824Y0025434D01*
X0420779Y0025558D01*
X0420738Y0025682D01*
X0420701Y0025809D01*
X0420667Y0025936D01*
X0420637Y0026064D01*
X0420612Y0026193D01*
X0420590Y0026322D01*
X0420572Y0026452D01*
X0420558Y0026583D01*
X0420548Y0026714D01*
X0420542Y0026846D01*
X0420540Y0026977D01*
X0420540Y0011800D02*
X0420542Y0011931D01*
X0420548Y0012063D01*
X0420558Y0012194D01*
X0420572Y0012325D01*
X0420590Y0012455D01*
X0420612Y0012584D01*
X0420637Y0012713D01*
X0420667Y0012841D01*
X0420701Y0012968D01*
X0420738Y0013095D01*
X0420779Y0013219D01*
X0420824Y0013343D01*
X0420873Y0013465D01*
X0420925Y0013586D01*
X0420981Y0013704D01*
X0421041Y0013822D01*
X0421104Y0013937D01*
X0421171Y0014050D01*
X0421241Y0014162D01*
X0421314Y0014271D01*
X0421390Y0014377D01*
X0421470Y0014482D01*
X0421553Y0014584D01*
X0421639Y0014683D01*
X0421728Y0014780D01*
X0421820Y0014874D01*
X0421915Y0014965D01*
X0422012Y0015054D01*
X0422112Y0015139D01*
X0422215Y0015221D01*
X0422320Y0015300D01*
X0422427Y0015376D01*
X0422537Y0015448D01*
X0422649Y0015517D01*
X0422763Y0015583D01*
X0422878Y0015645D01*
X0422996Y0015704D01*
X0423115Y0015759D01*
X0423236Y0015811D01*
X0423359Y0015858D01*
X0423483Y0015902D01*
X0423608Y0015943D01*
X0423734Y0015979D01*
X0423862Y0016012D01*
X0423990Y0016040D01*
X0424119Y0016065D01*
X0424249Y0016086D01*
X0424379Y0016103D01*
X0424510Y0016116D01*
X0424641Y0016125D01*
X0424772Y0016130D01*
X0424904Y0016131D01*
X0425035Y0016128D01*
X0425167Y0016121D01*
X0425298Y0016110D01*
X0425428Y0016095D01*
X0425558Y0016076D01*
X0425688Y0016053D01*
X0425816Y0016027D01*
X0425944Y0015996D01*
X0426071Y0015961D01*
X0426197Y0015923D01*
X0426321Y0015881D01*
X0426445Y0015835D01*
X0426566Y0015785D01*
X0426686Y0015732D01*
X0426805Y0015675D01*
X0426922Y0015615D01*
X0427036Y0015551D01*
X0427149Y0015483D01*
X0427260Y0015412D01*
X0427369Y0015338D01*
X0427475Y0015261D01*
X0427579Y0015180D01*
X0427680Y0015097D01*
X0427779Y0015010D01*
X0427875Y0014920D01*
X0427968Y0014827D01*
X0428059Y0014732D01*
X0428146Y0014634D01*
X0428231Y0014533D01*
X0428312Y0014430D01*
X0428390Y0014324D01*
X0428465Y0014216D01*
X0428537Y0014106D01*
X0428605Y0013994D01*
X0428670Y0013880D01*
X0428731Y0013763D01*
X0428789Y0013645D01*
X0428843Y0013525D01*
X0428894Y0013404D01*
X0428941Y0013281D01*
X0428984Y0013157D01*
X0429023Y0013032D01*
X0429059Y0012905D01*
X0429090Y0012777D01*
X0429118Y0012649D01*
X0429142Y0012520D01*
X0429162Y0012390D01*
X0429178Y0012259D01*
X0429190Y0012128D01*
X0429198Y0011997D01*
X0429202Y0011866D01*
X0429202Y0011734D01*
X0429198Y0011603D01*
X0429190Y0011472D01*
X0429178Y0011341D01*
X0429162Y0011210D01*
X0429142Y0011080D01*
X0429118Y0010951D01*
X0429090Y0010823D01*
X0429059Y0010695D01*
X0429023Y0010568D01*
X0428984Y0010443D01*
X0428941Y0010319D01*
X0428894Y0010196D01*
X0428843Y0010075D01*
X0428789Y0009955D01*
X0428731Y0009837D01*
X0428670Y0009720D01*
X0428605Y0009606D01*
X0428537Y0009494D01*
X0428465Y0009384D01*
X0428390Y0009276D01*
X0428312Y0009170D01*
X0428231Y0009067D01*
X0428146Y0008966D01*
X0428059Y0008868D01*
X0427968Y0008773D01*
X0427875Y0008680D01*
X0427779Y0008590D01*
X0427680Y0008503D01*
X0427579Y0008420D01*
X0427475Y0008339D01*
X0427369Y0008262D01*
X0427260Y0008188D01*
X0427149Y0008117D01*
X0427037Y0008049D01*
X0426922Y0007985D01*
X0426805Y0007925D01*
X0426686Y0007868D01*
X0426566Y0007815D01*
X0426445Y0007765D01*
X0426321Y0007719D01*
X0426197Y0007677D01*
X0426071Y0007639D01*
X0425944Y0007604D01*
X0425816Y0007573D01*
X0425688Y0007547D01*
X0425558Y0007524D01*
X0425428Y0007505D01*
X0425298Y0007490D01*
X0425167Y0007479D01*
X0425035Y0007472D01*
X0424904Y0007469D01*
X0424772Y0007470D01*
X0424641Y0007475D01*
X0424510Y0007484D01*
X0424379Y0007497D01*
X0424249Y0007514D01*
X0424119Y0007535D01*
X0423990Y0007560D01*
X0423862Y0007588D01*
X0423734Y0007621D01*
X0423608Y0007657D01*
X0423483Y0007698D01*
X0423359Y0007742D01*
X0423236Y0007789D01*
X0423115Y0007841D01*
X0422996Y0007896D01*
X0422878Y0007955D01*
X0422763Y0008017D01*
X0422649Y0008083D01*
X0422537Y0008152D01*
X0422427Y0008224D01*
X0422320Y0008300D01*
X0422215Y0008379D01*
X0422112Y0008461D01*
X0422012Y0008546D01*
X0421915Y0008635D01*
X0421820Y0008726D01*
X0421728Y0008820D01*
X0421639Y0008917D01*
X0421553Y0009016D01*
X0421470Y0009118D01*
X0421390Y0009223D01*
X0421314Y0009329D01*
X0421241Y0009438D01*
X0421171Y0009550D01*
X0421104Y0009663D01*
X0421041Y0009778D01*
X0420981Y0009896D01*
X0420925Y0010014D01*
X0420873Y0010135D01*
X0420824Y0010257D01*
X0420779Y0010381D01*
X0420738Y0010505D01*
X0420701Y0010632D01*
X0420667Y0010759D01*
X0420637Y0010887D01*
X0420612Y0011016D01*
X0420590Y0011145D01*
X0420572Y0011275D01*
X0420558Y0011406D01*
X0420548Y0011537D01*
X0420542Y0011669D01*
X0420540Y0011800D01*
X0007469Y0157154D02*
X0007471Y0157285D01*
X0007477Y0157417D01*
X0007487Y0157548D01*
X0007501Y0157679D01*
X0007519Y0157809D01*
X0007541Y0157938D01*
X0007566Y0158067D01*
X0007596Y0158195D01*
X0007630Y0158322D01*
X0007667Y0158449D01*
X0007708Y0158573D01*
X0007753Y0158697D01*
X0007802Y0158819D01*
X0007854Y0158940D01*
X0007910Y0159058D01*
X0007970Y0159176D01*
X0008033Y0159291D01*
X0008100Y0159404D01*
X0008170Y0159516D01*
X0008243Y0159625D01*
X0008319Y0159731D01*
X0008399Y0159836D01*
X0008482Y0159938D01*
X0008568Y0160037D01*
X0008657Y0160134D01*
X0008749Y0160228D01*
X0008844Y0160319D01*
X0008941Y0160408D01*
X0009041Y0160493D01*
X0009144Y0160575D01*
X0009249Y0160654D01*
X0009356Y0160730D01*
X0009466Y0160802D01*
X0009578Y0160871D01*
X0009692Y0160937D01*
X0009807Y0160999D01*
X0009925Y0161058D01*
X0010044Y0161113D01*
X0010165Y0161165D01*
X0010288Y0161212D01*
X0010412Y0161256D01*
X0010537Y0161297D01*
X0010663Y0161333D01*
X0010791Y0161366D01*
X0010919Y0161394D01*
X0011048Y0161419D01*
X0011178Y0161440D01*
X0011308Y0161457D01*
X0011439Y0161470D01*
X0011570Y0161479D01*
X0011701Y0161484D01*
X0011833Y0161485D01*
X0011964Y0161482D01*
X0012096Y0161475D01*
X0012227Y0161464D01*
X0012357Y0161449D01*
X0012487Y0161430D01*
X0012617Y0161407D01*
X0012745Y0161381D01*
X0012873Y0161350D01*
X0013000Y0161315D01*
X0013126Y0161277D01*
X0013250Y0161235D01*
X0013374Y0161189D01*
X0013495Y0161139D01*
X0013615Y0161086D01*
X0013734Y0161029D01*
X0013851Y0160969D01*
X0013965Y0160905D01*
X0014078Y0160837D01*
X0014189Y0160766D01*
X0014298Y0160692D01*
X0014404Y0160615D01*
X0014508Y0160534D01*
X0014609Y0160451D01*
X0014708Y0160364D01*
X0014804Y0160274D01*
X0014897Y0160181D01*
X0014988Y0160086D01*
X0015075Y0159988D01*
X0015160Y0159887D01*
X0015241Y0159784D01*
X0015319Y0159678D01*
X0015394Y0159570D01*
X0015466Y0159460D01*
X0015534Y0159348D01*
X0015599Y0159234D01*
X0015660Y0159117D01*
X0015718Y0158999D01*
X0015772Y0158879D01*
X0015823Y0158758D01*
X0015870Y0158635D01*
X0015913Y0158511D01*
X0015952Y0158386D01*
X0015988Y0158259D01*
X0016019Y0158131D01*
X0016047Y0158003D01*
X0016071Y0157874D01*
X0016091Y0157744D01*
X0016107Y0157613D01*
X0016119Y0157482D01*
X0016127Y0157351D01*
X0016131Y0157220D01*
X0016131Y0157088D01*
X0016127Y0156957D01*
X0016119Y0156826D01*
X0016107Y0156695D01*
X0016091Y0156564D01*
X0016071Y0156434D01*
X0016047Y0156305D01*
X0016019Y0156177D01*
X0015988Y0156049D01*
X0015952Y0155922D01*
X0015913Y0155797D01*
X0015870Y0155673D01*
X0015823Y0155550D01*
X0015772Y0155429D01*
X0015718Y0155309D01*
X0015660Y0155191D01*
X0015599Y0155074D01*
X0015534Y0154960D01*
X0015466Y0154848D01*
X0015394Y0154738D01*
X0015319Y0154630D01*
X0015241Y0154524D01*
X0015160Y0154421D01*
X0015075Y0154320D01*
X0014988Y0154222D01*
X0014897Y0154127D01*
X0014804Y0154034D01*
X0014708Y0153944D01*
X0014609Y0153857D01*
X0014508Y0153774D01*
X0014404Y0153693D01*
X0014298Y0153616D01*
X0014189Y0153542D01*
X0014078Y0153471D01*
X0013966Y0153403D01*
X0013851Y0153339D01*
X0013734Y0153279D01*
X0013615Y0153222D01*
X0013495Y0153169D01*
X0013374Y0153119D01*
X0013250Y0153073D01*
X0013126Y0153031D01*
X0013000Y0152993D01*
X0012873Y0152958D01*
X0012745Y0152927D01*
X0012617Y0152901D01*
X0012487Y0152878D01*
X0012357Y0152859D01*
X0012227Y0152844D01*
X0012096Y0152833D01*
X0011964Y0152826D01*
X0011833Y0152823D01*
X0011701Y0152824D01*
X0011570Y0152829D01*
X0011439Y0152838D01*
X0011308Y0152851D01*
X0011178Y0152868D01*
X0011048Y0152889D01*
X0010919Y0152914D01*
X0010791Y0152942D01*
X0010663Y0152975D01*
X0010537Y0153011D01*
X0010412Y0153052D01*
X0010288Y0153096D01*
X0010165Y0153143D01*
X0010044Y0153195D01*
X0009925Y0153250D01*
X0009807Y0153309D01*
X0009692Y0153371D01*
X0009578Y0153437D01*
X0009466Y0153506D01*
X0009356Y0153578D01*
X0009249Y0153654D01*
X0009144Y0153733D01*
X0009041Y0153815D01*
X0008941Y0153900D01*
X0008844Y0153989D01*
X0008749Y0154080D01*
X0008657Y0154174D01*
X0008568Y0154271D01*
X0008482Y0154370D01*
X0008399Y0154472D01*
X0008319Y0154577D01*
X0008243Y0154683D01*
X0008170Y0154792D01*
X0008100Y0154904D01*
X0008033Y0155017D01*
X0007970Y0155132D01*
X0007910Y0155250D01*
X0007854Y0155368D01*
X0007802Y0155489D01*
X0007753Y0155611D01*
X0007708Y0155735D01*
X0007667Y0155859D01*
X0007630Y0155986D01*
X0007596Y0156113D01*
X0007566Y0156241D01*
X0007541Y0156370D01*
X0007519Y0156499D01*
X0007501Y0156629D01*
X0007487Y0156760D01*
X0007477Y0156891D01*
X0007471Y0157023D01*
X0007469Y0157154D01*
M02*
