G75*
%MOIN*%
%OFA0B0*%
%FSLAX25Y25*%
%IPPOS*%
%LPD*%
%AMOC8*
5,1,8,0,0,1.08239X$1,22.5*
%
%ADD10OC8,0.06600*%
%ADD11R,0.06299X0.05118*%
%ADD12R,0.05118X0.06299*%
%ADD13OC8,0.10000*%
%ADD14C,0.10000*%
%ADD15C,0.04724*%
%ADD16OC8,0.07000*%
%ADD17C,0.01600*%
%ADD18C,0.02400*%
%ADD19R,0.03543X0.03543*%
D10*
X0076524Y0106131D03*
X0086524Y0106131D03*
X0129674Y0106131D03*
X0139674Y0106131D03*
X0309635Y0073729D03*
X0319635Y0073729D03*
X0329635Y0073729D03*
X0339635Y0073729D03*
X0339635Y0063729D03*
X0329635Y0063729D03*
X0319635Y0063729D03*
X0309635Y0063729D03*
D11*
X0181800Y0063237D03*
X0181800Y0070717D03*
X0161800Y0070717D03*
X0161800Y0063237D03*
D12*
X0365737Y0137410D03*
X0373217Y0137410D03*
D13*
X0391564Y0130402D03*
X0391564Y0100402D03*
D14*
X0174044Y0084477D03*
X0148454Y0084477D03*
X0120894Y0084477D03*
X0095304Y0084477D03*
X0067745Y0084477D03*
X0042154Y0084477D03*
D15*
X0037863Y0049477D02*
X0037863Y0044753D01*
X0047863Y0044753D02*
X0047863Y0049477D01*
X0057863Y0049477D02*
X0057863Y0044753D01*
X0067863Y0044753D02*
X0067863Y0049477D01*
X0077863Y0049477D02*
X0077863Y0044753D01*
X0087863Y0044753D02*
X0087863Y0049477D01*
X0097863Y0049477D02*
X0097863Y0044753D01*
X0107863Y0044753D02*
X0107863Y0049477D01*
X0117863Y0049477D02*
X0117863Y0044753D01*
X0127863Y0044753D02*
X0127863Y0049477D01*
X0137863Y0049477D02*
X0137863Y0044753D01*
X0147863Y0044753D02*
X0147863Y0049477D01*
X0157863Y0049477D02*
X0157863Y0044753D01*
X0167863Y0044753D02*
X0167863Y0049477D01*
X0177863Y0049477D02*
X0177863Y0044753D01*
X0187863Y0044753D02*
X0187863Y0049477D01*
X0197863Y0049477D02*
X0197863Y0044753D01*
X0198650Y0074477D02*
X0193926Y0074477D01*
X0193926Y0084477D02*
X0198650Y0084477D01*
X0198650Y0094477D02*
X0193926Y0094477D01*
X0197863Y0119477D02*
X0197863Y0124202D01*
X0187863Y0124202D02*
X0187863Y0119477D01*
X0177863Y0119477D02*
X0177863Y0124202D01*
X0167863Y0124202D02*
X0167863Y0119477D01*
X0157863Y0119477D02*
X0157863Y0124202D01*
X0147863Y0124202D02*
X0147863Y0119477D01*
X0137863Y0119477D02*
X0137863Y0124202D01*
X0127863Y0124202D02*
X0127863Y0119477D01*
X0117863Y0119477D02*
X0117863Y0124202D01*
X0107863Y0124202D02*
X0107863Y0119477D01*
X0097863Y0119477D02*
X0097863Y0124202D01*
X0087863Y0124202D02*
X0087863Y0119477D01*
X0077863Y0119477D02*
X0077863Y0124202D01*
X0067863Y0124202D02*
X0067863Y0119477D01*
X0057863Y0119477D02*
X0057863Y0124202D01*
X0047863Y0124202D02*
X0047863Y0119477D01*
X0037863Y0119477D02*
X0037863Y0124202D01*
X0027863Y0124202D02*
X0027863Y0119477D01*
X0017863Y0119477D02*
X0017863Y0124202D01*
X0007863Y0124202D02*
X0007863Y0119477D01*
X0007863Y0049477D02*
X0007863Y0044753D01*
X0017863Y0044753D02*
X0017863Y0049477D01*
X0027863Y0049477D02*
X0027863Y0044753D01*
D16*
X0224871Y0049477D03*
X0224871Y0039477D03*
X0224871Y0059477D03*
X0224871Y0069477D03*
X0224871Y0079477D03*
X0224871Y0089477D03*
X0224871Y0099477D03*
X0224871Y0109477D03*
X0224871Y0119477D03*
X0224871Y0129477D03*
D17*
X0004100Y0164854D02*
X0004100Y0004100D01*
X0432571Y0004100D01*
X0432571Y0164854D01*
X0004100Y0164854D01*
X0004100Y0164848D02*
X0432571Y0164848D01*
X0432571Y0163250D02*
X0427482Y0163250D01*
X0428627Y0162776D02*
X0426190Y0163785D01*
X0423552Y0163785D01*
X0421115Y0162776D01*
X0419250Y0160910D01*
X0418240Y0158473D01*
X0418240Y0155835D01*
X0419250Y0153398D01*
X0421115Y0151533D01*
X0423552Y0150524D01*
X0426190Y0150524D01*
X0428627Y0151533D01*
X0430492Y0153398D01*
X0431502Y0155835D01*
X0431502Y0158473D01*
X0430492Y0160910D01*
X0428627Y0162776D01*
X0429751Y0161651D02*
X0432571Y0161651D01*
X0432571Y0160053D02*
X0430847Y0160053D01*
X0431502Y0158454D02*
X0432571Y0158454D01*
X0432571Y0156856D02*
X0431502Y0156856D01*
X0431262Y0155257D02*
X0432571Y0155257D01*
X0432571Y0153659D02*
X0430600Y0153659D01*
X0429154Y0152060D02*
X0432571Y0152060D01*
X0432571Y0150462D02*
X0349020Y0150462D01*
X0352410Y0149170D02*
X0332747Y0156661D01*
X0332436Y0156972D01*
X0331929Y0156972D01*
X0331456Y0157153D01*
X0331054Y0156972D01*
X0025655Y0156972D01*
X0024992Y0157114D01*
X0024772Y0156972D01*
X0024511Y0156972D01*
X0024031Y0156493D01*
X0023462Y0156124D01*
X0023407Y0155869D01*
X0023222Y0155684D01*
X0023222Y0155005D01*
X0017431Y0127964D01*
X0017115Y0127964D01*
X0015732Y0127391D01*
X0014674Y0126333D01*
X0014101Y0124950D01*
X0014101Y0118729D01*
X0014674Y0117346D01*
X0015732Y0116288D01*
X0017115Y0115715D01*
X0018611Y0115715D01*
X0019994Y0116288D01*
X0021052Y0117346D01*
X0021625Y0118729D01*
X0021625Y0124950D01*
X0021401Y0125491D01*
X0027201Y0152572D01*
X0049797Y0152572D01*
X0049797Y0152484D01*
X0039465Y0136949D01*
X0039074Y0136689D01*
X0038980Y0136221D01*
X0038715Y0135823D01*
X0038808Y0135363D01*
X0037323Y0127964D01*
X0037115Y0127964D01*
X0035732Y0127391D01*
X0034674Y0126333D01*
X0034101Y0124950D01*
X0034101Y0118729D01*
X0034674Y0117346D01*
X0035732Y0116288D01*
X0037115Y0115715D01*
X0038611Y0115715D01*
X0039994Y0116288D01*
X0041052Y0117346D01*
X0041625Y0118729D01*
X0041625Y0124950D01*
X0041342Y0125632D01*
X0043124Y0134505D01*
X0053176Y0149620D01*
X0055702Y0149620D01*
X0055702Y0149464D01*
X0049399Y0138704D01*
X0049048Y0138461D01*
X0048956Y0137949D01*
X0048693Y0137500D01*
X0048801Y0137087D01*
X0047157Y0127964D01*
X0047115Y0127964D01*
X0045732Y0127391D01*
X0044674Y0126333D01*
X0044101Y0124950D01*
X0044101Y0118729D01*
X0044674Y0117346D01*
X0045732Y0116288D01*
X0047115Y0115715D01*
X0048611Y0115715D01*
X0049994Y0116288D01*
X0051052Y0117346D01*
X0051625Y0118729D01*
X0051625Y0124950D01*
X0051248Y0125859D01*
X0053148Y0136399D01*
X0059163Y0146667D01*
X0062592Y0146667D01*
X0062592Y0146556D01*
X0059419Y0141579D01*
X0059018Y0141286D01*
X0058949Y0140841D01*
X0058707Y0140462D01*
X0058815Y0139976D01*
X0056941Y0127892D01*
X0055732Y0127391D01*
X0054674Y0126333D01*
X0054101Y0124950D01*
X0054101Y0118729D01*
X0054674Y0117346D01*
X0055732Y0116288D01*
X0057115Y0115715D01*
X0058611Y0115715D01*
X0059994Y0116288D01*
X0061052Y0117346D01*
X0061625Y0118729D01*
X0061625Y0124950D01*
X0061125Y0126158D01*
X0063155Y0139255D01*
X0065999Y0143714D01*
X0094085Y0143714D01*
X0088350Y0136369D01*
X0087850Y0135987D01*
X0087809Y0135675D01*
X0087615Y0135428D01*
X0087692Y0134804D01*
X0086758Y0127816D01*
X0085732Y0127391D01*
X0084674Y0126333D01*
X0084101Y0124950D01*
X0084101Y0118729D01*
X0084674Y0117346D01*
X0085732Y0116288D01*
X0087115Y0115715D01*
X0088611Y0115715D01*
X0089994Y0116288D01*
X0091052Y0117346D01*
X0091625Y0118729D01*
X0091625Y0124950D01*
X0091052Y0126333D01*
X0091005Y0126380D01*
X0092012Y0133909D01*
X0097360Y0140760D01*
X0102701Y0140752D01*
X0098794Y0135316D01*
X0098354Y0135007D01*
X0098283Y0134605D01*
X0098045Y0134273D01*
X0098132Y0133742D01*
X0097118Y0127964D01*
X0097115Y0127964D01*
X0095732Y0127391D01*
X0094674Y0126333D01*
X0094101Y0124950D01*
X0094101Y0118729D01*
X0094674Y0117346D01*
X0095732Y0116288D01*
X0097115Y0115715D01*
X0098611Y0115715D01*
X0099994Y0116288D01*
X0101052Y0117346D01*
X0101625Y0118729D01*
X0101625Y0124950D01*
X0101226Y0125914D01*
X0102443Y0132854D01*
X0106118Y0137967D01*
X0142080Y0137987D01*
X0138533Y0127964D01*
X0137115Y0127964D01*
X0135732Y0127391D01*
X0134674Y0126333D01*
X0134101Y0124950D01*
X0134101Y0118729D01*
X0134674Y0117346D01*
X0135732Y0116288D01*
X0137115Y0115715D01*
X0138611Y0115715D01*
X0139994Y0116288D01*
X0141052Y0117346D01*
X0141625Y0118729D01*
X0141625Y0123514D01*
X0145855Y0135466D01*
X0149678Y0135466D01*
X0149600Y0135388D01*
X0149600Y0134761D01*
X0147816Y0127964D01*
X0147115Y0127964D01*
X0145732Y0127391D01*
X0144674Y0126333D01*
X0144101Y0124950D01*
X0144101Y0118729D01*
X0144674Y0117346D01*
X0145732Y0116288D01*
X0147115Y0115715D01*
X0148611Y0115715D01*
X0149994Y0116288D01*
X0151052Y0117346D01*
X0151625Y0118729D01*
X0151625Y0124950D01*
X0151594Y0125026D01*
X0153497Y0132277D01*
X0220176Y0132277D01*
X0219571Y0131672D01*
X0219571Y0129677D01*
X0224671Y0129677D01*
X0224671Y0129277D01*
X0219571Y0129277D01*
X0219571Y0127282D01*
X0222658Y0124194D01*
X0219971Y0121507D01*
X0219971Y0117448D01*
X0222841Y0114577D01*
X0226901Y0114577D01*
X0228511Y0116187D01*
X0274069Y0108068D01*
X0331371Y0095528D01*
X0336143Y0076884D01*
X0334935Y0075676D01*
X0334935Y0071782D01*
X0337688Y0069029D01*
X0341581Y0069029D01*
X0342269Y0069716D01*
X0349603Y0066463D01*
X0349819Y0028341D01*
X0318343Y0019930D01*
X0299825Y0019853D01*
X0258633Y0019853D01*
X0258633Y0023778D01*
X0257813Y0024598D01*
X0253110Y0024598D01*
X0252290Y0023778D01*
X0252290Y0023172D01*
X0248262Y0022565D01*
X0246906Y0022580D01*
X0248246Y0023333D01*
X0251750Y0023333D01*
X0252570Y0024153D01*
X0252570Y0028856D01*
X0251750Y0029676D01*
X0249432Y0029676D01*
X0263547Y0036632D01*
X0270177Y0039473D01*
X0326340Y0050970D01*
X0326678Y0050867D01*
X0327200Y0051146D01*
X0327780Y0051264D01*
X0327974Y0051559D01*
X0328286Y0051725D01*
X0328458Y0052292D01*
X0328784Y0052785D01*
X0328713Y0053131D01*
X0330505Y0059029D01*
X0331581Y0059029D01*
X0334335Y0061782D01*
X0334335Y0065676D01*
X0331581Y0068429D01*
X0327688Y0068429D01*
X0324935Y0065676D01*
X0324935Y0061782D01*
X0326322Y0060395D01*
X0324722Y0055130D01*
X0269721Y0043871D01*
X0269487Y0043965D01*
X0268856Y0043694D01*
X0268183Y0043556D01*
X0268044Y0043346D01*
X0262536Y0040985D01*
X0262472Y0041007D01*
X0261706Y0040630D01*
X0260923Y0040294D01*
X0260897Y0040231D01*
X0245871Y0032827D01*
X0245534Y0032845D01*
X0245083Y0032438D01*
X0244538Y0032170D01*
X0244429Y0031851D01*
X0241147Y0028900D01*
X0239582Y0028921D01*
X0239972Y0029311D01*
X0239972Y0034014D01*
X0239152Y0034834D01*
X0235094Y0034834D01*
X0239603Y0036522D01*
X0244152Y0036522D01*
X0244972Y0037342D01*
X0244972Y0042045D01*
X0244152Y0042865D01*
X0239448Y0042865D01*
X0238628Y0042045D01*
X0238628Y0040855D01*
X0229771Y0037539D01*
X0229771Y0041507D01*
X0226901Y0044377D01*
X0222841Y0044377D01*
X0220030Y0041566D01*
X0201775Y0041146D01*
X0198986Y0041146D01*
X0199994Y0041563D01*
X0201052Y0042622D01*
X0201625Y0044004D01*
X0201625Y0050226D01*
X0201052Y0051608D01*
X0199994Y0052667D01*
X0198611Y0053239D01*
X0197115Y0053239D01*
X0195732Y0052667D01*
X0194674Y0051608D01*
X0194101Y0050226D01*
X0194101Y0044004D01*
X0194674Y0042622D01*
X0195732Y0041563D01*
X0196740Y0041146D01*
X0188986Y0041146D01*
X0189994Y0041563D01*
X0191052Y0042622D01*
X0191625Y0044004D01*
X0191625Y0050226D01*
X0191052Y0051608D01*
X0189994Y0052667D01*
X0188611Y0053239D01*
X0187115Y0053239D01*
X0185732Y0052667D01*
X0184674Y0051608D01*
X0184101Y0050226D01*
X0184101Y0044004D01*
X0184674Y0042622D01*
X0185732Y0041563D01*
X0186740Y0041146D01*
X0179952Y0041146D01*
X0180044Y0041193D01*
X0180574Y0041578D01*
X0181038Y0042041D01*
X0181423Y0042571D01*
X0181720Y0043155D01*
X0181923Y0043778D01*
X0182025Y0044425D01*
X0182025Y0049477D01*
X0177863Y0049477D01*
X0177863Y0049477D01*
X0173701Y0049477D01*
X0173701Y0044425D01*
X0173803Y0043778D01*
X0174006Y0043155D01*
X0174303Y0042571D01*
X0174688Y0042041D01*
X0175151Y0041578D01*
X0175682Y0041193D01*
X0175774Y0041146D01*
X0168986Y0041146D01*
X0169994Y0041563D01*
X0171052Y0042622D01*
X0171625Y0044004D01*
X0171625Y0050226D01*
X0171052Y0051608D01*
X0169994Y0052667D01*
X0168611Y0053239D01*
X0167115Y0053239D01*
X0165732Y0052667D01*
X0164674Y0051608D01*
X0164101Y0050226D01*
X0164101Y0044004D01*
X0164674Y0042622D01*
X0165732Y0041563D01*
X0166740Y0041146D01*
X0158986Y0041146D01*
X0159994Y0041563D01*
X0161052Y0042622D01*
X0161625Y0044004D01*
X0161625Y0050226D01*
X0161052Y0051608D01*
X0159994Y0052667D01*
X0158611Y0053239D01*
X0157115Y0053239D01*
X0155732Y0052667D01*
X0154674Y0051608D01*
X0154101Y0050226D01*
X0154101Y0044004D01*
X0154674Y0042622D01*
X0155732Y0041563D01*
X0156740Y0041146D01*
X0152484Y0041146D01*
X0151625Y0044208D01*
X0151625Y0050226D01*
X0151052Y0051608D01*
X0149994Y0052667D01*
X0148611Y0053239D01*
X0147115Y0053239D01*
X0145732Y0052667D01*
X0144674Y0051608D01*
X0144101Y0050226D01*
X0144101Y0044004D01*
X0144674Y0042622D01*
X0145732Y0041563D01*
X0147115Y0040991D01*
X0147958Y0040991D01*
X0148616Y0038643D01*
X0148616Y0038034D01*
X0148853Y0037797D01*
X0148943Y0037474D01*
X0149474Y0037176D01*
X0149851Y0036800D01*
X0143496Y0036874D01*
X0141608Y0043963D01*
X0141625Y0044004D01*
X0141625Y0050226D01*
X0141052Y0051608D01*
X0139994Y0052667D01*
X0138611Y0053239D01*
X0137115Y0053239D01*
X0135732Y0052667D01*
X0134674Y0051608D01*
X0134101Y0050226D01*
X0134101Y0044004D01*
X0134674Y0042622D01*
X0135732Y0041563D01*
X0137115Y0040991D01*
X0137846Y0040991D01*
X0139597Y0034418D01*
X0139589Y0033808D01*
X0139800Y0033593D01*
X0120931Y0033765D01*
X0120475Y0042044D01*
X0121052Y0042622D01*
X0121625Y0044004D01*
X0121625Y0050226D01*
X0121052Y0051608D01*
X0119994Y0052667D01*
X0118611Y0053239D01*
X0117115Y0053239D01*
X0115732Y0052667D01*
X0114674Y0051608D01*
X0114101Y0050226D01*
X0114101Y0044004D01*
X0114674Y0042622D01*
X0115732Y0041563D01*
X0116103Y0041409D01*
X0116647Y0031533D01*
X0116639Y0030692D01*
X0116696Y0030634D01*
X0116701Y0030553D01*
X0116765Y0030495D01*
X0104606Y0030651D01*
X0101499Y0043701D01*
X0101625Y0044004D01*
X0101625Y0050226D01*
X0101052Y0051608D01*
X0099994Y0052667D01*
X0098611Y0053239D01*
X0097115Y0053239D01*
X0095732Y0052667D01*
X0094674Y0051608D01*
X0094101Y0050226D01*
X0094101Y0044004D01*
X0094674Y0042622D01*
X0095732Y0041563D01*
X0097115Y0040991D01*
X0097622Y0040991D01*
X0100660Y0028229D01*
X0100651Y0027590D01*
X0100713Y0027528D01*
X0093746Y0027618D01*
X0091185Y0042942D01*
X0091625Y0044004D01*
X0091625Y0050226D01*
X0091052Y0051608D01*
X0089994Y0052667D01*
X0088611Y0053239D01*
X0087115Y0053239D01*
X0085732Y0052667D01*
X0084674Y0051608D01*
X0084101Y0050226D01*
X0084101Y0044004D01*
X0084674Y0042622D01*
X0085732Y0041563D01*
X0087046Y0041019D01*
X0089676Y0025273D01*
X0089667Y0024559D01*
X0089822Y0024400D01*
X0089829Y0024361D01*
X0076469Y0024512D01*
X0071561Y0043850D01*
X0071625Y0044004D01*
X0071625Y0050226D01*
X0071052Y0051608D01*
X0069994Y0052667D01*
X0068611Y0053239D01*
X0067115Y0053239D01*
X0065732Y0052667D01*
X0064674Y0051608D01*
X0064101Y0050226D01*
X0064101Y0044004D01*
X0064674Y0042622D01*
X0065732Y0041563D01*
X0067115Y0040991D01*
X0067747Y0040991D01*
X0072550Y0022069D01*
X0072543Y0021445D01*
X0072766Y0021217D01*
X0072845Y0020907D01*
X0073381Y0020588D01*
X0073817Y0020142D01*
X0074136Y0020138D01*
X0074411Y0019975D01*
X0075015Y0020128D01*
X0099333Y0019853D01*
X0058777Y0019853D01*
X0051625Y0045640D01*
X0051625Y0050226D01*
X0051052Y0051608D01*
X0049994Y0052667D01*
X0048611Y0053239D01*
X0047115Y0053239D01*
X0045732Y0052667D01*
X0044674Y0051608D01*
X0044101Y0050226D01*
X0044101Y0044004D01*
X0044674Y0042622D01*
X0045732Y0041563D01*
X0047115Y0040991D01*
X0047519Y0040991D01*
X0054200Y0016899D01*
X0054200Y0016736D01*
X0054337Y0016405D01*
X0054433Y0016060D01*
X0054533Y0015931D01*
X0054596Y0015780D01*
X0054849Y0015527D01*
X0055070Y0015244D01*
X0055212Y0015164D01*
X0055327Y0015049D01*
X0055658Y0014912D01*
X0055970Y0014735D01*
X0056132Y0014715D01*
X0056283Y0014653D01*
X0056641Y0014653D01*
X0056996Y0014609D01*
X0057154Y0014653D01*
X0299320Y0014653D01*
X0299325Y0014651D01*
X0299838Y0014653D01*
X0300349Y0014653D01*
X0300354Y0014655D01*
X0318524Y0014731D01*
X0318861Y0014686D01*
X0319036Y0014733D01*
X0319218Y0014734D01*
X0319532Y0014865D01*
X0352779Y0023749D01*
X0352962Y0023750D01*
X0353274Y0023882D01*
X0353601Y0023969D01*
X0353746Y0024080D01*
X0353915Y0024151D01*
X0354153Y0024392D01*
X0354422Y0024598D01*
X0354514Y0024757D01*
X0354642Y0024887D01*
X0354770Y0025200D01*
X0354940Y0025493D01*
X0354964Y0025675D01*
X0355033Y0025845D01*
X0355031Y0026183D01*
X0355075Y0026519D01*
X0355028Y0026696D01*
X0354794Y0068133D01*
X0354806Y0068611D01*
X0354791Y0068649D01*
X0354791Y0068690D01*
X0354605Y0069130D01*
X0354434Y0069576D01*
X0354405Y0069606D01*
X0354390Y0069643D01*
X0354050Y0069979D01*
X0353721Y0070325D01*
X0353683Y0070342D01*
X0353654Y0070371D01*
X0353212Y0070551D01*
X0344335Y0074489D01*
X0344335Y0075676D01*
X0341581Y0078429D01*
X0341115Y0078429D01*
X0336035Y0098278D01*
X0335961Y0098693D01*
X0335908Y0098776D01*
X0335883Y0098871D01*
X0335630Y0099208D01*
X0335403Y0099564D01*
X0335322Y0099620D01*
X0335263Y0099699D01*
X0334900Y0099914D01*
X0334554Y0100155D01*
X0334458Y0100176D01*
X0334373Y0100226D01*
X0333956Y0100285D01*
X0275585Y0113059D01*
X0275541Y0113088D01*
X0275082Y0113170D01*
X0274626Y0113269D01*
X0274574Y0113260D01*
X0229771Y0121245D01*
X0229771Y0121507D01*
X0227083Y0124194D01*
X0230171Y0127282D01*
X0230171Y0129277D01*
X0225071Y0129277D01*
X0225071Y0129677D01*
X0230171Y0129677D01*
X0230171Y0131672D01*
X0229566Y0132277D01*
X0235992Y0132277D01*
X0243628Y0125799D01*
X0243628Y0123641D01*
X0244448Y0122821D01*
X0249152Y0122821D01*
X0249972Y0123641D01*
X0249972Y0127369D01*
X0254152Y0127369D01*
X0254972Y0128189D01*
X0254972Y0131384D01*
X0259152Y0131384D01*
X0259972Y0132204D01*
X0259972Y0135400D01*
X0264152Y0135400D01*
X0264972Y0136220D01*
X0264972Y0139770D01*
X0290321Y0120043D01*
X0290321Y0118011D01*
X0291141Y0117191D01*
X0295844Y0117191D01*
X0296665Y0118011D01*
X0296665Y0122715D01*
X0295844Y0123535D01*
X0292999Y0123535D01*
X0264742Y0145524D01*
X0312290Y0114945D01*
X0312290Y0113169D01*
X0313110Y0112349D01*
X0317813Y0112349D01*
X0318633Y0113169D01*
X0318633Y0117872D01*
X0317813Y0118692D01*
X0314597Y0118692D01*
X0266508Y0149620D01*
X0269390Y0149620D01*
X0280321Y0148357D01*
X0280321Y0147854D01*
X0281141Y0147034D01*
X0285844Y0147034D01*
X0286665Y0147854D01*
X0286665Y0152557D01*
X0286649Y0152572D01*
X0331120Y0152572D01*
X0351155Y0144940D01*
X0361778Y0137498D01*
X0361778Y0133681D01*
X0362598Y0132861D01*
X0368876Y0132861D01*
X0369477Y0133462D01*
X0370078Y0132861D01*
X0376356Y0132861D01*
X0377167Y0133672D01*
X0378978Y0133028D01*
X0385164Y0130574D01*
X0385164Y0127751D01*
X0388913Y0124002D01*
X0394215Y0124002D01*
X0397964Y0127751D01*
X0397964Y0133053D01*
X0394215Y0136802D01*
X0388913Y0136802D01*
X0386778Y0134667D01*
X0381368Y0136813D01*
X0381348Y0136855D01*
X0380527Y0137147D01*
X0379717Y0137468D01*
X0379674Y0137450D01*
X0377176Y0138338D01*
X0377176Y0141140D01*
X0376356Y0141960D01*
X0370078Y0141960D01*
X0369477Y0141359D01*
X0368876Y0141960D01*
X0363077Y0141960D01*
X0353953Y0148352D01*
X0353828Y0148630D01*
X0353232Y0148857D01*
X0352710Y0149223D01*
X0352410Y0149170D01*
X0353224Y0148863D02*
X0432571Y0148863D01*
X0432571Y0147265D02*
X0428961Y0147265D01*
X0428627Y0147598D02*
X0426190Y0148608D01*
X0423552Y0148608D01*
X0421115Y0147598D01*
X0419250Y0145733D01*
X0418240Y0143296D01*
X0418240Y0140658D01*
X0419250Y0138221D01*
X0421115Y0136356D01*
X0423552Y0135346D01*
X0426190Y0135346D01*
X0428627Y0136356D01*
X0430492Y0138221D01*
X0431502Y0140658D01*
X0431502Y0143296D01*
X0430492Y0145733D01*
X0428627Y0147598D01*
X0430520Y0145666D02*
X0432571Y0145666D01*
X0432571Y0144068D02*
X0431182Y0144068D01*
X0431502Y0142469D02*
X0432571Y0142469D01*
X0432571Y0140870D02*
X0431502Y0140870D01*
X0430927Y0139272D02*
X0432571Y0139272D01*
X0432571Y0137673D02*
X0429944Y0137673D01*
X0427949Y0136075D02*
X0432571Y0136075D01*
X0432571Y0134476D02*
X0396541Y0134476D01*
X0397964Y0132878D02*
X0432571Y0132878D01*
X0432571Y0131279D02*
X0397964Y0131279D01*
X0397964Y0129681D02*
X0432571Y0129681D01*
X0432571Y0128082D02*
X0397964Y0128082D01*
X0396696Y0126484D02*
X0432571Y0126484D01*
X0432571Y0124885D02*
X0395098Y0124885D01*
X0388030Y0124885D02*
X0304967Y0124885D01*
X0307453Y0123287D02*
X0432571Y0123287D01*
X0432571Y0121688D02*
X0309938Y0121688D01*
X0312424Y0120090D02*
X0432571Y0120090D01*
X0432571Y0118491D02*
X0318014Y0118491D01*
X0318633Y0116893D02*
X0432571Y0116893D01*
X0432571Y0115294D02*
X0318633Y0115294D01*
X0318633Y0113696D02*
X0432571Y0113696D01*
X0432571Y0112097D02*
X0279982Y0112097D01*
X0287286Y0110499D02*
X0432571Y0110499D01*
X0432571Y0108900D02*
X0294591Y0108900D01*
X0301895Y0107302D02*
X0432571Y0107302D01*
X0432571Y0105703D02*
X0395880Y0105703D01*
X0394380Y0107202D02*
X0391764Y0107202D01*
X0391764Y0100602D01*
X0398364Y0100602D01*
X0398364Y0103219D01*
X0394380Y0107202D01*
X0391764Y0105703D02*
X0391364Y0105703D01*
X0391364Y0107202D02*
X0388747Y0107202D01*
X0384764Y0103219D01*
X0384764Y0100602D01*
X0391364Y0100602D01*
X0391364Y0100202D01*
X0391764Y0100202D01*
X0391764Y0093602D01*
X0394380Y0093602D01*
X0398364Y0097586D01*
X0398364Y0100202D01*
X0391764Y0100202D01*
X0391764Y0100602D01*
X0391364Y0100602D01*
X0391364Y0107202D01*
X0387248Y0105703D02*
X0309199Y0105703D01*
X0316504Y0104105D02*
X0385649Y0104105D01*
X0384764Y0102506D02*
X0323808Y0102506D01*
X0331112Y0100908D02*
X0384764Y0100908D01*
X0384764Y0100202D02*
X0384764Y0097586D01*
X0388747Y0093602D01*
X0391364Y0093602D01*
X0391364Y0100202D01*
X0384764Y0100202D01*
X0384764Y0099309D02*
X0335566Y0099309D01*
X0336180Y0097711D02*
X0384764Y0097711D01*
X0386237Y0096112D02*
X0336590Y0096112D01*
X0336999Y0094514D02*
X0387836Y0094514D01*
X0391364Y0094514D02*
X0391764Y0094514D01*
X0391764Y0096112D02*
X0391364Y0096112D01*
X0391364Y0097711D02*
X0391764Y0097711D01*
X0391764Y0099309D02*
X0391364Y0099309D01*
X0391364Y0100908D02*
X0391764Y0100908D01*
X0391764Y0102506D02*
X0391364Y0102506D01*
X0391364Y0104105D02*
X0391764Y0104105D01*
X0397478Y0104105D02*
X0432571Y0104105D01*
X0432571Y0102506D02*
X0398364Y0102506D01*
X0398364Y0100908D02*
X0432571Y0100908D01*
X0432571Y0099309D02*
X0398364Y0099309D01*
X0398364Y0097711D02*
X0432571Y0097711D01*
X0432571Y0096112D02*
X0396890Y0096112D01*
X0395292Y0094514D02*
X0432571Y0094514D01*
X0432571Y0092915D02*
X0337408Y0092915D01*
X0337817Y0091317D02*
X0432571Y0091317D01*
X0432571Y0089718D02*
X0338226Y0089718D01*
X0338635Y0088120D02*
X0432571Y0088120D01*
X0432571Y0086521D02*
X0339044Y0086521D01*
X0339454Y0084923D02*
X0432571Y0084923D01*
X0432571Y0083324D02*
X0339863Y0083324D01*
X0340272Y0081726D02*
X0432571Y0081726D01*
X0432571Y0080127D02*
X0340681Y0080127D01*
X0341090Y0078529D02*
X0432571Y0078529D01*
X0432571Y0076930D02*
X0343081Y0076930D01*
X0344335Y0075332D02*
X0432571Y0075332D01*
X0432571Y0073733D02*
X0346038Y0073733D01*
X0349642Y0072134D02*
X0432571Y0072134D01*
X0432571Y0070536D02*
X0353249Y0070536D01*
X0354687Y0068937D02*
X0432571Y0068937D01*
X0432571Y0067339D02*
X0354798Y0067339D01*
X0354807Y0065740D02*
X0432571Y0065740D01*
X0432571Y0064142D02*
X0354816Y0064142D01*
X0354825Y0062543D02*
X0432571Y0062543D01*
X0432571Y0060945D02*
X0354834Y0060945D01*
X0354844Y0059346D02*
X0432571Y0059346D01*
X0432571Y0057748D02*
X0354853Y0057748D01*
X0354862Y0056149D02*
X0432571Y0056149D01*
X0432571Y0054551D02*
X0354871Y0054551D01*
X0354880Y0052952D02*
X0432571Y0052952D01*
X0432571Y0051354D02*
X0354889Y0051354D01*
X0354898Y0049755D02*
X0432571Y0049755D01*
X0432571Y0048157D02*
X0354907Y0048157D01*
X0354916Y0046558D02*
X0432571Y0046558D01*
X0432571Y0044960D02*
X0354925Y0044960D01*
X0354934Y0043361D02*
X0432571Y0043361D01*
X0432571Y0041763D02*
X0354943Y0041763D01*
X0354952Y0040164D02*
X0432571Y0040164D01*
X0432571Y0038566D02*
X0354961Y0038566D01*
X0354970Y0036967D02*
X0432571Y0036967D01*
X0432571Y0035369D02*
X0354979Y0035369D01*
X0354988Y0033770D02*
X0432571Y0033770D01*
X0432571Y0032172D02*
X0429054Y0032172D01*
X0428627Y0032598D02*
X0426190Y0033608D01*
X0423552Y0033608D01*
X0421115Y0032598D01*
X0419250Y0030733D01*
X0418240Y0028296D01*
X0418240Y0025658D01*
X0419250Y0023221D01*
X0421115Y0021356D01*
X0423552Y0020346D01*
X0426190Y0020346D01*
X0428627Y0021356D01*
X0430492Y0023221D01*
X0431502Y0025658D01*
X0431502Y0028296D01*
X0430492Y0030733D01*
X0428627Y0032598D01*
X0430558Y0030573D02*
X0432571Y0030573D01*
X0432571Y0028975D02*
X0431220Y0028975D01*
X0431502Y0027376D02*
X0432571Y0027376D01*
X0432571Y0025778D02*
X0431502Y0025778D01*
X0430889Y0024179D02*
X0432571Y0024179D01*
X0432571Y0022581D02*
X0429852Y0022581D01*
X0427724Y0020982D02*
X0432571Y0020982D01*
X0432571Y0019384D02*
X0336441Y0019384D01*
X0342423Y0020982D02*
X0422017Y0020982D01*
X0419890Y0022581D02*
X0348405Y0022581D01*
X0353943Y0024179D02*
X0418853Y0024179D01*
X0418240Y0025778D02*
X0355005Y0025778D01*
X0355024Y0027376D02*
X0418240Y0027376D01*
X0418521Y0028975D02*
X0355015Y0028975D01*
X0355006Y0030573D02*
X0419183Y0030573D01*
X0420688Y0032172D02*
X0354997Y0032172D01*
X0349797Y0032172D02*
X0254496Y0032172D01*
X0257740Y0033770D02*
X0349788Y0033770D01*
X0349779Y0035369D02*
X0260984Y0035369D01*
X0264330Y0036967D02*
X0349770Y0036967D01*
X0349761Y0038566D02*
X0268060Y0038566D01*
X0269517Y0041583D02*
X0262627Y0038631D01*
X0246328Y0030599D01*
X0241979Y0026690D01*
X0102863Y0028473D01*
X0097863Y0049477D01*
X0101625Y0049755D02*
X0104101Y0049755D01*
X0104101Y0050226D02*
X0104101Y0044004D01*
X0104674Y0042622D01*
X0105732Y0041563D01*
X0107115Y0040991D01*
X0108611Y0040991D01*
X0109994Y0041563D01*
X0111052Y0042622D01*
X0111625Y0044004D01*
X0111625Y0050226D01*
X0111052Y0051608D01*
X0109994Y0052667D01*
X0108611Y0053239D01*
X0107115Y0053239D01*
X0105732Y0052667D01*
X0104674Y0051608D01*
X0104101Y0050226D01*
X0104568Y0051354D02*
X0101158Y0051354D01*
X0099304Y0052952D02*
X0106422Y0052952D01*
X0109304Y0052952D02*
X0116422Y0052952D01*
X0114568Y0051354D02*
X0111158Y0051354D01*
X0111625Y0049755D02*
X0114101Y0049755D01*
X0114101Y0048157D02*
X0111625Y0048157D01*
X0111625Y0046558D02*
X0114101Y0046558D01*
X0114101Y0044960D02*
X0111625Y0044960D01*
X0111359Y0043361D02*
X0114367Y0043361D01*
X0115532Y0041763D02*
X0110194Y0041763D01*
X0105532Y0041763D02*
X0101961Y0041763D01*
X0101580Y0043361D02*
X0104367Y0043361D01*
X0104101Y0044960D02*
X0101625Y0044960D01*
X0101625Y0046558D02*
X0104101Y0046558D01*
X0104101Y0048157D02*
X0101625Y0048157D01*
X0094101Y0048157D02*
X0091625Y0048157D01*
X0091625Y0049755D02*
X0094101Y0049755D01*
X0094568Y0051354D02*
X0091158Y0051354D01*
X0089304Y0052952D02*
X0096422Y0052952D01*
X0087863Y0049477D02*
X0091879Y0025442D01*
X0244005Y0023473D01*
X0249398Y0026505D01*
X0252570Y0025778D02*
X0340227Y0025778D01*
X0334245Y0024179D02*
X0258231Y0024179D01*
X0258633Y0022581D02*
X0328263Y0022581D01*
X0322280Y0020982D02*
X0258633Y0020982D01*
X0255461Y0021426D02*
X0248414Y0020363D01*
X0074753Y0022331D01*
X0067863Y0049477D01*
X0071625Y0049755D02*
X0073701Y0049755D01*
X0073701Y0049805D02*
X0073701Y0049477D01*
X0073701Y0044425D01*
X0073803Y0043778D01*
X0074006Y0043155D01*
X0074303Y0042571D01*
X0074688Y0042041D01*
X0075151Y0041578D01*
X0075682Y0041193D01*
X0076265Y0040895D01*
X0076888Y0040693D01*
X0077535Y0040591D01*
X0077863Y0040591D01*
X0078191Y0040591D01*
X0078838Y0040693D01*
X0079461Y0040895D01*
X0080044Y0041193D01*
X0080574Y0041578D01*
X0081038Y0042041D01*
X0081423Y0042571D01*
X0081720Y0043155D01*
X0081923Y0043778D01*
X0082025Y0044425D01*
X0082025Y0049477D01*
X0077863Y0049477D01*
X0077863Y0040591D01*
X0077863Y0049477D01*
X0077863Y0049477D01*
X0077863Y0049477D01*
X0073701Y0049477D01*
X0077863Y0049477D01*
X0077863Y0049477D01*
X0082025Y0049477D01*
X0082025Y0049805D01*
X0081923Y0050452D01*
X0081720Y0051075D01*
X0081423Y0051659D01*
X0081038Y0052189D01*
X0080574Y0052652D01*
X0080044Y0053037D01*
X0079461Y0053334D01*
X0078838Y0053537D01*
X0078191Y0053639D01*
X0077863Y0053639D01*
X0077535Y0053639D01*
X0076888Y0053537D01*
X0076265Y0053334D01*
X0075682Y0053037D01*
X0075151Y0052652D01*
X0074688Y0052189D01*
X0074303Y0051659D01*
X0074006Y0051075D01*
X0073803Y0050452D01*
X0073701Y0049805D01*
X0074148Y0051354D02*
X0071158Y0051354D01*
X0069304Y0052952D02*
X0075565Y0052952D01*
X0077863Y0052952D02*
X0077863Y0052952D01*
X0077863Y0053639D02*
X0077863Y0049477D01*
X0077863Y0049477D01*
X0077863Y0053639D01*
X0077863Y0051354D02*
X0077863Y0051354D01*
X0077863Y0049755D02*
X0077863Y0049755D01*
X0077863Y0048157D02*
X0077863Y0048157D01*
X0077863Y0046558D02*
X0077863Y0046558D01*
X0077863Y0044960D02*
X0077863Y0044960D01*
X0077863Y0043361D02*
X0077863Y0043361D01*
X0077863Y0041763D02*
X0077863Y0041763D01*
X0080759Y0041763D02*
X0085532Y0041763D01*
X0084367Y0043361D02*
X0081787Y0043361D01*
X0082025Y0044960D02*
X0084101Y0044960D01*
X0084101Y0046558D02*
X0082025Y0046558D01*
X0082025Y0048157D02*
X0084101Y0048157D01*
X0084101Y0049755D02*
X0082025Y0049755D01*
X0081578Y0051354D02*
X0084568Y0051354D01*
X0086422Y0052952D02*
X0080161Y0052952D01*
X0073701Y0048157D02*
X0071625Y0048157D01*
X0071625Y0046558D02*
X0073701Y0046558D01*
X0073701Y0044960D02*
X0071625Y0044960D01*
X0071685Y0043361D02*
X0073939Y0043361D01*
X0074967Y0041763D02*
X0072091Y0041763D01*
X0072496Y0040164D02*
X0087188Y0040164D01*
X0087456Y0038566D02*
X0072902Y0038566D01*
X0073308Y0036967D02*
X0087723Y0036967D01*
X0087990Y0035369D02*
X0073714Y0035369D01*
X0074119Y0033770D02*
X0088257Y0033770D01*
X0088524Y0032172D02*
X0074525Y0032172D01*
X0074931Y0030573D02*
X0088791Y0030573D01*
X0089058Y0028975D02*
X0075336Y0028975D01*
X0075742Y0027376D02*
X0089325Y0027376D01*
X0089592Y0025778D02*
X0076148Y0025778D01*
X0072014Y0024179D02*
X0057577Y0024179D01*
X0058020Y0022581D02*
X0072420Y0022581D01*
X0072825Y0020982D02*
X0058464Y0020982D01*
X0053511Y0019384D02*
X0004100Y0019384D01*
X0004100Y0020982D02*
X0053068Y0020982D01*
X0052624Y0022581D02*
X0004100Y0022581D01*
X0004100Y0024179D02*
X0052181Y0024179D01*
X0051738Y0025778D02*
X0004100Y0025778D01*
X0004100Y0027376D02*
X0051294Y0027376D01*
X0050851Y0028975D02*
X0004100Y0028975D01*
X0004100Y0030573D02*
X0050408Y0030573D01*
X0049964Y0032172D02*
X0004100Y0032172D01*
X0004100Y0033770D02*
X0049521Y0033770D01*
X0049078Y0035369D02*
X0004100Y0035369D01*
X0004100Y0036967D02*
X0048634Y0036967D01*
X0048191Y0038566D02*
X0004100Y0038566D01*
X0004100Y0040164D02*
X0047748Y0040164D01*
X0045532Y0041763D02*
X0040194Y0041763D01*
X0039994Y0041563D02*
X0041052Y0042622D01*
X0041625Y0044004D01*
X0041625Y0050226D01*
X0041052Y0051608D01*
X0039994Y0052667D01*
X0038611Y0053239D01*
X0037115Y0053239D01*
X0035732Y0052667D01*
X0034674Y0051608D01*
X0034101Y0050226D01*
X0034101Y0044004D01*
X0034674Y0042622D01*
X0035732Y0041563D01*
X0037115Y0040991D01*
X0038611Y0040991D01*
X0039994Y0041563D01*
X0041359Y0043361D02*
X0044367Y0043361D01*
X0044101Y0044960D02*
X0041625Y0044960D01*
X0041625Y0046558D02*
X0044101Y0046558D01*
X0044101Y0048157D02*
X0041625Y0048157D01*
X0041625Y0049755D02*
X0044101Y0049755D01*
X0044568Y0051354D02*
X0041158Y0051354D01*
X0039304Y0052952D02*
X0046422Y0052952D01*
X0049304Y0052952D02*
X0056422Y0052952D01*
X0055732Y0052667D02*
X0054674Y0051608D01*
X0054101Y0050226D01*
X0054101Y0044004D01*
X0054674Y0042622D01*
X0055732Y0041563D01*
X0057115Y0040991D01*
X0058611Y0040991D01*
X0059994Y0041563D01*
X0061052Y0042622D01*
X0061625Y0044004D01*
X0061625Y0050226D01*
X0061052Y0051608D01*
X0059994Y0052667D01*
X0058611Y0053239D01*
X0057115Y0053239D01*
X0055732Y0052667D01*
X0054568Y0051354D02*
X0051158Y0051354D01*
X0051625Y0049755D02*
X0054101Y0049755D01*
X0054101Y0048157D02*
X0051625Y0048157D01*
X0051625Y0046558D02*
X0054101Y0046558D01*
X0054101Y0044960D02*
X0051814Y0044960D01*
X0052257Y0043361D02*
X0054367Y0043361D01*
X0055532Y0041763D02*
X0052701Y0041763D01*
X0053144Y0040164D02*
X0067957Y0040164D01*
X0068363Y0038566D02*
X0053587Y0038566D01*
X0054031Y0036967D02*
X0068768Y0036967D01*
X0069174Y0035369D02*
X0054474Y0035369D01*
X0054917Y0033770D02*
X0069580Y0033770D01*
X0069985Y0032172D02*
X0055361Y0032172D01*
X0055804Y0030573D02*
X0070391Y0030573D01*
X0070797Y0028975D02*
X0056247Y0028975D01*
X0056691Y0027376D02*
X0071203Y0027376D01*
X0071608Y0025778D02*
X0057134Y0025778D01*
X0053954Y0017785D02*
X0014678Y0017785D01*
X0015556Y0017421D02*
X0013119Y0018431D01*
X0010481Y0018431D01*
X0008044Y0017421D01*
X0006179Y0015556D01*
X0005169Y0013119D01*
X0005169Y0010481D01*
X0006179Y0008044D01*
X0008044Y0006179D01*
X0010481Y0005169D01*
X0013119Y0005169D01*
X0015556Y0006179D01*
X0017421Y0008044D01*
X0018431Y0010481D01*
X0018431Y0013119D01*
X0017421Y0015556D01*
X0015556Y0017421D01*
X0016791Y0016187D02*
X0054398Y0016187D01*
X0018431Y0012990D02*
X0418240Y0012990D01*
X0418240Y0013119D02*
X0418240Y0010481D01*
X0419250Y0008044D01*
X0421115Y0006179D01*
X0423552Y0005169D01*
X0426190Y0005169D01*
X0428627Y0006179D01*
X0430492Y0008044D01*
X0431502Y0010481D01*
X0431502Y0013119D01*
X0430492Y0015556D01*
X0428627Y0017421D01*
X0426190Y0018431D01*
X0423552Y0018431D01*
X0421115Y0017421D01*
X0419250Y0015556D01*
X0418240Y0013119D01*
X0418849Y0014588D02*
X0017822Y0014588D01*
X0018431Y0011391D02*
X0418240Y0011391D01*
X0418525Y0009793D02*
X0018145Y0009793D01*
X0017483Y0008194D02*
X0419187Y0008194D01*
X0420698Y0006596D02*
X0015973Y0006596D01*
X0007627Y0006596D02*
X0004100Y0006596D01*
X0004100Y0008194D02*
X0006117Y0008194D01*
X0005454Y0009793D02*
X0004100Y0009793D01*
X0004100Y0011391D02*
X0005169Y0011391D01*
X0005169Y0012990D02*
X0004100Y0012990D01*
X0004100Y0014588D02*
X0005778Y0014588D01*
X0006809Y0016187D02*
X0004100Y0016187D01*
X0004100Y0017785D02*
X0008922Y0017785D01*
X0004100Y0004997D02*
X0432571Y0004997D01*
X0432571Y0006596D02*
X0429044Y0006596D01*
X0430554Y0008194D02*
X0432571Y0008194D01*
X0432571Y0009793D02*
X0431216Y0009793D01*
X0431502Y0011391D02*
X0432571Y0011391D01*
X0432571Y0012990D02*
X0431502Y0012990D01*
X0430893Y0014588D02*
X0432571Y0014588D01*
X0432571Y0016187D02*
X0429861Y0016187D01*
X0427748Y0017785D02*
X0432571Y0017785D01*
X0421993Y0017785D02*
X0330459Y0017785D01*
X0324477Y0016187D02*
X0419880Y0016187D01*
X0349815Y0028975D02*
X0252452Y0028975D01*
X0252570Y0027376D02*
X0346209Y0027376D01*
X0349806Y0030573D02*
X0251252Y0030573D01*
X0247786Y0033770D02*
X0239972Y0033770D01*
X0239972Y0032172D02*
X0244542Y0032172D01*
X0243008Y0030573D02*
X0239972Y0030573D01*
X0239636Y0028975D02*
X0241230Y0028975D01*
X0236800Y0031662D02*
X0226800Y0030599D01*
X0118847Y0031583D01*
X0117863Y0049477D01*
X0121625Y0049755D02*
X0123701Y0049755D01*
X0123701Y0049805D02*
X0123701Y0049477D01*
X0123701Y0044425D01*
X0123803Y0043778D01*
X0124006Y0043155D01*
X0124303Y0042571D01*
X0124688Y0042041D01*
X0125151Y0041578D01*
X0125682Y0041193D01*
X0126265Y0040895D01*
X0126888Y0040693D01*
X0127535Y0040591D01*
X0127863Y0040591D01*
X0128191Y0040591D01*
X0128838Y0040693D01*
X0129461Y0040895D01*
X0130044Y0041193D01*
X0130574Y0041578D01*
X0131038Y0042041D01*
X0131423Y0042571D01*
X0131720Y0043155D01*
X0131923Y0043778D01*
X0132025Y0044425D01*
X0132025Y0049477D01*
X0127863Y0049477D01*
X0127863Y0040591D01*
X0127863Y0049477D01*
X0127863Y0049477D01*
X0127863Y0049477D01*
X0123701Y0049477D01*
X0127863Y0049477D01*
X0127863Y0049477D01*
X0132025Y0049477D01*
X0132025Y0049805D01*
X0131923Y0050452D01*
X0131720Y0051075D01*
X0131423Y0051659D01*
X0131038Y0052189D01*
X0130574Y0052652D01*
X0130044Y0053037D01*
X0129461Y0053334D01*
X0128838Y0053537D01*
X0128191Y0053639D01*
X0127863Y0053639D01*
X0127535Y0053639D01*
X0126888Y0053537D01*
X0126265Y0053334D01*
X0125682Y0053037D01*
X0125151Y0052652D01*
X0124688Y0052189D01*
X0124303Y0051659D01*
X0124006Y0051075D01*
X0123803Y0050452D01*
X0123701Y0049805D01*
X0124148Y0051354D02*
X0121158Y0051354D01*
X0119304Y0052952D02*
X0125565Y0052952D01*
X0127863Y0052952D02*
X0127863Y0052952D01*
X0127863Y0053639D02*
X0127863Y0049477D01*
X0127863Y0049477D01*
X0127863Y0053639D01*
X0127863Y0051354D02*
X0127863Y0051354D01*
X0127863Y0049755D02*
X0127863Y0049755D01*
X0127863Y0048157D02*
X0127863Y0048157D01*
X0127863Y0046558D02*
X0127863Y0046558D01*
X0127863Y0044960D02*
X0127863Y0044960D01*
X0127863Y0043361D02*
X0127863Y0043361D01*
X0127863Y0041763D02*
X0127863Y0041763D01*
X0130759Y0041763D02*
X0135532Y0041763D01*
X0134367Y0043361D02*
X0131787Y0043361D01*
X0132025Y0044960D02*
X0134101Y0044960D01*
X0134101Y0046558D02*
X0132025Y0046558D01*
X0132025Y0048157D02*
X0134101Y0048157D01*
X0134101Y0049755D02*
X0132025Y0049755D01*
X0131578Y0051354D02*
X0134568Y0051354D01*
X0136422Y0052952D02*
X0130161Y0052952D01*
X0137863Y0049477D02*
X0141800Y0034694D01*
X0225816Y0033709D01*
X0241800Y0039694D01*
X0244972Y0040164D02*
X0260762Y0040164D01*
X0257518Y0038566D02*
X0244972Y0038566D01*
X0244597Y0036967D02*
X0254274Y0036967D01*
X0251030Y0035369D02*
X0236522Y0035369D01*
X0232513Y0038566D02*
X0229771Y0038566D01*
X0229771Y0040164D02*
X0236782Y0040164D01*
X0238628Y0041763D02*
X0229515Y0041763D01*
X0227916Y0043361D02*
X0268054Y0043361D01*
X0269517Y0041583D02*
X0326446Y0053237D01*
X0329635Y0063729D01*
X0334335Y0064142D02*
X0334535Y0064142D01*
X0334535Y0063929D02*
X0339435Y0063929D01*
X0339435Y0068829D01*
X0337522Y0068829D01*
X0334535Y0065842D01*
X0334535Y0063929D01*
X0334535Y0063529D02*
X0334535Y0061617D01*
X0337522Y0058629D01*
X0339435Y0058629D01*
X0339435Y0063529D01*
X0339835Y0063529D01*
X0339835Y0063929D01*
X0344735Y0063929D01*
X0344735Y0065842D01*
X0341747Y0068829D01*
X0339835Y0068829D01*
X0339835Y0063929D01*
X0339435Y0063929D01*
X0339435Y0063529D01*
X0334535Y0063529D01*
X0334535Y0062543D02*
X0334335Y0062543D01*
X0333497Y0060945D02*
X0335206Y0060945D01*
X0336805Y0059346D02*
X0331899Y0059346D01*
X0330116Y0057748D02*
X0349652Y0057748D01*
X0349643Y0059346D02*
X0342464Y0059346D01*
X0341747Y0058629D02*
X0339835Y0058629D01*
X0339835Y0063529D01*
X0344735Y0063529D01*
X0344735Y0061617D01*
X0341747Y0058629D01*
X0339835Y0059346D02*
X0339435Y0059346D01*
X0339435Y0060945D02*
X0339835Y0060945D01*
X0339835Y0062543D02*
X0339435Y0062543D01*
X0339435Y0064142D02*
X0339835Y0064142D01*
X0339835Y0065740D02*
X0339435Y0065740D01*
X0339435Y0067339D02*
X0339835Y0067339D01*
X0343237Y0067339D02*
X0347628Y0067339D01*
X0349607Y0065740D02*
X0344735Y0065740D01*
X0344735Y0064142D02*
X0349616Y0064142D01*
X0349625Y0062543D02*
X0344735Y0062543D01*
X0344063Y0060945D02*
X0349634Y0060945D01*
X0349662Y0056149D02*
X0329630Y0056149D01*
X0329144Y0054551D02*
X0349671Y0054551D01*
X0349680Y0052952D02*
X0328750Y0052952D01*
X0327839Y0051354D02*
X0349689Y0051354D01*
X0349698Y0049755D02*
X0320407Y0049755D01*
X0314085Y0052952D02*
X0228325Y0052952D01*
X0226901Y0054377D02*
X0222841Y0054377D01*
X0222079Y0053615D01*
X0213149Y0058740D01*
X0212711Y0059177D01*
X0212386Y0059177D01*
X0212105Y0059339D01*
X0211507Y0059177D01*
X0199523Y0059177D01*
X0199972Y0059626D01*
X0199972Y0064329D01*
X0199152Y0065149D01*
X0194448Y0065149D01*
X0193741Y0064442D01*
X0186350Y0065063D01*
X0186350Y0066376D01*
X0185748Y0066977D01*
X0186350Y0067578D01*
X0186350Y0073856D01*
X0185530Y0074676D01*
X0180490Y0074676D01*
X0176051Y0078381D01*
X0177669Y0079052D01*
X0179470Y0080852D01*
X0180444Y0083204D01*
X0180444Y0085750D01*
X0179470Y0088102D01*
X0177669Y0089903D01*
X0175317Y0090877D01*
X0172771Y0090877D01*
X0170419Y0089903D01*
X0168618Y0088102D01*
X0167644Y0085750D01*
X0167644Y0083204D01*
X0168618Y0080852D01*
X0170293Y0079177D01*
X0152717Y0079177D01*
X0152947Y0079354D01*
X0153577Y0079984D01*
X0154120Y0080691D01*
X0154565Y0081463D01*
X0154906Y0082287D01*
X0155137Y0083148D01*
X0155249Y0083998D01*
X0148933Y0083998D01*
X0148933Y0084957D01*
X0155249Y0084957D01*
X0155137Y0085807D01*
X0154906Y0086668D01*
X0154565Y0087491D01*
X0154120Y0088263D01*
X0153577Y0088970D01*
X0152947Y0089601D01*
X0152717Y0089777D01*
X0163628Y0089777D01*
X0163628Y0089626D01*
X0164448Y0088806D01*
X0169152Y0088806D01*
X0169972Y0089626D01*
X0169972Y0094329D01*
X0169152Y0095149D01*
X0164972Y0095149D01*
X0164972Y0099329D01*
X0164152Y0100149D01*
X0159448Y0100149D01*
X0158628Y0099329D01*
X0158628Y0099177D01*
X0097157Y0099177D01*
X0096631Y0099352D01*
X0096281Y0099177D01*
X0095889Y0099177D01*
X0095497Y0098785D01*
X0085903Y0093989D01*
X0072543Y0088730D01*
X0071370Y0089903D01*
X0069018Y0090877D01*
X0066472Y0090877D01*
X0064120Y0089903D01*
X0062319Y0088102D01*
X0061345Y0085750D01*
X0061345Y0083204D01*
X0062319Y0080852D01*
X0064120Y0079052D01*
X0066472Y0078077D01*
X0069018Y0078077D01*
X0071370Y0079052D01*
X0073171Y0080852D01*
X0074145Y0083204D01*
X0074145Y0084632D01*
X0086862Y0089637D01*
X0086969Y0089602D01*
X0087697Y0089966D01*
X0088454Y0090264D01*
X0088498Y0090367D01*
X0097319Y0094777D01*
X0158628Y0094777D01*
X0158628Y0094626D01*
X0159077Y0094177D01*
X0102620Y0094177D01*
X0102552Y0094237D01*
X0101721Y0094177D01*
X0100889Y0094177D01*
X0100824Y0094113D01*
X0100734Y0094106D01*
X0100189Y0093477D01*
X0099600Y0092888D01*
X0099600Y0092797D01*
X0097578Y0090463D01*
X0096577Y0090877D01*
X0094031Y0090877D01*
X0091679Y0089903D01*
X0089878Y0088102D01*
X0088904Y0085750D01*
X0088904Y0083204D01*
X0089878Y0080852D01*
X0091679Y0079052D01*
X0094031Y0078077D01*
X0096577Y0078077D01*
X0098929Y0079052D01*
X0100730Y0080852D01*
X0101704Y0083204D01*
X0101704Y0085750D01*
X0100932Y0087614D01*
X0102805Y0089777D01*
X0116631Y0089777D01*
X0116401Y0089601D01*
X0115771Y0088970D01*
X0115228Y0088263D01*
X0114783Y0087491D01*
X0114442Y0086668D01*
X0114211Y0085807D01*
X0114099Y0084957D01*
X0120415Y0084957D01*
X0120415Y0083998D01*
X0114099Y0083998D01*
X0114211Y0083148D01*
X0114442Y0082287D01*
X0114783Y0081463D01*
X0115228Y0080691D01*
X0115771Y0079984D01*
X0116401Y0079354D01*
X0117109Y0078811D01*
X0117880Y0078365D01*
X0118704Y0078024D01*
X0119565Y0077794D01*
X0120415Y0077682D01*
X0120415Y0083998D01*
X0121374Y0083998D01*
X0121374Y0084957D01*
X0127690Y0084957D01*
X0127578Y0085807D01*
X0127347Y0086668D01*
X0127006Y0087491D01*
X0126561Y0088263D01*
X0126018Y0088970D01*
X0125388Y0089601D01*
X0125158Y0089777D01*
X0144190Y0089777D01*
X0143960Y0089601D01*
X0143330Y0088970D01*
X0142787Y0088263D01*
X0142342Y0087491D01*
X0142001Y0086668D01*
X0141770Y0085807D01*
X0141658Y0084957D01*
X0147974Y0084957D01*
X0147974Y0083998D01*
X0141658Y0083998D01*
X0141770Y0083148D01*
X0142001Y0082287D01*
X0142342Y0081463D01*
X0142787Y0080691D01*
X0143204Y0080149D01*
X0139448Y0080149D01*
X0138628Y0079329D01*
X0138628Y0074626D01*
X0139077Y0074177D01*
X0094972Y0074177D01*
X0094972Y0074329D01*
X0094152Y0075149D01*
X0089448Y0075149D01*
X0088628Y0074329D01*
X0088628Y0069626D01*
X0089448Y0068806D01*
X0094152Y0068806D01*
X0094972Y0069626D01*
X0094972Y0069777D01*
X0157250Y0069777D01*
X0157250Y0067578D01*
X0157852Y0066977D01*
X0157250Y0066376D01*
X0157250Y0060149D01*
X0154448Y0060149D01*
X0153628Y0059329D01*
X0153628Y0054626D01*
X0154448Y0053806D01*
X0159152Y0053806D01*
X0159972Y0054626D01*
X0159972Y0054777D01*
X0211214Y0054777D01*
X0219971Y0049752D01*
X0219971Y0047448D01*
X0222841Y0044577D01*
X0226901Y0044577D01*
X0229771Y0047448D01*
X0229771Y0051507D01*
X0226901Y0054377D01*
X0226901Y0054577D02*
X0229600Y0057277D01*
X0243628Y0057277D01*
X0243628Y0057126D01*
X0244448Y0056306D01*
X0249152Y0056306D01*
X0249972Y0057126D01*
X0249972Y0061829D01*
X0249152Y0062649D01*
X0244448Y0062649D01*
X0243628Y0061829D01*
X0243628Y0061677D01*
X0229600Y0061677D01*
X0226901Y0064377D01*
X0222841Y0064377D01*
X0219971Y0061507D01*
X0219971Y0057448D01*
X0222841Y0054577D01*
X0226901Y0054577D01*
X0228473Y0056149D02*
X0280321Y0056149D01*
X0280321Y0056122D02*
X0281141Y0055302D01*
X0285844Y0055302D01*
X0286343Y0055800D01*
X0296031Y0054284D01*
X0296172Y0054144D01*
X0296908Y0054147D01*
X0297636Y0054033D01*
X0297796Y0054150D01*
X0318236Y0054225D01*
X0318950Y0054106D01*
X0319122Y0054229D01*
X0319334Y0054229D01*
X0319844Y0054744D01*
X0320434Y0055165D01*
X0320469Y0055373D01*
X0320618Y0055523D01*
X0320615Y0056247D01*
X0321080Y0059029D01*
X0321581Y0059029D01*
X0324335Y0061782D01*
X0324335Y0065676D01*
X0321581Y0068429D01*
X0317688Y0068429D01*
X0314935Y0065676D01*
X0314935Y0061782D01*
X0316772Y0059945D01*
X0316550Y0058619D01*
X0297243Y0058548D01*
X0286665Y0060204D01*
X0286665Y0060825D01*
X0285844Y0061645D01*
X0281141Y0061645D01*
X0280321Y0060825D01*
X0280321Y0056122D01*
X0280321Y0057748D02*
X0249972Y0057748D01*
X0249972Y0059346D02*
X0280321Y0059346D01*
X0280441Y0060945D02*
X0249972Y0060945D01*
X0249257Y0062543D02*
X0304935Y0062543D01*
X0304935Y0061782D02*
X0307688Y0059029D01*
X0311581Y0059029D01*
X0314335Y0061782D01*
X0314335Y0065676D01*
X0311581Y0068429D01*
X0307688Y0068429D01*
X0304935Y0065676D01*
X0304935Y0061782D01*
X0305772Y0060945D02*
X0286544Y0060945D01*
X0292141Y0059346D02*
X0307371Y0059346D01*
X0311899Y0059346D02*
X0316672Y0059346D01*
X0315772Y0060945D02*
X0313497Y0060945D01*
X0314335Y0062543D02*
X0314935Y0062543D01*
X0314935Y0064142D02*
X0314335Y0064142D01*
X0314270Y0065740D02*
X0314999Y0065740D01*
X0316598Y0067339D02*
X0312672Y0067339D01*
X0311581Y0069029D02*
X0307688Y0069029D01*
X0305303Y0071414D01*
X0265680Y0070372D01*
X0265680Y0070137D01*
X0264860Y0069317D01*
X0260157Y0069317D01*
X0259337Y0070137D01*
X0259337Y0074841D01*
X0260157Y0075661D01*
X0264860Y0075661D01*
X0265680Y0074841D01*
X0265680Y0074773D01*
X0305068Y0075810D01*
X0307688Y0078429D01*
X0311581Y0078429D01*
X0314335Y0075676D01*
X0314335Y0071782D01*
X0311581Y0069029D01*
X0313088Y0070536D02*
X0316181Y0070536D01*
X0314935Y0071782D02*
X0317688Y0069029D01*
X0321581Y0069029D01*
X0324335Y0071782D01*
X0324335Y0075676D01*
X0321581Y0078429D01*
X0317688Y0078429D01*
X0314935Y0075676D01*
X0314935Y0071782D01*
X0314935Y0072134D02*
X0314335Y0072134D01*
X0314335Y0073733D02*
X0314935Y0073733D01*
X0314935Y0075332D02*
X0314335Y0075332D01*
X0313081Y0076930D02*
X0316189Y0076930D01*
X0323081Y0076930D02*
X0326189Y0076930D01*
X0326569Y0077310D02*
X0324935Y0075676D01*
X0324935Y0071782D01*
X0327688Y0069029D01*
X0331581Y0069029D01*
X0334335Y0071782D01*
X0334335Y0075676D01*
X0331581Y0078429D01*
X0330827Y0078429D01*
X0329648Y0083639D01*
X0329690Y0084222D01*
X0329454Y0084495D01*
X0329375Y0084848D01*
X0328881Y0085159D01*
X0328499Y0085601D01*
X0328139Y0085627D01*
X0327833Y0085820D01*
X0327264Y0085691D01*
X0276665Y0089385D01*
X0276665Y0089762D01*
X0275844Y0090582D01*
X0271141Y0090582D01*
X0270321Y0089762D01*
X0270321Y0085059D01*
X0271141Y0084239D01*
X0275844Y0084239D01*
X0276585Y0084979D01*
X0325644Y0081398D01*
X0326569Y0077310D01*
X0326293Y0078529D02*
X0230453Y0078529D01*
X0229771Y0078368D02*
X0254157Y0084097D01*
X0254448Y0083806D01*
X0259152Y0083806D01*
X0259972Y0084626D01*
X0259972Y0089329D01*
X0259152Y0090149D01*
X0254448Y0090149D01*
X0253628Y0089329D01*
X0253628Y0088492D01*
X0228652Y0082625D01*
X0226901Y0084377D01*
X0222841Y0084377D01*
X0219971Y0081507D01*
X0219971Y0077448D01*
X0222841Y0074577D01*
X0226901Y0074577D01*
X0229771Y0077448D01*
X0229771Y0078368D01*
X0229253Y0076930D02*
X0306189Y0076930D01*
X0309635Y0073729D02*
X0262509Y0072489D01*
X0259337Y0072134D02*
X0249972Y0072134D01*
X0249972Y0070536D02*
X0259337Y0070536D01*
X0259337Y0073733D02*
X0249972Y0073733D01*
X0249972Y0074329D02*
X0249152Y0075149D01*
X0244448Y0075149D01*
X0243628Y0074329D01*
X0243628Y0073830D01*
X0229104Y0072174D01*
X0226901Y0074377D01*
X0222841Y0074377D01*
X0219971Y0071507D01*
X0219971Y0067448D01*
X0222841Y0064577D01*
X0226901Y0064577D01*
X0229771Y0067448D01*
X0229771Y0067822D01*
X0243830Y0069424D01*
X0244448Y0068806D01*
X0249152Y0068806D01*
X0249972Y0069626D01*
X0249972Y0074329D01*
X0246800Y0071977D02*
X0224871Y0069477D01*
X0219971Y0068937D02*
X0186350Y0068937D01*
X0186350Y0070536D02*
X0219971Y0070536D01*
X0220599Y0072134D02*
X0201628Y0072134D01*
X0201840Y0072346D02*
X0202413Y0073729D01*
X0202413Y0075226D01*
X0201840Y0076608D01*
X0200782Y0077667D01*
X0199399Y0078239D01*
X0193178Y0078239D01*
X0191795Y0077667D01*
X0190737Y0076608D01*
X0190164Y0075226D01*
X0190164Y0073729D01*
X0190737Y0072346D01*
X0191795Y0071288D01*
X0193178Y0070715D01*
X0199399Y0070715D01*
X0200782Y0071288D01*
X0201840Y0072346D01*
X0202413Y0073733D02*
X0222197Y0073733D01*
X0222087Y0075332D02*
X0202369Y0075332D01*
X0201518Y0076930D02*
X0220488Y0076930D01*
X0219971Y0078529D02*
X0176407Y0078529D01*
X0177790Y0076930D02*
X0191058Y0076930D01*
X0190208Y0075332D02*
X0179705Y0075332D01*
X0186350Y0073733D02*
X0190164Y0073733D01*
X0190948Y0072134D02*
X0186350Y0072134D01*
X0181800Y0070717D02*
X0174300Y0076977D01*
X0141800Y0076977D01*
X0138628Y0076930D02*
X0004100Y0076930D01*
X0004100Y0075332D02*
X0138628Y0075332D01*
X0138628Y0078529D02*
X0124191Y0078529D01*
X0123909Y0078365D02*
X0124680Y0078811D01*
X0125388Y0079354D01*
X0126018Y0079984D01*
X0126561Y0080691D01*
X0127006Y0081463D01*
X0127347Y0082287D01*
X0127578Y0083148D01*
X0127690Y0083998D01*
X0121374Y0083998D01*
X0121374Y0077682D01*
X0122224Y0077794D01*
X0123085Y0078024D01*
X0123909Y0078365D01*
X0121374Y0078529D02*
X0120415Y0078529D01*
X0120415Y0080127D02*
X0121374Y0080127D01*
X0121374Y0081726D02*
X0120415Y0081726D01*
X0120415Y0083324D02*
X0121374Y0083324D01*
X0121374Y0084923D02*
X0147974Y0084923D01*
X0148933Y0084923D02*
X0167644Y0084923D01*
X0167644Y0083324D02*
X0155160Y0083324D01*
X0154674Y0081726D02*
X0168257Y0081726D01*
X0169343Y0080127D02*
X0153687Y0080127D01*
X0142233Y0081726D02*
X0127115Y0081726D01*
X0127601Y0083324D02*
X0141747Y0083324D01*
X0141961Y0086521D02*
X0127387Y0086521D01*
X0126643Y0088120D02*
X0142705Y0088120D01*
X0144113Y0089718D02*
X0125235Y0089718D01*
X0116554Y0089718D02*
X0102754Y0089718D01*
X0101369Y0088120D02*
X0115145Y0088120D01*
X0114402Y0086521D02*
X0101385Y0086521D01*
X0101704Y0084923D02*
X0120415Y0084923D01*
X0114188Y0083324D02*
X0101704Y0083324D01*
X0101091Y0081726D02*
X0114674Y0081726D01*
X0115661Y0080127D02*
X0100005Y0080127D01*
X0097667Y0078529D02*
X0117598Y0078529D01*
X0126128Y0080127D02*
X0139427Y0080127D01*
X0154946Y0086521D02*
X0167963Y0086521D01*
X0168636Y0088120D02*
X0154203Y0088120D01*
X0152794Y0089718D02*
X0163628Y0089718D01*
X0166800Y0091977D02*
X0101800Y0091977D01*
X0095304Y0084477D01*
X0089516Y0081726D02*
X0073532Y0081726D01*
X0074145Y0083324D02*
X0088904Y0083324D01*
X0088904Y0084923D02*
X0074883Y0084923D01*
X0078945Y0086521D02*
X0089223Y0086521D01*
X0089895Y0088120D02*
X0083006Y0088120D01*
X0087201Y0089718D02*
X0091494Y0089718D01*
X0090398Y0091317D02*
X0098317Y0091317D01*
X0099627Y0092915D02*
X0093595Y0092915D01*
X0096792Y0094514D02*
X0158740Y0094514D01*
X0164972Y0096112D02*
X0190531Y0096112D01*
X0190737Y0096608D02*
X0190164Y0095226D01*
X0190164Y0093729D01*
X0190737Y0092346D01*
X0191795Y0091288D01*
X0193178Y0090715D01*
X0199399Y0090715D01*
X0200782Y0091288D01*
X0201840Y0092346D01*
X0202413Y0093729D01*
X0202413Y0095226D01*
X0201840Y0096608D01*
X0200782Y0097667D01*
X0199399Y0098239D01*
X0193178Y0098239D01*
X0191795Y0097667D01*
X0190737Y0096608D01*
X0191901Y0097711D02*
X0164972Y0097711D01*
X0164972Y0099309D02*
X0219971Y0099309D01*
X0219971Y0097711D02*
X0200675Y0097711D01*
X0202045Y0096112D02*
X0221306Y0096112D01*
X0219971Y0097448D02*
X0222841Y0094577D01*
X0226901Y0094577D01*
X0229771Y0097448D01*
X0229771Y0097604D01*
X0258692Y0099562D01*
X0259448Y0098806D01*
X0264152Y0098806D01*
X0264972Y0099626D01*
X0264972Y0104329D01*
X0264152Y0105149D01*
X0259448Y0105149D01*
X0258628Y0104329D01*
X0258628Y0103967D01*
X0229296Y0101982D01*
X0226901Y0104377D01*
X0222841Y0104377D01*
X0219971Y0101507D01*
X0219971Y0097448D01*
X0224871Y0099477D02*
X0261800Y0101977D01*
X0264972Y0102506D02*
X0299484Y0102506D01*
X0292180Y0104105D02*
X0264972Y0104105D01*
X0258628Y0104105D02*
X0227173Y0104105D01*
X0226901Y0104577D02*
X0229771Y0107448D01*
X0229771Y0111507D01*
X0226901Y0114377D01*
X0222841Y0114377D01*
X0219971Y0111507D01*
X0219971Y0107448D01*
X0222841Y0104577D01*
X0226901Y0104577D01*
X0228027Y0105703D02*
X0284876Y0105703D01*
X0277571Y0107302D02*
X0229625Y0107302D01*
X0229771Y0108900D02*
X0269400Y0108900D01*
X0260431Y0110499D02*
X0229771Y0110499D01*
X0229180Y0112097D02*
X0251461Y0112097D01*
X0242492Y0113696D02*
X0227582Y0113696D01*
X0227618Y0115294D02*
X0233523Y0115294D01*
X0236252Y0120090D02*
X0290262Y0120090D01*
X0290321Y0118491D02*
X0245221Y0118491D01*
X0243983Y0123287D02*
X0227991Y0123287D01*
X0227774Y0124885D02*
X0243628Y0124885D01*
X0242821Y0126484D02*
X0229373Y0126484D01*
X0230171Y0128082D02*
X0240937Y0128082D01*
X0239053Y0129681D02*
X0230171Y0129681D01*
X0230171Y0131279D02*
X0237168Y0131279D01*
X0236800Y0134477D02*
X0151800Y0134477D01*
X0147863Y0119477D01*
X0150599Y0116893D02*
X0155127Y0116893D01*
X0154674Y0117346D02*
X0155732Y0116288D01*
X0157115Y0115715D01*
X0158611Y0115715D01*
X0159994Y0116288D01*
X0161052Y0117346D01*
X0161625Y0118729D01*
X0161625Y0124950D01*
X0161052Y0126333D01*
X0159994Y0127391D01*
X0158611Y0127964D01*
X0157115Y0127964D01*
X0155732Y0127391D01*
X0154674Y0126333D01*
X0154101Y0124950D01*
X0154101Y0118729D01*
X0154674Y0117346D01*
X0154199Y0118491D02*
X0151527Y0118491D01*
X0151625Y0120090D02*
X0154101Y0120090D01*
X0154101Y0121688D02*
X0151625Y0121688D01*
X0151625Y0123287D02*
X0154101Y0123287D01*
X0154101Y0124885D02*
X0151625Y0124885D01*
X0151977Y0126484D02*
X0154825Y0126484D01*
X0152396Y0128082D02*
X0176338Y0128082D01*
X0176265Y0128059D02*
X0175682Y0127761D01*
X0175151Y0127376D01*
X0174688Y0126913D01*
X0174303Y0126383D01*
X0174006Y0125799D01*
X0173803Y0125176D01*
X0173701Y0124529D01*
X0173701Y0119477D01*
X0173701Y0119150D01*
X0173803Y0118503D01*
X0174006Y0117879D01*
X0174303Y0117296D01*
X0174688Y0116766D01*
X0175151Y0116302D01*
X0175682Y0115917D01*
X0176265Y0115620D01*
X0176888Y0115417D01*
X0177535Y0115315D01*
X0177863Y0115315D01*
X0178191Y0115315D01*
X0178838Y0115417D01*
X0179461Y0115620D01*
X0180044Y0115917D01*
X0180574Y0116302D01*
X0181038Y0116766D01*
X0181423Y0117296D01*
X0181720Y0117879D01*
X0181923Y0118503D01*
X0182025Y0119150D01*
X0182025Y0119477D01*
X0177863Y0119477D01*
X0177863Y0115315D01*
X0177863Y0119477D01*
X0177863Y0119477D01*
X0177863Y0119477D01*
X0173701Y0119477D01*
X0177863Y0119477D01*
X0177863Y0119477D01*
X0182025Y0119477D01*
X0182025Y0124529D01*
X0181923Y0125176D01*
X0181720Y0125799D01*
X0181423Y0126383D01*
X0181038Y0126913D01*
X0180574Y0127376D01*
X0180044Y0127761D01*
X0179461Y0128059D01*
X0178838Y0128261D01*
X0178191Y0128364D01*
X0177863Y0128364D01*
X0177535Y0128364D01*
X0176888Y0128261D01*
X0176265Y0128059D01*
X0177863Y0128082D02*
X0177863Y0128082D01*
X0177863Y0128364D02*
X0177863Y0119477D01*
X0177863Y0119477D01*
X0177863Y0128364D01*
X0179388Y0128082D02*
X0219571Y0128082D01*
X0219571Y0129681D02*
X0152816Y0129681D01*
X0153235Y0131279D02*
X0219571Y0131279D01*
X0220369Y0126484D02*
X0200901Y0126484D01*
X0201052Y0126333D02*
X0199994Y0127391D01*
X0198611Y0127964D01*
X0197115Y0127964D01*
X0195732Y0127391D01*
X0194674Y0126333D01*
X0194101Y0124950D01*
X0194101Y0118729D01*
X0194674Y0117346D01*
X0195732Y0116288D01*
X0197115Y0115715D01*
X0198611Y0115715D01*
X0199994Y0116288D01*
X0201052Y0117346D01*
X0201625Y0118729D01*
X0201625Y0124950D01*
X0201052Y0126333D01*
X0201625Y0124885D02*
X0221967Y0124885D01*
X0221751Y0123287D02*
X0201625Y0123287D01*
X0201625Y0121688D02*
X0220152Y0121688D01*
X0219971Y0120090D02*
X0201625Y0120090D01*
X0201527Y0118491D02*
X0219971Y0118491D01*
X0220526Y0116893D02*
X0200599Y0116893D01*
X0195127Y0116893D02*
X0190599Y0116893D01*
X0191052Y0117346D02*
X0191625Y0118729D01*
X0191625Y0124950D01*
X0191052Y0126333D01*
X0189994Y0127391D01*
X0188611Y0127964D01*
X0187115Y0127964D01*
X0185732Y0127391D01*
X0184674Y0126333D01*
X0184101Y0124950D01*
X0184101Y0118729D01*
X0184674Y0117346D01*
X0185732Y0116288D01*
X0187115Y0115715D01*
X0188611Y0115715D01*
X0189994Y0116288D01*
X0191052Y0117346D01*
X0191527Y0118491D02*
X0194199Y0118491D01*
X0194101Y0120090D02*
X0191625Y0120090D01*
X0191625Y0121688D02*
X0194101Y0121688D01*
X0194101Y0123287D02*
X0191625Y0123287D01*
X0191625Y0124885D02*
X0194101Y0124885D01*
X0194825Y0126484D02*
X0190901Y0126484D01*
X0184825Y0126484D02*
X0181350Y0126484D01*
X0181969Y0124885D02*
X0184101Y0124885D01*
X0184101Y0123287D02*
X0182025Y0123287D01*
X0182025Y0121688D02*
X0184101Y0121688D01*
X0184101Y0120090D02*
X0182025Y0120090D01*
X0181919Y0118491D02*
X0184199Y0118491D01*
X0185127Y0116893D02*
X0181130Y0116893D01*
X0177863Y0116893D02*
X0177863Y0116893D01*
X0177863Y0118491D02*
X0177863Y0118491D01*
X0177863Y0120090D02*
X0177863Y0120090D01*
X0177863Y0121688D02*
X0177863Y0121688D01*
X0177863Y0123287D02*
X0177863Y0123287D01*
X0177863Y0124885D02*
X0177863Y0124885D01*
X0177863Y0126484D02*
X0177863Y0126484D01*
X0174376Y0126484D02*
X0170901Y0126484D01*
X0171052Y0126333D02*
X0169994Y0127391D01*
X0168611Y0127964D01*
X0167115Y0127964D01*
X0165732Y0127391D01*
X0164674Y0126333D01*
X0164101Y0124950D01*
X0164101Y0118729D01*
X0164674Y0117346D01*
X0165732Y0116288D01*
X0167115Y0115715D01*
X0168611Y0115715D01*
X0169994Y0116288D01*
X0171052Y0117346D01*
X0171625Y0118729D01*
X0171625Y0124950D01*
X0171052Y0126333D01*
X0171625Y0124885D02*
X0173757Y0124885D01*
X0173701Y0123287D02*
X0171625Y0123287D01*
X0171625Y0121688D02*
X0173701Y0121688D01*
X0173701Y0120090D02*
X0171625Y0120090D01*
X0171527Y0118491D02*
X0173807Y0118491D01*
X0174596Y0116893D02*
X0170599Y0116893D01*
X0165127Y0116893D02*
X0160599Y0116893D01*
X0161527Y0118491D02*
X0164199Y0118491D01*
X0164101Y0120090D02*
X0161625Y0120090D01*
X0161625Y0121688D02*
X0164101Y0121688D01*
X0164101Y0123287D02*
X0161625Y0123287D01*
X0161625Y0124885D02*
X0164101Y0124885D01*
X0164825Y0126484D02*
X0160901Y0126484D01*
X0148267Y0129681D02*
X0143808Y0129681D01*
X0144373Y0131279D02*
X0148686Y0131279D01*
X0149106Y0132878D02*
X0144939Y0132878D01*
X0145505Y0134476D02*
X0149525Y0134476D01*
X0144300Y0137666D02*
X0137863Y0119477D01*
X0140599Y0116893D02*
X0145127Y0116893D01*
X0144199Y0118491D02*
X0141527Y0118491D01*
X0141625Y0120090D02*
X0144101Y0120090D01*
X0144101Y0121688D02*
X0141625Y0121688D01*
X0141625Y0123287D02*
X0144101Y0123287D01*
X0144101Y0124885D02*
X0142111Y0124885D01*
X0142676Y0126484D02*
X0144825Y0126484D01*
X0143242Y0128082D02*
X0147847Y0128082D01*
X0139706Y0131279D02*
X0102167Y0131279D01*
X0101886Y0129681D02*
X0139140Y0129681D01*
X0138575Y0128082D02*
X0129388Y0128082D01*
X0129461Y0128059D02*
X0128838Y0128261D01*
X0128191Y0128364D01*
X0127863Y0128364D01*
X0127535Y0128364D01*
X0126888Y0128261D01*
X0126265Y0128059D01*
X0125682Y0127761D01*
X0125151Y0127376D01*
X0124688Y0126913D01*
X0124303Y0126383D01*
X0124006Y0125799D01*
X0123803Y0125176D01*
X0123701Y0124529D01*
X0123701Y0119477D01*
X0123701Y0119150D01*
X0123803Y0118503D01*
X0124006Y0117879D01*
X0124303Y0117296D01*
X0124688Y0116766D01*
X0125151Y0116302D01*
X0125682Y0115917D01*
X0126265Y0115620D01*
X0126888Y0115417D01*
X0127535Y0115315D01*
X0127863Y0115315D01*
X0128191Y0115315D01*
X0128838Y0115417D01*
X0129461Y0115620D01*
X0130044Y0115917D01*
X0130574Y0116302D01*
X0131038Y0116766D01*
X0131423Y0117296D01*
X0131720Y0117879D01*
X0131923Y0118503D01*
X0132025Y0119150D01*
X0132025Y0119477D01*
X0127863Y0119477D01*
X0127863Y0115315D01*
X0127863Y0119477D01*
X0127863Y0119477D01*
X0127863Y0119477D01*
X0123701Y0119477D01*
X0127863Y0119477D01*
X0127863Y0119477D01*
X0132025Y0119477D01*
X0132025Y0124529D01*
X0131923Y0125176D01*
X0131720Y0125799D01*
X0131423Y0126383D01*
X0131038Y0126913D01*
X0130574Y0127376D01*
X0130044Y0127761D01*
X0129461Y0128059D01*
X0127863Y0128082D02*
X0127863Y0128082D01*
X0127863Y0128364D02*
X0127863Y0119477D01*
X0127863Y0119477D01*
X0127863Y0128364D01*
X0126338Y0128082D02*
X0101606Y0128082D01*
X0101326Y0126484D02*
X0104825Y0126484D01*
X0104674Y0126333D02*
X0104101Y0124950D01*
X0104101Y0118729D01*
X0104674Y0117346D01*
X0105732Y0116288D01*
X0107115Y0115715D01*
X0108611Y0115715D01*
X0109994Y0116288D01*
X0111052Y0117346D01*
X0111625Y0118729D01*
X0111625Y0124950D01*
X0111052Y0126333D01*
X0109994Y0127391D01*
X0108611Y0127964D01*
X0107115Y0127964D01*
X0105732Y0127391D01*
X0104674Y0126333D01*
X0104101Y0124885D02*
X0101625Y0124885D01*
X0101625Y0123287D02*
X0104101Y0123287D01*
X0104101Y0121688D02*
X0101625Y0121688D01*
X0101625Y0120090D02*
X0104101Y0120090D01*
X0104199Y0118491D02*
X0101527Y0118491D01*
X0100599Y0116893D02*
X0105127Y0116893D01*
X0110599Y0116893D02*
X0115127Y0116893D01*
X0114674Y0117346D02*
X0115732Y0116288D01*
X0117115Y0115715D01*
X0118611Y0115715D01*
X0119994Y0116288D01*
X0121052Y0117346D01*
X0121625Y0118729D01*
X0121625Y0124950D01*
X0121052Y0126333D01*
X0119994Y0127391D01*
X0118611Y0127964D01*
X0117115Y0127964D01*
X0115732Y0127391D01*
X0114674Y0126333D01*
X0114101Y0124950D01*
X0114101Y0118729D01*
X0114674Y0117346D01*
X0114199Y0118491D02*
X0111527Y0118491D01*
X0111625Y0120090D02*
X0114101Y0120090D01*
X0114101Y0121688D02*
X0111625Y0121688D01*
X0111625Y0123287D02*
X0114101Y0123287D01*
X0114101Y0124885D02*
X0111625Y0124885D01*
X0110901Y0126484D02*
X0114825Y0126484D01*
X0120901Y0126484D02*
X0124376Y0126484D01*
X0123757Y0124885D02*
X0121625Y0124885D01*
X0121625Y0123287D02*
X0123701Y0123287D01*
X0123701Y0121688D02*
X0121625Y0121688D01*
X0121625Y0120090D02*
X0123701Y0120090D01*
X0123807Y0118491D02*
X0121527Y0118491D01*
X0120599Y0116893D02*
X0124596Y0116893D01*
X0127863Y0116893D02*
X0127863Y0116893D01*
X0127863Y0118491D02*
X0127863Y0118491D01*
X0127863Y0120090D02*
X0127863Y0120090D01*
X0127863Y0121688D02*
X0127863Y0121688D01*
X0127863Y0123287D02*
X0127863Y0123287D01*
X0127863Y0124885D02*
X0127863Y0124885D01*
X0127863Y0126484D02*
X0127863Y0126484D01*
X0131350Y0126484D02*
X0134825Y0126484D01*
X0134101Y0124885D02*
X0131969Y0124885D01*
X0132025Y0123287D02*
X0134101Y0123287D01*
X0134101Y0121688D02*
X0132025Y0121688D01*
X0132025Y0120090D02*
X0134101Y0120090D01*
X0134199Y0118491D02*
X0131919Y0118491D01*
X0131130Y0116893D02*
X0135127Y0116893D01*
X0131786Y0111231D02*
X0129674Y0111231D01*
X0127562Y0111231D01*
X0124574Y0108243D01*
X0124574Y0106131D01*
X0129674Y0106131D01*
X0129674Y0111231D01*
X0129674Y0106131D01*
X0129674Y0106131D01*
X0134774Y0106131D01*
X0134774Y0108243D01*
X0131786Y0111231D01*
X0132518Y0110499D02*
X0137395Y0110499D01*
X0137727Y0110831D02*
X0134974Y0108077D01*
X0134974Y0104184D01*
X0137727Y0101431D01*
X0141621Y0101431D01*
X0144374Y0104184D01*
X0144374Y0108077D01*
X0141621Y0110831D01*
X0137727Y0110831D01*
X0135797Y0108900D02*
X0134117Y0108900D01*
X0134774Y0107302D02*
X0134974Y0107302D01*
X0134774Y0106131D02*
X0129674Y0106131D01*
X0129674Y0106131D01*
X0129674Y0106131D01*
X0124574Y0106131D01*
X0124574Y0104018D01*
X0127562Y0101031D01*
X0129674Y0101031D01*
X0131786Y0101031D01*
X0134774Y0104018D01*
X0134774Y0106131D01*
X0134774Y0105703D02*
X0134974Y0105703D01*
X0135053Y0104105D02*
X0134774Y0104105D01*
X0133262Y0102506D02*
X0136652Y0102506D01*
X0142696Y0102506D02*
X0220970Y0102506D01*
X0219971Y0100908D02*
X0004100Y0100908D01*
X0004100Y0102506D02*
X0073502Y0102506D01*
X0074578Y0101431D02*
X0071824Y0104184D01*
X0071824Y0108077D01*
X0074578Y0110831D01*
X0078471Y0110831D01*
X0081224Y0108077D01*
X0081224Y0104184D01*
X0078471Y0101431D01*
X0074578Y0101431D01*
X0071904Y0104105D02*
X0004100Y0104105D01*
X0004100Y0105703D02*
X0071824Y0105703D01*
X0071824Y0107302D02*
X0004100Y0107302D01*
X0004100Y0108900D02*
X0072647Y0108900D01*
X0074246Y0110499D02*
X0004100Y0110499D01*
X0004100Y0112097D02*
X0220561Y0112097D01*
X0219971Y0110499D02*
X0141953Y0110499D01*
X0143551Y0108900D02*
X0219971Y0108900D01*
X0220117Y0107302D02*
X0144374Y0107302D01*
X0144374Y0105703D02*
X0221715Y0105703D01*
X0222569Y0104105D02*
X0144295Y0104105D01*
X0158628Y0099309D02*
X0096761Y0099309D01*
X0096545Y0099309D02*
X0004100Y0099309D01*
X0004100Y0097711D02*
X0093348Y0097711D01*
X0096800Y0096977D02*
X0161800Y0096977D01*
X0169787Y0094514D02*
X0190164Y0094514D01*
X0190501Y0092915D02*
X0169972Y0092915D01*
X0169972Y0091317D02*
X0191766Y0091317D01*
X0193178Y0088239D02*
X0191795Y0087667D01*
X0190737Y0086608D01*
X0190164Y0085226D01*
X0190164Y0083729D01*
X0190737Y0082346D01*
X0191795Y0081288D01*
X0193178Y0080715D01*
X0199399Y0080715D01*
X0200782Y0081288D01*
X0201840Y0082346D01*
X0202413Y0083729D01*
X0202413Y0085226D01*
X0201840Y0086608D01*
X0200782Y0087667D01*
X0199399Y0088239D01*
X0193178Y0088239D01*
X0192889Y0088120D02*
X0179453Y0088120D01*
X0180125Y0086521D02*
X0190700Y0086521D01*
X0190164Y0084923D02*
X0180444Y0084923D01*
X0180444Y0083324D02*
X0190331Y0083324D01*
X0191357Y0081726D02*
X0179832Y0081726D01*
X0178745Y0080127D02*
X0219971Y0080127D01*
X0220190Y0081726D02*
X0201219Y0081726D01*
X0202245Y0083324D02*
X0221788Y0083324D01*
X0222841Y0084577D02*
X0226901Y0084577D01*
X0229771Y0087448D01*
X0229771Y0091507D01*
X0226901Y0094377D01*
X0222841Y0094377D01*
X0219971Y0091507D01*
X0219971Y0087448D01*
X0222841Y0084577D01*
X0222496Y0084923D02*
X0202413Y0084923D01*
X0201876Y0086521D02*
X0220897Y0086521D01*
X0219971Y0088120D02*
X0199688Y0088120D01*
X0200810Y0091317D02*
X0219971Y0091317D01*
X0219971Y0089718D02*
X0177854Y0089718D01*
X0170234Y0089718D02*
X0169972Y0089718D01*
X0202076Y0092915D02*
X0221379Y0092915D01*
X0228363Y0092915D02*
X0332040Y0092915D01*
X0332449Y0091317D02*
X0229771Y0091317D01*
X0229771Y0089718D02*
X0254018Y0089718D01*
X0252043Y0088120D02*
X0229771Y0088120D01*
X0228844Y0086521D02*
X0245238Y0086521D01*
X0250869Y0083324D02*
X0299253Y0083324D01*
X0293994Y0088120D02*
X0333268Y0088120D01*
X0332858Y0089718D02*
X0276665Y0089718D01*
X0273493Y0087410D02*
X0327430Y0083473D01*
X0329635Y0073729D01*
X0334335Y0073733D02*
X0334935Y0073733D01*
X0334935Y0072134D02*
X0334335Y0072134D01*
X0333088Y0070536D02*
X0336181Y0070536D01*
X0336032Y0067339D02*
X0332672Y0067339D01*
X0334270Y0065740D02*
X0334535Y0065740D01*
X0326598Y0067339D02*
X0322672Y0067339D01*
X0324270Y0065740D02*
X0324999Y0065740D01*
X0324935Y0064142D02*
X0324335Y0064142D01*
X0324335Y0062543D02*
X0324935Y0062543D01*
X0325772Y0060945D02*
X0323497Y0060945D01*
X0321899Y0059346D02*
X0326003Y0059346D01*
X0325517Y0057748D02*
X0320866Y0057748D01*
X0320615Y0056149D02*
X0325031Y0056149D01*
X0321894Y0054551D02*
X0319653Y0054551D01*
X0318414Y0056426D02*
X0297076Y0056347D01*
X0283493Y0058473D01*
X0294326Y0054551D02*
X0220449Y0054551D01*
X0221269Y0056149D02*
X0217663Y0056149D01*
X0219971Y0057748D02*
X0214877Y0057748D01*
X0211800Y0056977D02*
X0156800Y0056977D01*
X0153628Y0057748D02*
X0004100Y0057748D01*
X0004100Y0059346D02*
X0153646Y0059346D01*
X0157250Y0060945D02*
X0004100Y0060945D01*
X0004100Y0062543D02*
X0157250Y0062543D01*
X0157250Y0064142D02*
X0004100Y0064142D01*
X0004100Y0065740D02*
X0157250Y0065740D01*
X0157490Y0067339D02*
X0004100Y0067339D01*
X0004100Y0068937D02*
X0089316Y0068937D01*
X0088628Y0070536D02*
X0004100Y0070536D01*
X0004100Y0072134D02*
X0088628Y0072134D01*
X0088628Y0073733D02*
X0004100Y0073733D01*
X0004100Y0078529D02*
X0038858Y0078529D01*
X0039140Y0078365D02*
X0039964Y0078024D01*
X0040825Y0077794D01*
X0041675Y0077682D01*
X0041675Y0083998D01*
X0035359Y0083998D01*
X0035471Y0083148D01*
X0035701Y0082287D01*
X0036043Y0081463D01*
X0036488Y0080691D01*
X0037031Y0079984D01*
X0037661Y0079354D01*
X0038368Y0078811D01*
X0039140Y0078365D01*
X0041675Y0078529D02*
X0042634Y0078529D01*
X0042634Y0077682D02*
X0043484Y0077794D01*
X0044345Y0078024D01*
X0045168Y0078365D01*
X0045940Y0078811D01*
X0046647Y0079354D01*
X0047278Y0079984D01*
X0047820Y0080691D01*
X0048266Y0081463D01*
X0048607Y0082287D01*
X0048838Y0083148D01*
X0048950Y0083998D01*
X0042634Y0083998D01*
X0042634Y0084957D01*
X0041675Y0084957D01*
X0041675Y0091273D01*
X0040825Y0091161D01*
X0039964Y0090930D01*
X0039140Y0090589D01*
X0038368Y0090143D01*
X0037661Y0089601D01*
X0037031Y0088970D01*
X0036488Y0088263D01*
X0036043Y0087491D01*
X0035701Y0086668D01*
X0035471Y0085807D01*
X0035359Y0084957D01*
X0041675Y0084957D01*
X0041675Y0083998D01*
X0042634Y0083998D01*
X0042634Y0077682D01*
X0045451Y0078529D02*
X0065382Y0078529D01*
X0063044Y0080127D02*
X0047388Y0080127D01*
X0048375Y0081726D02*
X0061957Y0081726D01*
X0061345Y0083324D02*
X0048861Y0083324D01*
X0048950Y0084957D02*
X0048838Y0085807D01*
X0048607Y0086668D01*
X0048266Y0087491D01*
X0047820Y0088263D01*
X0047278Y0088970D01*
X0046647Y0089601D01*
X0045940Y0090143D01*
X0045168Y0090589D01*
X0044345Y0090930D01*
X0043484Y0091161D01*
X0042634Y0091273D01*
X0042634Y0084957D01*
X0048950Y0084957D01*
X0048647Y0086521D02*
X0061664Y0086521D01*
X0061345Y0084923D02*
X0042634Y0084923D01*
X0041675Y0084923D02*
X0004100Y0084923D01*
X0004100Y0086521D02*
X0035662Y0086521D01*
X0036405Y0088120D02*
X0004100Y0088120D01*
X0004100Y0089718D02*
X0037814Y0089718D01*
X0041675Y0089718D02*
X0042634Y0089718D01*
X0042634Y0088120D02*
X0041675Y0088120D01*
X0041675Y0086521D02*
X0042634Y0086521D01*
X0047903Y0088120D02*
X0062336Y0088120D01*
X0063935Y0089718D02*
X0046494Y0089718D01*
X0042634Y0083324D02*
X0041675Y0083324D01*
X0041675Y0081726D02*
X0042634Y0081726D01*
X0042634Y0080127D02*
X0041675Y0080127D01*
X0036921Y0080127D02*
X0004100Y0080127D01*
X0004100Y0081726D02*
X0035934Y0081726D01*
X0035447Y0083324D02*
X0004100Y0083324D01*
X0004100Y0091317D02*
X0079115Y0091317D01*
X0083176Y0092915D02*
X0004100Y0092915D01*
X0004100Y0094514D02*
X0086954Y0094514D01*
X0086800Y0091977D02*
X0096800Y0096977D01*
X0090151Y0096112D02*
X0004100Y0096112D01*
X0004100Y0113696D02*
X0222160Y0113696D01*
X0222124Y0115294D02*
X0004100Y0115294D01*
X0004100Y0116893D02*
X0005127Y0116893D01*
X0004674Y0117346D02*
X0005732Y0116288D01*
X0007115Y0115715D01*
X0008611Y0115715D01*
X0009994Y0116288D01*
X0011052Y0117346D01*
X0011625Y0118729D01*
X0011625Y0124950D01*
X0011052Y0126333D01*
X0009994Y0127391D01*
X0008611Y0127964D01*
X0007115Y0127964D01*
X0005732Y0127391D01*
X0004674Y0126333D01*
X0004101Y0124950D01*
X0004101Y0118729D01*
X0004674Y0117346D01*
X0004199Y0118491D02*
X0004100Y0118491D01*
X0004100Y0120090D02*
X0004101Y0120090D01*
X0004100Y0121688D02*
X0004101Y0121688D01*
X0004100Y0123287D02*
X0004101Y0123287D01*
X0004100Y0124885D02*
X0004101Y0124885D01*
X0004100Y0126484D02*
X0004825Y0126484D01*
X0004100Y0128082D02*
X0017456Y0128082D01*
X0017798Y0129681D02*
X0004100Y0129681D01*
X0004100Y0131279D02*
X0018141Y0131279D01*
X0018483Y0132878D02*
X0004100Y0132878D01*
X0004100Y0134476D02*
X0018825Y0134476D01*
X0019168Y0136075D02*
X0004100Y0136075D01*
X0004100Y0137673D02*
X0019510Y0137673D01*
X0019852Y0139272D02*
X0004100Y0139272D01*
X0004100Y0140870D02*
X0020195Y0140870D01*
X0020537Y0142469D02*
X0004100Y0142469D01*
X0004100Y0144068D02*
X0020880Y0144068D01*
X0021222Y0145666D02*
X0004100Y0145666D01*
X0004100Y0147265D02*
X0021564Y0147265D01*
X0021907Y0148863D02*
X0004100Y0148863D01*
X0004100Y0150462D02*
X0022249Y0150462D01*
X0022591Y0152060D02*
X0016083Y0152060D01*
X0015556Y0151533D02*
X0017421Y0153398D01*
X0018431Y0155835D01*
X0018431Y0158473D01*
X0017421Y0160910D01*
X0015556Y0162776D01*
X0013119Y0163785D01*
X0010481Y0163785D01*
X0008044Y0162776D01*
X0006179Y0160910D01*
X0005169Y0158473D01*
X0005169Y0155835D01*
X0006179Y0153398D01*
X0008044Y0151533D01*
X0010481Y0150524D01*
X0013119Y0150524D01*
X0015556Y0151533D01*
X0017529Y0153659D02*
X0022934Y0153659D01*
X0023222Y0155257D02*
X0018191Y0155257D01*
X0018431Y0156856D02*
X0024394Y0156856D01*
X0025422Y0154772D02*
X0017863Y0119477D01*
X0020599Y0116893D02*
X0024596Y0116893D01*
X0024688Y0116766D02*
X0025151Y0116302D01*
X0025682Y0115917D01*
X0026265Y0115620D01*
X0026888Y0115417D01*
X0027535Y0115315D01*
X0027863Y0115315D01*
X0028191Y0115315D01*
X0028838Y0115417D01*
X0029461Y0115620D01*
X0030044Y0115917D01*
X0030574Y0116302D01*
X0031038Y0116766D01*
X0031423Y0117296D01*
X0031720Y0117879D01*
X0031923Y0118503D01*
X0032025Y0119150D01*
X0032025Y0119477D01*
X0027863Y0119477D01*
X0027863Y0115315D01*
X0027863Y0119477D01*
X0027863Y0119477D01*
X0027863Y0119477D01*
X0023701Y0119477D01*
X0023701Y0119150D01*
X0023803Y0118503D01*
X0024006Y0117879D01*
X0024303Y0117296D01*
X0024688Y0116766D01*
X0023807Y0118491D02*
X0021527Y0118491D01*
X0021625Y0120090D02*
X0023701Y0120090D01*
X0023701Y0119477D02*
X0027863Y0119477D01*
X0027863Y0119477D01*
X0032025Y0119477D01*
X0032025Y0124529D01*
X0031923Y0125176D01*
X0031720Y0125799D01*
X0031423Y0126383D01*
X0031038Y0126913D01*
X0030574Y0127376D01*
X0030044Y0127761D01*
X0029461Y0128059D01*
X0028838Y0128261D01*
X0028191Y0128364D01*
X0027863Y0128364D01*
X0027535Y0128364D01*
X0026888Y0128261D01*
X0026265Y0128059D01*
X0025682Y0127761D01*
X0025151Y0127376D01*
X0024688Y0126913D01*
X0024303Y0126383D01*
X0024006Y0125799D01*
X0023803Y0125176D01*
X0023701Y0124529D01*
X0023701Y0119477D01*
X0027863Y0119477D02*
X0027863Y0128364D01*
X0027863Y0119477D01*
X0027863Y0119477D01*
X0027863Y0120090D02*
X0027863Y0120090D01*
X0027863Y0121688D02*
X0027863Y0121688D01*
X0027863Y0123287D02*
X0027863Y0123287D01*
X0027863Y0124885D02*
X0027863Y0124885D01*
X0027863Y0126484D02*
X0027863Y0126484D01*
X0027863Y0128082D02*
X0027863Y0128082D01*
X0029388Y0128082D02*
X0037347Y0128082D01*
X0037667Y0129681D02*
X0022298Y0129681D01*
X0022641Y0131279D02*
X0037988Y0131279D01*
X0038309Y0132878D02*
X0022983Y0132878D01*
X0023325Y0134476D02*
X0038630Y0134476D01*
X0038883Y0136075D02*
X0023668Y0136075D01*
X0024010Y0137673D02*
X0039946Y0137673D01*
X0041010Y0139272D02*
X0024352Y0139272D01*
X0024695Y0140870D02*
X0042073Y0140870D01*
X0043136Y0142469D02*
X0025037Y0142469D01*
X0025379Y0144068D02*
X0044199Y0144068D01*
X0045262Y0145666D02*
X0025722Y0145666D01*
X0026064Y0147265D02*
X0046325Y0147265D01*
X0047388Y0148863D02*
X0026406Y0148863D01*
X0026749Y0150462D02*
X0048451Y0150462D01*
X0049515Y0152060D02*
X0027091Y0152060D01*
X0025422Y0154772D02*
X0331524Y0154772D01*
X0352194Y0146898D01*
X0365737Y0137410D01*
X0361778Y0136075D02*
X0349966Y0136075D01*
X0349966Y0136977D02*
X0349966Y0134339D01*
X0348957Y0131902D01*
X0347091Y0130037D01*
X0344654Y0129028D01*
X0342016Y0129028D01*
X0339579Y0130037D01*
X0337714Y0131902D01*
X0336705Y0134339D01*
X0336705Y0136977D01*
X0337714Y0139414D01*
X0339579Y0141280D01*
X0342016Y0142289D01*
X0344654Y0142289D01*
X0347091Y0141280D01*
X0348957Y0139414D01*
X0349966Y0136977D01*
X0349678Y0137673D02*
X0361527Y0137673D01*
X0359245Y0139272D02*
X0349016Y0139272D01*
X0347500Y0140870D02*
X0356964Y0140870D01*
X0354682Y0142469D02*
X0277626Y0142469D01*
X0275141Y0144068D02*
X0352400Y0144068D01*
X0349249Y0145666D02*
X0272655Y0145666D01*
X0270170Y0147265D02*
X0280911Y0147265D01*
X0283493Y0150206D02*
X0269517Y0151820D01*
X0051997Y0151820D01*
X0041052Y0135363D01*
X0037863Y0119477D01*
X0040599Y0116893D02*
X0045127Y0116893D01*
X0044199Y0118491D02*
X0041527Y0118491D01*
X0041625Y0120090D02*
X0044101Y0120090D01*
X0044101Y0121688D02*
X0041625Y0121688D01*
X0041625Y0123287D02*
X0044101Y0123287D01*
X0044101Y0124885D02*
X0041625Y0124885D01*
X0041513Y0126484D02*
X0044825Y0126484D01*
X0047178Y0128082D02*
X0041834Y0128082D01*
X0042155Y0129681D02*
X0047466Y0129681D01*
X0047754Y0131279D02*
X0042476Y0131279D01*
X0042797Y0132878D02*
X0048042Y0132878D01*
X0048330Y0134476D02*
X0043118Y0134476D01*
X0044168Y0136075D02*
X0048619Y0136075D01*
X0048795Y0137673D02*
X0045231Y0137673D01*
X0046294Y0139272D02*
X0049731Y0139272D01*
X0050668Y0140870D02*
X0047357Y0140870D01*
X0048420Y0142469D02*
X0051604Y0142469D01*
X0052541Y0144068D02*
X0049483Y0144068D01*
X0050546Y0145666D02*
X0053477Y0145666D01*
X0054414Y0147265D02*
X0051609Y0147265D01*
X0052673Y0148863D02*
X0055350Y0148863D01*
X0057902Y0148867D02*
X0263611Y0148867D01*
X0315461Y0115520D01*
X0312290Y0113696D02*
X0272130Y0113696D01*
X0263160Y0115294D02*
X0311746Y0115294D01*
X0309260Y0116893D02*
X0254191Y0116893D01*
X0249617Y0123287D02*
X0286153Y0123287D01*
X0284099Y0124885D02*
X0249972Y0124885D01*
X0249972Y0126484D02*
X0282045Y0126484D01*
X0279991Y0128082D02*
X0254865Y0128082D01*
X0254972Y0129681D02*
X0277937Y0129681D01*
X0275882Y0131279D02*
X0254972Y0131279D01*
X0251800Y0130540D02*
X0241800Y0137666D01*
X0144300Y0137666D01*
X0141969Y0137673D02*
X0105907Y0137673D01*
X0104758Y0136075D02*
X0141403Y0136075D01*
X0140837Y0134476D02*
X0103609Y0134476D01*
X0102460Y0132878D02*
X0140272Y0132878D01*
X0104989Y0140166D02*
X0245363Y0140245D01*
X0256800Y0134556D01*
X0259972Y0134476D02*
X0271774Y0134476D01*
X0273828Y0132878D02*
X0259972Y0132878D01*
X0264827Y0136075D02*
X0269720Y0136075D01*
X0267666Y0137673D02*
X0264972Y0137673D01*
X0264972Y0139272D02*
X0265612Y0139272D01*
X0261800Y0138572D02*
X0249831Y0142745D01*
X0096288Y0142961D01*
X0089910Y0134792D01*
X0087863Y0119477D01*
X0090599Y0116893D02*
X0095127Y0116893D01*
X0094199Y0118491D02*
X0091527Y0118491D01*
X0091625Y0120090D02*
X0094101Y0120090D01*
X0094101Y0121688D02*
X0091625Y0121688D01*
X0091625Y0123287D02*
X0094101Y0123287D01*
X0094101Y0124885D02*
X0091625Y0124885D01*
X0091019Y0126484D02*
X0094825Y0126484D01*
X0097139Y0128082D02*
X0091233Y0128082D01*
X0091447Y0129681D02*
X0097419Y0129681D01*
X0097700Y0131279D02*
X0091660Y0131279D01*
X0091874Y0132878D02*
X0097980Y0132878D01*
X0098191Y0134476D02*
X0092455Y0134476D01*
X0093703Y0136075D02*
X0099340Y0136075D01*
X0100488Y0137673D02*
X0094951Y0137673D01*
X0096199Y0139272D02*
X0101637Y0139272D01*
X0104989Y0140166D02*
X0100363Y0133729D01*
X0097863Y0119477D01*
X0085127Y0116893D02*
X0081130Y0116893D01*
X0081038Y0116766D02*
X0081423Y0117296D01*
X0081720Y0117879D01*
X0081923Y0118503D01*
X0082025Y0119150D01*
X0082025Y0119477D01*
X0077863Y0119477D01*
X0077863Y0115315D01*
X0078191Y0115315D01*
X0078838Y0115417D01*
X0079461Y0115620D01*
X0080044Y0115917D01*
X0080574Y0116302D01*
X0081038Y0116766D01*
X0081919Y0118491D02*
X0084199Y0118491D01*
X0084101Y0120090D02*
X0082025Y0120090D01*
X0082025Y0119477D02*
X0077863Y0119477D01*
X0077863Y0119477D01*
X0077863Y0115315D01*
X0077535Y0115315D01*
X0076888Y0115417D01*
X0076265Y0115620D01*
X0075682Y0115917D01*
X0075151Y0116302D01*
X0074688Y0116766D01*
X0074303Y0117296D01*
X0074006Y0117879D01*
X0073803Y0118503D01*
X0073701Y0119150D01*
X0073701Y0119477D01*
X0077863Y0119477D01*
X0077863Y0119477D01*
X0077863Y0119477D01*
X0073701Y0119477D01*
X0073701Y0124529D01*
X0073803Y0125176D01*
X0074006Y0125799D01*
X0074303Y0126383D01*
X0074688Y0126913D01*
X0075151Y0127376D01*
X0075682Y0127761D01*
X0076265Y0128059D01*
X0076888Y0128261D01*
X0077535Y0128364D01*
X0077863Y0128364D01*
X0077863Y0119477D01*
X0077863Y0119477D01*
X0077863Y0128364D01*
X0078191Y0128364D01*
X0078838Y0128261D01*
X0079461Y0128059D01*
X0080044Y0127761D01*
X0080574Y0127376D01*
X0081038Y0126913D01*
X0081423Y0126383D01*
X0081720Y0125799D01*
X0081923Y0125176D01*
X0082025Y0124529D01*
X0082025Y0119477D01*
X0077863Y0120090D02*
X0077863Y0120090D01*
X0077863Y0121688D02*
X0077863Y0121688D01*
X0077863Y0123287D02*
X0077863Y0123287D01*
X0077863Y0124885D02*
X0077863Y0124885D01*
X0077863Y0126484D02*
X0077863Y0126484D01*
X0077863Y0128082D02*
X0077863Y0128082D01*
X0079388Y0128082D02*
X0086794Y0128082D01*
X0087007Y0129681D02*
X0061671Y0129681D01*
X0061919Y0131279D02*
X0087221Y0131279D01*
X0087435Y0132878D02*
X0062167Y0132878D01*
X0062414Y0134476D02*
X0087648Y0134476D01*
X0087966Y0136075D02*
X0062662Y0136075D01*
X0062910Y0137673D02*
X0089369Y0137673D01*
X0090617Y0139272D02*
X0063166Y0139272D01*
X0064185Y0140870D02*
X0091865Y0140870D01*
X0093113Y0142469D02*
X0065205Y0142469D01*
X0061006Y0144068D02*
X0057640Y0144068D01*
X0058577Y0145666D02*
X0062025Y0145666D01*
X0064792Y0145914D02*
X0260658Y0145914D01*
X0293493Y0120363D01*
X0296665Y0120090D02*
X0304289Y0120090D01*
X0301804Y0121688D02*
X0296665Y0121688D01*
X0296092Y0123287D02*
X0299318Y0123287D01*
X0296833Y0124885D02*
X0291264Y0124885D01*
X0289209Y0126484D02*
X0294347Y0126484D01*
X0291862Y0128082D02*
X0287155Y0128082D01*
X0285101Y0129681D02*
X0289376Y0129681D01*
X0286891Y0131279D02*
X0283047Y0131279D01*
X0284405Y0132878D02*
X0280993Y0132878D01*
X0281920Y0134476D02*
X0278939Y0134476D01*
X0279434Y0136075D02*
X0276884Y0136075D01*
X0276949Y0137673D02*
X0274830Y0137673D01*
X0274463Y0139272D02*
X0272776Y0139272D01*
X0271978Y0140870D02*
X0270722Y0140870D01*
X0269492Y0142469D02*
X0268668Y0142469D01*
X0267006Y0144068D02*
X0266614Y0144068D01*
X0267684Y0148863D02*
X0275941Y0148863D01*
X0286075Y0147265D02*
X0345053Y0147265D01*
X0340857Y0148863D02*
X0286665Y0148863D01*
X0286665Y0150462D02*
X0336661Y0150462D01*
X0332465Y0152060D02*
X0286665Y0152060D01*
X0302178Y0141280D02*
X0304615Y0142289D01*
X0307253Y0142289D01*
X0309690Y0141280D01*
X0311555Y0139414D01*
X0312565Y0136977D01*
X0312565Y0134339D01*
X0311555Y0131902D01*
X0309690Y0130037D01*
X0307253Y0129028D01*
X0304615Y0129028D01*
X0302178Y0130037D01*
X0300313Y0131902D01*
X0299303Y0134339D01*
X0299303Y0136977D01*
X0300313Y0139414D01*
X0302178Y0141280D01*
X0301769Y0140870D02*
X0280112Y0140870D01*
X0282597Y0139272D02*
X0300254Y0139272D01*
X0299592Y0137673D02*
X0285083Y0137673D01*
X0287568Y0136075D02*
X0299303Y0136075D01*
X0299303Y0134476D02*
X0290054Y0134476D01*
X0292539Y0132878D02*
X0299908Y0132878D01*
X0300935Y0131279D02*
X0295025Y0131279D01*
X0297510Y0129681D02*
X0303038Y0129681D01*
X0299996Y0128082D02*
X0385164Y0128082D01*
X0385164Y0129681D02*
X0346232Y0129681D01*
X0348334Y0131279D02*
X0383386Y0131279D01*
X0379356Y0132878D02*
X0376374Y0132878D01*
X0379753Y0135087D02*
X0373217Y0137410D01*
X0377176Y0139272D02*
X0418814Y0139272D01*
X0418240Y0140870D02*
X0377176Y0140870D01*
X0379046Y0137673D02*
X0419797Y0137673D01*
X0421793Y0136075D02*
X0394942Y0136075D01*
X0388185Y0136075D02*
X0383230Y0136075D01*
X0379753Y0135087D02*
X0391564Y0130402D01*
X0386431Y0126484D02*
X0302482Y0126484D01*
X0308830Y0129681D02*
X0340439Y0129681D01*
X0338337Y0131279D02*
X0310932Y0131279D01*
X0311959Y0132878D02*
X0337310Y0132878D01*
X0336705Y0134476D02*
X0312565Y0134476D01*
X0312565Y0136075D02*
X0336705Y0136075D01*
X0336993Y0137673D02*
X0312276Y0137673D01*
X0311614Y0139272D02*
X0337655Y0139272D01*
X0339170Y0140870D02*
X0310099Y0140870D01*
X0340628Y0153659D02*
X0419142Y0153659D01*
X0418480Y0155257D02*
X0336432Y0155257D01*
X0332553Y0156856D02*
X0418240Y0156856D01*
X0418240Y0158454D02*
X0018431Y0158454D01*
X0017777Y0160053D02*
X0418894Y0160053D01*
X0419990Y0161651D02*
X0016680Y0161651D01*
X0014411Y0163250D02*
X0422259Y0163250D01*
X0420588Y0152060D02*
X0344824Y0152060D01*
X0355505Y0147265D02*
X0420781Y0147265D01*
X0419222Y0145666D02*
X0357787Y0145666D01*
X0360069Y0144068D02*
X0418560Y0144068D01*
X0418240Y0142469D02*
X0362350Y0142469D01*
X0361778Y0134476D02*
X0349966Y0134476D01*
X0349361Y0132878D02*
X0362581Y0132878D01*
X0368893Y0132878D02*
X0370061Y0132878D01*
X0306775Y0118491D02*
X0296665Y0118491D01*
X0288207Y0121688D02*
X0229589Y0121688D01*
X0236800Y0134477D02*
X0246800Y0125993D01*
X0237043Y0102506D02*
X0228771Y0102506D01*
X0231349Y0097711D02*
X0321397Y0097711D01*
X0314093Y0099309D02*
X0264655Y0099309D01*
X0264972Y0100908D02*
X0306789Y0100908D01*
X0328702Y0096112D02*
X0228436Y0096112D01*
X0227246Y0084923D02*
X0238432Y0084923D01*
X0231627Y0083324D02*
X0227954Y0083324D01*
X0224871Y0079477D02*
X0256800Y0086977D01*
X0259972Y0086521D02*
X0270321Y0086521D01*
X0270321Y0088120D02*
X0259972Y0088120D01*
X0259582Y0089718D02*
X0270321Y0089718D01*
X0270457Y0084923D02*
X0259972Y0084923D01*
X0244064Y0081726D02*
X0321153Y0081726D01*
X0325931Y0080127D02*
X0237258Y0080127D01*
X0227655Y0075332D02*
X0259828Y0075332D01*
X0265189Y0075332D02*
X0286897Y0075332D01*
X0271924Y0070536D02*
X0306181Y0070536D01*
X0306598Y0067339D02*
X0229662Y0067339D01*
X0228064Y0065740D02*
X0304999Y0065740D01*
X0304935Y0064142D02*
X0227136Y0064142D01*
X0228734Y0062543D02*
X0244343Y0062543D01*
X0246800Y0059477D02*
X0224871Y0059477D01*
X0219971Y0059346D02*
X0199692Y0059346D01*
X0199972Y0060945D02*
X0219971Y0060945D01*
X0221007Y0062543D02*
X0199972Y0062543D01*
X0199972Y0064142D02*
X0222606Y0064142D01*
X0221678Y0065740D02*
X0186350Y0065740D01*
X0186110Y0067339D02*
X0220079Y0067339D01*
X0227545Y0073733D02*
X0242779Y0073733D01*
X0244316Y0068937D02*
X0239560Y0068937D01*
X0249284Y0068937D02*
X0344025Y0068937D01*
X0334935Y0075332D02*
X0334335Y0075332D01*
X0333081Y0076930D02*
X0336132Y0076930D01*
X0335722Y0078529D02*
X0330804Y0078529D01*
X0330443Y0080127D02*
X0335313Y0080127D01*
X0334904Y0081726D02*
X0330081Y0081726D01*
X0329719Y0083324D02*
X0334495Y0083324D01*
X0334086Y0084923D02*
X0329256Y0084923D01*
X0333677Y0086521D02*
X0315894Y0086521D01*
X0331631Y0094514D02*
X0202413Y0094514D01*
X0254961Y0099309D02*
X0258945Y0099309D01*
X0276528Y0084923D02*
X0277354Y0084923D01*
X0323088Y0070536D02*
X0326181Y0070536D01*
X0324935Y0072134D02*
X0324335Y0072134D01*
X0324335Y0073733D02*
X0324935Y0073733D01*
X0324935Y0075332D02*
X0324335Y0075332D01*
X0319635Y0063729D02*
X0318414Y0056426D01*
X0306276Y0051354D02*
X0229771Y0051354D01*
X0229771Y0049755D02*
X0298467Y0049755D01*
X0304790Y0046558D02*
X0349716Y0046558D01*
X0349725Y0044960D02*
X0296981Y0044960D01*
X0290658Y0048157D02*
X0229771Y0048157D01*
X0228882Y0046558D02*
X0282849Y0046558D01*
X0289172Y0043361D02*
X0349734Y0043361D01*
X0349743Y0041763D02*
X0281363Y0041763D01*
X0275040Y0044960D02*
X0227283Y0044960D01*
X0222459Y0044960D02*
X0201625Y0044960D01*
X0201625Y0046558D02*
X0220860Y0046558D01*
X0219971Y0048157D02*
X0201625Y0048157D01*
X0201625Y0049755D02*
X0219966Y0049755D01*
X0217180Y0051354D02*
X0201158Y0051354D01*
X0199304Y0052952D02*
X0214394Y0052952D01*
X0211608Y0054551D02*
X0159897Y0054551D01*
X0159304Y0052952D02*
X0166422Y0052952D01*
X0164568Y0051354D02*
X0161158Y0051354D01*
X0161625Y0049755D02*
X0164101Y0049755D01*
X0164101Y0048157D02*
X0161625Y0048157D01*
X0161625Y0046558D02*
X0164101Y0046558D01*
X0164101Y0044960D02*
X0161625Y0044960D01*
X0161359Y0043361D02*
X0164367Y0043361D01*
X0165532Y0041763D02*
X0160194Y0041763D01*
X0155532Y0041763D02*
X0152311Y0041763D01*
X0151863Y0043361D02*
X0154367Y0043361D01*
X0154101Y0044960D02*
X0151625Y0044960D01*
X0151625Y0046558D02*
X0154101Y0046558D01*
X0154101Y0048157D02*
X0151625Y0048157D01*
X0151625Y0049755D02*
X0154101Y0049755D01*
X0154568Y0051354D02*
X0151158Y0051354D01*
X0149304Y0052952D02*
X0156422Y0052952D01*
X0153703Y0054551D02*
X0004100Y0054551D01*
X0004100Y0056149D02*
X0153628Y0056149D01*
X0146422Y0052952D02*
X0139304Y0052952D01*
X0141158Y0051354D02*
X0144568Y0051354D01*
X0144101Y0049755D02*
X0141625Y0049755D01*
X0141625Y0048157D02*
X0144101Y0048157D01*
X0144101Y0046558D02*
X0141625Y0046558D01*
X0141625Y0044960D02*
X0144101Y0044960D01*
X0144367Y0043361D02*
X0141768Y0043361D01*
X0142194Y0041763D02*
X0145532Y0041763D01*
X0148189Y0040164D02*
X0142620Y0040164D01*
X0143045Y0038566D02*
X0148616Y0038566D01*
X0149683Y0036967D02*
X0143471Y0036967D01*
X0139344Y0035369D02*
X0120842Y0035369D01*
X0120754Y0036967D02*
X0138918Y0036967D01*
X0138492Y0038566D02*
X0120666Y0038566D01*
X0120579Y0040164D02*
X0138066Y0040164D01*
X0150816Y0038946D02*
X0147863Y0049477D01*
X0169304Y0052952D02*
X0175565Y0052952D01*
X0175682Y0053037D02*
X0175151Y0052652D01*
X0174688Y0052189D01*
X0174303Y0051659D01*
X0174006Y0051075D01*
X0173803Y0050452D01*
X0173701Y0049805D01*
X0173701Y0049477D01*
X0177863Y0049477D01*
X0177863Y0049477D01*
X0182025Y0049477D01*
X0182025Y0049805D01*
X0181923Y0050452D01*
X0181720Y0051075D01*
X0181423Y0051659D01*
X0181038Y0052189D01*
X0180574Y0052652D01*
X0180044Y0053037D01*
X0179461Y0053334D01*
X0178838Y0053537D01*
X0178191Y0053639D01*
X0177863Y0053639D01*
X0177535Y0053639D01*
X0176888Y0053537D01*
X0176265Y0053334D01*
X0175682Y0053037D01*
X0177863Y0052952D02*
X0177863Y0052952D01*
X0177863Y0053639D02*
X0177863Y0049477D01*
X0177863Y0049477D01*
X0177863Y0053639D01*
X0177863Y0051354D02*
X0177863Y0051354D01*
X0177863Y0049755D02*
X0177863Y0049755D01*
X0181578Y0051354D02*
X0184568Y0051354D01*
X0184101Y0049755D02*
X0182025Y0049755D01*
X0182025Y0048157D02*
X0184101Y0048157D01*
X0184101Y0046558D02*
X0182025Y0046558D01*
X0182025Y0044960D02*
X0184101Y0044960D01*
X0184367Y0043361D02*
X0181787Y0043361D01*
X0180759Y0041763D02*
X0185532Y0041763D01*
X0190194Y0041763D02*
X0195532Y0041763D01*
X0194367Y0043361D02*
X0191359Y0043361D01*
X0191625Y0044960D02*
X0194101Y0044960D01*
X0194101Y0046558D02*
X0191625Y0046558D01*
X0191625Y0048157D02*
X0194101Y0048157D01*
X0194101Y0049755D02*
X0191625Y0049755D01*
X0191158Y0051354D02*
X0194568Y0051354D01*
X0196422Y0052952D02*
X0189304Y0052952D01*
X0186422Y0052952D02*
X0180161Y0052952D01*
X0174148Y0051354D02*
X0171158Y0051354D01*
X0171625Y0049755D02*
X0173701Y0049755D01*
X0173701Y0048157D02*
X0171625Y0048157D01*
X0171625Y0046558D02*
X0173701Y0046558D01*
X0173701Y0044960D02*
X0171625Y0044960D01*
X0171359Y0043361D02*
X0173939Y0043361D01*
X0174967Y0041763D02*
X0170194Y0041763D01*
X0150816Y0038946D02*
X0201800Y0038946D01*
X0224871Y0039477D01*
X0220227Y0041763D02*
X0200194Y0041763D01*
X0201359Y0043361D02*
X0221825Y0043361D01*
X0224871Y0049477D02*
X0211800Y0056977D01*
X0196800Y0061977D02*
X0181800Y0063237D01*
X0171800Y0061977D02*
X0161800Y0063237D01*
X0157250Y0068937D02*
X0094284Y0068937D01*
X0091800Y0071977D02*
X0160540Y0071977D01*
X0161800Y0070717D01*
X0123701Y0048157D02*
X0121625Y0048157D01*
X0121625Y0046558D02*
X0123701Y0046558D01*
X0123701Y0044960D02*
X0121625Y0044960D01*
X0121359Y0043361D02*
X0123939Y0043361D01*
X0124967Y0041763D02*
X0120491Y0041763D01*
X0116172Y0040164D02*
X0102341Y0040164D01*
X0102722Y0038566D02*
X0116260Y0038566D01*
X0116348Y0036967D02*
X0103102Y0036967D01*
X0103483Y0035369D02*
X0116436Y0035369D01*
X0116524Y0033770D02*
X0103864Y0033770D01*
X0104244Y0032172D02*
X0116612Y0032172D01*
X0116699Y0030573D02*
X0110677Y0030573D01*
X0100482Y0028975D02*
X0093519Y0028975D01*
X0093252Y0030573D02*
X0100102Y0030573D01*
X0099721Y0032172D02*
X0092985Y0032172D01*
X0092718Y0033770D02*
X0099341Y0033770D01*
X0098960Y0035369D02*
X0092451Y0035369D01*
X0092184Y0036967D02*
X0098580Y0036967D01*
X0098199Y0038566D02*
X0091917Y0038566D01*
X0091649Y0040164D02*
X0097818Y0040164D01*
X0095532Y0041763D02*
X0091382Y0041763D01*
X0091359Y0043361D02*
X0094367Y0043361D01*
X0094101Y0044960D02*
X0091625Y0044960D01*
X0091625Y0046558D02*
X0094101Y0046558D01*
X0066422Y0052952D02*
X0059304Y0052952D01*
X0061158Y0051354D02*
X0064568Y0051354D01*
X0064101Y0049755D02*
X0061625Y0049755D01*
X0061625Y0048157D02*
X0064101Y0048157D01*
X0064101Y0046558D02*
X0061625Y0046558D01*
X0061625Y0044960D02*
X0064101Y0044960D01*
X0064367Y0043361D02*
X0061359Y0043361D01*
X0060194Y0041763D02*
X0065532Y0041763D01*
X0035532Y0041763D02*
X0030759Y0041763D01*
X0030574Y0041578D02*
X0031038Y0042041D01*
X0031423Y0042571D01*
X0031720Y0043155D01*
X0031923Y0043778D01*
X0032025Y0044425D01*
X0032025Y0049477D01*
X0027863Y0049477D01*
X0027863Y0040591D01*
X0028191Y0040591D01*
X0028838Y0040693D01*
X0029461Y0040895D01*
X0030044Y0041193D01*
X0030574Y0041578D01*
X0031787Y0043361D02*
X0034367Y0043361D01*
X0034101Y0044960D02*
X0032025Y0044960D01*
X0032025Y0046558D02*
X0034101Y0046558D01*
X0034101Y0048157D02*
X0032025Y0048157D01*
X0032025Y0049477D02*
X0027863Y0049477D01*
X0027863Y0049477D01*
X0027863Y0040591D01*
X0027535Y0040591D01*
X0026888Y0040693D01*
X0026265Y0040895D01*
X0025682Y0041193D01*
X0025151Y0041578D01*
X0024688Y0042041D01*
X0024303Y0042571D01*
X0024006Y0043155D01*
X0023803Y0043778D01*
X0023701Y0044425D01*
X0023701Y0049477D01*
X0027863Y0049477D01*
X0027863Y0049477D01*
X0027863Y0049477D01*
X0023701Y0049477D01*
X0023701Y0049805D01*
X0023803Y0050452D01*
X0024006Y0051075D01*
X0024303Y0051659D01*
X0024688Y0052189D01*
X0025151Y0052652D01*
X0025682Y0053037D01*
X0026265Y0053334D01*
X0026888Y0053537D01*
X0027535Y0053639D01*
X0027863Y0053639D01*
X0027863Y0049477D01*
X0027863Y0049477D01*
X0027863Y0053639D01*
X0028191Y0053639D01*
X0028838Y0053537D01*
X0029461Y0053334D01*
X0030044Y0053037D01*
X0030574Y0052652D01*
X0031038Y0052189D01*
X0031423Y0051659D01*
X0031720Y0051075D01*
X0031923Y0050452D01*
X0032025Y0049805D01*
X0032025Y0049477D01*
X0032025Y0049755D02*
X0034101Y0049755D01*
X0034568Y0051354D02*
X0031578Y0051354D01*
X0030161Y0052952D02*
X0036422Y0052952D01*
X0027863Y0052952D02*
X0027863Y0052952D01*
X0027863Y0051354D02*
X0027863Y0051354D01*
X0027863Y0049755D02*
X0027863Y0049755D01*
X0027863Y0048157D02*
X0027863Y0048157D01*
X0027863Y0046558D02*
X0027863Y0046558D01*
X0027863Y0044960D02*
X0027863Y0044960D01*
X0027863Y0043361D02*
X0027863Y0043361D01*
X0027863Y0041763D02*
X0027863Y0041763D01*
X0024967Y0041763D02*
X0020194Y0041763D01*
X0019994Y0041563D02*
X0021052Y0042622D01*
X0021625Y0044004D01*
X0021625Y0050226D01*
X0021052Y0051608D01*
X0019994Y0052667D01*
X0018611Y0053239D01*
X0017115Y0053239D01*
X0015732Y0052667D01*
X0014674Y0051608D01*
X0014101Y0050226D01*
X0014101Y0044004D01*
X0014674Y0042622D01*
X0015732Y0041563D01*
X0017115Y0040991D01*
X0018611Y0040991D01*
X0019994Y0041563D01*
X0021359Y0043361D02*
X0023939Y0043361D01*
X0023701Y0044960D02*
X0021625Y0044960D01*
X0021625Y0046558D02*
X0023701Y0046558D01*
X0023701Y0048157D02*
X0021625Y0048157D01*
X0021625Y0049755D02*
X0023701Y0049755D01*
X0024148Y0051354D02*
X0021158Y0051354D01*
X0019304Y0052952D02*
X0025565Y0052952D01*
X0016422Y0052952D02*
X0009304Y0052952D01*
X0009994Y0052667D02*
X0008611Y0053239D01*
X0007115Y0053239D01*
X0005732Y0052667D01*
X0004674Y0051608D01*
X0004101Y0050226D01*
X0004101Y0044004D01*
X0004674Y0042622D01*
X0005732Y0041563D01*
X0007115Y0040991D01*
X0008611Y0040991D01*
X0009994Y0041563D01*
X0011052Y0042622D01*
X0011625Y0044004D01*
X0011625Y0050226D01*
X0011052Y0051608D01*
X0009994Y0052667D01*
X0011158Y0051354D02*
X0014568Y0051354D01*
X0014101Y0049755D02*
X0011625Y0049755D01*
X0011625Y0048157D02*
X0014101Y0048157D01*
X0014101Y0046558D02*
X0011625Y0046558D01*
X0011625Y0044960D02*
X0014101Y0044960D01*
X0014367Y0043361D02*
X0011359Y0043361D01*
X0010194Y0041763D02*
X0015532Y0041763D01*
X0005532Y0041763D02*
X0004100Y0041763D01*
X0004100Y0043361D02*
X0004367Y0043361D01*
X0004101Y0044960D02*
X0004100Y0044960D01*
X0004100Y0046558D02*
X0004101Y0046558D01*
X0004100Y0048157D02*
X0004101Y0048157D01*
X0004100Y0049755D02*
X0004101Y0049755D01*
X0004100Y0051354D02*
X0004568Y0051354D01*
X0004100Y0052952D02*
X0006422Y0052952D01*
X0070108Y0078529D02*
X0092941Y0078529D01*
X0090603Y0080127D02*
X0072446Y0080127D01*
X0067745Y0084477D02*
X0086800Y0091977D01*
X0075054Y0089718D02*
X0071555Y0089718D01*
X0084412Y0101031D02*
X0086524Y0101031D01*
X0086524Y0106131D01*
X0086524Y0106131D01*
X0081424Y0106131D01*
X0081424Y0108243D01*
X0084412Y0111231D01*
X0086524Y0111231D01*
X0086524Y0106131D01*
X0086524Y0106131D01*
X0081424Y0106131D01*
X0081424Y0104018D01*
X0084412Y0101031D01*
X0082936Y0102506D02*
X0079547Y0102506D01*
X0081145Y0104105D02*
X0081424Y0104105D01*
X0081424Y0105703D02*
X0081224Y0105703D01*
X0081224Y0107302D02*
X0081424Y0107302D01*
X0082081Y0108900D02*
X0080402Y0108900D01*
X0078803Y0110499D02*
X0083680Y0110499D01*
X0086524Y0110499D02*
X0086524Y0110499D01*
X0086524Y0111231D02*
X0088637Y0111231D01*
X0091624Y0108243D01*
X0091624Y0106131D01*
X0086525Y0106131D01*
X0086525Y0106131D01*
X0086524Y0106131D02*
X0086524Y0111231D01*
X0086524Y0108900D02*
X0086524Y0108900D01*
X0086524Y0107302D02*
X0086524Y0107302D01*
X0086525Y0106131D02*
X0091624Y0106131D01*
X0091624Y0104018D01*
X0088637Y0101031D01*
X0086524Y0101031D01*
X0086524Y0106131D01*
X0086524Y0106131D01*
X0086524Y0105703D02*
X0086524Y0105703D01*
X0086524Y0104105D02*
X0086524Y0104105D01*
X0086524Y0102506D02*
X0086524Y0102506D01*
X0090112Y0102506D02*
X0126086Y0102506D01*
X0124574Y0104105D02*
X0091624Y0104105D01*
X0091624Y0105703D02*
X0124574Y0105703D01*
X0124574Y0107302D02*
X0091624Y0107302D01*
X0090967Y0108900D02*
X0125231Y0108900D01*
X0126830Y0110499D02*
X0089369Y0110499D01*
X0077863Y0116893D02*
X0077863Y0116893D01*
X0077863Y0118491D02*
X0077863Y0118491D01*
X0074596Y0116893D02*
X0070599Y0116893D01*
X0071052Y0117346D02*
X0071625Y0118729D01*
X0071625Y0124950D01*
X0071052Y0126333D01*
X0069994Y0127391D01*
X0068611Y0127964D01*
X0067115Y0127964D01*
X0065732Y0127391D01*
X0064674Y0126333D01*
X0064101Y0124950D01*
X0064101Y0118729D01*
X0064674Y0117346D01*
X0065732Y0116288D01*
X0067115Y0115715D01*
X0068611Y0115715D01*
X0069994Y0116288D01*
X0071052Y0117346D01*
X0071527Y0118491D02*
X0073807Y0118491D01*
X0073701Y0120090D02*
X0071625Y0120090D01*
X0071625Y0121688D02*
X0073701Y0121688D01*
X0073701Y0123287D02*
X0071625Y0123287D01*
X0071625Y0124885D02*
X0073757Y0124885D01*
X0074376Y0126484D02*
X0070901Y0126484D01*
X0076338Y0128082D02*
X0061423Y0128082D01*
X0061175Y0126484D02*
X0064825Y0126484D01*
X0064101Y0124885D02*
X0061625Y0124885D01*
X0061625Y0123287D02*
X0064101Y0123287D01*
X0064101Y0121688D02*
X0061625Y0121688D01*
X0061625Y0120090D02*
X0064101Y0120090D01*
X0064199Y0118491D02*
X0061527Y0118491D01*
X0060599Y0116893D02*
X0065127Y0116893D01*
X0057863Y0119477D02*
X0061052Y0140048D01*
X0064792Y0145914D01*
X0059986Y0142469D02*
X0056704Y0142469D01*
X0055767Y0140870D02*
X0058953Y0140870D01*
X0058705Y0139272D02*
X0054831Y0139272D01*
X0053894Y0137673D02*
X0058458Y0137673D01*
X0058210Y0136075D02*
X0053089Y0136075D01*
X0052801Y0134476D02*
X0057962Y0134476D01*
X0057714Y0132878D02*
X0052513Y0132878D01*
X0052225Y0131279D02*
X0057466Y0131279D01*
X0057219Y0129681D02*
X0051937Y0129681D01*
X0051649Y0128082D02*
X0056971Y0128082D01*
X0054825Y0126484D02*
X0051361Y0126484D01*
X0051625Y0124885D02*
X0054101Y0124885D01*
X0054101Y0123287D02*
X0051625Y0123287D01*
X0051625Y0121688D02*
X0054101Y0121688D01*
X0054101Y0120090D02*
X0051625Y0120090D01*
X0051527Y0118491D02*
X0054199Y0118491D01*
X0055127Y0116893D02*
X0050599Y0116893D01*
X0047863Y0119477D02*
X0051052Y0137174D01*
X0057902Y0148867D01*
X0009189Y0163250D02*
X0004100Y0163250D01*
X0004100Y0161651D02*
X0006920Y0161651D01*
X0005823Y0160053D02*
X0004100Y0160053D01*
X0004100Y0158454D02*
X0005169Y0158454D01*
X0005169Y0156856D02*
X0004100Y0156856D01*
X0004100Y0155257D02*
X0005409Y0155257D01*
X0006071Y0153659D02*
X0004100Y0153659D01*
X0004100Y0152060D02*
X0007517Y0152060D01*
X0021956Y0128082D02*
X0026338Y0128082D01*
X0024376Y0126484D02*
X0021613Y0126484D01*
X0021625Y0124885D02*
X0023757Y0124885D01*
X0023701Y0123287D02*
X0021625Y0123287D01*
X0021625Y0121688D02*
X0023701Y0121688D01*
X0027863Y0118491D02*
X0027863Y0118491D01*
X0027863Y0116893D02*
X0027863Y0116893D01*
X0031130Y0116893D02*
X0035127Y0116893D01*
X0034199Y0118491D02*
X0031919Y0118491D01*
X0032025Y0120090D02*
X0034101Y0120090D01*
X0034101Y0121688D02*
X0032025Y0121688D01*
X0032025Y0123287D02*
X0034101Y0123287D01*
X0034101Y0124885D02*
X0031969Y0124885D01*
X0031350Y0126484D02*
X0034825Y0126484D01*
X0014825Y0126484D02*
X0010901Y0126484D01*
X0011625Y0124885D02*
X0014101Y0124885D01*
X0014101Y0123287D02*
X0011625Y0123287D01*
X0011625Y0121688D02*
X0014101Y0121688D01*
X0014101Y0120090D02*
X0011625Y0120090D01*
X0011527Y0118491D02*
X0014199Y0118491D01*
X0015127Y0116893D02*
X0010599Y0116893D01*
X0081350Y0126484D02*
X0084825Y0126484D01*
X0084101Y0124885D02*
X0081969Y0124885D01*
X0082025Y0123287D02*
X0084101Y0123287D01*
X0084101Y0121688D02*
X0082025Y0121688D01*
X0129674Y0110499D02*
X0129674Y0110499D01*
X0129674Y0108900D02*
X0129674Y0108900D01*
X0129674Y0107302D02*
X0129674Y0107302D01*
X0129674Y0106131D02*
X0129674Y0101031D01*
X0129674Y0106131D01*
X0129674Y0106131D01*
X0129674Y0105703D02*
X0129674Y0105703D01*
X0129674Y0104105D02*
X0129674Y0104105D01*
X0129674Y0102506D02*
X0129674Y0102506D01*
X0244972Y0041763D02*
X0264350Y0041763D01*
X0273554Y0040164D02*
X0349752Y0040164D01*
X0349707Y0048157D02*
X0312598Y0048157D01*
X0252691Y0024179D02*
X0252570Y0024179D01*
X0248366Y0022581D02*
X0246907Y0022581D01*
X0139627Y0033770D02*
X0120930Y0033770D01*
D18*
X0056800Y0017253D02*
X0047863Y0049477D01*
X0056800Y0017253D02*
X0299831Y0017253D01*
X0318690Y0017331D01*
X0352430Y0026347D01*
X0352194Y0068158D01*
X0339635Y0073729D01*
X0333493Y0097725D01*
X0274576Y0110619D01*
X0224871Y0119477D01*
D19*
X0246800Y0125993D03*
X0251800Y0130540D03*
X0256800Y0134556D03*
X0261800Y0138572D03*
X0283493Y0150206D03*
X0293493Y0120363D03*
X0315461Y0115520D03*
X0261800Y0101977D03*
X0256800Y0086977D03*
X0273493Y0087410D03*
X0262509Y0072489D03*
X0246800Y0071977D03*
X0246800Y0059477D03*
X0283493Y0058473D03*
X0241800Y0039694D03*
X0236800Y0031662D03*
X0249398Y0026505D03*
X0255461Y0021426D03*
X0156800Y0056977D03*
X0171800Y0061977D03*
X0196800Y0061977D03*
X0141800Y0076977D03*
X0166800Y0091977D03*
X0161800Y0096977D03*
X0091800Y0071977D03*
M02*
