%
M48
M72
T01C0.0236
T02C0.0315
T03C0.0320
T04C0.0400
T05C0.0512
T06C0.0866
%
T01
X15680Y5698
X17180Y6198
X19680Y6198
X24680Y5948
X24680Y7198
X26251Y7249
X28349Y5847
X24180Y3969
X23680Y3166
X24940Y2650
X25546Y2143
X14180Y7698
X16680Y9198
X16180Y9698
X9180Y7198
X24680Y12599
X25180Y13054
X25680Y13456
X26180Y13857
X28349Y15021
X29349Y12036
X31546Y11552
X26180Y10198
X25680Y8698
X27349Y8741
T02
X19629Y8448
X19629Y9448
X19629Y7448
X19786Y4948
X18786Y4948
X17786Y4948
X16786Y4948
X15786Y4948
X14786Y4948
X13786Y4948
X12786Y4948
X11786Y4948
X10786Y4948
X9786Y4948
X8786Y4948
X7786Y4948
X6786Y4948
X5786Y4948
X4786Y4948
X3786Y4948
X2786Y4948
X1786Y4948
X786Y4948
X786Y11948
X1786Y11948
X2786Y11948
X3786Y11948
X4786Y11948
X5786Y11948
X6786Y11948
X7786Y11948
X8786Y11948
X9786Y11948
X10786Y11948
X11786Y11948
X12786Y11948
X13786Y11948
X14786Y11948
X15786Y11948
X16786Y11948
X17786Y11948
X18786Y11948
X19786Y11948
T03
X13967Y10613
X12967Y10613
X8652Y10613
X7652Y10613
T04
X22487Y10948
X22487Y11948
X22487Y12948
X22487Y9948
X22487Y8948
X22487Y7948
X22487Y6948
X22487Y5948
X22487Y4948
X22487Y3948
X30963Y6373
X31963Y6373
X32963Y6373
X33963Y6373
X33963Y7373
X32963Y7373
X31963Y7373
X30963Y7373
X39156Y10040
X39156Y13040
T05
X17404Y8448
X14845Y8448
X12089Y8448
X9530Y8448
X6774Y8448
X4215Y8448
T06
X1180Y1180
X30593Y13566
X34334Y13566
X42487Y14198
X42487Y15715
X42487Y2698
X42487Y1180
X1180Y15715
M30
