G75*
%MOIN*%
%OFA0B0*%
%FSLAX25Y25*%
%IPPOS*%
%LPD*%
%AMOC8*
5,1,8,0,0,1.08239X$1,22.5*
%
%ADD10C,0.09161*%
%ADD11OC8,0.07100*%
%ADD12R,0.06799X0.05618*%
%ADD13R,0.05618X0.06799*%
%ADD14OC8,0.10500*%
%ADD15C,0.10500*%
%ADD16C,0.05224*%
%ADD17OC8,0.07500*%
%ADD18R,0.04043X0.04043*%
D10*
X0011800Y0011800D03*
X0305934Y0135658D03*
X0343335Y0135658D03*
X0424871Y0141977D03*
X0424871Y0157154D03*
X0424871Y0026977D03*
X0424871Y0011800D03*
X0011800Y0157154D03*
D11*
X0076524Y0106131D03*
X0086524Y0106131D03*
X0129674Y0106131D03*
X0139674Y0106131D03*
X0309635Y0073729D03*
X0319635Y0073729D03*
X0329635Y0073729D03*
X0339635Y0073729D03*
X0339635Y0063729D03*
X0329635Y0063729D03*
X0319635Y0063729D03*
X0309635Y0063729D03*
D12*
X0181800Y0063237D03*
X0181800Y0070717D03*
X0161800Y0070717D03*
X0161800Y0063237D03*
D13*
X0365737Y0137410D03*
X0373217Y0137410D03*
D14*
X0391564Y0130402D03*
X0391564Y0100402D03*
D15*
X0174044Y0084477D03*
X0148454Y0084477D03*
X0120894Y0084477D03*
X0095304Y0084477D03*
X0067745Y0084477D03*
X0042154Y0084477D03*
D16*
X0037863Y0049477D02*
X0037863Y0044753D01*
X0047863Y0044753D02*
X0047863Y0049477D01*
X0057863Y0049477D02*
X0057863Y0044753D01*
X0067863Y0044753D02*
X0067863Y0049477D01*
X0077863Y0049477D02*
X0077863Y0044753D01*
X0087863Y0044753D02*
X0087863Y0049477D01*
X0097863Y0049477D02*
X0097863Y0044753D01*
X0107863Y0044753D02*
X0107863Y0049477D01*
X0117863Y0049477D02*
X0117863Y0044753D01*
X0127863Y0044753D02*
X0127863Y0049477D01*
X0137863Y0049477D02*
X0137863Y0044753D01*
X0147863Y0044753D02*
X0147863Y0049477D01*
X0157863Y0049477D02*
X0157863Y0044753D01*
X0167863Y0044753D02*
X0167863Y0049477D01*
X0177863Y0049477D02*
X0177863Y0044753D01*
X0187863Y0044753D02*
X0187863Y0049477D01*
X0197863Y0049477D02*
X0197863Y0044753D01*
X0198650Y0074477D02*
X0193926Y0074477D01*
X0193926Y0084477D02*
X0198650Y0084477D01*
X0198650Y0094477D02*
X0193926Y0094477D01*
X0197863Y0119477D02*
X0197863Y0124202D01*
X0187863Y0124202D02*
X0187863Y0119477D01*
X0177863Y0119477D02*
X0177863Y0124202D01*
X0167863Y0124202D02*
X0167863Y0119477D01*
X0157863Y0119477D02*
X0157863Y0124202D01*
X0147863Y0124202D02*
X0147863Y0119477D01*
X0137863Y0119477D02*
X0137863Y0124202D01*
X0127863Y0124202D02*
X0127863Y0119477D01*
X0117863Y0119477D02*
X0117863Y0124202D01*
X0107863Y0124202D02*
X0107863Y0119477D01*
X0097863Y0119477D02*
X0097863Y0124202D01*
X0087863Y0124202D02*
X0087863Y0119477D01*
X0077863Y0119477D02*
X0077863Y0124202D01*
X0067863Y0124202D02*
X0067863Y0119477D01*
X0057863Y0119477D02*
X0057863Y0124202D01*
X0047863Y0124202D02*
X0047863Y0119477D01*
X0037863Y0119477D02*
X0037863Y0124202D01*
X0027863Y0124202D02*
X0027863Y0119477D01*
X0017863Y0119477D02*
X0017863Y0124202D01*
X0007863Y0124202D02*
X0007863Y0119477D01*
X0007863Y0049477D02*
X0007863Y0044753D01*
X0017863Y0044753D02*
X0017863Y0049477D01*
X0027863Y0049477D02*
X0027863Y0044753D01*
D17*
X0224871Y0049477D03*
X0224871Y0039477D03*
X0224871Y0059477D03*
X0224871Y0069477D03*
X0224871Y0079477D03*
X0224871Y0089477D03*
X0224871Y0099477D03*
X0224871Y0109477D03*
X0224871Y0119477D03*
X0224871Y0129477D03*
D18*
X0246800Y0125993D03*
X0251800Y0130540D03*
X0256800Y0134556D03*
X0261800Y0138572D03*
X0283493Y0150206D03*
X0293493Y0120363D03*
X0315461Y0115520D03*
X0261800Y0101977D03*
X0256800Y0086977D03*
X0273493Y0087410D03*
X0262509Y0072489D03*
X0246800Y0071977D03*
X0246800Y0059477D03*
X0283493Y0058473D03*
X0241800Y0039694D03*
X0236800Y0031662D03*
X0249398Y0026505D03*
X0255461Y0021426D03*
X0156800Y0056977D03*
X0171800Y0061977D03*
X0196800Y0061977D03*
X0141800Y0076977D03*
X0166800Y0091977D03*
X0161800Y0096977D03*
X0091800Y0071977D03*
M02*
