G75*
%MOIN*%
%OFA0B0*%
%FSLAX25Y25*%
%IPPOS*%
%LPD*%
%AMOC8*
5,1,8,0,0,1.08239X$1,22.5*
%
%ADD10C,0.01600*%
%ADD11C,0.00060*%
%ADD12C,0.00100*%
%ADD13C,0.00500*%
%ADD14C,0.00400*%
%ADD15C,0.00600*%
D10*
X0214871Y0026977D02*
X0214871Y0141977D01*
X0214870Y0141978D02*
X0214866Y0142212D01*
X0214868Y0142447D01*
X0214875Y0142682D01*
X0214888Y0142917D01*
X0214907Y0143151D01*
X0214931Y0143384D01*
X0214961Y0143617D01*
X0214996Y0143849D01*
X0215037Y0144081D01*
X0215084Y0144311D01*
X0215136Y0144540D01*
X0215194Y0144767D01*
X0215257Y0144994D01*
X0215326Y0145218D01*
X0215400Y0145441D01*
X0215480Y0145662D01*
X0215565Y0145881D01*
X0215655Y0146098D01*
X0215750Y0146313D01*
X0215850Y0146525D01*
X0215956Y0146735D01*
X0216066Y0146942D01*
X0216182Y0147146D01*
X0216302Y0147348D01*
X0216428Y0147547D01*
X0216558Y0147742D01*
X0216693Y0147935D01*
X0216832Y0148124D01*
X0216976Y0148309D01*
X0217124Y0148491D01*
X0217277Y0148670D01*
X0217434Y0148845D01*
X0217595Y0149016D01*
X0217760Y0149182D01*
X0217929Y0149345D01*
X0218102Y0149504D01*
X0218279Y0149659D01*
X0218460Y0149809D01*
X0218644Y0149955D01*
X0218831Y0150096D01*
X0219022Y0150233D01*
X0219217Y0150365D01*
X0219414Y0150492D01*
X0219614Y0150615D01*
X0219818Y0150732D01*
X0220024Y0150845D01*
X0220232Y0150953D01*
X0220444Y0151055D01*
X0220657Y0151153D01*
X0220873Y0151245D01*
X0221091Y0151332D01*
X0221311Y0151414D01*
X0221534Y0151491D01*
X0221757Y0151562D01*
X0221983Y0151627D01*
X0222210Y0151687D01*
X0222438Y0151742D01*
X0222668Y0151791D01*
X0222899Y0151835D01*
X0223131Y0151873D01*
X0223363Y0151905D01*
X0223597Y0151932D01*
X0223831Y0151953D01*
X0224065Y0151968D01*
X0224300Y0151978D01*
X0224300Y0151977D02*
X0424300Y0151977D01*
X0434871Y0141977D02*
X0434871Y0026977D01*
X0434870Y0026978D02*
X0434860Y0026729D01*
X0434844Y0026481D01*
X0434822Y0026233D01*
X0434794Y0025986D01*
X0434761Y0025740D01*
X0434721Y0025494D01*
X0434675Y0025250D01*
X0434624Y0025007D01*
X0434566Y0024765D01*
X0434503Y0024525D01*
X0434434Y0024286D01*
X0434359Y0024049D01*
X0434278Y0023813D01*
X0434192Y0023580D01*
X0434100Y0023349D01*
X0434003Y0023120D01*
X0433900Y0022894D01*
X0433792Y0022670D01*
X0433678Y0022449D01*
X0433559Y0022231D01*
X0433435Y0022015D01*
X0433306Y0021803D01*
X0433171Y0021594D01*
X0433032Y0021388D01*
X0432887Y0021186D01*
X0432738Y0020987D01*
X0432584Y0020792D01*
X0432425Y0020600D01*
X0432262Y0020413D01*
X0432094Y0020229D01*
X0431922Y0020050D01*
X0431746Y0019875D01*
X0431565Y0019704D01*
X0431380Y0019537D01*
X0431192Y0019375D01*
X0430999Y0019218D01*
X0430803Y0019065D01*
X0430603Y0018917D01*
X0430399Y0018774D01*
X0430193Y0018636D01*
X0429983Y0018503D01*
X0429769Y0018376D01*
X0429553Y0018253D01*
X0429334Y0018135D01*
X0429112Y0018023D01*
X0428887Y0017917D01*
X0428660Y0017815D01*
X0428431Y0017720D01*
X0428199Y0017630D01*
X0427965Y0017545D01*
X0427729Y0017466D01*
X0427492Y0017393D01*
X0427252Y0017326D01*
X0427012Y0017264D01*
X0426769Y0017209D01*
X0426526Y0017159D01*
X0426281Y0017115D01*
X0426035Y0017077D01*
X0425789Y0017045D01*
X0425541Y0017019D01*
X0425294Y0016998D01*
X0425045Y0016984D01*
X0424797Y0016976D01*
X0424548Y0016974D01*
X0424300Y0016978D01*
X0424300Y0016977D02*
X0224300Y0016977D01*
X0224065Y0016987D01*
X0223831Y0017002D01*
X0223597Y0017023D01*
X0223363Y0017050D01*
X0223131Y0017082D01*
X0222899Y0017120D01*
X0222668Y0017164D01*
X0222438Y0017213D01*
X0222210Y0017268D01*
X0221983Y0017328D01*
X0221757Y0017393D01*
X0221534Y0017464D01*
X0221311Y0017541D01*
X0221091Y0017623D01*
X0220873Y0017710D01*
X0220657Y0017802D01*
X0220444Y0017900D01*
X0220232Y0018002D01*
X0220024Y0018110D01*
X0219818Y0018223D01*
X0219614Y0018340D01*
X0219414Y0018463D01*
X0219217Y0018590D01*
X0219022Y0018722D01*
X0218831Y0018859D01*
X0218644Y0019000D01*
X0218460Y0019146D01*
X0218279Y0019296D01*
X0218102Y0019451D01*
X0217929Y0019610D01*
X0217760Y0019773D01*
X0217595Y0019939D01*
X0217434Y0020110D01*
X0217277Y0020285D01*
X0217124Y0020464D01*
X0216976Y0020646D01*
X0216832Y0020831D01*
X0216693Y0021020D01*
X0216558Y0021213D01*
X0216428Y0021408D01*
X0216302Y0021607D01*
X0216182Y0021809D01*
X0216066Y0022013D01*
X0215956Y0022220D01*
X0215850Y0022430D01*
X0215750Y0022642D01*
X0215655Y0022857D01*
X0215565Y0023074D01*
X0215480Y0023293D01*
X0215400Y0023514D01*
X0215326Y0023737D01*
X0215257Y0023961D01*
X0215194Y0024188D01*
X0215136Y0024415D01*
X0215084Y0024644D01*
X0215037Y0024874D01*
X0214996Y0025106D01*
X0214961Y0025338D01*
X0214931Y0025571D01*
X0214907Y0025804D01*
X0214888Y0026038D01*
X0214875Y0026273D01*
X0214868Y0026508D01*
X0214866Y0026743D01*
X0214870Y0026977D01*
X0424300Y0151977D02*
X0424552Y0151981D01*
X0424805Y0151979D01*
X0425057Y0151970D01*
X0425309Y0151955D01*
X0425561Y0151935D01*
X0425812Y0151908D01*
X0426062Y0151874D01*
X0426312Y0151835D01*
X0426560Y0151790D01*
X0426807Y0151738D01*
X0427053Y0151681D01*
X0427297Y0151617D01*
X0427540Y0151547D01*
X0427781Y0151472D01*
X0428020Y0151391D01*
X0428257Y0151303D01*
X0428492Y0151210D01*
X0428724Y0151112D01*
X0428954Y0151007D01*
X0429182Y0150897D01*
X0429406Y0150782D01*
X0429628Y0150661D01*
X0429846Y0150534D01*
X0430062Y0150402D01*
X0430274Y0150265D01*
X0430483Y0150123D01*
X0430688Y0149976D01*
X0430889Y0149824D01*
X0431087Y0149666D01*
X0431281Y0149504D01*
X0431470Y0149338D01*
X0431656Y0149166D01*
X0431837Y0148991D01*
X0432014Y0148810D01*
X0432186Y0148626D01*
X0432354Y0148437D01*
X0432518Y0148245D01*
X0432676Y0148048D01*
X0432830Y0147848D01*
X0432978Y0147643D01*
X0433122Y0147436D01*
X0433260Y0147224D01*
X0433393Y0147010D01*
X0433521Y0146792D01*
X0433644Y0146571D01*
X0433761Y0146347D01*
X0433872Y0146121D01*
X0433978Y0145892D01*
X0434078Y0145660D01*
X0434173Y0145426D01*
X0434261Y0145189D01*
X0434344Y0144951D01*
X0434421Y0144710D01*
X0434492Y0144468D01*
X0434558Y0144224D01*
X0434617Y0143978D01*
X0434670Y0143732D01*
X0434717Y0143483D01*
X0434758Y0143234D01*
X0434793Y0142984D01*
X0434821Y0142733D01*
X0434844Y0142482D01*
X0434860Y0142230D01*
X0434870Y0141977D01*
D11*
X0129590Y0102463D02*
X0130029Y0102777D01*
X0130029Y0102776D02*
X0130118Y0102656D01*
X0130210Y0102538D01*
X0130306Y0102423D01*
X0130404Y0102310D01*
X0130505Y0102200D01*
X0130609Y0102092D01*
X0130716Y0101988D01*
X0130826Y0101886D01*
X0130938Y0101787D01*
X0131052Y0101691D01*
X0131170Y0101598D01*
X0131289Y0101508D01*
X0131411Y0101421D01*
X0131535Y0101337D01*
X0131661Y0101257D01*
X0131790Y0101180D01*
X0131920Y0101106D01*
X0132052Y0101036D01*
X0132186Y0100969D01*
X0132322Y0100906D01*
X0132459Y0100847D01*
X0132597Y0100790D01*
X0132738Y0100738D01*
X0132879Y0100689D01*
X0133022Y0100644D01*
X0133166Y0100603D01*
X0133310Y0100566D01*
X0133456Y0100532D01*
X0133603Y0100502D01*
X0133750Y0100476D01*
X0133898Y0100454D01*
X0134047Y0100435D01*
X0134196Y0100421D01*
X0134345Y0100410D01*
X0134494Y0100404D01*
X0134644Y0100401D01*
X0134644Y0099862D01*
X0134644Y0099861D01*
X0134489Y0099864D01*
X0134334Y0099870D01*
X0134179Y0099881D01*
X0134024Y0099895D01*
X0133870Y0099913D01*
X0133716Y0099935D01*
X0133563Y0099960D01*
X0133411Y0099990D01*
X0133259Y0100023D01*
X0133108Y0100060D01*
X0132958Y0100100D01*
X0132809Y0100145D01*
X0132662Y0100193D01*
X0132515Y0100244D01*
X0132370Y0100300D01*
X0132227Y0100358D01*
X0132084Y0100421D01*
X0131944Y0100487D01*
X0131805Y0100556D01*
X0131668Y0100629D01*
X0131532Y0100705D01*
X0131399Y0100784D01*
X0131268Y0100867D01*
X0131138Y0100953D01*
X0131011Y0101042D01*
X0130886Y0101134D01*
X0130764Y0101230D01*
X0130644Y0101328D01*
X0130526Y0101429D01*
X0130411Y0101533D01*
X0130298Y0101640D01*
X0130188Y0101750D01*
X0130081Y0101862D01*
X0129977Y0101977D01*
X0129876Y0102095D01*
X0129777Y0102215D01*
X0129682Y0102338D01*
X0129589Y0102462D01*
X0129635Y0102495D01*
X0129727Y0102371D01*
X0129821Y0102250D01*
X0129919Y0102131D01*
X0130019Y0102014D01*
X0130123Y0101900D01*
X0130229Y0101789D01*
X0130337Y0101680D01*
X0130449Y0101574D01*
X0130563Y0101471D01*
X0130680Y0101371D01*
X0130799Y0101273D01*
X0130920Y0101179D01*
X0131044Y0101087D01*
X0131170Y0100999D01*
X0131298Y0100914D01*
X0131428Y0100832D01*
X0131560Y0100753D01*
X0131695Y0100678D01*
X0131831Y0100606D01*
X0131968Y0100537D01*
X0132107Y0100472D01*
X0132248Y0100410D01*
X0132391Y0100352D01*
X0132535Y0100297D01*
X0132680Y0100246D01*
X0132826Y0100198D01*
X0132973Y0100154D01*
X0133122Y0100114D01*
X0133271Y0100077D01*
X0133422Y0100045D01*
X0133573Y0100015D01*
X0133724Y0099990D01*
X0133877Y0099968D01*
X0134030Y0099951D01*
X0134183Y0099936D01*
X0134336Y0099926D01*
X0134490Y0099920D01*
X0134644Y0099917D01*
X0134644Y0099973D01*
X0134487Y0099976D01*
X0134331Y0099983D01*
X0134175Y0099993D01*
X0134019Y0100008D01*
X0133863Y0100027D01*
X0133708Y0100049D01*
X0133554Y0100076D01*
X0133400Y0100106D01*
X0133248Y0100140D01*
X0133096Y0100179D01*
X0132945Y0100221D01*
X0132795Y0100267D01*
X0132647Y0100316D01*
X0132500Y0100370D01*
X0132354Y0100427D01*
X0132210Y0100488D01*
X0132067Y0100552D01*
X0131926Y0100620D01*
X0131787Y0100692D01*
X0131649Y0100767D01*
X0131514Y0100846D01*
X0131381Y0100928D01*
X0131249Y0101013D01*
X0131120Y0101102D01*
X0130994Y0101194D01*
X0130869Y0101289D01*
X0130747Y0101387D01*
X0130628Y0101489D01*
X0130511Y0101593D01*
X0130397Y0101700D01*
X0130286Y0101810D01*
X0130178Y0101923D01*
X0130072Y0102039D01*
X0129970Y0102157D01*
X0129870Y0102278D01*
X0129774Y0102402D01*
X0129681Y0102527D01*
X0129726Y0102560D01*
X0129818Y0102435D01*
X0129914Y0102313D01*
X0130013Y0102193D01*
X0130114Y0102076D01*
X0130219Y0101961D01*
X0130326Y0101850D01*
X0130436Y0101740D01*
X0130549Y0101634D01*
X0130665Y0101531D01*
X0130783Y0101430D01*
X0130904Y0101333D01*
X0131027Y0101239D01*
X0131153Y0101147D01*
X0131281Y0101060D01*
X0131411Y0100975D01*
X0131543Y0100894D01*
X0131677Y0100816D01*
X0131813Y0100741D01*
X0131951Y0100670D01*
X0132091Y0100603D01*
X0132232Y0100539D01*
X0132375Y0100479D01*
X0132519Y0100422D01*
X0132665Y0100369D01*
X0132812Y0100320D01*
X0132961Y0100274D01*
X0133110Y0100233D01*
X0133261Y0100195D01*
X0133412Y0100161D01*
X0133564Y0100131D01*
X0133717Y0100105D01*
X0133871Y0100082D01*
X0134025Y0100064D01*
X0134179Y0100049D01*
X0134334Y0100038D01*
X0134489Y0100032D01*
X0134644Y0100029D01*
X0134644Y0100085D01*
X0134490Y0100088D01*
X0134337Y0100094D01*
X0134183Y0100105D01*
X0134030Y0100119D01*
X0133878Y0100138D01*
X0133726Y0100160D01*
X0133574Y0100186D01*
X0133423Y0100216D01*
X0133273Y0100249D01*
X0133124Y0100287D01*
X0132976Y0100328D01*
X0132829Y0100373D01*
X0132684Y0100422D01*
X0132539Y0100474D01*
X0132396Y0100531D01*
X0132254Y0100590D01*
X0132114Y0100654D01*
X0131976Y0100720D01*
X0131839Y0100791D01*
X0131704Y0100865D01*
X0131572Y0100942D01*
X0131441Y0101022D01*
X0131312Y0101106D01*
X0131185Y0101193D01*
X0131061Y0101283D01*
X0130939Y0101377D01*
X0130819Y0101473D01*
X0130702Y0101573D01*
X0130587Y0101675D01*
X0130475Y0101781D01*
X0130366Y0101889D01*
X0130260Y0102000D01*
X0130156Y0102113D01*
X0130055Y0102229D01*
X0129958Y0102348D01*
X0129863Y0102469D01*
X0129772Y0102592D01*
X0129817Y0102625D01*
X0129908Y0102503D01*
X0130002Y0102383D01*
X0130098Y0102265D01*
X0130198Y0102150D01*
X0130301Y0102038D01*
X0130406Y0101928D01*
X0130514Y0101821D01*
X0130625Y0101716D01*
X0130739Y0101615D01*
X0130855Y0101516D01*
X0130973Y0101421D01*
X0131094Y0101328D01*
X0131218Y0101239D01*
X0131343Y0101153D01*
X0131471Y0101070D01*
X0131600Y0100990D01*
X0131732Y0100913D01*
X0131866Y0100840D01*
X0132001Y0100771D01*
X0132138Y0100704D01*
X0132277Y0100642D01*
X0132417Y0100582D01*
X0132559Y0100527D01*
X0132702Y0100475D01*
X0132846Y0100427D01*
X0132992Y0100382D01*
X0133139Y0100341D01*
X0133286Y0100304D01*
X0133435Y0100271D01*
X0133584Y0100241D01*
X0133734Y0100215D01*
X0133885Y0100193D01*
X0134036Y0100175D01*
X0134188Y0100161D01*
X0134340Y0100150D01*
X0134492Y0100144D01*
X0134644Y0100141D01*
X0134644Y0100197D01*
X0134493Y0100200D01*
X0134342Y0100206D01*
X0134192Y0100217D01*
X0134042Y0100231D01*
X0133892Y0100249D01*
X0133743Y0100271D01*
X0133594Y0100296D01*
X0133446Y0100325D01*
X0133299Y0100358D01*
X0133153Y0100395D01*
X0133008Y0100436D01*
X0132863Y0100480D01*
X0132720Y0100528D01*
X0132579Y0100579D01*
X0132438Y0100634D01*
X0132299Y0100693D01*
X0132162Y0100755D01*
X0132026Y0100821D01*
X0131892Y0100890D01*
X0131759Y0100962D01*
X0131629Y0101038D01*
X0131501Y0101117D01*
X0131374Y0101199D01*
X0131250Y0101285D01*
X0131128Y0101373D01*
X0131008Y0101465D01*
X0130891Y0101559D01*
X0130776Y0101657D01*
X0130663Y0101758D01*
X0130553Y0101861D01*
X0130446Y0101967D01*
X0130342Y0102076D01*
X0130240Y0102187D01*
X0130141Y0102301D01*
X0130045Y0102418D01*
X0129953Y0102536D01*
X0129863Y0102658D01*
X0129908Y0102690D01*
X0129997Y0102570D01*
X0130089Y0102452D01*
X0130184Y0102337D01*
X0130282Y0102224D01*
X0130383Y0102114D01*
X0130486Y0102006D01*
X0130592Y0101901D01*
X0130701Y0101799D01*
X0130813Y0101699D01*
X0130927Y0101603D01*
X0131043Y0101509D01*
X0131161Y0101418D01*
X0131282Y0101330D01*
X0131405Y0101246D01*
X0131531Y0101164D01*
X0131658Y0101086D01*
X0131787Y0101011D01*
X0131918Y0100939D01*
X0132051Y0100871D01*
X0132185Y0100806D01*
X0132322Y0100744D01*
X0132459Y0100686D01*
X0132598Y0100632D01*
X0132739Y0100581D01*
X0132880Y0100533D01*
X0133023Y0100490D01*
X0133167Y0100449D01*
X0133312Y0100413D01*
X0133458Y0100380D01*
X0133604Y0100351D01*
X0133751Y0100326D01*
X0133899Y0100304D01*
X0134048Y0100286D01*
X0134196Y0100272D01*
X0134345Y0100262D01*
X0134495Y0100256D01*
X0134644Y0100253D01*
X0134644Y0100309D01*
X0134492Y0100312D01*
X0134340Y0100319D01*
X0134188Y0100329D01*
X0134037Y0100344D01*
X0133886Y0100363D01*
X0133736Y0100385D01*
X0133586Y0100412D01*
X0133437Y0100442D01*
X0133289Y0100476D01*
X0133142Y0100514D01*
X0132995Y0100556D01*
X0132850Y0100602D01*
X0132707Y0100651D01*
X0132564Y0100705D01*
X0132423Y0100762D01*
X0132284Y0100822D01*
X0132146Y0100886D01*
X0132010Y0100954D01*
X0131876Y0101026D01*
X0131743Y0101100D01*
X0131613Y0101179D01*
X0131485Y0101260D01*
X0131358Y0101345D01*
X0131235Y0101434D01*
X0131113Y0101525D01*
X0130994Y0101619D01*
X0130878Y0101717D01*
X0130764Y0101818D01*
X0130652Y0101921D01*
X0130544Y0102028D01*
X0130438Y0102137D01*
X0130335Y0102249D01*
X0130235Y0102364D01*
X0130138Y0102481D01*
X0130045Y0102601D01*
X0129954Y0102723D01*
X0129999Y0102755D01*
X0130089Y0102634D01*
X0130182Y0102516D01*
X0130278Y0102400D01*
X0130377Y0102286D01*
X0130479Y0102175D01*
X0130584Y0102067D01*
X0130691Y0101962D01*
X0130801Y0101859D01*
X0130914Y0101759D01*
X0131030Y0101663D01*
X0131147Y0101569D01*
X0131268Y0101479D01*
X0131390Y0101391D01*
X0131515Y0101307D01*
X0131642Y0101226D01*
X0131771Y0101149D01*
X0131903Y0101075D01*
X0132036Y0101004D01*
X0132170Y0100937D01*
X0132307Y0100873D01*
X0132445Y0100813D01*
X0132584Y0100757D01*
X0132726Y0100704D01*
X0132868Y0100655D01*
X0133011Y0100610D01*
X0133156Y0100568D01*
X0133302Y0100531D01*
X0133449Y0100497D01*
X0133596Y0100467D01*
X0133744Y0100440D01*
X0133893Y0100418D01*
X0134043Y0100400D01*
X0134193Y0100385D01*
X0134343Y0100375D01*
X0134493Y0100368D01*
X0134644Y0100365D01*
X0139604Y0110003D02*
X0139178Y0109672D01*
X0139179Y0109672D02*
X0139086Y0109787D01*
X0138991Y0109899D01*
X0138893Y0110009D01*
X0138792Y0110116D01*
X0138688Y0110220D01*
X0138581Y0110322D01*
X0138472Y0110421D01*
X0138361Y0110517D01*
X0138247Y0110611D01*
X0138131Y0110701D01*
X0138012Y0110788D01*
X0137891Y0110872D01*
X0137769Y0110953D01*
X0137644Y0111031D01*
X0137517Y0111106D01*
X0137388Y0111177D01*
X0137258Y0111246D01*
X0137125Y0111310D01*
X0136991Y0111371D01*
X0136856Y0111429D01*
X0136719Y0111484D01*
X0136581Y0111534D01*
X0136441Y0111582D01*
X0136301Y0111625D01*
X0136159Y0111665D01*
X0136017Y0111702D01*
X0135873Y0111734D01*
X0135729Y0111763D01*
X0135584Y0111788D01*
X0135438Y0111810D01*
X0135292Y0111828D01*
X0135145Y0111842D01*
X0134998Y0111852D01*
X0134851Y0111858D01*
X0134704Y0111861D01*
X0134704Y0112400D01*
X0134704Y0112401D01*
X0134861Y0112398D01*
X0135017Y0112392D01*
X0135174Y0112381D01*
X0135330Y0112367D01*
X0135486Y0112348D01*
X0135641Y0112326D01*
X0135795Y0112300D01*
X0135949Y0112270D01*
X0136102Y0112236D01*
X0136255Y0112198D01*
X0136406Y0112157D01*
X0136556Y0112112D01*
X0136705Y0112063D01*
X0136853Y0112010D01*
X0136999Y0111954D01*
X0137144Y0111894D01*
X0137287Y0111830D01*
X0137429Y0111763D01*
X0137569Y0111693D01*
X0137707Y0111619D01*
X0137843Y0111541D01*
X0137978Y0111460D01*
X0138110Y0111376D01*
X0138240Y0111288D01*
X0138368Y0111198D01*
X0138493Y0111104D01*
X0138616Y0111007D01*
X0138737Y0110906D01*
X0138855Y0110803D01*
X0138971Y0110697D01*
X0139083Y0110589D01*
X0139194Y0110477D01*
X0139301Y0110363D01*
X0139405Y0110246D01*
X0139507Y0110126D01*
X0139605Y0110004D01*
X0139561Y0109969D01*
X0139463Y0110090D01*
X0139363Y0110209D01*
X0139259Y0110325D01*
X0139153Y0110438D01*
X0139044Y0110549D01*
X0138932Y0110657D01*
X0138818Y0110762D01*
X0138701Y0110864D01*
X0138581Y0110963D01*
X0138459Y0111059D01*
X0138335Y0111152D01*
X0138208Y0111242D01*
X0138079Y0111329D01*
X0137948Y0111413D01*
X0137815Y0111493D01*
X0137680Y0111570D01*
X0137543Y0111643D01*
X0137404Y0111713D01*
X0137264Y0111780D01*
X0137122Y0111843D01*
X0136978Y0111902D01*
X0136833Y0111958D01*
X0136687Y0112010D01*
X0136539Y0112058D01*
X0136391Y0112103D01*
X0136241Y0112144D01*
X0136090Y0112182D01*
X0135938Y0112215D01*
X0135786Y0112245D01*
X0135632Y0112271D01*
X0135479Y0112293D01*
X0135324Y0112311D01*
X0135170Y0112325D01*
X0135015Y0112336D01*
X0134859Y0112342D01*
X0134704Y0112345D01*
X0134704Y0112289D01*
X0134858Y0112286D01*
X0135012Y0112280D01*
X0135165Y0112269D01*
X0135319Y0112255D01*
X0135472Y0112237D01*
X0135624Y0112215D01*
X0135776Y0112190D01*
X0135927Y0112160D01*
X0136077Y0112127D01*
X0136227Y0112090D01*
X0136375Y0112049D01*
X0136523Y0112005D01*
X0136669Y0111957D01*
X0136814Y0111905D01*
X0136958Y0111850D01*
X0137100Y0111791D01*
X0137241Y0111729D01*
X0137380Y0111663D01*
X0137517Y0111593D01*
X0137653Y0111521D01*
X0137787Y0111444D01*
X0137918Y0111365D01*
X0138048Y0111282D01*
X0138176Y0111196D01*
X0138301Y0111107D01*
X0138425Y0111015D01*
X0138546Y0110920D01*
X0138664Y0110821D01*
X0138780Y0110720D01*
X0138894Y0110616D01*
X0139004Y0110509D01*
X0139113Y0110400D01*
X0139218Y0110287D01*
X0139320Y0110172D01*
X0139420Y0110055D01*
X0139516Y0109935D01*
X0139472Y0109901D01*
X0139377Y0110019D01*
X0139278Y0110136D01*
X0139176Y0110250D01*
X0139072Y0110361D01*
X0138965Y0110470D01*
X0138855Y0110575D01*
X0138743Y0110679D01*
X0138628Y0110779D01*
X0138510Y0110876D01*
X0138391Y0110971D01*
X0138268Y0111062D01*
X0138144Y0111150D01*
X0138017Y0111235D01*
X0137889Y0111317D01*
X0137758Y0111396D01*
X0137626Y0111472D01*
X0137491Y0111544D01*
X0137355Y0111612D01*
X0137217Y0111678D01*
X0137078Y0111740D01*
X0136937Y0111798D01*
X0136794Y0111853D01*
X0136651Y0111904D01*
X0136506Y0111952D01*
X0136360Y0111996D01*
X0136213Y0112036D01*
X0136065Y0112072D01*
X0135916Y0112105D01*
X0135766Y0112135D01*
X0135616Y0112160D01*
X0135465Y0112182D01*
X0135313Y0112199D01*
X0135161Y0112214D01*
X0135009Y0112224D01*
X0134857Y0112230D01*
X0134704Y0112233D01*
X0134704Y0112177D01*
X0134855Y0112174D01*
X0135006Y0112168D01*
X0135157Y0112158D01*
X0135307Y0112144D01*
X0135457Y0112126D01*
X0135607Y0112105D01*
X0135756Y0112079D01*
X0135904Y0112050D01*
X0136052Y0112018D01*
X0136199Y0111982D01*
X0136344Y0111942D01*
X0136489Y0111898D01*
X0136633Y0111851D01*
X0136775Y0111800D01*
X0136916Y0111746D01*
X0137056Y0111688D01*
X0137194Y0111627D01*
X0137330Y0111562D01*
X0137465Y0111494D01*
X0137599Y0111423D01*
X0137730Y0111348D01*
X0137859Y0111270D01*
X0137987Y0111189D01*
X0138112Y0111104D01*
X0138235Y0111017D01*
X0138356Y0110926D01*
X0138475Y0110833D01*
X0138591Y0110736D01*
X0138705Y0110637D01*
X0138817Y0110535D01*
X0138925Y0110430D01*
X0139031Y0110322D01*
X0139135Y0110212D01*
X0139235Y0110099D01*
X0139333Y0109984D01*
X0139428Y0109866D01*
X0139384Y0109832D01*
X0139287Y0109952D01*
X0139187Y0110069D01*
X0139085Y0110184D01*
X0138979Y0110296D01*
X0138871Y0110405D01*
X0138759Y0110512D01*
X0138645Y0110615D01*
X0138529Y0110716D01*
X0138410Y0110813D01*
X0138288Y0110908D01*
X0138164Y0110999D01*
X0138038Y0111087D01*
X0137909Y0111172D01*
X0137779Y0111254D01*
X0137646Y0111332D01*
X0137511Y0111406D01*
X0137375Y0111478D01*
X0137236Y0111545D01*
X0137096Y0111609D01*
X0136955Y0111670D01*
X0136812Y0111727D01*
X0136667Y0111780D01*
X0136521Y0111829D01*
X0136374Y0111875D01*
X0136226Y0111916D01*
X0136077Y0111954D01*
X0135927Y0111989D01*
X0135776Y0112019D01*
X0135624Y0112045D01*
X0135472Y0112068D01*
X0135319Y0112086D01*
X0135165Y0112101D01*
X0135012Y0112111D01*
X0134858Y0112118D01*
X0134704Y0112121D01*
X0134704Y0112065D01*
X0134857Y0112062D01*
X0135009Y0112056D01*
X0135161Y0112045D01*
X0135313Y0112031D01*
X0135464Y0112012D01*
X0135615Y0111990D01*
X0135766Y0111964D01*
X0135915Y0111934D01*
X0136064Y0111900D01*
X0136212Y0111862D01*
X0136358Y0111821D01*
X0136504Y0111776D01*
X0136649Y0111727D01*
X0136792Y0111674D01*
X0136934Y0111618D01*
X0137074Y0111558D01*
X0137213Y0111495D01*
X0137350Y0111428D01*
X0137485Y0111357D01*
X0137618Y0111283D01*
X0137750Y0111206D01*
X0137879Y0111125D01*
X0138006Y0111041D01*
X0138131Y0110954D01*
X0138254Y0110863D01*
X0138375Y0110770D01*
X0138493Y0110673D01*
X0138608Y0110573D01*
X0138721Y0110471D01*
X0138831Y0110365D01*
X0138939Y0110257D01*
X0139043Y0110146D01*
X0139145Y0110032D01*
X0139244Y0109916D01*
X0139340Y0109798D01*
X0139295Y0109763D01*
X0139201Y0109881D01*
X0139103Y0109996D01*
X0139002Y0110108D01*
X0138898Y0110218D01*
X0138792Y0110326D01*
X0138683Y0110430D01*
X0138571Y0110532D01*
X0138457Y0110630D01*
X0138340Y0110726D01*
X0138220Y0110819D01*
X0138099Y0110908D01*
X0137975Y0110995D01*
X0137849Y0111078D01*
X0137721Y0111158D01*
X0137590Y0111235D01*
X0137458Y0111308D01*
X0137324Y0111378D01*
X0137189Y0111444D01*
X0137051Y0111507D01*
X0136912Y0111566D01*
X0136772Y0111622D01*
X0136630Y0111674D01*
X0136487Y0111722D01*
X0136343Y0111767D01*
X0136197Y0111808D01*
X0136051Y0111845D01*
X0135904Y0111879D01*
X0135755Y0111909D01*
X0135607Y0111935D01*
X0135457Y0111957D01*
X0135307Y0111975D01*
X0135157Y0111989D01*
X0135006Y0112000D01*
X0134855Y0112006D01*
X0134704Y0112009D01*
X0134704Y0111953D01*
X0134854Y0111950D01*
X0135003Y0111944D01*
X0135152Y0111933D01*
X0135301Y0111919D01*
X0135450Y0111901D01*
X0135598Y0111879D01*
X0135745Y0111854D01*
X0135892Y0111824D01*
X0136038Y0111791D01*
X0136183Y0111754D01*
X0136327Y0111713D01*
X0136470Y0111669D01*
X0136611Y0111621D01*
X0136752Y0111570D01*
X0136891Y0111514D01*
X0137029Y0111456D01*
X0137165Y0111393D01*
X0137299Y0111328D01*
X0137432Y0111258D01*
X0137563Y0111186D01*
X0137691Y0111110D01*
X0137818Y0111031D01*
X0137943Y0110948D01*
X0138066Y0110863D01*
X0138186Y0110774D01*
X0138305Y0110682D01*
X0138420Y0110587D01*
X0138534Y0110490D01*
X0138644Y0110389D01*
X0138752Y0110286D01*
X0138858Y0110180D01*
X0138961Y0110071D01*
X0139060Y0109959D01*
X0139157Y0109845D01*
X0139251Y0109729D01*
X0139207Y0109694D01*
X0139114Y0109810D01*
X0139018Y0109923D01*
X0138919Y0110033D01*
X0138818Y0110141D01*
X0138713Y0110246D01*
X0138606Y0110348D01*
X0138496Y0110448D01*
X0138384Y0110545D01*
X0138270Y0110639D01*
X0138153Y0110730D01*
X0138033Y0110817D01*
X0137912Y0110902D01*
X0137788Y0110984D01*
X0137662Y0111062D01*
X0137535Y0111137D01*
X0137405Y0111209D01*
X0137274Y0111278D01*
X0137141Y0111343D01*
X0137006Y0111404D01*
X0136870Y0111463D01*
X0136732Y0111517D01*
X0136593Y0111568D01*
X0136453Y0111616D01*
X0136311Y0111660D01*
X0136168Y0111700D01*
X0136025Y0111737D01*
X0135880Y0111769D01*
X0135735Y0111799D01*
X0135589Y0111824D01*
X0135443Y0111846D01*
X0135295Y0111863D01*
X0135148Y0111877D01*
X0135000Y0111888D01*
X0134852Y0111894D01*
X0134704Y0111897D01*
X0134703Y0099862D02*
X0134703Y0100402D01*
X0134704Y0100401D02*
X0134854Y0100404D01*
X0135004Y0100411D01*
X0135154Y0100421D01*
X0135303Y0100436D01*
X0135452Y0100454D01*
X0135600Y0100476D01*
X0135748Y0100503D01*
X0135895Y0100533D01*
X0136042Y0100567D01*
X0136187Y0100604D01*
X0136331Y0100646D01*
X0136474Y0100691D01*
X0136616Y0100740D01*
X0136757Y0100793D01*
X0136896Y0100849D01*
X0137033Y0100909D01*
X0137169Y0100973D01*
X0137303Y0101040D01*
X0137436Y0101111D01*
X0137566Y0101185D01*
X0137695Y0101262D01*
X0137821Y0101343D01*
X0137946Y0101427D01*
X0138068Y0101514D01*
X0138188Y0101605D01*
X0138305Y0101698D01*
X0138420Y0101795D01*
X0138532Y0101895D01*
X0138642Y0101997D01*
X0138749Y0102102D01*
X0138853Y0102210D01*
X0138954Y0102321D01*
X0139052Y0102435D01*
X0139148Y0102551D01*
X0139240Y0102669D01*
X0139671Y0102346D01*
X0139672Y0102345D01*
X0139577Y0102222D01*
X0139478Y0102102D01*
X0139377Y0101984D01*
X0139272Y0101869D01*
X0139165Y0101756D01*
X0139055Y0101646D01*
X0138943Y0101539D01*
X0138828Y0101434D01*
X0138710Y0101333D01*
X0138590Y0101234D01*
X0138467Y0101138D01*
X0138342Y0101046D01*
X0138215Y0100956D01*
X0138085Y0100870D01*
X0137954Y0100787D01*
X0137820Y0100707D01*
X0137685Y0100631D01*
X0137547Y0100558D01*
X0137408Y0100489D01*
X0137267Y0100423D01*
X0137125Y0100360D01*
X0136981Y0100301D01*
X0136836Y0100246D01*
X0136689Y0100194D01*
X0136541Y0100146D01*
X0136392Y0100101D01*
X0136242Y0100060D01*
X0136091Y0100023D01*
X0135939Y0099990D01*
X0135787Y0099961D01*
X0135633Y0099935D01*
X0135479Y0099913D01*
X0135325Y0099895D01*
X0135170Y0099881D01*
X0135015Y0099870D01*
X0134859Y0099864D01*
X0134704Y0099861D01*
X0134704Y0099917D01*
X0134858Y0099920D01*
X0135012Y0099926D01*
X0135166Y0099936D01*
X0135319Y0099951D01*
X0135472Y0099968D01*
X0135625Y0099990D01*
X0135777Y0100016D01*
X0135928Y0100045D01*
X0136079Y0100078D01*
X0136228Y0100115D01*
X0136377Y0100155D01*
X0136525Y0100199D01*
X0136671Y0100247D01*
X0136817Y0100298D01*
X0136961Y0100353D01*
X0137103Y0100412D01*
X0137244Y0100474D01*
X0137384Y0100539D01*
X0137522Y0100608D01*
X0137658Y0100680D01*
X0137792Y0100756D01*
X0137924Y0100835D01*
X0138055Y0100917D01*
X0138183Y0101003D01*
X0138309Y0101091D01*
X0138433Y0101183D01*
X0138554Y0101278D01*
X0138674Y0101375D01*
X0138790Y0101476D01*
X0138905Y0101579D01*
X0139016Y0101686D01*
X0139125Y0101795D01*
X0139231Y0101907D01*
X0139335Y0102021D01*
X0139435Y0102138D01*
X0139533Y0102257D01*
X0139627Y0102379D01*
X0139582Y0102412D01*
X0139489Y0102292D01*
X0139392Y0102173D01*
X0139292Y0102058D01*
X0139190Y0101944D01*
X0139085Y0101834D01*
X0138977Y0101726D01*
X0138866Y0101620D01*
X0138753Y0101518D01*
X0138637Y0101418D01*
X0138519Y0101321D01*
X0138399Y0101227D01*
X0138276Y0101137D01*
X0138151Y0101049D01*
X0138024Y0100964D01*
X0137895Y0100883D01*
X0137764Y0100804D01*
X0137631Y0100729D01*
X0137496Y0100658D01*
X0137359Y0100589D01*
X0137221Y0100525D01*
X0137081Y0100463D01*
X0136940Y0100405D01*
X0136797Y0100351D01*
X0136653Y0100300D01*
X0136508Y0100253D01*
X0136362Y0100209D01*
X0136215Y0100169D01*
X0136066Y0100132D01*
X0135917Y0100100D01*
X0135767Y0100071D01*
X0135617Y0100046D01*
X0135465Y0100024D01*
X0135314Y0100006D01*
X0135162Y0099992D01*
X0135009Y0099982D01*
X0134857Y0099976D01*
X0134704Y0099973D01*
X0134704Y0100029D01*
X0134859Y0100032D01*
X0135015Y0100039D01*
X0135170Y0100049D01*
X0135325Y0100064D01*
X0135479Y0100082D01*
X0135633Y0100105D01*
X0135786Y0100131D01*
X0135939Y0100162D01*
X0136091Y0100196D01*
X0136241Y0100234D01*
X0136391Y0100276D01*
X0136540Y0100321D01*
X0136687Y0100371D01*
X0136833Y0100424D01*
X0136978Y0100481D01*
X0137121Y0100541D01*
X0137263Y0100605D01*
X0137403Y0100673D01*
X0137541Y0100745D01*
X0137677Y0100819D01*
X0137812Y0100898D01*
X0137944Y0100979D01*
X0138074Y0101064D01*
X0138202Y0101153D01*
X0138328Y0101244D01*
X0138451Y0101339D01*
X0138572Y0101437D01*
X0138691Y0101537D01*
X0138806Y0101641D01*
X0138919Y0101748D01*
X0139030Y0101858D01*
X0139137Y0101970D01*
X0139242Y0102085D01*
X0139343Y0102203D01*
X0139442Y0102323D01*
X0139538Y0102446D01*
X0139493Y0102479D01*
X0139398Y0102358D01*
X0139300Y0102239D01*
X0139200Y0102122D01*
X0139096Y0102008D01*
X0138990Y0101897D01*
X0138880Y0101788D01*
X0138768Y0101682D01*
X0138654Y0101580D01*
X0138536Y0101480D01*
X0138417Y0101383D01*
X0138294Y0101289D01*
X0138170Y0101198D01*
X0138043Y0101111D01*
X0137914Y0101026D01*
X0137783Y0100946D01*
X0137650Y0100868D01*
X0137515Y0100794D01*
X0137378Y0100723D01*
X0137239Y0100656D01*
X0137099Y0100593D01*
X0136957Y0100533D01*
X0136814Y0100476D01*
X0136669Y0100424D01*
X0136523Y0100375D01*
X0136375Y0100329D01*
X0136227Y0100288D01*
X0136078Y0100250D01*
X0135927Y0100216D01*
X0135776Y0100186D01*
X0135624Y0100160D01*
X0135472Y0100138D01*
X0135319Y0100120D01*
X0135166Y0100105D01*
X0135012Y0100094D01*
X0134858Y0100088D01*
X0134704Y0100085D01*
X0134704Y0100141D01*
X0134857Y0100144D01*
X0135009Y0100150D01*
X0135161Y0100161D01*
X0135313Y0100175D01*
X0135465Y0100193D01*
X0135616Y0100216D01*
X0135766Y0100241D01*
X0135916Y0100271D01*
X0136065Y0100305D01*
X0136213Y0100342D01*
X0136360Y0100383D01*
X0136506Y0100428D01*
X0136650Y0100476D01*
X0136794Y0100529D01*
X0136936Y0100584D01*
X0137076Y0100644D01*
X0137215Y0100707D01*
X0137353Y0100773D01*
X0137488Y0100843D01*
X0137622Y0100917D01*
X0137754Y0100994D01*
X0137884Y0101074D01*
X0138012Y0101157D01*
X0138137Y0101244D01*
X0138261Y0101334D01*
X0138382Y0101427D01*
X0138501Y0101523D01*
X0138617Y0101622D01*
X0138730Y0101723D01*
X0138841Y0101828D01*
X0138950Y0101936D01*
X0139055Y0102046D01*
X0139158Y0102159D01*
X0139257Y0102275D01*
X0139354Y0102393D01*
X0139448Y0102513D01*
X0139403Y0102547D01*
X0139310Y0102427D01*
X0139214Y0102310D01*
X0139116Y0102196D01*
X0139014Y0102084D01*
X0138909Y0101975D01*
X0138802Y0101868D01*
X0138692Y0101765D01*
X0138580Y0101664D01*
X0138465Y0101566D01*
X0138347Y0101470D01*
X0138227Y0101378D01*
X0138105Y0101289D01*
X0137981Y0101204D01*
X0137854Y0101121D01*
X0137725Y0101042D01*
X0137595Y0100966D01*
X0137462Y0100893D01*
X0137328Y0100823D01*
X0137192Y0100758D01*
X0137054Y0100695D01*
X0136915Y0100636D01*
X0136774Y0100581D01*
X0136632Y0100529D01*
X0136489Y0100481D01*
X0136344Y0100437D01*
X0136199Y0100396D01*
X0136052Y0100359D01*
X0135904Y0100326D01*
X0135756Y0100297D01*
X0135607Y0100271D01*
X0135458Y0100249D01*
X0135308Y0100231D01*
X0135157Y0100217D01*
X0135006Y0100206D01*
X0134855Y0100200D01*
X0134704Y0100197D01*
X0134704Y0100253D01*
X0134854Y0100256D01*
X0135003Y0100262D01*
X0135153Y0100273D01*
X0135302Y0100287D01*
X0135450Y0100305D01*
X0135599Y0100326D01*
X0135746Y0100352D01*
X0135893Y0100381D01*
X0136039Y0100414D01*
X0136184Y0100450D01*
X0136328Y0100491D01*
X0136472Y0100535D01*
X0136614Y0100582D01*
X0136754Y0100633D01*
X0136894Y0100688D01*
X0137032Y0100747D01*
X0137168Y0100808D01*
X0137303Y0100874D01*
X0137436Y0100942D01*
X0137567Y0101014D01*
X0137696Y0101090D01*
X0137824Y0101168D01*
X0137949Y0101250D01*
X0138073Y0101335D01*
X0138194Y0101423D01*
X0138312Y0101514D01*
X0138429Y0101609D01*
X0138543Y0101706D01*
X0138654Y0101806D01*
X0138763Y0101908D01*
X0138869Y0102014D01*
X0138973Y0102122D01*
X0139074Y0102233D01*
X0139171Y0102346D01*
X0139266Y0102462D01*
X0139358Y0102580D01*
X0139314Y0102614D01*
X0139222Y0102497D01*
X0139128Y0102382D01*
X0139031Y0102270D01*
X0138932Y0102160D01*
X0138829Y0102053D01*
X0138724Y0101949D01*
X0138616Y0101847D01*
X0138506Y0101748D01*
X0138393Y0101652D01*
X0138278Y0101558D01*
X0138160Y0101468D01*
X0138040Y0101381D01*
X0137918Y0101297D01*
X0137794Y0101215D01*
X0137668Y0101138D01*
X0137539Y0101063D01*
X0137409Y0100992D01*
X0137278Y0100924D01*
X0137144Y0100859D01*
X0137009Y0100798D01*
X0136873Y0100740D01*
X0136735Y0100686D01*
X0136595Y0100635D01*
X0136455Y0100588D01*
X0136313Y0100544D01*
X0136170Y0100504D01*
X0136026Y0100468D01*
X0135882Y0100436D01*
X0135736Y0100407D01*
X0135590Y0100382D01*
X0135443Y0100360D01*
X0135296Y0100342D01*
X0135148Y0100328D01*
X0135000Y0100318D01*
X0134852Y0100312D01*
X0134704Y0100309D01*
X0134704Y0100365D01*
X0134855Y0100368D01*
X0135006Y0100375D01*
X0135157Y0100385D01*
X0135307Y0100400D01*
X0135457Y0100418D01*
X0135606Y0100441D01*
X0135755Y0100467D01*
X0135903Y0100497D01*
X0136050Y0100532D01*
X0136196Y0100570D01*
X0136341Y0100611D01*
X0136485Y0100657D01*
X0136628Y0100706D01*
X0136770Y0100759D01*
X0136910Y0100816D01*
X0137048Y0100876D01*
X0137185Y0100940D01*
X0137320Y0101008D01*
X0137453Y0101079D01*
X0137585Y0101154D01*
X0137714Y0101231D01*
X0137841Y0101313D01*
X0137966Y0101397D01*
X0138089Y0101485D01*
X0138210Y0101576D01*
X0138328Y0101671D01*
X0138443Y0101768D01*
X0138556Y0101868D01*
X0138667Y0101971D01*
X0138774Y0102077D01*
X0138879Y0102186D01*
X0138981Y0102297D01*
X0139080Y0102412D01*
X0139176Y0102528D01*
X0139269Y0102647D01*
X0134644Y0112400D02*
X0134644Y0111860D01*
X0134644Y0111861D02*
X0134497Y0111858D01*
X0134350Y0111852D01*
X0134203Y0111842D01*
X0134056Y0111828D01*
X0133910Y0111810D01*
X0133764Y0111788D01*
X0133619Y0111763D01*
X0133475Y0111734D01*
X0133331Y0111702D01*
X0133189Y0111665D01*
X0133047Y0111625D01*
X0132907Y0111582D01*
X0132767Y0111534D01*
X0132629Y0111484D01*
X0132492Y0111429D01*
X0132357Y0111371D01*
X0132223Y0111310D01*
X0132090Y0111246D01*
X0131960Y0111177D01*
X0131831Y0111106D01*
X0131704Y0111031D01*
X0131579Y0110953D01*
X0131457Y0110872D01*
X0131336Y0110788D01*
X0131217Y0110701D01*
X0131101Y0110611D01*
X0130987Y0110517D01*
X0130876Y0110421D01*
X0130767Y0110322D01*
X0130660Y0110220D01*
X0130556Y0110116D01*
X0130455Y0110009D01*
X0130357Y0109899D01*
X0130262Y0109787D01*
X0130169Y0109672D01*
X0129744Y0110003D01*
X0129743Y0110004D01*
X0129841Y0110126D01*
X0129943Y0110246D01*
X0130047Y0110363D01*
X0130154Y0110477D01*
X0130265Y0110589D01*
X0130377Y0110697D01*
X0130493Y0110803D01*
X0130611Y0110906D01*
X0130732Y0111007D01*
X0130855Y0111104D01*
X0130980Y0111198D01*
X0131108Y0111288D01*
X0131238Y0111376D01*
X0131370Y0111460D01*
X0131505Y0111541D01*
X0131641Y0111619D01*
X0131779Y0111693D01*
X0131919Y0111763D01*
X0132061Y0111830D01*
X0132204Y0111894D01*
X0132349Y0111954D01*
X0132495Y0112010D01*
X0132643Y0112063D01*
X0132792Y0112112D01*
X0132942Y0112157D01*
X0133093Y0112198D01*
X0133246Y0112236D01*
X0133399Y0112270D01*
X0133553Y0112300D01*
X0133707Y0112326D01*
X0133862Y0112348D01*
X0134018Y0112367D01*
X0134174Y0112381D01*
X0134331Y0112392D01*
X0134487Y0112398D01*
X0134644Y0112401D01*
X0134644Y0112345D01*
X0134489Y0112342D01*
X0134333Y0112336D01*
X0134178Y0112325D01*
X0134024Y0112311D01*
X0133869Y0112293D01*
X0133716Y0112271D01*
X0133562Y0112245D01*
X0133410Y0112215D01*
X0133258Y0112182D01*
X0133107Y0112144D01*
X0132957Y0112103D01*
X0132809Y0112058D01*
X0132661Y0112010D01*
X0132515Y0111958D01*
X0132370Y0111902D01*
X0132226Y0111843D01*
X0132084Y0111780D01*
X0131944Y0111713D01*
X0131805Y0111643D01*
X0131668Y0111570D01*
X0131533Y0111493D01*
X0131400Y0111413D01*
X0131269Y0111329D01*
X0131140Y0111242D01*
X0131013Y0111152D01*
X0130889Y0111059D01*
X0130767Y0110963D01*
X0130647Y0110864D01*
X0130530Y0110762D01*
X0130416Y0110657D01*
X0130304Y0110549D01*
X0130195Y0110438D01*
X0130089Y0110325D01*
X0129985Y0110209D01*
X0129885Y0110090D01*
X0129787Y0109969D01*
X0129832Y0109935D01*
X0129928Y0110055D01*
X0130028Y0110172D01*
X0130130Y0110287D01*
X0130235Y0110400D01*
X0130344Y0110509D01*
X0130454Y0110616D01*
X0130568Y0110720D01*
X0130684Y0110821D01*
X0130802Y0110920D01*
X0130923Y0111015D01*
X0131047Y0111107D01*
X0131172Y0111196D01*
X0131300Y0111282D01*
X0131430Y0111365D01*
X0131561Y0111444D01*
X0131695Y0111521D01*
X0131831Y0111593D01*
X0131968Y0111663D01*
X0132107Y0111729D01*
X0132248Y0111791D01*
X0132390Y0111850D01*
X0132534Y0111905D01*
X0132679Y0111957D01*
X0132825Y0112005D01*
X0132973Y0112049D01*
X0133121Y0112090D01*
X0133271Y0112127D01*
X0133421Y0112160D01*
X0133572Y0112190D01*
X0133724Y0112215D01*
X0133876Y0112237D01*
X0134029Y0112255D01*
X0134183Y0112269D01*
X0134336Y0112280D01*
X0134490Y0112286D01*
X0134644Y0112289D01*
X0134644Y0112233D01*
X0134491Y0112230D01*
X0134339Y0112224D01*
X0134187Y0112214D01*
X0134035Y0112199D01*
X0133883Y0112182D01*
X0133732Y0112160D01*
X0133582Y0112135D01*
X0133432Y0112105D01*
X0133283Y0112072D01*
X0133135Y0112036D01*
X0132988Y0111996D01*
X0132842Y0111952D01*
X0132697Y0111904D01*
X0132554Y0111853D01*
X0132411Y0111798D01*
X0132270Y0111740D01*
X0132131Y0111678D01*
X0131993Y0111612D01*
X0131857Y0111544D01*
X0131722Y0111472D01*
X0131590Y0111396D01*
X0131459Y0111317D01*
X0131331Y0111235D01*
X0131204Y0111150D01*
X0131080Y0111062D01*
X0130957Y0110971D01*
X0130838Y0110876D01*
X0130720Y0110779D01*
X0130605Y0110679D01*
X0130493Y0110575D01*
X0130383Y0110470D01*
X0130276Y0110361D01*
X0130172Y0110250D01*
X0130070Y0110136D01*
X0129971Y0110019D01*
X0129876Y0109901D01*
X0129920Y0109866D01*
X0130015Y0109984D01*
X0130113Y0110099D01*
X0130213Y0110212D01*
X0130317Y0110322D01*
X0130423Y0110430D01*
X0130531Y0110535D01*
X0130643Y0110637D01*
X0130757Y0110736D01*
X0130873Y0110833D01*
X0130992Y0110926D01*
X0131113Y0111017D01*
X0131236Y0111104D01*
X0131361Y0111189D01*
X0131489Y0111270D01*
X0131618Y0111348D01*
X0131749Y0111423D01*
X0131883Y0111494D01*
X0132018Y0111562D01*
X0132154Y0111627D01*
X0132292Y0111688D01*
X0132432Y0111746D01*
X0132573Y0111800D01*
X0132715Y0111851D01*
X0132859Y0111898D01*
X0133004Y0111942D01*
X0133149Y0111982D01*
X0133296Y0112018D01*
X0133444Y0112050D01*
X0133592Y0112079D01*
X0133741Y0112105D01*
X0133891Y0112126D01*
X0134041Y0112144D01*
X0134191Y0112158D01*
X0134342Y0112168D01*
X0134493Y0112174D01*
X0134644Y0112177D01*
X0134644Y0112121D01*
X0134490Y0112118D01*
X0134336Y0112111D01*
X0134183Y0112101D01*
X0134029Y0112086D01*
X0133876Y0112068D01*
X0133724Y0112045D01*
X0133572Y0112019D01*
X0133421Y0111989D01*
X0133271Y0111954D01*
X0133122Y0111916D01*
X0132974Y0111875D01*
X0132827Y0111829D01*
X0132681Y0111780D01*
X0132536Y0111727D01*
X0132393Y0111670D01*
X0132252Y0111609D01*
X0132112Y0111545D01*
X0131973Y0111478D01*
X0131837Y0111406D01*
X0131702Y0111332D01*
X0131569Y0111254D01*
X0131439Y0111172D01*
X0131310Y0111087D01*
X0131184Y0110999D01*
X0131060Y0110908D01*
X0130938Y0110813D01*
X0130819Y0110716D01*
X0130703Y0110615D01*
X0130589Y0110512D01*
X0130477Y0110405D01*
X0130369Y0110296D01*
X0130263Y0110184D01*
X0130161Y0110069D01*
X0130061Y0109952D01*
X0129964Y0109832D01*
X0130008Y0109798D01*
X0130104Y0109916D01*
X0130203Y0110032D01*
X0130305Y0110146D01*
X0130409Y0110257D01*
X0130517Y0110365D01*
X0130627Y0110471D01*
X0130740Y0110573D01*
X0130855Y0110673D01*
X0130973Y0110770D01*
X0131094Y0110863D01*
X0131217Y0110954D01*
X0131342Y0111041D01*
X0131469Y0111125D01*
X0131598Y0111206D01*
X0131730Y0111283D01*
X0131863Y0111357D01*
X0131998Y0111428D01*
X0132135Y0111495D01*
X0132274Y0111558D01*
X0132414Y0111618D01*
X0132556Y0111674D01*
X0132699Y0111727D01*
X0132844Y0111776D01*
X0132990Y0111821D01*
X0133136Y0111862D01*
X0133284Y0111900D01*
X0133433Y0111934D01*
X0133582Y0111964D01*
X0133733Y0111990D01*
X0133884Y0112012D01*
X0134035Y0112031D01*
X0134187Y0112045D01*
X0134339Y0112056D01*
X0134491Y0112062D01*
X0134644Y0112065D01*
X0134644Y0112009D01*
X0134493Y0112006D01*
X0134342Y0112000D01*
X0134191Y0111989D01*
X0134041Y0111975D01*
X0133891Y0111957D01*
X0133741Y0111935D01*
X0133593Y0111909D01*
X0133444Y0111879D01*
X0133297Y0111845D01*
X0133151Y0111808D01*
X0133005Y0111767D01*
X0132861Y0111722D01*
X0132718Y0111674D01*
X0132576Y0111622D01*
X0132436Y0111566D01*
X0132297Y0111507D01*
X0132159Y0111444D01*
X0132024Y0111378D01*
X0131890Y0111308D01*
X0131758Y0111235D01*
X0131627Y0111158D01*
X0131499Y0111078D01*
X0131373Y0110995D01*
X0131249Y0110908D01*
X0131128Y0110819D01*
X0131008Y0110726D01*
X0130891Y0110630D01*
X0130777Y0110532D01*
X0130665Y0110430D01*
X0130556Y0110326D01*
X0130450Y0110218D01*
X0130346Y0110108D01*
X0130245Y0109996D01*
X0130147Y0109881D01*
X0130053Y0109763D01*
X0130097Y0109729D01*
X0130191Y0109845D01*
X0130288Y0109959D01*
X0130387Y0110071D01*
X0130490Y0110180D01*
X0130596Y0110286D01*
X0130704Y0110389D01*
X0130814Y0110490D01*
X0130928Y0110587D01*
X0131043Y0110682D01*
X0131162Y0110774D01*
X0131282Y0110863D01*
X0131405Y0110948D01*
X0131530Y0111031D01*
X0131657Y0111110D01*
X0131785Y0111186D01*
X0131916Y0111258D01*
X0132049Y0111328D01*
X0132183Y0111393D01*
X0132319Y0111456D01*
X0132457Y0111514D01*
X0132596Y0111570D01*
X0132737Y0111621D01*
X0132878Y0111669D01*
X0133021Y0111713D01*
X0133165Y0111754D01*
X0133310Y0111791D01*
X0133456Y0111824D01*
X0133603Y0111854D01*
X0133750Y0111879D01*
X0133898Y0111901D01*
X0134047Y0111919D01*
X0134196Y0111933D01*
X0134345Y0111944D01*
X0134494Y0111950D01*
X0134644Y0111953D01*
X0134644Y0111897D01*
X0134496Y0111894D01*
X0134348Y0111888D01*
X0134200Y0111877D01*
X0134053Y0111863D01*
X0133905Y0111846D01*
X0133759Y0111824D01*
X0133613Y0111799D01*
X0133468Y0111769D01*
X0133323Y0111737D01*
X0133180Y0111700D01*
X0133037Y0111660D01*
X0132895Y0111616D01*
X0132755Y0111568D01*
X0132616Y0111517D01*
X0132478Y0111463D01*
X0132342Y0111404D01*
X0132207Y0111343D01*
X0132074Y0111278D01*
X0131943Y0111209D01*
X0131813Y0111137D01*
X0131686Y0111062D01*
X0131560Y0110984D01*
X0131436Y0110902D01*
X0131315Y0110817D01*
X0131195Y0110730D01*
X0131078Y0110639D01*
X0130964Y0110545D01*
X0130852Y0110448D01*
X0130742Y0110348D01*
X0130635Y0110246D01*
X0130530Y0110141D01*
X0130429Y0110033D01*
X0130330Y0109923D01*
X0130234Y0109810D01*
X0130141Y0109694D01*
X0076594Y0102259D02*
X0077020Y0102590D01*
X0077019Y0102590D02*
X0077112Y0102475D01*
X0077207Y0102363D01*
X0077305Y0102253D01*
X0077406Y0102146D01*
X0077510Y0102042D01*
X0077617Y0101940D01*
X0077726Y0101841D01*
X0077837Y0101745D01*
X0077951Y0101651D01*
X0078067Y0101561D01*
X0078186Y0101474D01*
X0078307Y0101390D01*
X0078429Y0101309D01*
X0078554Y0101231D01*
X0078681Y0101156D01*
X0078810Y0101085D01*
X0078940Y0101016D01*
X0079073Y0100952D01*
X0079207Y0100891D01*
X0079342Y0100833D01*
X0079479Y0100778D01*
X0079617Y0100728D01*
X0079757Y0100680D01*
X0079897Y0100637D01*
X0080039Y0100597D01*
X0080181Y0100560D01*
X0080325Y0100528D01*
X0080469Y0100499D01*
X0080614Y0100474D01*
X0080760Y0100452D01*
X0080906Y0100434D01*
X0081053Y0100420D01*
X0081200Y0100410D01*
X0081347Y0100404D01*
X0081494Y0100401D01*
X0081494Y0099862D01*
X0081494Y0099861D01*
X0081337Y0099864D01*
X0081181Y0099870D01*
X0081024Y0099881D01*
X0080868Y0099895D01*
X0080712Y0099914D01*
X0080557Y0099936D01*
X0080403Y0099962D01*
X0080249Y0099992D01*
X0080096Y0100026D01*
X0079943Y0100064D01*
X0079792Y0100105D01*
X0079642Y0100150D01*
X0079493Y0100199D01*
X0079345Y0100252D01*
X0079199Y0100308D01*
X0079054Y0100368D01*
X0078911Y0100432D01*
X0078769Y0100499D01*
X0078629Y0100569D01*
X0078491Y0100643D01*
X0078355Y0100721D01*
X0078220Y0100802D01*
X0078088Y0100886D01*
X0077958Y0100974D01*
X0077830Y0101064D01*
X0077705Y0101158D01*
X0077582Y0101255D01*
X0077461Y0101356D01*
X0077343Y0101459D01*
X0077227Y0101565D01*
X0077115Y0101673D01*
X0077004Y0101785D01*
X0076897Y0101899D01*
X0076793Y0102016D01*
X0076691Y0102136D01*
X0076593Y0102258D01*
X0076637Y0102293D01*
X0076735Y0102172D01*
X0076835Y0102053D01*
X0076939Y0101937D01*
X0077045Y0101824D01*
X0077154Y0101713D01*
X0077266Y0101605D01*
X0077380Y0101500D01*
X0077497Y0101398D01*
X0077617Y0101299D01*
X0077739Y0101203D01*
X0077863Y0101110D01*
X0077990Y0101020D01*
X0078119Y0100933D01*
X0078250Y0100849D01*
X0078383Y0100769D01*
X0078518Y0100692D01*
X0078655Y0100619D01*
X0078794Y0100549D01*
X0078934Y0100482D01*
X0079076Y0100419D01*
X0079220Y0100360D01*
X0079365Y0100304D01*
X0079511Y0100252D01*
X0079659Y0100204D01*
X0079807Y0100159D01*
X0079957Y0100118D01*
X0080108Y0100080D01*
X0080260Y0100047D01*
X0080412Y0100017D01*
X0080566Y0099991D01*
X0080719Y0099969D01*
X0080874Y0099951D01*
X0081028Y0099937D01*
X0081183Y0099926D01*
X0081339Y0099920D01*
X0081494Y0099917D01*
X0081494Y0099973D01*
X0081340Y0099976D01*
X0081186Y0099982D01*
X0081033Y0099993D01*
X0080879Y0100007D01*
X0080726Y0100025D01*
X0080574Y0100047D01*
X0080422Y0100072D01*
X0080271Y0100102D01*
X0080121Y0100135D01*
X0079971Y0100172D01*
X0079823Y0100213D01*
X0079675Y0100257D01*
X0079529Y0100305D01*
X0079384Y0100357D01*
X0079240Y0100412D01*
X0079098Y0100471D01*
X0078957Y0100533D01*
X0078818Y0100599D01*
X0078681Y0100669D01*
X0078545Y0100741D01*
X0078411Y0100818D01*
X0078280Y0100897D01*
X0078150Y0100980D01*
X0078022Y0101066D01*
X0077897Y0101155D01*
X0077773Y0101247D01*
X0077652Y0101342D01*
X0077534Y0101441D01*
X0077418Y0101542D01*
X0077304Y0101646D01*
X0077194Y0101753D01*
X0077085Y0101862D01*
X0076980Y0101975D01*
X0076878Y0102090D01*
X0076778Y0102207D01*
X0076682Y0102327D01*
X0076726Y0102361D01*
X0076821Y0102243D01*
X0076920Y0102126D01*
X0077022Y0102012D01*
X0077126Y0101901D01*
X0077233Y0101792D01*
X0077343Y0101687D01*
X0077455Y0101583D01*
X0077570Y0101483D01*
X0077688Y0101386D01*
X0077807Y0101291D01*
X0077930Y0101200D01*
X0078054Y0101112D01*
X0078181Y0101027D01*
X0078309Y0100945D01*
X0078440Y0100866D01*
X0078572Y0100790D01*
X0078707Y0100718D01*
X0078843Y0100650D01*
X0078981Y0100584D01*
X0079120Y0100522D01*
X0079261Y0100464D01*
X0079404Y0100409D01*
X0079547Y0100358D01*
X0079692Y0100310D01*
X0079838Y0100266D01*
X0079985Y0100226D01*
X0080133Y0100190D01*
X0080282Y0100157D01*
X0080432Y0100127D01*
X0080582Y0100102D01*
X0080733Y0100080D01*
X0080885Y0100063D01*
X0081037Y0100048D01*
X0081189Y0100038D01*
X0081341Y0100032D01*
X0081494Y0100029D01*
X0081494Y0100085D01*
X0081343Y0100088D01*
X0081192Y0100094D01*
X0081041Y0100104D01*
X0080891Y0100118D01*
X0080741Y0100136D01*
X0080591Y0100157D01*
X0080442Y0100183D01*
X0080294Y0100212D01*
X0080146Y0100244D01*
X0079999Y0100280D01*
X0079854Y0100320D01*
X0079709Y0100364D01*
X0079565Y0100411D01*
X0079423Y0100462D01*
X0079282Y0100516D01*
X0079142Y0100574D01*
X0079004Y0100635D01*
X0078868Y0100700D01*
X0078733Y0100768D01*
X0078599Y0100839D01*
X0078468Y0100914D01*
X0078339Y0100992D01*
X0078211Y0101073D01*
X0078086Y0101158D01*
X0077963Y0101245D01*
X0077842Y0101336D01*
X0077723Y0101429D01*
X0077607Y0101526D01*
X0077493Y0101625D01*
X0077381Y0101727D01*
X0077273Y0101832D01*
X0077167Y0101940D01*
X0077063Y0102050D01*
X0076963Y0102163D01*
X0076865Y0102278D01*
X0076770Y0102396D01*
X0076814Y0102430D01*
X0076911Y0102310D01*
X0077011Y0102193D01*
X0077113Y0102078D01*
X0077219Y0101966D01*
X0077327Y0101857D01*
X0077439Y0101750D01*
X0077553Y0101647D01*
X0077669Y0101546D01*
X0077788Y0101449D01*
X0077910Y0101354D01*
X0078034Y0101263D01*
X0078160Y0101175D01*
X0078289Y0101090D01*
X0078419Y0101008D01*
X0078552Y0100930D01*
X0078687Y0100856D01*
X0078823Y0100784D01*
X0078962Y0100717D01*
X0079102Y0100653D01*
X0079243Y0100592D01*
X0079386Y0100535D01*
X0079531Y0100482D01*
X0079677Y0100433D01*
X0079824Y0100387D01*
X0079972Y0100346D01*
X0080121Y0100308D01*
X0080271Y0100273D01*
X0080422Y0100243D01*
X0080574Y0100217D01*
X0080726Y0100194D01*
X0080879Y0100176D01*
X0081033Y0100161D01*
X0081186Y0100151D01*
X0081340Y0100144D01*
X0081494Y0100141D01*
X0081494Y0100197D01*
X0081341Y0100200D01*
X0081189Y0100206D01*
X0081037Y0100217D01*
X0080885Y0100231D01*
X0080734Y0100250D01*
X0080583Y0100272D01*
X0080432Y0100298D01*
X0080283Y0100328D01*
X0080134Y0100362D01*
X0079986Y0100400D01*
X0079840Y0100441D01*
X0079694Y0100486D01*
X0079549Y0100535D01*
X0079406Y0100588D01*
X0079264Y0100644D01*
X0079124Y0100704D01*
X0078985Y0100767D01*
X0078848Y0100834D01*
X0078713Y0100905D01*
X0078580Y0100979D01*
X0078448Y0101056D01*
X0078319Y0101137D01*
X0078192Y0101221D01*
X0078067Y0101308D01*
X0077944Y0101399D01*
X0077823Y0101492D01*
X0077705Y0101589D01*
X0077590Y0101689D01*
X0077477Y0101791D01*
X0077367Y0101897D01*
X0077259Y0102005D01*
X0077155Y0102116D01*
X0077053Y0102230D01*
X0076954Y0102346D01*
X0076858Y0102464D01*
X0076903Y0102499D01*
X0076997Y0102381D01*
X0077095Y0102266D01*
X0077196Y0102154D01*
X0077300Y0102044D01*
X0077406Y0101936D01*
X0077515Y0101832D01*
X0077627Y0101730D01*
X0077741Y0101632D01*
X0077858Y0101536D01*
X0077978Y0101443D01*
X0078099Y0101354D01*
X0078223Y0101267D01*
X0078349Y0101184D01*
X0078477Y0101104D01*
X0078608Y0101027D01*
X0078740Y0100954D01*
X0078874Y0100884D01*
X0079009Y0100818D01*
X0079147Y0100755D01*
X0079286Y0100696D01*
X0079426Y0100640D01*
X0079568Y0100588D01*
X0079711Y0100540D01*
X0079855Y0100495D01*
X0080001Y0100454D01*
X0080147Y0100417D01*
X0080294Y0100383D01*
X0080443Y0100353D01*
X0080591Y0100327D01*
X0080741Y0100305D01*
X0080891Y0100287D01*
X0081041Y0100273D01*
X0081192Y0100262D01*
X0081343Y0100256D01*
X0081494Y0100253D01*
X0081494Y0100309D01*
X0081344Y0100312D01*
X0081195Y0100318D01*
X0081046Y0100329D01*
X0080897Y0100343D01*
X0080748Y0100361D01*
X0080600Y0100383D01*
X0080453Y0100408D01*
X0080306Y0100438D01*
X0080160Y0100471D01*
X0080015Y0100508D01*
X0079871Y0100549D01*
X0079728Y0100593D01*
X0079587Y0100641D01*
X0079446Y0100692D01*
X0079307Y0100748D01*
X0079169Y0100806D01*
X0079033Y0100869D01*
X0078899Y0100934D01*
X0078766Y0101004D01*
X0078635Y0101076D01*
X0078507Y0101152D01*
X0078380Y0101231D01*
X0078255Y0101314D01*
X0078132Y0101399D01*
X0078012Y0101488D01*
X0077893Y0101580D01*
X0077778Y0101675D01*
X0077664Y0101772D01*
X0077554Y0101873D01*
X0077446Y0101976D01*
X0077340Y0102082D01*
X0077237Y0102191D01*
X0077138Y0102303D01*
X0077041Y0102417D01*
X0076947Y0102533D01*
X0076991Y0102568D01*
X0077084Y0102452D01*
X0077180Y0102339D01*
X0077279Y0102229D01*
X0077380Y0102121D01*
X0077485Y0102016D01*
X0077592Y0101914D01*
X0077702Y0101814D01*
X0077814Y0101717D01*
X0077928Y0101623D01*
X0078045Y0101532D01*
X0078165Y0101445D01*
X0078286Y0101360D01*
X0078410Y0101278D01*
X0078536Y0101200D01*
X0078663Y0101125D01*
X0078793Y0101053D01*
X0078924Y0100984D01*
X0079057Y0100919D01*
X0079192Y0100858D01*
X0079328Y0100799D01*
X0079466Y0100745D01*
X0079605Y0100694D01*
X0079745Y0100646D01*
X0079887Y0100602D01*
X0080030Y0100562D01*
X0080173Y0100525D01*
X0080318Y0100493D01*
X0080463Y0100463D01*
X0080609Y0100438D01*
X0080755Y0100416D01*
X0080903Y0100399D01*
X0081050Y0100385D01*
X0081198Y0100374D01*
X0081346Y0100368D01*
X0081494Y0100365D01*
X0081495Y0112400D02*
X0081495Y0111860D01*
X0081494Y0111861D02*
X0081344Y0111858D01*
X0081194Y0111851D01*
X0081044Y0111841D01*
X0080895Y0111826D01*
X0080746Y0111808D01*
X0080598Y0111786D01*
X0080450Y0111759D01*
X0080303Y0111729D01*
X0080156Y0111695D01*
X0080011Y0111658D01*
X0079867Y0111616D01*
X0079724Y0111571D01*
X0079582Y0111522D01*
X0079441Y0111469D01*
X0079302Y0111413D01*
X0079165Y0111353D01*
X0079029Y0111289D01*
X0078895Y0111222D01*
X0078762Y0111151D01*
X0078632Y0111077D01*
X0078503Y0111000D01*
X0078377Y0110919D01*
X0078252Y0110835D01*
X0078130Y0110748D01*
X0078010Y0110657D01*
X0077893Y0110564D01*
X0077778Y0110467D01*
X0077666Y0110367D01*
X0077556Y0110265D01*
X0077449Y0110160D01*
X0077345Y0110052D01*
X0077244Y0109941D01*
X0077146Y0109827D01*
X0077050Y0109711D01*
X0076958Y0109593D01*
X0076527Y0109916D01*
X0076526Y0109917D01*
X0076621Y0110040D01*
X0076720Y0110160D01*
X0076821Y0110278D01*
X0076926Y0110393D01*
X0077033Y0110506D01*
X0077143Y0110616D01*
X0077255Y0110723D01*
X0077370Y0110828D01*
X0077488Y0110929D01*
X0077608Y0111028D01*
X0077731Y0111124D01*
X0077856Y0111216D01*
X0077983Y0111306D01*
X0078113Y0111392D01*
X0078244Y0111475D01*
X0078378Y0111555D01*
X0078513Y0111631D01*
X0078651Y0111704D01*
X0078790Y0111773D01*
X0078931Y0111839D01*
X0079073Y0111902D01*
X0079217Y0111961D01*
X0079362Y0112016D01*
X0079509Y0112068D01*
X0079657Y0112116D01*
X0079806Y0112161D01*
X0079956Y0112202D01*
X0080107Y0112239D01*
X0080259Y0112272D01*
X0080411Y0112301D01*
X0080565Y0112327D01*
X0080719Y0112349D01*
X0080873Y0112367D01*
X0081028Y0112381D01*
X0081183Y0112392D01*
X0081339Y0112398D01*
X0081494Y0112401D01*
X0081494Y0112345D01*
X0081340Y0112342D01*
X0081186Y0112336D01*
X0081032Y0112326D01*
X0080879Y0112311D01*
X0080726Y0112294D01*
X0080573Y0112272D01*
X0080421Y0112246D01*
X0080270Y0112217D01*
X0080119Y0112184D01*
X0079970Y0112147D01*
X0079821Y0112107D01*
X0079673Y0112063D01*
X0079527Y0112015D01*
X0079381Y0111964D01*
X0079237Y0111909D01*
X0079095Y0111850D01*
X0078954Y0111788D01*
X0078814Y0111723D01*
X0078676Y0111654D01*
X0078540Y0111582D01*
X0078406Y0111506D01*
X0078274Y0111427D01*
X0078143Y0111345D01*
X0078015Y0111259D01*
X0077889Y0111171D01*
X0077765Y0111079D01*
X0077644Y0110984D01*
X0077524Y0110887D01*
X0077408Y0110786D01*
X0077293Y0110683D01*
X0077182Y0110576D01*
X0077073Y0110467D01*
X0076967Y0110355D01*
X0076863Y0110241D01*
X0076763Y0110124D01*
X0076665Y0110005D01*
X0076571Y0109883D01*
X0076616Y0109850D01*
X0076709Y0109970D01*
X0076806Y0110089D01*
X0076906Y0110204D01*
X0077008Y0110318D01*
X0077113Y0110428D01*
X0077221Y0110536D01*
X0077332Y0110642D01*
X0077445Y0110744D01*
X0077561Y0110844D01*
X0077679Y0110941D01*
X0077799Y0111035D01*
X0077922Y0111125D01*
X0078047Y0111213D01*
X0078174Y0111298D01*
X0078303Y0111379D01*
X0078434Y0111458D01*
X0078567Y0111533D01*
X0078702Y0111604D01*
X0078839Y0111673D01*
X0078977Y0111737D01*
X0079117Y0111799D01*
X0079258Y0111857D01*
X0079401Y0111911D01*
X0079545Y0111962D01*
X0079690Y0112009D01*
X0079836Y0112053D01*
X0079983Y0112093D01*
X0080132Y0112130D01*
X0080281Y0112162D01*
X0080431Y0112191D01*
X0080581Y0112216D01*
X0080733Y0112238D01*
X0080884Y0112256D01*
X0081036Y0112270D01*
X0081189Y0112280D01*
X0081341Y0112286D01*
X0081494Y0112289D01*
X0081494Y0112233D01*
X0081339Y0112230D01*
X0081183Y0112223D01*
X0081028Y0112213D01*
X0080873Y0112198D01*
X0080719Y0112180D01*
X0080565Y0112157D01*
X0080412Y0112131D01*
X0080259Y0112100D01*
X0080107Y0112066D01*
X0079957Y0112028D01*
X0079807Y0111986D01*
X0079658Y0111941D01*
X0079511Y0111891D01*
X0079365Y0111838D01*
X0079220Y0111781D01*
X0079077Y0111721D01*
X0078935Y0111657D01*
X0078795Y0111589D01*
X0078657Y0111517D01*
X0078521Y0111443D01*
X0078386Y0111364D01*
X0078254Y0111283D01*
X0078124Y0111198D01*
X0077996Y0111109D01*
X0077870Y0111018D01*
X0077747Y0110923D01*
X0077626Y0110825D01*
X0077507Y0110725D01*
X0077392Y0110621D01*
X0077279Y0110514D01*
X0077168Y0110404D01*
X0077061Y0110292D01*
X0076956Y0110177D01*
X0076855Y0110059D01*
X0076756Y0109939D01*
X0076660Y0109816D01*
X0076705Y0109783D01*
X0076800Y0109904D01*
X0076898Y0110023D01*
X0076998Y0110140D01*
X0077102Y0110254D01*
X0077208Y0110365D01*
X0077318Y0110474D01*
X0077430Y0110580D01*
X0077544Y0110682D01*
X0077662Y0110782D01*
X0077781Y0110879D01*
X0077904Y0110973D01*
X0078028Y0111064D01*
X0078155Y0111151D01*
X0078284Y0111236D01*
X0078415Y0111316D01*
X0078548Y0111394D01*
X0078683Y0111468D01*
X0078820Y0111539D01*
X0078959Y0111606D01*
X0079099Y0111669D01*
X0079241Y0111729D01*
X0079384Y0111786D01*
X0079529Y0111838D01*
X0079675Y0111887D01*
X0079823Y0111933D01*
X0079971Y0111974D01*
X0080120Y0112012D01*
X0080271Y0112046D01*
X0080422Y0112076D01*
X0080574Y0112102D01*
X0080726Y0112124D01*
X0080879Y0112142D01*
X0081032Y0112157D01*
X0081186Y0112168D01*
X0081340Y0112174D01*
X0081494Y0112177D01*
X0081494Y0112121D01*
X0081341Y0112118D01*
X0081189Y0112112D01*
X0081037Y0112101D01*
X0080885Y0112087D01*
X0080733Y0112069D01*
X0080582Y0112046D01*
X0080432Y0112021D01*
X0080282Y0111991D01*
X0080133Y0111957D01*
X0079985Y0111920D01*
X0079838Y0111879D01*
X0079692Y0111834D01*
X0079548Y0111786D01*
X0079404Y0111733D01*
X0079262Y0111678D01*
X0079122Y0111618D01*
X0078983Y0111555D01*
X0078845Y0111489D01*
X0078710Y0111419D01*
X0078576Y0111345D01*
X0078444Y0111268D01*
X0078314Y0111188D01*
X0078186Y0111105D01*
X0078061Y0111018D01*
X0077937Y0110928D01*
X0077816Y0110835D01*
X0077697Y0110739D01*
X0077581Y0110640D01*
X0077468Y0110539D01*
X0077357Y0110434D01*
X0077248Y0110326D01*
X0077143Y0110216D01*
X0077040Y0110103D01*
X0076941Y0109987D01*
X0076844Y0109869D01*
X0076750Y0109749D01*
X0076795Y0109715D01*
X0076888Y0109835D01*
X0076984Y0109952D01*
X0077082Y0110066D01*
X0077184Y0110178D01*
X0077289Y0110287D01*
X0077396Y0110394D01*
X0077506Y0110497D01*
X0077618Y0110598D01*
X0077733Y0110696D01*
X0077851Y0110792D01*
X0077971Y0110884D01*
X0078093Y0110973D01*
X0078217Y0111058D01*
X0078344Y0111141D01*
X0078473Y0111220D01*
X0078603Y0111296D01*
X0078736Y0111369D01*
X0078870Y0111439D01*
X0079006Y0111504D01*
X0079144Y0111567D01*
X0079283Y0111626D01*
X0079424Y0111681D01*
X0079566Y0111733D01*
X0079709Y0111781D01*
X0079854Y0111825D01*
X0079999Y0111866D01*
X0080146Y0111903D01*
X0080294Y0111936D01*
X0080442Y0111965D01*
X0080591Y0111991D01*
X0080740Y0112013D01*
X0080890Y0112031D01*
X0081041Y0112045D01*
X0081192Y0112056D01*
X0081343Y0112062D01*
X0081494Y0112065D01*
X0081494Y0112009D01*
X0081344Y0112006D01*
X0081195Y0112000D01*
X0081045Y0111989D01*
X0080896Y0111975D01*
X0080748Y0111957D01*
X0080599Y0111936D01*
X0080452Y0111910D01*
X0080305Y0111881D01*
X0080159Y0111848D01*
X0080014Y0111812D01*
X0079870Y0111771D01*
X0079726Y0111727D01*
X0079584Y0111680D01*
X0079444Y0111629D01*
X0079304Y0111574D01*
X0079166Y0111515D01*
X0079030Y0111454D01*
X0078895Y0111388D01*
X0078762Y0111320D01*
X0078631Y0111248D01*
X0078502Y0111172D01*
X0078374Y0111094D01*
X0078249Y0111012D01*
X0078125Y0110927D01*
X0078004Y0110839D01*
X0077886Y0110748D01*
X0077769Y0110653D01*
X0077655Y0110556D01*
X0077544Y0110456D01*
X0077435Y0110354D01*
X0077329Y0110248D01*
X0077225Y0110140D01*
X0077124Y0110029D01*
X0077027Y0109916D01*
X0076932Y0109800D01*
X0076840Y0109682D01*
X0076884Y0109648D01*
X0076976Y0109765D01*
X0077070Y0109880D01*
X0077167Y0109992D01*
X0077266Y0110102D01*
X0077369Y0110209D01*
X0077474Y0110313D01*
X0077582Y0110415D01*
X0077692Y0110514D01*
X0077805Y0110610D01*
X0077920Y0110704D01*
X0078038Y0110794D01*
X0078158Y0110881D01*
X0078280Y0110965D01*
X0078404Y0111047D01*
X0078530Y0111124D01*
X0078659Y0111199D01*
X0078789Y0111270D01*
X0078920Y0111338D01*
X0079054Y0111403D01*
X0079189Y0111464D01*
X0079325Y0111522D01*
X0079463Y0111576D01*
X0079603Y0111627D01*
X0079743Y0111674D01*
X0079885Y0111718D01*
X0080028Y0111758D01*
X0080172Y0111794D01*
X0080316Y0111826D01*
X0080462Y0111855D01*
X0080608Y0111880D01*
X0080755Y0111902D01*
X0080902Y0111920D01*
X0081050Y0111934D01*
X0081198Y0111944D01*
X0081346Y0111950D01*
X0081494Y0111953D01*
X0081494Y0111897D01*
X0081343Y0111894D01*
X0081192Y0111887D01*
X0081041Y0111877D01*
X0080891Y0111862D01*
X0080741Y0111844D01*
X0080592Y0111821D01*
X0080443Y0111795D01*
X0080295Y0111765D01*
X0080148Y0111730D01*
X0080002Y0111692D01*
X0079857Y0111651D01*
X0079713Y0111605D01*
X0079570Y0111556D01*
X0079428Y0111503D01*
X0079288Y0111446D01*
X0079150Y0111386D01*
X0079013Y0111322D01*
X0078878Y0111254D01*
X0078745Y0111183D01*
X0078613Y0111108D01*
X0078484Y0111031D01*
X0078357Y0110949D01*
X0078232Y0110865D01*
X0078109Y0110777D01*
X0077988Y0110686D01*
X0077870Y0110591D01*
X0077755Y0110494D01*
X0077642Y0110394D01*
X0077531Y0110291D01*
X0077424Y0110185D01*
X0077319Y0110076D01*
X0077217Y0109965D01*
X0077118Y0109850D01*
X0077022Y0109734D01*
X0076929Y0109615D01*
X0086608Y0109799D02*
X0086169Y0109485D01*
X0086169Y0109486D02*
X0086080Y0109606D01*
X0085988Y0109724D01*
X0085892Y0109839D01*
X0085794Y0109952D01*
X0085693Y0110062D01*
X0085589Y0110170D01*
X0085482Y0110274D01*
X0085372Y0110376D01*
X0085260Y0110475D01*
X0085146Y0110571D01*
X0085028Y0110664D01*
X0084909Y0110754D01*
X0084787Y0110841D01*
X0084663Y0110925D01*
X0084537Y0111005D01*
X0084408Y0111082D01*
X0084278Y0111156D01*
X0084146Y0111226D01*
X0084012Y0111293D01*
X0083876Y0111356D01*
X0083739Y0111415D01*
X0083601Y0111472D01*
X0083460Y0111524D01*
X0083319Y0111573D01*
X0083176Y0111618D01*
X0083032Y0111659D01*
X0082888Y0111696D01*
X0082742Y0111730D01*
X0082595Y0111760D01*
X0082448Y0111786D01*
X0082300Y0111808D01*
X0082151Y0111827D01*
X0082002Y0111841D01*
X0081853Y0111852D01*
X0081704Y0111858D01*
X0081554Y0111861D01*
X0081554Y0112400D01*
X0081554Y0112401D01*
X0081709Y0112398D01*
X0081864Y0112392D01*
X0082019Y0112381D01*
X0082174Y0112367D01*
X0082328Y0112349D01*
X0082482Y0112327D01*
X0082635Y0112302D01*
X0082787Y0112272D01*
X0082939Y0112239D01*
X0083090Y0112202D01*
X0083240Y0112162D01*
X0083389Y0112117D01*
X0083536Y0112069D01*
X0083683Y0112018D01*
X0083828Y0111962D01*
X0083971Y0111904D01*
X0084114Y0111841D01*
X0084254Y0111775D01*
X0084393Y0111706D01*
X0084530Y0111633D01*
X0084666Y0111557D01*
X0084799Y0111478D01*
X0084930Y0111395D01*
X0085060Y0111309D01*
X0085187Y0111220D01*
X0085312Y0111128D01*
X0085434Y0111032D01*
X0085554Y0110934D01*
X0085672Y0110833D01*
X0085787Y0110729D01*
X0085900Y0110622D01*
X0086010Y0110512D01*
X0086117Y0110400D01*
X0086221Y0110285D01*
X0086322Y0110167D01*
X0086421Y0110047D01*
X0086516Y0109924D01*
X0086609Y0109800D01*
X0086563Y0109767D01*
X0086471Y0109891D01*
X0086377Y0110012D01*
X0086279Y0110131D01*
X0086179Y0110248D01*
X0086075Y0110362D01*
X0085969Y0110473D01*
X0085861Y0110582D01*
X0085749Y0110688D01*
X0085635Y0110791D01*
X0085518Y0110891D01*
X0085399Y0110989D01*
X0085278Y0111083D01*
X0085154Y0111175D01*
X0085028Y0111263D01*
X0084900Y0111348D01*
X0084770Y0111430D01*
X0084638Y0111509D01*
X0084503Y0111584D01*
X0084367Y0111656D01*
X0084230Y0111725D01*
X0084091Y0111790D01*
X0083950Y0111852D01*
X0083807Y0111910D01*
X0083663Y0111965D01*
X0083518Y0112016D01*
X0083372Y0112064D01*
X0083225Y0112108D01*
X0083076Y0112148D01*
X0082927Y0112185D01*
X0082776Y0112217D01*
X0082625Y0112247D01*
X0082474Y0112272D01*
X0082321Y0112294D01*
X0082168Y0112311D01*
X0082015Y0112326D01*
X0081862Y0112336D01*
X0081708Y0112342D01*
X0081554Y0112345D01*
X0081554Y0112289D01*
X0081711Y0112286D01*
X0081867Y0112279D01*
X0082023Y0112269D01*
X0082179Y0112254D01*
X0082335Y0112235D01*
X0082490Y0112213D01*
X0082644Y0112186D01*
X0082798Y0112156D01*
X0082950Y0112122D01*
X0083102Y0112083D01*
X0083253Y0112041D01*
X0083403Y0111995D01*
X0083551Y0111946D01*
X0083698Y0111892D01*
X0083844Y0111835D01*
X0083988Y0111774D01*
X0084131Y0111710D01*
X0084272Y0111642D01*
X0084411Y0111570D01*
X0084549Y0111495D01*
X0084684Y0111416D01*
X0084817Y0111334D01*
X0084949Y0111249D01*
X0085078Y0111160D01*
X0085204Y0111068D01*
X0085329Y0110973D01*
X0085451Y0110875D01*
X0085570Y0110773D01*
X0085687Y0110669D01*
X0085801Y0110562D01*
X0085912Y0110452D01*
X0086020Y0110339D01*
X0086126Y0110223D01*
X0086228Y0110105D01*
X0086328Y0109984D01*
X0086424Y0109860D01*
X0086517Y0109735D01*
X0086472Y0109702D01*
X0086380Y0109827D01*
X0086284Y0109949D01*
X0086185Y0110069D01*
X0086084Y0110186D01*
X0085979Y0110301D01*
X0085872Y0110412D01*
X0085762Y0110522D01*
X0085649Y0110628D01*
X0085533Y0110731D01*
X0085415Y0110832D01*
X0085294Y0110929D01*
X0085171Y0111023D01*
X0085045Y0111115D01*
X0084917Y0111202D01*
X0084787Y0111287D01*
X0084655Y0111368D01*
X0084521Y0111446D01*
X0084385Y0111521D01*
X0084247Y0111592D01*
X0084107Y0111659D01*
X0083966Y0111723D01*
X0083823Y0111783D01*
X0083679Y0111840D01*
X0083533Y0111893D01*
X0083386Y0111942D01*
X0083237Y0111988D01*
X0083088Y0112029D01*
X0082937Y0112067D01*
X0082786Y0112101D01*
X0082634Y0112131D01*
X0082481Y0112157D01*
X0082327Y0112180D01*
X0082173Y0112198D01*
X0082019Y0112213D01*
X0081864Y0112224D01*
X0081709Y0112230D01*
X0081554Y0112233D01*
X0081554Y0112177D01*
X0081708Y0112174D01*
X0081861Y0112168D01*
X0082015Y0112157D01*
X0082168Y0112143D01*
X0082320Y0112124D01*
X0082472Y0112102D01*
X0082624Y0112076D01*
X0082775Y0112046D01*
X0082925Y0112013D01*
X0083074Y0111975D01*
X0083222Y0111934D01*
X0083369Y0111889D01*
X0083514Y0111840D01*
X0083659Y0111788D01*
X0083802Y0111731D01*
X0083944Y0111672D01*
X0084084Y0111608D01*
X0084222Y0111542D01*
X0084359Y0111471D01*
X0084494Y0111397D01*
X0084626Y0111320D01*
X0084757Y0111240D01*
X0084886Y0111156D01*
X0085013Y0111069D01*
X0085137Y0110979D01*
X0085259Y0110885D01*
X0085379Y0110789D01*
X0085496Y0110689D01*
X0085611Y0110587D01*
X0085723Y0110481D01*
X0085832Y0110373D01*
X0085938Y0110262D01*
X0086042Y0110149D01*
X0086143Y0110033D01*
X0086240Y0109914D01*
X0086335Y0109793D01*
X0086426Y0109670D01*
X0086381Y0109637D01*
X0086290Y0109759D01*
X0086196Y0109879D01*
X0086100Y0109997D01*
X0086000Y0110112D01*
X0085897Y0110224D01*
X0085792Y0110334D01*
X0085684Y0110441D01*
X0085573Y0110546D01*
X0085459Y0110647D01*
X0085343Y0110746D01*
X0085225Y0110841D01*
X0085104Y0110934D01*
X0084980Y0111023D01*
X0084855Y0111109D01*
X0084727Y0111192D01*
X0084598Y0111272D01*
X0084466Y0111349D01*
X0084332Y0111422D01*
X0084197Y0111491D01*
X0084060Y0111558D01*
X0083921Y0111620D01*
X0083781Y0111680D01*
X0083639Y0111735D01*
X0083496Y0111787D01*
X0083352Y0111835D01*
X0083206Y0111880D01*
X0083059Y0111921D01*
X0082912Y0111958D01*
X0082763Y0111991D01*
X0082614Y0112021D01*
X0082464Y0112047D01*
X0082313Y0112069D01*
X0082162Y0112087D01*
X0082010Y0112101D01*
X0081858Y0112112D01*
X0081706Y0112118D01*
X0081554Y0112121D01*
X0081554Y0112065D01*
X0081705Y0112062D01*
X0081856Y0112056D01*
X0082006Y0112045D01*
X0082156Y0112031D01*
X0082306Y0112013D01*
X0082455Y0111991D01*
X0082604Y0111966D01*
X0082752Y0111937D01*
X0082899Y0111904D01*
X0083045Y0111867D01*
X0083190Y0111826D01*
X0083335Y0111782D01*
X0083478Y0111734D01*
X0083619Y0111683D01*
X0083760Y0111628D01*
X0083899Y0111569D01*
X0084036Y0111507D01*
X0084172Y0111441D01*
X0084306Y0111372D01*
X0084439Y0111300D01*
X0084569Y0111224D01*
X0084697Y0111145D01*
X0084824Y0111063D01*
X0084948Y0110977D01*
X0085070Y0110889D01*
X0085190Y0110797D01*
X0085307Y0110703D01*
X0085422Y0110605D01*
X0085535Y0110504D01*
X0085645Y0110401D01*
X0085752Y0110295D01*
X0085856Y0110186D01*
X0085958Y0110075D01*
X0086057Y0109961D01*
X0086153Y0109844D01*
X0086245Y0109726D01*
X0086335Y0109604D01*
X0086290Y0109572D01*
X0086201Y0109692D01*
X0086109Y0109810D01*
X0086014Y0109925D01*
X0085916Y0110038D01*
X0085815Y0110148D01*
X0085712Y0110256D01*
X0085606Y0110361D01*
X0085497Y0110463D01*
X0085385Y0110563D01*
X0085271Y0110659D01*
X0085155Y0110753D01*
X0085037Y0110844D01*
X0084916Y0110932D01*
X0084793Y0111016D01*
X0084667Y0111098D01*
X0084540Y0111176D01*
X0084411Y0111251D01*
X0084280Y0111323D01*
X0084147Y0111391D01*
X0084013Y0111456D01*
X0083876Y0111518D01*
X0083739Y0111576D01*
X0083600Y0111630D01*
X0083459Y0111681D01*
X0083318Y0111729D01*
X0083175Y0111772D01*
X0083031Y0111813D01*
X0082886Y0111849D01*
X0082740Y0111882D01*
X0082594Y0111911D01*
X0082447Y0111936D01*
X0082299Y0111958D01*
X0082150Y0111976D01*
X0082002Y0111990D01*
X0081853Y0112000D01*
X0081703Y0112006D01*
X0081554Y0112009D01*
X0081554Y0111953D01*
X0081706Y0111950D01*
X0081858Y0111943D01*
X0082010Y0111933D01*
X0082161Y0111918D01*
X0082312Y0111899D01*
X0082462Y0111877D01*
X0082612Y0111850D01*
X0082761Y0111820D01*
X0082909Y0111786D01*
X0083056Y0111748D01*
X0083203Y0111706D01*
X0083348Y0111660D01*
X0083491Y0111611D01*
X0083634Y0111557D01*
X0083775Y0111500D01*
X0083914Y0111440D01*
X0084052Y0111376D01*
X0084188Y0111308D01*
X0084322Y0111236D01*
X0084455Y0111162D01*
X0084585Y0111083D01*
X0084713Y0111002D01*
X0084840Y0110917D01*
X0084963Y0110828D01*
X0085085Y0110737D01*
X0085204Y0110643D01*
X0085320Y0110545D01*
X0085434Y0110444D01*
X0085546Y0110341D01*
X0085654Y0110234D01*
X0085760Y0110125D01*
X0085863Y0110013D01*
X0085963Y0109898D01*
X0086060Y0109781D01*
X0086153Y0109661D01*
X0086244Y0109539D01*
X0086199Y0109507D01*
X0086109Y0109628D01*
X0086016Y0109746D01*
X0085920Y0109862D01*
X0085821Y0109976D01*
X0085719Y0110087D01*
X0085614Y0110195D01*
X0085507Y0110300D01*
X0085397Y0110403D01*
X0085284Y0110503D01*
X0085168Y0110599D01*
X0085051Y0110693D01*
X0084930Y0110783D01*
X0084808Y0110871D01*
X0084683Y0110955D01*
X0084556Y0111036D01*
X0084427Y0111113D01*
X0084295Y0111187D01*
X0084162Y0111258D01*
X0084028Y0111325D01*
X0083891Y0111389D01*
X0083753Y0111449D01*
X0083614Y0111505D01*
X0083472Y0111558D01*
X0083330Y0111607D01*
X0083187Y0111652D01*
X0083042Y0111694D01*
X0082896Y0111731D01*
X0082749Y0111765D01*
X0082602Y0111795D01*
X0082454Y0111822D01*
X0082305Y0111844D01*
X0082155Y0111862D01*
X0082005Y0111877D01*
X0081855Y0111887D01*
X0081705Y0111894D01*
X0081554Y0111897D01*
X0081554Y0099862D02*
X0081554Y0100402D01*
X0081554Y0100401D02*
X0081701Y0100404D01*
X0081848Y0100410D01*
X0081995Y0100420D01*
X0082142Y0100434D01*
X0082288Y0100452D01*
X0082434Y0100474D01*
X0082579Y0100499D01*
X0082723Y0100528D01*
X0082867Y0100560D01*
X0083009Y0100597D01*
X0083151Y0100637D01*
X0083291Y0100680D01*
X0083431Y0100728D01*
X0083569Y0100778D01*
X0083706Y0100833D01*
X0083841Y0100891D01*
X0083975Y0100952D01*
X0084108Y0101016D01*
X0084238Y0101085D01*
X0084367Y0101156D01*
X0084494Y0101231D01*
X0084619Y0101309D01*
X0084741Y0101390D01*
X0084862Y0101474D01*
X0084981Y0101561D01*
X0085097Y0101651D01*
X0085211Y0101745D01*
X0085322Y0101841D01*
X0085431Y0101940D01*
X0085538Y0102042D01*
X0085642Y0102146D01*
X0085743Y0102253D01*
X0085841Y0102363D01*
X0085936Y0102475D01*
X0086029Y0102590D01*
X0086454Y0102259D01*
X0086455Y0102258D01*
X0086357Y0102136D01*
X0086255Y0102016D01*
X0086151Y0101899D01*
X0086044Y0101785D01*
X0085933Y0101673D01*
X0085821Y0101565D01*
X0085705Y0101459D01*
X0085587Y0101356D01*
X0085466Y0101255D01*
X0085343Y0101158D01*
X0085218Y0101064D01*
X0085090Y0100974D01*
X0084960Y0100886D01*
X0084828Y0100802D01*
X0084693Y0100721D01*
X0084557Y0100643D01*
X0084419Y0100569D01*
X0084279Y0100499D01*
X0084137Y0100432D01*
X0083994Y0100368D01*
X0083849Y0100308D01*
X0083703Y0100252D01*
X0083555Y0100199D01*
X0083406Y0100150D01*
X0083256Y0100105D01*
X0083105Y0100064D01*
X0082952Y0100026D01*
X0082799Y0099992D01*
X0082645Y0099962D01*
X0082491Y0099936D01*
X0082336Y0099914D01*
X0082180Y0099895D01*
X0082024Y0099881D01*
X0081867Y0099870D01*
X0081711Y0099864D01*
X0081554Y0099861D01*
X0081554Y0099917D01*
X0081709Y0099920D01*
X0081865Y0099926D01*
X0082020Y0099937D01*
X0082174Y0099951D01*
X0082329Y0099969D01*
X0082482Y0099991D01*
X0082636Y0100017D01*
X0082788Y0100047D01*
X0082940Y0100080D01*
X0083091Y0100118D01*
X0083241Y0100159D01*
X0083389Y0100204D01*
X0083537Y0100252D01*
X0083683Y0100304D01*
X0083828Y0100360D01*
X0083972Y0100419D01*
X0084114Y0100482D01*
X0084254Y0100549D01*
X0084393Y0100619D01*
X0084530Y0100692D01*
X0084665Y0100769D01*
X0084798Y0100849D01*
X0084929Y0100933D01*
X0085058Y0101020D01*
X0085185Y0101110D01*
X0085309Y0101203D01*
X0085431Y0101299D01*
X0085551Y0101398D01*
X0085668Y0101500D01*
X0085782Y0101605D01*
X0085894Y0101713D01*
X0086003Y0101824D01*
X0086109Y0101937D01*
X0086213Y0102053D01*
X0086313Y0102172D01*
X0086411Y0102293D01*
X0086366Y0102327D01*
X0086270Y0102207D01*
X0086170Y0102090D01*
X0086068Y0101975D01*
X0085963Y0101862D01*
X0085854Y0101753D01*
X0085744Y0101646D01*
X0085630Y0101542D01*
X0085514Y0101441D01*
X0085396Y0101342D01*
X0085275Y0101247D01*
X0085151Y0101155D01*
X0085026Y0101066D01*
X0084898Y0100980D01*
X0084768Y0100897D01*
X0084637Y0100818D01*
X0084503Y0100741D01*
X0084367Y0100669D01*
X0084230Y0100599D01*
X0084091Y0100533D01*
X0083950Y0100471D01*
X0083808Y0100412D01*
X0083664Y0100357D01*
X0083519Y0100305D01*
X0083373Y0100257D01*
X0083225Y0100213D01*
X0083077Y0100172D01*
X0082927Y0100135D01*
X0082777Y0100102D01*
X0082626Y0100072D01*
X0082474Y0100047D01*
X0082322Y0100025D01*
X0082169Y0100007D01*
X0082015Y0099993D01*
X0081862Y0099982D01*
X0081708Y0099976D01*
X0081554Y0099973D01*
X0081554Y0100029D01*
X0081707Y0100032D01*
X0081859Y0100038D01*
X0082011Y0100048D01*
X0082163Y0100063D01*
X0082315Y0100080D01*
X0082466Y0100102D01*
X0082616Y0100127D01*
X0082766Y0100157D01*
X0082915Y0100190D01*
X0083063Y0100226D01*
X0083210Y0100266D01*
X0083356Y0100310D01*
X0083501Y0100358D01*
X0083644Y0100409D01*
X0083787Y0100464D01*
X0083928Y0100522D01*
X0084067Y0100584D01*
X0084205Y0100650D01*
X0084341Y0100718D01*
X0084476Y0100790D01*
X0084608Y0100866D01*
X0084739Y0100945D01*
X0084867Y0101027D01*
X0084994Y0101112D01*
X0085118Y0101200D01*
X0085241Y0101291D01*
X0085360Y0101386D01*
X0085478Y0101483D01*
X0085593Y0101583D01*
X0085705Y0101687D01*
X0085815Y0101792D01*
X0085922Y0101901D01*
X0086026Y0102012D01*
X0086128Y0102126D01*
X0086227Y0102243D01*
X0086322Y0102361D01*
X0086278Y0102396D01*
X0086183Y0102278D01*
X0086085Y0102163D01*
X0085985Y0102050D01*
X0085881Y0101940D01*
X0085775Y0101832D01*
X0085667Y0101727D01*
X0085555Y0101625D01*
X0085441Y0101526D01*
X0085325Y0101429D01*
X0085206Y0101336D01*
X0085085Y0101245D01*
X0084962Y0101158D01*
X0084837Y0101073D01*
X0084709Y0100992D01*
X0084580Y0100914D01*
X0084449Y0100839D01*
X0084315Y0100768D01*
X0084180Y0100700D01*
X0084044Y0100635D01*
X0083906Y0100574D01*
X0083766Y0100516D01*
X0083625Y0100462D01*
X0083483Y0100411D01*
X0083339Y0100364D01*
X0083194Y0100320D01*
X0083049Y0100280D01*
X0082902Y0100244D01*
X0082754Y0100212D01*
X0082606Y0100183D01*
X0082457Y0100157D01*
X0082307Y0100136D01*
X0082157Y0100118D01*
X0082007Y0100104D01*
X0081856Y0100094D01*
X0081705Y0100088D01*
X0081554Y0100085D01*
X0081554Y0100141D01*
X0081708Y0100144D01*
X0081862Y0100151D01*
X0082015Y0100161D01*
X0082169Y0100176D01*
X0082322Y0100194D01*
X0082474Y0100217D01*
X0082626Y0100243D01*
X0082777Y0100273D01*
X0082927Y0100308D01*
X0083076Y0100346D01*
X0083224Y0100387D01*
X0083371Y0100433D01*
X0083517Y0100482D01*
X0083662Y0100535D01*
X0083805Y0100592D01*
X0083946Y0100653D01*
X0084086Y0100717D01*
X0084225Y0100784D01*
X0084361Y0100856D01*
X0084496Y0100930D01*
X0084629Y0101008D01*
X0084759Y0101090D01*
X0084888Y0101175D01*
X0085014Y0101263D01*
X0085138Y0101354D01*
X0085260Y0101449D01*
X0085379Y0101546D01*
X0085495Y0101647D01*
X0085609Y0101750D01*
X0085721Y0101857D01*
X0085829Y0101966D01*
X0085935Y0102078D01*
X0086037Y0102193D01*
X0086137Y0102310D01*
X0086234Y0102430D01*
X0086190Y0102464D01*
X0086094Y0102346D01*
X0085995Y0102230D01*
X0085893Y0102116D01*
X0085789Y0102005D01*
X0085681Y0101897D01*
X0085571Y0101791D01*
X0085458Y0101689D01*
X0085343Y0101589D01*
X0085225Y0101492D01*
X0085104Y0101399D01*
X0084981Y0101308D01*
X0084856Y0101221D01*
X0084729Y0101137D01*
X0084600Y0101056D01*
X0084468Y0100979D01*
X0084335Y0100905D01*
X0084200Y0100834D01*
X0084063Y0100767D01*
X0083924Y0100704D01*
X0083784Y0100644D01*
X0083642Y0100588D01*
X0083499Y0100535D01*
X0083354Y0100486D01*
X0083208Y0100441D01*
X0083062Y0100400D01*
X0082914Y0100362D01*
X0082765Y0100328D01*
X0082616Y0100298D01*
X0082465Y0100272D01*
X0082314Y0100250D01*
X0082163Y0100231D01*
X0082011Y0100217D01*
X0081859Y0100206D01*
X0081707Y0100200D01*
X0081554Y0100197D01*
X0081554Y0100253D01*
X0081705Y0100256D01*
X0081856Y0100262D01*
X0082007Y0100273D01*
X0082157Y0100287D01*
X0082307Y0100305D01*
X0082457Y0100327D01*
X0082605Y0100353D01*
X0082754Y0100383D01*
X0082901Y0100417D01*
X0083047Y0100454D01*
X0083193Y0100495D01*
X0083337Y0100540D01*
X0083480Y0100588D01*
X0083622Y0100640D01*
X0083762Y0100696D01*
X0083901Y0100755D01*
X0084039Y0100818D01*
X0084174Y0100884D01*
X0084308Y0100954D01*
X0084440Y0101027D01*
X0084571Y0101104D01*
X0084699Y0101184D01*
X0084825Y0101267D01*
X0084949Y0101354D01*
X0085070Y0101443D01*
X0085190Y0101536D01*
X0085307Y0101632D01*
X0085421Y0101730D01*
X0085533Y0101832D01*
X0085642Y0101936D01*
X0085748Y0102044D01*
X0085852Y0102154D01*
X0085953Y0102266D01*
X0086051Y0102381D01*
X0086145Y0102499D01*
X0086101Y0102533D01*
X0086007Y0102417D01*
X0085910Y0102303D01*
X0085811Y0102191D01*
X0085708Y0102082D01*
X0085602Y0101976D01*
X0085494Y0101873D01*
X0085384Y0101772D01*
X0085270Y0101675D01*
X0085155Y0101580D01*
X0085036Y0101488D01*
X0084916Y0101399D01*
X0084793Y0101314D01*
X0084668Y0101231D01*
X0084541Y0101152D01*
X0084413Y0101076D01*
X0084282Y0101004D01*
X0084149Y0100934D01*
X0084015Y0100869D01*
X0083879Y0100806D01*
X0083741Y0100748D01*
X0083602Y0100692D01*
X0083461Y0100641D01*
X0083320Y0100593D01*
X0083177Y0100549D01*
X0083033Y0100508D01*
X0082888Y0100471D01*
X0082742Y0100438D01*
X0082595Y0100408D01*
X0082448Y0100383D01*
X0082300Y0100361D01*
X0082151Y0100343D01*
X0082002Y0100329D01*
X0081853Y0100318D01*
X0081704Y0100312D01*
X0081554Y0100309D01*
X0081554Y0100365D01*
X0081702Y0100368D01*
X0081850Y0100374D01*
X0081998Y0100385D01*
X0082145Y0100399D01*
X0082293Y0100416D01*
X0082439Y0100438D01*
X0082585Y0100463D01*
X0082730Y0100493D01*
X0082875Y0100525D01*
X0083018Y0100562D01*
X0083161Y0100602D01*
X0083303Y0100646D01*
X0083443Y0100694D01*
X0083582Y0100745D01*
X0083720Y0100799D01*
X0083856Y0100858D01*
X0083991Y0100919D01*
X0084124Y0100984D01*
X0084255Y0101053D01*
X0084385Y0101125D01*
X0084512Y0101200D01*
X0084638Y0101278D01*
X0084762Y0101360D01*
X0084883Y0101445D01*
X0085003Y0101532D01*
X0085120Y0101623D01*
X0085234Y0101717D01*
X0085346Y0101814D01*
X0085456Y0101914D01*
X0085563Y0102016D01*
X0085668Y0102121D01*
X0085769Y0102229D01*
X0085868Y0102339D01*
X0085964Y0102452D01*
X0086057Y0102568D01*
D12*
X0081475Y0114580D02*
X0081475Y0113680D01*
X0081475Y0113681D02*
X0081292Y0113677D01*
X0081109Y0113670D01*
X0080926Y0113657D01*
X0080743Y0113640D01*
X0080561Y0113619D01*
X0080380Y0113594D01*
X0080199Y0113564D01*
X0080019Y0113529D01*
X0079840Y0113491D01*
X0079662Y0113448D01*
X0079485Y0113400D01*
X0079310Y0113349D01*
X0079135Y0113293D01*
X0078962Y0113233D01*
X0078791Y0113168D01*
X0078621Y0113100D01*
X0078452Y0113028D01*
X0078286Y0112951D01*
X0078122Y0112870D01*
X0077959Y0112786D01*
X0077799Y0112697D01*
X0077640Y0112605D01*
X0077484Y0112509D01*
X0077331Y0112409D01*
X0077180Y0112305D01*
X0077031Y0112198D01*
X0076885Y0112087D01*
X0076742Y0111973D01*
X0076602Y0111855D01*
X0076465Y0111734D01*
X0076330Y0111610D01*
X0076199Y0111482D01*
X0076070Y0111351D01*
X0075945Y0111217D01*
X0075824Y0111081D01*
X0075705Y0110941D01*
X0075590Y0110798D01*
X0075479Y0110653D01*
X0075371Y0110505D01*
X0075267Y0110354D01*
X0075166Y0110201D01*
X0075069Y0110046D01*
X0074976Y0109888D01*
X0074887Y0109728D01*
X0074093Y0110151D01*
X0074193Y0110331D01*
X0074297Y0110508D01*
X0074405Y0110682D01*
X0074518Y0110854D01*
X0074635Y0111022D01*
X0074756Y0111188D01*
X0074880Y0111351D01*
X0075009Y0111511D01*
X0075142Y0111668D01*
X0075278Y0111821D01*
X0075418Y0111971D01*
X0075562Y0112118D01*
X0075709Y0112261D01*
X0075860Y0112401D01*
X0076014Y0112536D01*
X0076171Y0112668D01*
X0076331Y0112796D01*
X0076495Y0112921D01*
X0076661Y0113041D01*
X0076831Y0113157D01*
X0077003Y0113269D01*
X0077177Y0113377D01*
X0077355Y0113480D01*
X0077534Y0113579D01*
X0077717Y0113674D01*
X0077901Y0113764D01*
X0078087Y0113850D01*
X0078276Y0113931D01*
X0078466Y0114008D01*
X0078659Y0114080D01*
X0078853Y0114147D01*
X0079048Y0114210D01*
X0079245Y0114268D01*
X0079443Y0114321D01*
X0079643Y0114369D01*
X0079844Y0114412D01*
X0080045Y0114450D01*
X0080248Y0114484D01*
X0080451Y0114512D01*
X0080655Y0114536D01*
X0080860Y0114555D01*
X0081064Y0114568D01*
X0081269Y0114577D01*
X0081475Y0114581D01*
X0081475Y0114487D01*
X0081272Y0114483D01*
X0081069Y0114475D01*
X0080866Y0114461D01*
X0080664Y0114443D01*
X0080463Y0114419D01*
X0080262Y0114391D01*
X0080061Y0114358D01*
X0079862Y0114320D01*
X0079664Y0114277D01*
X0079466Y0114229D01*
X0079270Y0114177D01*
X0079075Y0114120D01*
X0078882Y0114058D01*
X0078690Y0113991D01*
X0078500Y0113920D01*
X0078312Y0113845D01*
X0078126Y0113764D01*
X0077941Y0113679D01*
X0077759Y0113590D01*
X0077579Y0113496D01*
X0077401Y0113398D01*
X0077226Y0113296D01*
X0077053Y0113190D01*
X0076883Y0113079D01*
X0076715Y0112964D01*
X0076551Y0112845D01*
X0076389Y0112722D01*
X0076231Y0112596D01*
X0076075Y0112465D01*
X0075923Y0112331D01*
X0075774Y0112193D01*
X0075628Y0112052D01*
X0075486Y0111907D01*
X0075348Y0111758D01*
X0075213Y0111607D01*
X0075082Y0111452D01*
X0074955Y0111294D01*
X0074831Y0111132D01*
X0074712Y0110968D01*
X0074596Y0110801D01*
X0074485Y0110632D01*
X0074377Y0110459D01*
X0074274Y0110284D01*
X0074176Y0110107D01*
X0074259Y0110063D01*
X0074356Y0110238D01*
X0074458Y0110411D01*
X0074564Y0110581D01*
X0074674Y0110749D01*
X0074788Y0110914D01*
X0074907Y0111076D01*
X0075029Y0111236D01*
X0075155Y0111392D01*
X0075284Y0111545D01*
X0075418Y0111695D01*
X0075554Y0111842D01*
X0075695Y0111985D01*
X0075839Y0112125D01*
X0075986Y0112261D01*
X0076137Y0112394D01*
X0076290Y0112523D01*
X0076447Y0112648D01*
X0076607Y0112770D01*
X0076770Y0112887D01*
X0076935Y0113001D01*
X0077103Y0113110D01*
X0077274Y0113216D01*
X0077447Y0113317D01*
X0077623Y0113414D01*
X0077801Y0113506D01*
X0077981Y0113594D01*
X0078164Y0113678D01*
X0078348Y0113758D01*
X0078534Y0113833D01*
X0078722Y0113903D01*
X0078912Y0113969D01*
X0079103Y0114030D01*
X0079295Y0114086D01*
X0079489Y0114138D01*
X0079684Y0114185D01*
X0079880Y0114228D01*
X0080078Y0114265D01*
X0080276Y0114298D01*
X0080474Y0114326D01*
X0080674Y0114349D01*
X0080873Y0114367D01*
X0081074Y0114381D01*
X0081274Y0114389D01*
X0081475Y0114393D01*
X0081475Y0114299D01*
X0081276Y0114295D01*
X0081078Y0114287D01*
X0080880Y0114274D01*
X0080683Y0114255D01*
X0080486Y0114233D01*
X0080289Y0114205D01*
X0080094Y0114173D01*
X0079899Y0114135D01*
X0079705Y0114094D01*
X0079512Y0114047D01*
X0079320Y0113996D01*
X0079130Y0113940D01*
X0078941Y0113880D01*
X0078754Y0113815D01*
X0078568Y0113745D01*
X0078384Y0113671D01*
X0078202Y0113592D01*
X0078022Y0113509D01*
X0077843Y0113422D01*
X0077667Y0113331D01*
X0077494Y0113235D01*
X0077322Y0113135D01*
X0077154Y0113031D01*
X0076987Y0112923D01*
X0076824Y0112810D01*
X0076663Y0112694D01*
X0076505Y0112574D01*
X0076350Y0112450D01*
X0076198Y0112323D01*
X0076049Y0112192D01*
X0075904Y0112057D01*
X0075761Y0111919D01*
X0075623Y0111777D01*
X0075487Y0111632D01*
X0075355Y0111484D01*
X0075227Y0111332D01*
X0075103Y0111178D01*
X0074982Y0111021D01*
X0074865Y0110860D01*
X0074752Y0110697D01*
X0074644Y0110531D01*
X0074539Y0110363D01*
X0074438Y0110192D01*
X0074342Y0110019D01*
X0074424Y0109974D01*
X0074520Y0110146D01*
X0074619Y0110315D01*
X0074723Y0110481D01*
X0074831Y0110645D01*
X0074942Y0110806D01*
X0075058Y0110965D01*
X0075177Y0111120D01*
X0075300Y0111273D01*
X0075427Y0111422D01*
X0075557Y0111569D01*
X0075691Y0111712D01*
X0075828Y0111852D01*
X0075969Y0111989D01*
X0076112Y0112122D01*
X0076259Y0112252D01*
X0076410Y0112378D01*
X0076563Y0112500D01*
X0076719Y0112619D01*
X0076878Y0112734D01*
X0077040Y0112844D01*
X0077204Y0112951D01*
X0077371Y0113054D01*
X0077540Y0113153D01*
X0077712Y0113248D01*
X0077886Y0113338D01*
X0078062Y0113425D01*
X0078240Y0113506D01*
X0078420Y0113584D01*
X0078602Y0113657D01*
X0078785Y0113726D01*
X0078971Y0113790D01*
X0079157Y0113850D01*
X0079345Y0113905D01*
X0079535Y0113956D01*
X0079725Y0114002D01*
X0079917Y0114043D01*
X0080110Y0114080D01*
X0080303Y0114112D01*
X0080497Y0114139D01*
X0080692Y0114162D01*
X0080887Y0114180D01*
X0081083Y0114193D01*
X0081279Y0114201D01*
X0081475Y0114205D01*
X0081475Y0114111D01*
X0081281Y0114107D01*
X0081087Y0114099D01*
X0080894Y0114086D01*
X0080701Y0114068D01*
X0080509Y0114046D01*
X0080317Y0114019D01*
X0080126Y0113987D01*
X0079935Y0113951D01*
X0079746Y0113910D01*
X0079558Y0113865D01*
X0079371Y0113815D01*
X0079185Y0113760D01*
X0079000Y0113701D01*
X0078817Y0113638D01*
X0078636Y0113570D01*
X0078456Y0113497D01*
X0078278Y0113421D01*
X0078102Y0113340D01*
X0077928Y0113254D01*
X0077756Y0113165D01*
X0077586Y0113071D01*
X0077419Y0112974D01*
X0077254Y0112872D01*
X0077092Y0112766D01*
X0076932Y0112657D01*
X0076775Y0112543D01*
X0076621Y0112426D01*
X0076469Y0112305D01*
X0076321Y0112181D01*
X0076176Y0112053D01*
X0076033Y0111921D01*
X0075894Y0111786D01*
X0075759Y0111648D01*
X0075627Y0111506D01*
X0075498Y0111361D01*
X0075373Y0111213D01*
X0075251Y0111062D01*
X0075133Y0110909D01*
X0075019Y0110752D01*
X0074909Y0110593D01*
X0074803Y0110431D01*
X0074700Y0110266D01*
X0074602Y0110099D01*
X0074507Y0109930D01*
X0074590Y0109886D01*
X0074684Y0110053D01*
X0074781Y0110218D01*
X0074882Y0110381D01*
X0074987Y0110541D01*
X0075096Y0110698D01*
X0075209Y0110853D01*
X0075325Y0111005D01*
X0075445Y0111154D01*
X0075569Y0111300D01*
X0075696Y0111443D01*
X0075827Y0111583D01*
X0075961Y0111719D01*
X0076098Y0111853D01*
X0076239Y0111983D01*
X0076382Y0112110D01*
X0076529Y0112233D01*
X0076679Y0112352D01*
X0076831Y0112468D01*
X0076986Y0112580D01*
X0077144Y0112688D01*
X0077305Y0112793D01*
X0077468Y0112893D01*
X0077633Y0112990D01*
X0077800Y0113082D01*
X0077970Y0113170D01*
X0078142Y0113255D01*
X0078316Y0113335D01*
X0078492Y0113410D01*
X0078670Y0113482D01*
X0078849Y0113549D01*
X0079030Y0113612D01*
X0079212Y0113670D01*
X0079396Y0113724D01*
X0079581Y0113774D01*
X0079767Y0113818D01*
X0079954Y0113859D01*
X0080142Y0113895D01*
X0080331Y0113926D01*
X0080520Y0113953D01*
X0080710Y0113975D01*
X0080901Y0113992D01*
X0081092Y0114005D01*
X0081283Y0114013D01*
X0081475Y0114017D01*
X0081475Y0113923D01*
X0081286Y0113919D01*
X0081097Y0113911D01*
X0080908Y0113899D01*
X0080720Y0113881D01*
X0080532Y0113859D01*
X0080345Y0113833D01*
X0080158Y0113802D01*
X0079972Y0113767D01*
X0079787Y0113727D01*
X0079603Y0113682D01*
X0079421Y0113633D01*
X0079239Y0113580D01*
X0079059Y0113523D01*
X0078881Y0113461D01*
X0078703Y0113394D01*
X0078528Y0113324D01*
X0078354Y0113249D01*
X0078182Y0113170D01*
X0078013Y0113086D01*
X0077845Y0112999D01*
X0077679Y0112908D01*
X0077516Y0112812D01*
X0077355Y0112713D01*
X0077196Y0112610D01*
X0077040Y0112503D01*
X0076887Y0112392D01*
X0076736Y0112278D01*
X0076589Y0112160D01*
X0076444Y0112038D01*
X0076302Y0111913D01*
X0076163Y0111785D01*
X0076028Y0111653D01*
X0075895Y0111518D01*
X0075766Y0111380D01*
X0075640Y0111238D01*
X0075518Y0111094D01*
X0075399Y0110947D01*
X0075284Y0110797D01*
X0075173Y0110644D01*
X0075065Y0110488D01*
X0074961Y0110330D01*
X0074861Y0110170D01*
X0074765Y0110007D01*
X0074673Y0109842D01*
X0074756Y0109797D01*
X0074847Y0109961D01*
X0074942Y0110122D01*
X0075041Y0110280D01*
X0075143Y0110436D01*
X0075250Y0110590D01*
X0075360Y0110741D01*
X0075474Y0110889D01*
X0075591Y0111035D01*
X0075712Y0111177D01*
X0075836Y0111317D01*
X0075963Y0111453D01*
X0076094Y0111587D01*
X0076228Y0111717D01*
X0076365Y0111844D01*
X0076505Y0111967D01*
X0076648Y0112087D01*
X0076794Y0112204D01*
X0076943Y0112317D01*
X0077095Y0112426D01*
X0077249Y0112532D01*
X0077405Y0112634D01*
X0077564Y0112732D01*
X0077726Y0112826D01*
X0077889Y0112916D01*
X0078055Y0113003D01*
X0078223Y0113085D01*
X0078392Y0113163D01*
X0078564Y0113237D01*
X0078737Y0113306D01*
X0078912Y0113372D01*
X0079089Y0113433D01*
X0079267Y0113490D01*
X0079446Y0113543D01*
X0079626Y0113591D01*
X0079808Y0113635D01*
X0079991Y0113675D01*
X0080174Y0113710D01*
X0080358Y0113740D01*
X0080543Y0113766D01*
X0080729Y0113788D01*
X0080915Y0113805D01*
X0081101Y0113817D01*
X0081288Y0113825D01*
X0081475Y0113829D01*
X0081475Y0113735D01*
X0081290Y0113731D01*
X0081106Y0113723D01*
X0080922Y0113711D01*
X0080738Y0113694D01*
X0080555Y0113673D01*
X0080372Y0113647D01*
X0080190Y0113617D01*
X0080009Y0113582D01*
X0079829Y0113543D01*
X0079649Y0113500D01*
X0079471Y0113452D01*
X0079294Y0113400D01*
X0079118Y0113344D01*
X0078944Y0113284D01*
X0078771Y0113219D01*
X0078600Y0113150D01*
X0078431Y0113077D01*
X0078263Y0113000D01*
X0078097Y0112919D01*
X0077934Y0112833D01*
X0077772Y0112744D01*
X0077613Y0112651D01*
X0077456Y0112554D01*
X0077301Y0112454D01*
X0077149Y0112349D01*
X0076999Y0112241D01*
X0076852Y0112130D01*
X0076708Y0112015D01*
X0076567Y0111896D01*
X0076428Y0111774D01*
X0076293Y0111649D01*
X0076161Y0111520D01*
X0076031Y0111388D01*
X0075905Y0111254D01*
X0075783Y0111116D01*
X0075664Y0110975D01*
X0075548Y0110831D01*
X0075435Y0110685D01*
X0075327Y0110536D01*
X0075222Y0110384D01*
X0075120Y0110230D01*
X0075023Y0110073D01*
X0074929Y0109914D01*
X0074839Y0109753D01*
X0074213Y0101896D02*
X0074994Y0102342D01*
X0075087Y0102185D01*
X0075184Y0102031D01*
X0075285Y0101879D01*
X0075390Y0101730D01*
X0075498Y0101583D01*
X0075609Y0101438D01*
X0075724Y0101297D01*
X0075843Y0101158D01*
X0075965Y0101023D01*
X0076090Y0100890D01*
X0076218Y0100760D01*
X0076349Y0100634D01*
X0076483Y0100510D01*
X0076620Y0100390D01*
X0076760Y0100273D01*
X0076903Y0100160D01*
X0077049Y0100050D01*
X0077197Y0099944D01*
X0077348Y0099841D01*
X0077501Y0099742D01*
X0077656Y0099647D01*
X0077814Y0099556D01*
X0077974Y0099468D01*
X0078136Y0099384D01*
X0078299Y0099304D01*
X0078465Y0099228D01*
X0078633Y0099157D01*
X0078802Y0099089D01*
X0078973Y0099025D01*
X0079145Y0098966D01*
X0079319Y0098910D01*
X0079494Y0098859D01*
X0079670Y0098812D01*
X0079847Y0098770D01*
X0080026Y0098731D01*
X0080205Y0098697D01*
X0080385Y0098667D01*
X0080565Y0098642D01*
X0080746Y0098621D01*
X0080928Y0098605D01*
X0081110Y0098592D01*
X0081292Y0098585D01*
X0081474Y0098581D01*
X0081475Y0097682D01*
X0081474Y0097681D01*
X0081270Y0097685D01*
X0081066Y0097693D01*
X0080862Y0097707D01*
X0080658Y0097725D01*
X0080455Y0097749D01*
X0080253Y0097777D01*
X0080051Y0097810D01*
X0079851Y0097848D01*
X0079651Y0097891D01*
X0079452Y0097939D01*
X0079255Y0097991D01*
X0079059Y0098049D01*
X0078864Y0098111D01*
X0078671Y0098177D01*
X0078479Y0098249D01*
X0078290Y0098325D01*
X0078102Y0098405D01*
X0077916Y0098490D01*
X0077732Y0098580D01*
X0077551Y0098673D01*
X0077372Y0098772D01*
X0077195Y0098874D01*
X0077021Y0098981D01*
X0076849Y0099092D01*
X0076680Y0099207D01*
X0076514Y0099326D01*
X0076351Y0099449D01*
X0076191Y0099576D01*
X0076034Y0099707D01*
X0075880Y0099842D01*
X0075730Y0099980D01*
X0075583Y0100122D01*
X0075439Y0100267D01*
X0075299Y0100416D01*
X0075163Y0100568D01*
X0075030Y0100724D01*
X0074902Y0100882D01*
X0074777Y0101044D01*
X0074656Y0101209D01*
X0074539Y0101376D01*
X0074426Y0101547D01*
X0074317Y0101720D01*
X0074212Y0101895D01*
X0074294Y0101942D01*
X0074397Y0101768D01*
X0074505Y0101597D01*
X0074617Y0101429D01*
X0074732Y0101263D01*
X0074852Y0101100D01*
X0074976Y0100941D01*
X0075103Y0100784D01*
X0075234Y0100630D01*
X0075369Y0100480D01*
X0075507Y0100332D01*
X0075649Y0100189D01*
X0075795Y0100048D01*
X0075943Y0099912D01*
X0076095Y0099779D01*
X0076251Y0099649D01*
X0076409Y0099524D01*
X0076570Y0099402D01*
X0076734Y0099284D01*
X0076901Y0099170D01*
X0077071Y0099061D01*
X0077243Y0098955D01*
X0077418Y0098854D01*
X0077595Y0098756D01*
X0077774Y0098664D01*
X0077956Y0098575D01*
X0078140Y0098491D01*
X0078325Y0098411D01*
X0078513Y0098336D01*
X0078702Y0098266D01*
X0078893Y0098200D01*
X0079086Y0098139D01*
X0079280Y0098082D01*
X0079475Y0098030D01*
X0079671Y0097983D01*
X0079869Y0097941D01*
X0080067Y0097903D01*
X0080267Y0097870D01*
X0080467Y0097842D01*
X0080668Y0097819D01*
X0080869Y0097801D01*
X0081070Y0097787D01*
X0081272Y0097779D01*
X0081474Y0097775D01*
X0081474Y0097869D01*
X0081275Y0097873D01*
X0081075Y0097881D01*
X0080876Y0097894D01*
X0080677Y0097913D01*
X0080478Y0097935D01*
X0080281Y0097963D01*
X0080083Y0097996D01*
X0079887Y0098033D01*
X0079692Y0098075D01*
X0079498Y0098121D01*
X0079305Y0098173D01*
X0079113Y0098229D01*
X0078923Y0098289D01*
X0078734Y0098354D01*
X0078547Y0098424D01*
X0078361Y0098498D01*
X0078178Y0098577D01*
X0077996Y0098660D01*
X0077816Y0098748D01*
X0077639Y0098839D01*
X0077464Y0098935D01*
X0077291Y0099036D01*
X0077121Y0099140D01*
X0076953Y0099249D01*
X0076788Y0099361D01*
X0076626Y0099477D01*
X0076467Y0099598D01*
X0076310Y0099722D01*
X0076157Y0099850D01*
X0076006Y0099981D01*
X0075859Y0100117D01*
X0075716Y0100255D01*
X0075575Y0100397D01*
X0075438Y0100543D01*
X0075305Y0100692D01*
X0075175Y0100844D01*
X0075049Y0100999D01*
X0074927Y0101157D01*
X0074809Y0101318D01*
X0074695Y0101481D01*
X0074584Y0101648D01*
X0074478Y0101817D01*
X0074376Y0101988D01*
X0074457Y0102035D01*
X0074558Y0101865D01*
X0074663Y0101698D01*
X0074773Y0101534D01*
X0074886Y0101372D01*
X0075003Y0101213D01*
X0075123Y0101057D01*
X0075248Y0100903D01*
X0075376Y0100753D01*
X0075508Y0100606D01*
X0075643Y0100462D01*
X0075782Y0100322D01*
X0075924Y0100185D01*
X0076069Y0100051D01*
X0076218Y0099921D01*
X0076370Y0099795D01*
X0076524Y0099672D01*
X0076682Y0099553D01*
X0076842Y0099438D01*
X0077005Y0099327D01*
X0077171Y0099220D01*
X0077339Y0099116D01*
X0077510Y0099017D01*
X0077683Y0098922D01*
X0077859Y0098832D01*
X0078036Y0098745D01*
X0078216Y0098663D01*
X0078397Y0098585D01*
X0078580Y0098512D01*
X0078765Y0098443D01*
X0078952Y0098379D01*
X0079140Y0098319D01*
X0079330Y0098263D01*
X0079520Y0098213D01*
X0079712Y0098166D01*
X0079905Y0098125D01*
X0080099Y0098088D01*
X0080294Y0098056D01*
X0080490Y0098029D01*
X0080686Y0098006D01*
X0080883Y0097988D01*
X0081080Y0097975D01*
X0081277Y0097967D01*
X0081474Y0097963D01*
X0081474Y0098057D01*
X0081279Y0098061D01*
X0081084Y0098069D01*
X0080889Y0098082D01*
X0080695Y0098100D01*
X0080501Y0098122D01*
X0080308Y0098149D01*
X0080115Y0098181D01*
X0079924Y0098217D01*
X0079733Y0098258D01*
X0079543Y0098304D01*
X0079355Y0098354D01*
X0079167Y0098409D01*
X0078981Y0098468D01*
X0078797Y0098531D01*
X0078614Y0098600D01*
X0078433Y0098672D01*
X0078254Y0098749D01*
X0078076Y0098830D01*
X0077901Y0098916D01*
X0077727Y0099005D01*
X0077556Y0099099D01*
X0077388Y0099197D01*
X0077221Y0099299D01*
X0077057Y0099405D01*
X0076896Y0099515D01*
X0076738Y0099629D01*
X0076582Y0099746D01*
X0076429Y0099868D01*
X0076279Y0099993D01*
X0076132Y0100121D01*
X0075989Y0100253D01*
X0075848Y0100389D01*
X0075711Y0100528D01*
X0075577Y0100670D01*
X0075447Y0100815D01*
X0075320Y0100963D01*
X0075197Y0101115D01*
X0075078Y0101269D01*
X0074962Y0101426D01*
X0074851Y0101586D01*
X0074743Y0101749D01*
X0074639Y0101914D01*
X0074539Y0102082D01*
X0074620Y0102128D01*
X0074719Y0101963D01*
X0074822Y0101799D01*
X0074929Y0101639D01*
X0075039Y0101481D01*
X0075153Y0101325D01*
X0075271Y0101173D01*
X0075393Y0101023D01*
X0075518Y0100877D01*
X0075647Y0100733D01*
X0075779Y0100593D01*
X0075914Y0100455D01*
X0076053Y0100321D01*
X0076195Y0100191D01*
X0076340Y0100064D01*
X0076488Y0099940D01*
X0076639Y0099821D01*
X0076793Y0099704D01*
X0076950Y0099592D01*
X0077109Y0099483D01*
X0077271Y0099379D01*
X0077436Y0099278D01*
X0077602Y0099181D01*
X0077772Y0099088D01*
X0077943Y0099000D01*
X0078116Y0098915D01*
X0078292Y0098835D01*
X0078469Y0098759D01*
X0078648Y0098687D01*
X0078829Y0098620D01*
X0079011Y0098557D01*
X0079195Y0098499D01*
X0079380Y0098445D01*
X0079566Y0098395D01*
X0079754Y0098350D01*
X0079942Y0098309D01*
X0080131Y0098273D01*
X0080322Y0098242D01*
X0080513Y0098215D01*
X0080704Y0098193D01*
X0080896Y0098176D01*
X0081089Y0098163D01*
X0081281Y0098155D01*
X0081474Y0098151D01*
X0081474Y0098245D01*
X0081284Y0098249D01*
X0081093Y0098257D01*
X0080903Y0098269D01*
X0080713Y0098287D01*
X0080524Y0098309D01*
X0080336Y0098335D01*
X0080148Y0098366D01*
X0079960Y0098402D01*
X0079774Y0098442D01*
X0079589Y0098486D01*
X0079405Y0098535D01*
X0079222Y0098589D01*
X0079040Y0098646D01*
X0078860Y0098709D01*
X0078682Y0098775D01*
X0078505Y0098846D01*
X0078330Y0098921D01*
X0078156Y0099000D01*
X0077985Y0099084D01*
X0077816Y0099171D01*
X0077649Y0099263D01*
X0077484Y0099359D01*
X0077321Y0099458D01*
X0077161Y0099562D01*
X0077004Y0099669D01*
X0076849Y0099780D01*
X0076697Y0099895D01*
X0076548Y0100013D01*
X0076402Y0100135D01*
X0076258Y0100261D01*
X0076118Y0100390D01*
X0075981Y0100522D01*
X0075847Y0100658D01*
X0075716Y0100796D01*
X0075589Y0100938D01*
X0075465Y0101083D01*
X0075345Y0101231D01*
X0075229Y0101382D01*
X0075116Y0101535D01*
X0075007Y0101691D01*
X0074901Y0101850D01*
X0074800Y0102011D01*
X0074702Y0102175D01*
X0074784Y0102222D01*
X0074880Y0102060D01*
X0074980Y0101901D01*
X0075084Y0101744D01*
X0075192Y0101589D01*
X0075304Y0101438D01*
X0075419Y0101289D01*
X0075538Y0101143D01*
X0075660Y0101000D01*
X0075786Y0100860D01*
X0075915Y0100723D01*
X0076047Y0100589D01*
X0076183Y0100458D01*
X0076321Y0100331D01*
X0076463Y0100207D01*
X0076607Y0100086D01*
X0076755Y0099969D01*
X0076905Y0099856D01*
X0077058Y0099746D01*
X0077214Y0099640D01*
X0077372Y0099538D01*
X0077532Y0099439D01*
X0077695Y0099345D01*
X0077860Y0099254D01*
X0078027Y0099168D01*
X0078196Y0099085D01*
X0078367Y0099007D01*
X0078540Y0098933D01*
X0078715Y0098863D01*
X0078892Y0098797D01*
X0079070Y0098736D01*
X0079249Y0098679D01*
X0079430Y0098626D01*
X0079612Y0098577D01*
X0079795Y0098533D01*
X0079979Y0098494D01*
X0080164Y0098459D01*
X0080349Y0098428D01*
X0080536Y0098402D01*
X0080723Y0098380D01*
X0080910Y0098363D01*
X0081098Y0098351D01*
X0081286Y0098343D01*
X0081474Y0098339D01*
X0081474Y0098433D01*
X0081288Y0098437D01*
X0081103Y0098445D01*
X0080917Y0098457D01*
X0080732Y0098474D01*
X0080547Y0098495D01*
X0080363Y0098521D01*
X0080180Y0098551D01*
X0079997Y0098586D01*
X0079815Y0098625D01*
X0079634Y0098669D01*
X0079455Y0098716D01*
X0079276Y0098769D01*
X0079099Y0098825D01*
X0078923Y0098886D01*
X0078749Y0098951D01*
X0078576Y0099020D01*
X0078405Y0099093D01*
X0078236Y0099170D01*
X0078069Y0099252D01*
X0077904Y0099337D01*
X0077741Y0099427D01*
X0077580Y0099520D01*
X0077422Y0099617D01*
X0077266Y0099718D01*
X0077112Y0099823D01*
X0076961Y0099931D01*
X0076812Y0100043D01*
X0076667Y0100159D01*
X0076524Y0100278D01*
X0076384Y0100400D01*
X0076247Y0100526D01*
X0076113Y0100655D01*
X0075983Y0100788D01*
X0075855Y0100923D01*
X0075731Y0101061D01*
X0075610Y0101203D01*
X0075493Y0101347D01*
X0075379Y0101494D01*
X0075269Y0101644D01*
X0075162Y0101796D01*
X0075060Y0101951D01*
X0074961Y0102109D01*
X0074865Y0102268D01*
X0074947Y0102315D01*
X0075041Y0102157D01*
X0075139Y0102002D01*
X0075240Y0101849D01*
X0075346Y0101698D01*
X0075455Y0101550D01*
X0075567Y0101405D01*
X0075683Y0101263D01*
X0075802Y0101123D01*
X0075925Y0100986D01*
X0076051Y0100853D01*
X0076180Y0100722D01*
X0076312Y0100594D01*
X0076447Y0100470D01*
X0076585Y0100349D01*
X0076726Y0100232D01*
X0076870Y0100118D01*
X0077017Y0100007D01*
X0077166Y0099900D01*
X0077318Y0099796D01*
X0077472Y0099697D01*
X0077628Y0099601D01*
X0077787Y0099509D01*
X0077948Y0099420D01*
X0078111Y0099336D01*
X0078276Y0099255D01*
X0078443Y0099179D01*
X0078612Y0099107D01*
X0078783Y0099038D01*
X0078955Y0098974D01*
X0079128Y0098914D01*
X0079303Y0098858D01*
X0079480Y0098807D01*
X0079657Y0098760D01*
X0079836Y0098717D01*
X0080015Y0098678D01*
X0080196Y0098644D01*
X0080377Y0098614D01*
X0080559Y0098589D01*
X0080741Y0098567D01*
X0080924Y0098551D01*
X0081107Y0098538D01*
X0081291Y0098531D01*
X0081474Y0098527D01*
X0081574Y0097682D02*
X0081574Y0098582D01*
X0081575Y0098581D02*
X0081759Y0098585D01*
X0081944Y0098593D01*
X0082128Y0098605D01*
X0082311Y0098622D01*
X0082495Y0098644D01*
X0082677Y0098669D01*
X0082859Y0098700D01*
X0083040Y0098735D01*
X0083221Y0098774D01*
X0083400Y0098818D01*
X0083578Y0098866D01*
X0083755Y0098918D01*
X0083931Y0098975D01*
X0084105Y0099035D01*
X0084277Y0099101D01*
X0084448Y0099170D01*
X0084618Y0099243D01*
X0084785Y0099321D01*
X0084950Y0099403D01*
X0085114Y0099488D01*
X0085275Y0099578D01*
X0085434Y0099672D01*
X0085591Y0099769D01*
X0085745Y0099870D01*
X0085897Y0099975D01*
X0086046Y0100084D01*
X0086192Y0100196D01*
X0086336Y0100312D01*
X0086476Y0100431D01*
X0086614Y0100554D01*
X0086749Y0100680D01*
X0086881Y0100809D01*
X0087009Y0100942D01*
X0087134Y0101077D01*
X0087256Y0101216D01*
X0087943Y0100635D01*
X0087807Y0100479D01*
X0087666Y0100327D01*
X0087522Y0100178D01*
X0087375Y0100033D01*
X0087224Y0099892D01*
X0087070Y0099755D01*
X0086912Y0099621D01*
X0086751Y0099491D01*
X0086587Y0099365D01*
X0086420Y0099243D01*
X0086250Y0099125D01*
X0086077Y0099012D01*
X0085901Y0098903D01*
X0085723Y0098798D01*
X0085542Y0098697D01*
X0085359Y0098601D01*
X0085174Y0098509D01*
X0084986Y0098422D01*
X0084796Y0098340D01*
X0084605Y0098262D01*
X0084411Y0098189D01*
X0084216Y0098121D01*
X0084019Y0098057D01*
X0083821Y0097999D01*
X0083621Y0097945D01*
X0083420Y0097896D01*
X0083218Y0097852D01*
X0083015Y0097813D01*
X0082811Y0097779D01*
X0082606Y0097750D01*
X0082401Y0097726D01*
X0082195Y0097708D01*
X0081988Y0097694D01*
X0081782Y0097685D01*
X0081575Y0097681D01*
X0081575Y0097775D01*
X0081779Y0097779D01*
X0081984Y0097788D01*
X0082188Y0097801D01*
X0082391Y0097820D01*
X0082594Y0097844D01*
X0082797Y0097872D01*
X0082999Y0097906D01*
X0083199Y0097944D01*
X0083399Y0097988D01*
X0083598Y0098036D01*
X0083795Y0098089D01*
X0083992Y0098147D01*
X0084186Y0098210D01*
X0084379Y0098278D01*
X0084571Y0098350D01*
X0084760Y0098427D01*
X0084948Y0098508D01*
X0085133Y0098594D01*
X0085316Y0098685D01*
X0085498Y0098780D01*
X0085676Y0098879D01*
X0085852Y0098983D01*
X0086026Y0099091D01*
X0086197Y0099203D01*
X0086365Y0099320D01*
X0086530Y0099440D01*
X0086693Y0099565D01*
X0086852Y0099693D01*
X0087008Y0099825D01*
X0087160Y0099961D01*
X0087310Y0100101D01*
X0087455Y0100244D01*
X0087598Y0100391D01*
X0087736Y0100542D01*
X0087871Y0100695D01*
X0087800Y0100756D01*
X0087666Y0100604D01*
X0087529Y0100455D01*
X0087388Y0100310D01*
X0087244Y0100169D01*
X0087097Y0100030D01*
X0086946Y0099896D01*
X0086792Y0099765D01*
X0086634Y0099638D01*
X0086474Y0099515D01*
X0086310Y0099396D01*
X0086144Y0099281D01*
X0085975Y0099170D01*
X0085804Y0099063D01*
X0085629Y0098961D01*
X0085453Y0098862D01*
X0085274Y0098768D01*
X0085092Y0098679D01*
X0084909Y0098594D01*
X0084724Y0098513D01*
X0084536Y0098437D01*
X0084347Y0098366D01*
X0084156Y0098299D01*
X0083964Y0098237D01*
X0083770Y0098180D01*
X0083575Y0098127D01*
X0083378Y0098080D01*
X0083181Y0098037D01*
X0082982Y0097999D01*
X0082783Y0097965D01*
X0082583Y0097937D01*
X0082382Y0097914D01*
X0082181Y0097895D01*
X0081979Y0097881D01*
X0081777Y0097873D01*
X0081575Y0097869D01*
X0081575Y0097963D01*
X0081775Y0097967D01*
X0081974Y0097975D01*
X0082174Y0097989D01*
X0082373Y0098007D01*
X0082571Y0098030D01*
X0082769Y0098058D01*
X0082966Y0098091D01*
X0083162Y0098129D01*
X0083358Y0098171D01*
X0083552Y0098218D01*
X0083745Y0098270D01*
X0083936Y0098327D01*
X0084127Y0098388D01*
X0084315Y0098454D01*
X0084502Y0098525D01*
X0084687Y0098600D01*
X0084871Y0098680D01*
X0085052Y0098764D01*
X0085231Y0098852D01*
X0085408Y0098945D01*
X0085583Y0099042D01*
X0085755Y0099144D01*
X0085924Y0099249D01*
X0086092Y0099359D01*
X0086256Y0099473D01*
X0086417Y0099590D01*
X0086576Y0099712D01*
X0086731Y0099837D01*
X0086884Y0099967D01*
X0087033Y0100100D01*
X0087179Y0100236D01*
X0087321Y0100376D01*
X0087460Y0100520D01*
X0087596Y0100667D01*
X0087728Y0100817D01*
X0087656Y0100877D01*
X0087526Y0100729D01*
X0087392Y0100584D01*
X0087254Y0100442D01*
X0087113Y0100304D01*
X0086969Y0100169D01*
X0086822Y0100037D01*
X0086671Y0099910D01*
X0086517Y0099786D01*
X0086361Y0099665D01*
X0086201Y0099549D01*
X0086039Y0099437D01*
X0085874Y0099328D01*
X0085706Y0099224D01*
X0085536Y0099124D01*
X0085363Y0099028D01*
X0085188Y0098936D01*
X0085011Y0098848D01*
X0084832Y0098765D01*
X0084651Y0098687D01*
X0084468Y0098612D01*
X0084283Y0098543D01*
X0084097Y0098478D01*
X0083909Y0098417D01*
X0083719Y0098361D01*
X0083529Y0098310D01*
X0083337Y0098263D01*
X0083144Y0098221D01*
X0082950Y0098184D01*
X0082755Y0098151D01*
X0082559Y0098124D01*
X0082363Y0098101D01*
X0082167Y0098083D01*
X0081970Y0098069D01*
X0081772Y0098061D01*
X0081575Y0098057D01*
X0081575Y0098151D01*
X0081770Y0098155D01*
X0081965Y0098163D01*
X0082160Y0098176D01*
X0082354Y0098194D01*
X0082548Y0098217D01*
X0082741Y0098244D01*
X0082934Y0098276D01*
X0083125Y0098313D01*
X0083316Y0098355D01*
X0083506Y0098401D01*
X0083694Y0098451D01*
X0083881Y0098507D01*
X0084067Y0098567D01*
X0084251Y0098631D01*
X0084434Y0098700D01*
X0084615Y0098773D01*
X0084794Y0098851D01*
X0084971Y0098933D01*
X0085146Y0099020D01*
X0085318Y0099110D01*
X0085489Y0099205D01*
X0085657Y0099304D01*
X0085823Y0099407D01*
X0085986Y0099514D01*
X0086147Y0099625D01*
X0086304Y0099740D01*
X0086459Y0099859D01*
X0086611Y0099982D01*
X0086760Y0100108D01*
X0086906Y0100238D01*
X0087048Y0100371D01*
X0087187Y0100508D01*
X0087323Y0100648D01*
X0087455Y0100792D01*
X0087584Y0100938D01*
X0087512Y0100999D01*
X0087385Y0100854D01*
X0087254Y0100712D01*
X0087120Y0100574D01*
X0086983Y0100439D01*
X0086842Y0100307D01*
X0086698Y0100179D01*
X0086551Y0100054D01*
X0086401Y0099933D01*
X0086248Y0099816D01*
X0086092Y0099702D01*
X0085933Y0099592D01*
X0085772Y0099486D01*
X0085608Y0099385D01*
X0085442Y0099287D01*
X0085274Y0099193D01*
X0085103Y0099103D01*
X0084930Y0099018D01*
X0084755Y0098937D01*
X0084578Y0098860D01*
X0084400Y0098788D01*
X0084219Y0098719D01*
X0084037Y0098656D01*
X0083854Y0098597D01*
X0083669Y0098542D01*
X0083483Y0098492D01*
X0083295Y0098446D01*
X0083107Y0098405D01*
X0082917Y0098369D01*
X0082727Y0098337D01*
X0082536Y0098310D01*
X0082345Y0098288D01*
X0082153Y0098270D01*
X0081960Y0098257D01*
X0081768Y0098249D01*
X0081575Y0098245D01*
X0081575Y0098339D01*
X0081765Y0098343D01*
X0081956Y0098351D01*
X0082146Y0098364D01*
X0082335Y0098381D01*
X0082525Y0098403D01*
X0082713Y0098430D01*
X0082901Y0098461D01*
X0083088Y0098497D01*
X0083274Y0098538D01*
X0083459Y0098583D01*
X0083643Y0098632D01*
X0083826Y0098687D01*
X0084007Y0098745D01*
X0084187Y0098808D01*
X0084365Y0098875D01*
X0084542Y0098947D01*
X0084717Y0099023D01*
X0084889Y0099103D01*
X0085060Y0099187D01*
X0085229Y0099276D01*
X0085395Y0099368D01*
X0085560Y0099465D01*
X0085721Y0099565D01*
X0085881Y0099670D01*
X0086037Y0099778D01*
X0086191Y0099891D01*
X0086342Y0100007D01*
X0086491Y0100126D01*
X0086636Y0100249D01*
X0086778Y0100376D01*
X0086917Y0100506D01*
X0087053Y0100640D01*
X0087186Y0100776D01*
X0087315Y0100916D01*
X0087441Y0101060D01*
X0087369Y0101120D01*
X0087245Y0100979D01*
X0087117Y0100841D01*
X0086986Y0100706D01*
X0086852Y0100574D01*
X0086715Y0100445D01*
X0086574Y0100320D01*
X0086430Y0100198D01*
X0086284Y0100080D01*
X0086135Y0099966D01*
X0085983Y0099855D01*
X0085828Y0099748D01*
X0085671Y0099645D01*
X0085511Y0099545D01*
X0085349Y0099450D01*
X0085184Y0099358D01*
X0085018Y0099271D01*
X0084849Y0099188D01*
X0084678Y0099108D01*
X0084506Y0099033D01*
X0084331Y0098963D01*
X0084155Y0098896D01*
X0083978Y0098834D01*
X0083798Y0098776D01*
X0083618Y0098723D01*
X0083436Y0098674D01*
X0083254Y0098630D01*
X0083070Y0098590D01*
X0082885Y0098554D01*
X0082699Y0098523D01*
X0082513Y0098497D01*
X0082326Y0098475D01*
X0082139Y0098458D01*
X0081951Y0098445D01*
X0081763Y0098437D01*
X0081575Y0098433D01*
X0081575Y0098527D01*
X0081761Y0098531D01*
X0081946Y0098539D01*
X0082132Y0098551D01*
X0082317Y0098568D01*
X0082501Y0098590D01*
X0082685Y0098616D01*
X0082869Y0098647D01*
X0083051Y0098682D01*
X0083233Y0098721D01*
X0083413Y0098765D01*
X0083593Y0098814D01*
X0083771Y0098866D01*
X0083948Y0098923D01*
X0084123Y0098985D01*
X0084297Y0099050D01*
X0084469Y0099120D01*
X0084640Y0099194D01*
X0084808Y0099272D01*
X0084975Y0099355D01*
X0085139Y0099441D01*
X0085302Y0099531D01*
X0085462Y0099626D01*
X0085620Y0099724D01*
X0085775Y0099826D01*
X0085928Y0099931D01*
X0086078Y0100041D01*
X0086226Y0100154D01*
X0086370Y0100271D01*
X0086512Y0100391D01*
X0086651Y0100514D01*
X0086787Y0100641D01*
X0086919Y0100771D01*
X0087048Y0100905D01*
X0087175Y0101041D01*
X0087297Y0101181D01*
X0087983Y0111579D02*
X0087291Y0111002D01*
X0087292Y0111003D02*
X0087173Y0111140D01*
X0087052Y0111274D01*
X0086927Y0111405D01*
X0086799Y0111533D01*
X0086668Y0111657D01*
X0086534Y0111779D01*
X0086397Y0111898D01*
X0086258Y0112013D01*
X0086115Y0112124D01*
X0085970Y0112233D01*
X0085823Y0112338D01*
X0085673Y0112439D01*
X0085521Y0112536D01*
X0085366Y0112630D01*
X0085209Y0112721D01*
X0085050Y0112807D01*
X0084889Y0112890D01*
X0084726Y0112968D01*
X0084561Y0113043D01*
X0084395Y0113114D01*
X0084227Y0113181D01*
X0084057Y0113243D01*
X0083886Y0113302D01*
X0083713Y0113357D01*
X0083540Y0113407D01*
X0083365Y0113453D01*
X0083189Y0113495D01*
X0083012Y0113533D01*
X0082834Y0113566D01*
X0082655Y0113596D01*
X0082476Y0113621D01*
X0082296Y0113641D01*
X0082116Y0113658D01*
X0081936Y0113670D01*
X0081755Y0113677D01*
X0081574Y0113681D01*
X0081573Y0114580D01*
X0081574Y0114581D01*
X0081777Y0114577D01*
X0081979Y0114569D01*
X0082182Y0114555D01*
X0082384Y0114537D01*
X0082585Y0114514D01*
X0082786Y0114486D01*
X0082986Y0114453D01*
X0083186Y0114416D01*
X0083384Y0114374D01*
X0083582Y0114327D01*
X0083778Y0114275D01*
X0083972Y0114218D01*
X0084166Y0114157D01*
X0084358Y0114092D01*
X0084548Y0114021D01*
X0084737Y0113946D01*
X0084923Y0113867D01*
X0085108Y0113783D01*
X0085291Y0113695D01*
X0085471Y0113602D01*
X0085649Y0113506D01*
X0085825Y0113404D01*
X0085998Y0113299D01*
X0086169Y0113190D01*
X0086337Y0113076D01*
X0086503Y0112959D01*
X0086665Y0112837D01*
X0086825Y0112712D01*
X0086981Y0112583D01*
X0087134Y0112450D01*
X0087284Y0112313D01*
X0087431Y0112173D01*
X0087574Y0112030D01*
X0087714Y0111883D01*
X0087851Y0111733D01*
X0087983Y0111579D01*
X0087911Y0111519D01*
X0087780Y0111671D01*
X0087645Y0111819D01*
X0087507Y0111964D01*
X0087365Y0112106D01*
X0087220Y0112245D01*
X0087072Y0112380D01*
X0086920Y0112511D01*
X0086765Y0112639D01*
X0086608Y0112763D01*
X0086447Y0112883D01*
X0086284Y0112999D01*
X0086117Y0113111D01*
X0085949Y0113219D01*
X0085777Y0113324D01*
X0085603Y0113424D01*
X0085427Y0113519D01*
X0085249Y0113611D01*
X0085068Y0113698D01*
X0084885Y0113781D01*
X0084701Y0113860D01*
X0084515Y0113934D01*
X0084326Y0114003D01*
X0084137Y0114068D01*
X0083945Y0114128D01*
X0083753Y0114184D01*
X0083559Y0114235D01*
X0083364Y0114282D01*
X0083168Y0114324D01*
X0082971Y0114361D01*
X0082773Y0114393D01*
X0082574Y0114421D01*
X0082375Y0114444D01*
X0082175Y0114462D01*
X0081975Y0114475D01*
X0081774Y0114483D01*
X0081574Y0114487D01*
X0081574Y0114393D01*
X0081772Y0114389D01*
X0081970Y0114381D01*
X0082168Y0114368D01*
X0082366Y0114350D01*
X0082563Y0114327D01*
X0082759Y0114300D01*
X0082955Y0114268D01*
X0083149Y0114232D01*
X0083343Y0114190D01*
X0083536Y0114144D01*
X0083728Y0114094D01*
X0083918Y0114038D01*
X0084107Y0113979D01*
X0084295Y0113914D01*
X0084481Y0113846D01*
X0084665Y0113773D01*
X0084848Y0113695D01*
X0085028Y0113613D01*
X0085207Y0113527D01*
X0085383Y0113436D01*
X0085557Y0113342D01*
X0085729Y0113243D01*
X0085899Y0113140D01*
X0086066Y0113033D01*
X0086230Y0112922D01*
X0086391Y0112807D01*
X0086550Y0112688D01*
X0086706Y0112566D01*
X0086859Y0112440D01*
X0087009Y0112310D01*
X0087156Y0112176D01*
X0087299Y0112039D01*
X0087439Y0111899D01*
X0087576Y0111756D01*
X0087709Y0111609D01*
X0087839Y0111459D01*
X0087767Y0111399D01*
X0087638Y0111547D01*
X0087507Y0111692D01*
X0087372Y0111834D01*
X0087233Y0111972D01*
X0087091Y0112108D01*
X0086946Y0112240D01*
X0086798Y0112368D01*
X0086647Y0112493D01*
X0086493Y0112614D01*
X0086336Y0112731D01*
X0086176Y0112845D01*
X0086014Y0112954D01*
X0085849Y0113060D01*
X0085681Y0113162D01*
X0085511Y0113260D01*
X0085339Y0113353D01*
X0085165Y0113443D01*
X0084988Y0113528D01*
X0084810Y0113609D01*
X0084630Y0113686D01*
X0084447Y0113758D01*
X0084264Y0113826D01*
X0084078Y0113889D01*
X0083891Y0113948D01*
X0083703Y0114003D01*
X0083514Y0114053D01*
X0083323Y0114098D01*
X0083131Y0114139D01*
X0082939Y0114176D01*
X0082745Y0114207D01*
X0082551Y0114234D01*
X0082356Y0114256D01*
X0082161Y0114274D01*
X0081966Y0114287D01*
X0081770Y0114295D01*
X0081574Y0114299D01*
X0081574Y0114205D01*
X0081768Y0114201D01*
X0081961Y0114193D01*
X0082154Y0114180D01*
X0082347Y0114163D01*
X0082540Y0114141D01*
X0082732Y0114114D01*
X0082923Y0114083D01*
X0083113Y0114047D01*
X0083303Y0114007D01*
X0083491Y0113962D01*
X0083678Y0113912D01*
X0083864Y0113858D01*
X0084049Y0113800D01*
X0084232Y0113737D01*
X0084414Y0113670D01*
X0084594Y0113599D01*
X0084772Y0113523D01*
X0084949Y0113443D01*
X0085123Y0113359D01*
X0085295Y0113270D01*
X0085465Y0113178D01*
X0085633Y0113081D01*
X0085799Y0112980D01*
X0085962Y0112876D01*
X0086122Y0112768D01*
X0086280Y0112655D01*
X0086435Y0112539D01*
X0086588Y0112420D01*
X0086737Y0112296D01*
X0086884Y0112170D01*
X0087027Y0112039D01*
X0087167Y0111906D01*
X0087304Y0111769D01*
X0087437Y0111628D01*
X0087568Y0111485D01*
X0087694Y0111338D01*
X0087622Y0111278D01*
X0087497Y0111423D01*
X0087368Y0111565D01*
X0087236Y0111703D01*
X0087101Y0111839D01*
X0086962Y0111971D01*
X0086821Y0112100D01*
X0086676Y0112225D01*
X0086529Y0112347D01*
X0086378Y0112465D01*
X0086225Y0112580D01*
X0086069Y0112690D01*
X0085910Y0112798D01*
X0085749Y0112901D01*
X0085585Y0113000D01*
X0085419Y0113096D01*
X0085251Y0113187D01*
X0085081Y0113274D01*
X0084909Y0113358D01*
X0084734Y0113437D01*
X0084558Y0113512D01*
X0084380Y0113582D01*
X0084201Y0113649D01*
X0084020Y0113711D01*
X0083837Y0113768D01*
X0083653Y0113822D01*
X0083468Y0113871D01*
X0083282Y0113915D01*
X0083095Y0113955D01*
X0082907Y0113990D01*
X0082718Y0114021D01*
X0082528Y0114048D01*
X0082338Y0114069D01*
X0082148Y0114087D01*
X0081957Y0114099D01*
X0081765Y0114107D01*
X0081574Y0114111D01*
X0081574Y0114017D01*
X0081763Y0114013D01*
X0081952Y0114005D01*
X0082141Y0113993D01*
X0082329Y0113976D01*
X0082517Y0113954D01*
X0082704Y0113928D01*
X0082891Y0113898D01*
X0083077Y0113863D01*
X0083262Y0113823D01*
X0083446Y0113779D01*
X0083628Y0113731D01*
X0083810Y0113678D01*
X0083990Y0113621D01*
X0084169Y0113560D01*
X0084347Y0113494D01*
X0084523Y0113425D01*
X0084697Y0113351D01*
X0084869Y0113273D01*
X0085039Y0113190D01*
X0085207Y0113104D01*
X0085373Y0113014D01*
X0085537Y0112919D01*
X0085699Y0112821D01*
X0085858Y0112719D01*
X0086015Y0112613D01*
X0086169Y0112504D01*
X0086321Y0112390D01*
X0086469Y0112274D01*
X0086615Y0112153D01*
X0086758Y0112030D01*
X0086898Y0111902D01*
X0087035Y0111772D01*
X0087169Y0111638D01*
X0087299Y0111501D01*
X0087426Y0111361D01*
X0087550Y0111218D01*
X0087478Y0111158D01*
X0087355Y0111299D01*
X0087230Y0111437D01*
X0087101Y0111573D01*
X0086969Y0111705D01*
X0086834Y0111834D01*
X0086695Y0111959D01*
X0086554Y0112082D01*
X0086410Y0112201D01*
X0086263Y0112316D01*
X0086114Y0112428D01*
X0085961Y0112536D01*
X0085806Y0112641D01*
X0085649Y0112741D01*
X0085489Y0112838D01*
X0085328Y0112932D01*
X0085163Y0113021D01*
X0084997Y0113106D01*
X0084829Y0113187D01*
X0084659Y0113265D01*
X0084487Y0113338D01*
X0084313Y0113407D01*
X0084138Y0113471D01*
X0083961Y0113532D01*
X0083783Y0113588D01*
X0083604Y0113640D01*
X0083423Y0113688D01*
X0083241Y0113731D01*
X0083059Y0113770D01*
X0082875Y0113805D01*
X0082691Y0113835D01*
X0082506Y0113861D01*
X0082320Y0113882D01*
X0082134Y0113899D01*
X0081947Y0113911D01*
X0081761Y0113919D01*
X0081574Y0113923D01*
X0081574Y0113829D01*
X0081758Y0113825D01*
X0081943Y0113818D01*
X0082127Y0113805D01*
X0082311Y0113789D01*
X0082494Y0113768D01*
X0082677Y0113742D01*
X0082859Y0113712D01*
X0083040Y0113678D01*
X0083221Y0113640D01*
X0083400Y0113597D01*
X0083579Y0113550D01*
X0083756Y0113498D01*
X0083932Y0113443D01*
X0084107Y0113383D01*
X0084280Y0113319D01*
X0084451Y0113251D01*
X0084621Y0113179D01*
X0084789Y0113102D01*
X0084955Y0113022D01*
X0085119Y0112938D01*
X0085282Y0112850D01*
X0085442Y0112758D01*
X0085599Y0112662D01*
X0085755Y0112562D01*
X0085908Y0112459D01*
X0086058Y0112352D01*
X0086206Y0112242D01*
X0086351Y0112128D01*
X0086493Y0112010D01*
X0086633Y0111889D01*
X0086769Y0111765D01*
X0086903Y0111638D01*
X0087033Y0111507D01*
X0087161Y0111374D01*
X0087285Y0111237D01*
X0087405Y0111098D01*
X0087333Y0111037D01*
X0087214Y0111175D01*
X0087091Y0111310D01*
X0086966Y0111442D01*
X0086837Y0111571D01*
X0086705Y0111697D01*
X0086570Y0111819D01*
X0086432Y0111939D01*
X0086292Y0112055D01*
X0086148Y0112167D01*
X0086002Y0112276D01*
X0085854Y0112382D01*
X0085703Y0112484D01*
X0085549Y0112582D01*
X0085394Y0112677D01*
X0085236Y0112768D01*
X0085075Y0112855D01*
X0084913Y0112938D01*
X0084749Y0113017D01*
X0084583Y0113092D01*
X0084415Y0113164D01*
X0084246Y0113231D01*
X0084075Y0113294D01*
X0083903Y0113353D01*
X0083729Y0113408D01*
X0083554Y0113459D01*
X0083378Y0113506D01*
X0083200Y0113548D01*
X0083022Y0113586D01*
X0082843Y0113620D01*
X0082663Y0113649D01*
X0082483Y0113674D01*
X0082302Y0113695D01*
X0082120Y0113712D01*
X0081938Y0113724D01*
X0081756Y0113731D01*
X0081574Y0113735D01*
X0134724Y0097682D02*
X0134724Y0098582D01*
X0134724Y0098581D02*
X0134907Y0098585D01*
X0135090Y0098592D01*
X0135273Y0098605D01*
X0135456Y0098622D01*
X0135638Y0098643D01*
X0135819Y0098668D01*
X0136000Y0098698D01*
X0136180Y0098733D01*
X0136359Y0098771D01*
X0136537Y0098814D01*
X0136714Y0098862D01*
X0136889Y0098913D01*
X0137064Y0098969D01*
X0137237Y0099029D01*
X0137408Y0099094D01*
X0137578Y0099162D01*
X0137747Y0099234D01*
X0137913Y0099311D01*
X0138077Y0099392D01*
X0138240Y0099476D01*
X0138400Y0099565D01*
X0138559Y0099657D01*
X0138715Y0099753D01*
X0138868Y0099853D01*
X0139019Y0099957D01*
X0139168Y0100064D01*
X0139314Y0100175D01*
X0139457Y0100289D01*
X0139597Y0100407D01*
X0139734Y0100528D01*
X0139869Y0100652D01*
X0140000Y0100780D01*
X0140129Y0100911D01*
X0140254Y0101045D01*
X0140375Y0101181D01*
X0140494Y0101321D01*
X0140609Y0101464D01*
X0140720Y0101609D01*
X0140828Y0101757D01*
X0140932Y0101908D01*
X0141033Y0102061D01*
X0141130Y0102216D01*
X0141223Y0102374D01*
X0141312Y0102534D01*
X0142106Y0102111D01*
X0142006Y0101931D01*
X0141902Y0101754D01*
X0141794Y0101580D01*
X0141681Y0101408D01*
X0141564Y0101240D01*
X0141443Y0101074D01*
X0141319Y0100911D01*
X0141190Y0100751D01*
X0141057Y0100594D01*
X0140921Y0100441D01*
X0140781Y0100291D01*
X0140637Y0100144D01*
X0140490Y0100001D01*
X0140339Y0099861D01*
X0140185Y0099726D01*
X0140028Y0099594D01*
X0139868Y0099466D01*
X0139704Y0099341D01*
X0139538Y0099221D01*
X0139368Y0099105D01*
X0139196Y0098993D01*
X0139022Y0098885D01*
X0138844Y0098782D01*
X0138665Y0098683D01*
X0138482Y0098588D01*
X0138298Y0098498D01*
X0138112Y0098412D01*
X0137923Y0098331D01*
X0137733Y0098254D01*
X0137540Y0098182D01*
X0137346Y0098115D01*
X0137151Y0098052D01*
X0136954Y0097994D01*
X0136756Y0097941D01*
X0136556Y0097893D01*
X0136355Y0097850D01*
X0136154Y0097812D01*
X0135951Y0097778D01*
X0135748Y0097750D01*
X0135544Y0097726D01*
X0135339Y0097707D01*
X0135135Y0097694D01*
X0134930Y0097685D01*
X0134724Y0097681D01*
X0134724Y0097775D01*
X0134927Y0097779D01*
X0135130Y0097787D01*
X0135333Y0097801D01*
X0135535Y0097819D01*
X0135736Y0097843D01*
X0135937Y0097871D01*
X0136138Y0097904D01*
X0136337Y0097942D01*
X0136535Y0097985D01*
X0136733Y0098033D01*
X0136929Y0098085D01*
X0137124Y0098142D01*
X0137317Y0098204D01*
X0137509Y0098271D01*
X0137699Y0098342D01*
X0137887Y0098417D01*
X0138073Y0098498D01*
X0138258Y0098583D01*
X0138440Y0098672D01*
X0138620Y0098766D01*
X0138798Y0098864D01*
X0138973Y0098966D01*
X0139146Y0099072D01*
X0139316Y0099183D01*
X0139484Y0099298D01*
X0139648Y0099417D01*
X0139810Y0099540D01*
X0139968Y0099666D01*
X0140124Y0099797D01*
X0140276Y0099931D01*
X0140425Y0100069D01*
X0140571Y0100210D01*
X0140713Y0100355D01*
X0140851Y0100504D01*
X0140986Y0100655D01*
X0141117Y0100810D01*
X0141244Y0100968D01*
X0141368Y0101130D01*
X0141487Y0101294D01*
X0141603Y0101461D01*
X0141714Y0101630D01*
X0141822Y0101803D01*
X0141925Y0101978D01*
X0142023Y0102155D01*
X0141940Y0102199D01*
X0141843Y0102024D01*
X0141741Y0101851D01*
X0141635Y0101681D01*
X0141525Y0101513D01*
X0141411Y0101348D01*
X0141292Y0101186D01*
X0141170Y0101026D01*
X0141044Y0100870D01*
X0140915Y0100717D01*
X0140781Y0100567D01*
X0140645Y0100420D01*
X0140504Y0100277D01*
X0140360Y0100137D01*
X0140213Y0100001D01*
X0140062Y0099868D01*
X0139909Y0099739D01*
X0139752Y0099614D01*
X0139592Y0099492D01*
X0139429Y0099375D01*
X0139264Y0099261D01*
X0139096Y0099152D01*
X0138925Y0099046D01*
X0138752Y0098945D01*
X0138576Y0098848D01*
X0138398Y0098756D01*
X0138218Y0098668D01*
X0138035Y0098584D01*
X0137851Y0098504D01*
X0137665Y0098429D01*
X0137477Y0098359D01*
X0137287Y0098293D01*
X0137096Y0098232D01*
X0136904Y0098176D01*
X0136710Y0098124D01*
X0136515Y0098077D01*
X0136319Y0098034D01*
X0136121Y0097997D01*
X0135923Y0097964D01*
X0135725Y0097936D01*
X0135525Y0097913D01*
X0135326Y0097895D01*
X0135125Y0097881D01*
X0134925Y0097873D01*
X0134724Y0097869D01*
X0134724Y0097963D01*
X0134923Y0097967D01*
X0135121Y0097975D01*
X0135319Y0097988D01*
X0135516Y0098007D01*
X0135713Y0098029D01*
X0135910Y0098057D01*
X0136105Y0098089D01*
X0136300Y0098127D01*
X0136494Y0098168D01*
X0136687Y0098215D01*
X0136879Y0098266D01*
X0137069Y0098322D01*
X0137258Y0098382D01*
X0137445Y0098447D01*
X0137631Y0098517D01*
X0137815Y0098591D01*
X0137997Y0098670D01*
X0138177Y0098753D01*
X0138356Y0098840D01*
X0138532Y0098931D01*
X0138705Y0099027D01*
X0138877Y0099127D01*
X0139045Y0099231D01*
X0139212Y0099339D01*
X0139375Y0099452D01*
X0139536Y0099568D01*
X0139694Y0099688D01*
X0139849Y0099812D01*
X0140001Y0099939D01*
X0140150Y0100070D01*
X0140295Y0100205D01*
X0140438Y0100343D01*
X0140576Y0100485D01*
X0140712Y0100630D01*
X0140844Y0100778D01*
X0140972Y0100930D01*
X0141096Y0101084D01*
X0141217Y0101241D01*
X0141334Y0101402D01*
X0141447Y0101565D01*
X0141555Y0101731D01*
X0141660Y0101899D01*
X0141761Y0102070D01*
X0141857Y0102243D01*
X0141775Y0102288D01*
X0141679Y0102116D01*
X0141580Y0101947D01*
X0141476Y0101781D01*
X0141368Y0101617D01*
X0141257Y0101456D01*
X0141141Y0101297D01*
X0141022Y0101142D01*
X0140899Y0100989D01*
X0140772Y0100840D01*
X0140642Y0100693D01*
X0140508Y0100550D01*
X0140371Y0100410D01*
X0140230Y0100273D01*
X0140087Y0100140D01*
X0139940Y0100010D01*
X0139789Y0099884D01*
X0139636Y0099762D01*
X0139480Y0099643D01*
X0139321Y0099528D01*
X0139159Y0099418D01*
X0138995Y0099311D01*
X0138828Y0099208D01*
X0138659Y0099109D01*
X0138487Y0099014D01*
X0138313Y0098924D01*
X0138137Y0098837D01*
X0137959Y0098756D01*
X0137779Y0098678D01*
X0137597Y0098605D01*
X0137414Y0098536D01*
X0137228Y0098472D01*
X0137042Y0098412D01*
X0136854Y0098357D01*
X0136664Y0098306D01*
X0136474Y0098260D01*
X0136282Y0098219D01*
X0136089Y0098182D01*
X0135896Y0098150D01*
X0135702Y0098123D01*
X0135507Y0098100D01*
X0135312Y0098082D01*
X0135116Y0098069D01*
X0134920Y0098061D01*
X0134724Y0098057D01*
X0134724Y0098151D01*
X0134918Y0098155D01*
X0135112Y0098163D01*
X0135305Y0098176D01*
X0135498Y0098194D01*
X0135690Y0098216D01*
X0135882Y0098243D01*
X0136073Y0098275D01*
X0136264Y0098311D01*
X0136453Y0098352D01*
X0136641Y0098397D01*
X0136828Y0098447D01*
X0137014Y0098502D01*
X0137199Y0098561D01*
X0137382Y0098624D01*
X0137563Y0098692D01*
X0137743Y0098765D01*
X0137921Y0098841D01*
X0138097Y0098922D01*
X0138271Y0099008D01*
X0138443Y0099097D01*
X0138613Y0099191D01*
X0138780Y0099288D01*
X0138945Y0099390D01*
X0139107Y0099496D01*
X0139267Y0099605D01*
X0139424Y0099719D01*
X0139578Y0099836D01*
X0139730Y0099957D01*
X0139878Y0100081D01*
X0140023Y0100209D01*
X0140166Y0100341D01*
X0140305Y0100476D01*
X0140440Y0100614D01*
X0140572Y0100756D01*
X0140701Y0100901D01*
X0140826Y0101049D01*
X0140948Y0101200D01*
X0141066Y0101353D01*
X0141180Y0101510D01*
X0141290Y0101669D01*
X0141396Y0101831D01*
X0141499Y0101996D01*
X0141597Y0102163D01*
X0141692Y0102332D01*
X0141609Y0102376D01*
X0141515Y0102209D01*
X0141418Y0102044D01*
X0141317Y0101881D01*
X0141212Y0101721D01*
X0141103Y0101564D01*
X0140990Y0101409D01*
X0140874Y0101257D01*
X0140754Y0101108D01*
X0140630Y0100962D01*
X0140503Y0100819D01*
X0140372Y0100679D01*
X0140238Y0100543D01*
X0140101Y0100409D01*
X0139960Y0100279D01*
X0139817Y0100152D01*
X0139670Y0100029D01*
X0139520Y0099910D01*
X0139368Y0099794D01*
X0139213Y0099682D01*
X0139055Y0099574D01*
X0138894Y0099469D01*
X0138731Y0099369D01*
X0138566Y0099272D01*
X0138399Y0099180D01*
X0138229Y0099092D01*
X0138057Y0099007D01*
X0137883Y0098927D01*
X0137707Y0098852D01*
X0137529Y0098780D01*
X0137350Y0098713D01*
X0137169Y0098650D01*
X0136987Y0098592D01*
X0136803Y0098538D01*
X0136618Y0098488D01*
X0136432Y0098444D01*
X0136245Y0098403D01*
X0136057Y0098367D01*
X0135868Y0098336D01*
X0135679Y0098309D01*
X0135489Y0098287D01*
X0135298Y0098270D01*
X0135107Y0098257D01*
X0134916Y0098249D01*
X0134724Y0098245D01*
X0134724Y0098339D01*
X0134913Y0098343D01*
X0135102Y0098351D01*
X0135291Y0098363D01*
X0135479Y0098381D01*
X0135667Y0098403D01*
X0135854Y0098429D01*
X0136041Y0098460D01*
X0136227Y0098495D01*
X0136412Y0098535D01*
X0136596Y0098580D01*
X0136778Y0098629D01*
X0136960Y0098682D01*
X0137140Y0098739D01*
X0137318Y0098801D01*
X0137496Y0098868D01*
X0137671Y0098938D01*
X0137845Y0099013D01*
X0138017Y0099092D01*
X0138186Y0099176D01*
X0138354Y0099263D01*
X0138520Y0099354D01*
X0138683Y0099450D01*
X0138844Y0099549D01*
X0139003Y0099652D01*
X0139159Y0099759D01*
X0139312Y0099870D01*
X0139463Y0099984D01*
X0139610Y0100102D01*
X0139755Y0100224D01*
X0139897Y0100349D01*
X0140036Y0100477D01*
X0140171Y0100609D01*
X0140304Y0100744D01*
X0140433Y0100882D01*
X0140559Y0101024D01*
X0140681Y0101168D01*
X0140800Y0101315D01*
X0140915Y0101465D01*
X0141026Y0101618D01*
X0141134Y0101774D01*
X0141238Y0101932D01*
X0141338Y0102092D01*
X0141434Y0102255D01*
X0141526Y0102420D01*
X0141443Y0102465D01*
X0141352Y0102301D01*
X0141257Y0102140D01*
X0141158Y0101982D01*
X0141056Y0101826D01*
X0140949Y0101672D01*
X0140839Y0101521D01*
X0140725Y0101373D01*
X0140608Y0101227D01*
X0140487Y0101085D01*
X0140363Y0100945D01*
X0140236Y0100809D01*
X0140105Y0100675D01*
X0139971Y0100545D01*
X0139834Y0100418D01*
X0139694Y0100295D01*
X0139551Y0100175D01*
X0139405Y0100058D01*
X0139256Y0099945D01*
X0139104Y0099836D01*
X0138950Y0099730D01*
X0138794Y0099628D01*
X0138635Y0099530D01*
X0138473Y0099436D01*
X0138310Y0099346D01*
X0138144Y0099259D01*
X0137976Y0099177D01*
X0137807Y0099099D01*
X0137635Y0099025D01*
X0137462Y0098956D01*
X0137287Y0098890D01*
X0137110Y0098829D01*
X0136932Y0098772D01*
X0136753Y0098719D01*
X0136573Y0098671D01*
X0136391Y0098627D01*
X0136208Y0098587D01*
X0136025Y0098552D01*
X0135841Y0098522D01*
X0135656Y0098496D01*
X0135470Y0098474D01*
X0135284Y0098457D01*
X0135098Y0098445D01*
X0134911Y0098437D01*
X0134724Y0098433D01*
X0134724Y0098527D01*
X0134909Y0098531D01*
X0135093Y0098539D01*
X0135277Y0098551D01*
X0135461Y0098568D01*
X0135644Y0098589D01*
X0135827Y0098615D01*
X0136009Y0098645D01*
X0136190Y0098680D01*
X0136370Y0098719D01*
X0136550Y0098762D01*
X0136728Y0098810D01*
X0136905Y0098862D01*
X0137081Y0098918D01*
X0137255Y0098978D01*
X0137428Y0099043D01*
X0137599Y0099112D01*
X0137768Y0099185D01*
X0137936Y0099262D01*
X0138102Y0099343D01*
X0138265Y0099429D01*
X0138427Y0099518D01*
X0138586Y0099611D01*
X0138743Y0099708D01*
X0138898Y0099808D01*
X0139050Y0099913D01*
X0139200Y0100021D01*
X0139347Y0100132D01*
X0139491Y0100247D01*
X0139632Y0100366D01*
X0139771Y0100488D01*
X0139906Y0100613D01*
X0140038Y0100742D01*
X0140168Y0100874D01*
X0140294Y0101008D01*
X0140416Y0101146D01*
X0140535Y0101287D01*
X0140651Y0101431D01*
X0140764Y0101577D01*
X0140872Y0101726D01*
X0140977Y0101878D01*
X0141079Y0102032D01*
X0141176Y0102189D01*
X0141270Y0102348D01*
X0141360Y0102509D01*
X0141985Y0110366D02*
X0141204Y0109920D01*
X0141111Y0110077D01*
X0141014Y0110231D01*
X0140913Y0110383D01*
X0140808Y0110532D01*
X0140700Y0110679D01*
X0140589Y0110824D01*
X0140474Y0110965D01*
X0140355Y0111104D01*
X0140233Y0111239D01*
X0140108Y0111372D01*
X0139980Y0111502D01*
X0139849Y0111628D01*
X0139715Y0111752D01*
X0139578Y0111872D01*
X0139438Y0111989D01*
X0139295Y0112102D01*
X0139149Y0112212D01*
X0139001Y0112318D01*
X0138850Y0112421D01*
X0138697Y0112520D01*
X0138542Y0112615D01*
X0138384Y0112706D01*
X0138224Y0112794D01*
X0138062Y0112878D01*
X0137899Y0112958D01*
X0137733Y0113034D01*
X0137565Y0113105D01*
X0137396Y0113173D01*
X0137225Y0113237D01*
X0137053Y0113296D01*
X0136879Y0113352D01*
X0136704Y0113403D01*
X0136528Y0113450D01*
X0136351Y0113492D01*
X0136172Y0113531D01*
X0135993Y0113565D01*
X0135813Y0113595D01*
X0135633Y0113620D01*
X0135452Y0113641D01*
X0135270Y0113657D01*
X0135088Y0113670D01*
X0134906Y0113677D01*
X0134724Y0113681D01*
X0134723Y0114580D01*
X0134724Y0114581D01*
X0134928Y0114577D01*
X0135132Y0114569D01*
X0135336Y0114555D01*
X0135540Y0114537D01*
X0135743Y0114513D01*
X0135945Y0114485D01*
X0136147Y0114452D01*
X0136347Y0114414D01*
X0136547Y0114371D01*
X0136746Y0114323D01*
X0136943Y0114271D01*
X0137139Y0114213D01*
X0137334Y0114151D01*
X0137527Y0114085D01*
X0137719Y0114013D01*
X0137908Y0113937D01*
X0138096Y0113857D01*
X0138282Y0113772D01*
X0138466Y0113682D01*
X0138647Y0113589D01*
X0138826Y0113490D01*
X0139003Y0113388D01*
X0139177Y0113281D01*
X0139349Y0113170D01*
X0139518Y0113055D01*
X0139684Y0112936D01*
X0139847Y0112813D01*
X0140007Y0112686D01*
X0140164Y0112555D01*
X0140318Y0112420D01*
X0140468Y0112282D01*
X0140615Y0112140D01*
X0140759Y0111995D01*
X0140899Y0111846D01*
X0141035Y0111694D01*
X0141168Y0111538D01*
X0141296Y0111380D01*
X0141421Y0111218D01*
X0141542Y0111053D01*
X0141659Y0110886D01*
X0141772Y0110715D01*
X0141881Y0110542D01*
X0141986Y0110367D01*
X0141904Y0110320D01*
X0141801Y0110494D01*
X0141693Y0110665D01*
X0141581Y0110833D01*
X0141466Y0110999D01*
X0141346Y0111162D01*
X0141222Y0111321D01*
X0141095Y0111478D01*
X0140964Y0111632D01*
X0140829Y0111782D01*
X0140691Y0111930D01*
X0140549Y0112073D01*
X0140403Y0112214D01*
X0140255Y0112350D01*
X0140103Y0112483D01*
X0139947Y0112613D01*
X0139789Y0112738D01*
X0139628Y0112860D01*
X0139464Y0112978D01*
X0139297Y0113092D01*
X0139127Y0113201D01*
X0138955Y0113307D01*
X0138780Y0113408D01*
X0138603Y0113506D01*
X0138424Y0113598D01*
X0138242Y0113687D01*
X0138058Y0113771D01*
X0137873Y0113851D01*
X0137685Y0113926D01*
X0137496Y0113996D01*
X0137305Y0114062D01*
X0137112Y0114123D01*
X0136918Y0114180D01*
X0136723Y0114232D01*
X0136527Y0114279D01*
X0136329Y0114321D01*
X0136131Y0114359D01*
X0135931Y0114392D01*
X0135731Y0114420D01*
X0135530Y0114443D01*
X0135329Y0114461D01*
X0135128Y0114475D01*
X0134926Y0114483D01*
X0134724Y0114487D01*
X0134724Y0114393D01*
X0134923Y0114389D01*
X0135123Y0114381D01*
X0135322Y0114368D01*
X0135521Y0114349D01*
X0135720Y0114327D01*
X0135917Y0114299D01*
X0136115Y0114266D01*
X0136311Y0114229D01*
X0136506Y0114187D01*
X0136700Y0114141D01*
X0136893Y0114089D01*
X0137085Y0114033D01*
X0137275Y0113973D01*
X0137464Y0113908D01*
X0137651Y0113838D01*
X0137837Y0113764D01*
X0138020Y0113685D01*
X0138202Y0113602D01*
X0138382Y0113514D01*
X0138559Y0113423D01*
X0138734Y0113327D01*
X0138907Y0113226D01*
X0139077Y0113122D01*
X0139245Y0113013D01*
X0139410Y0112901D01*
X0139572Y0112785D01*
X0139731Y0112664D01*
X0139888Y0112540D01*
X0140041Y0112412D01*
X0140192Y0112281D01*
X0140339Y0112145D01*
X0140482Y0112007D01*
X0140623Y0111865D01*
X0140760Y0111719D01*
X0140893Y0111570D01*
X0141023Y0111418D01*
X0141149Y0111263D01*
X0141271Y0111105D01*
X0141389Y0110944D01*
X0141503Y0110781D01*
X0141614Y0110614D01*
X0141720Y0110445D01*
X0141822Y0110274D01*
X0141741Y0110227D01*
X0141640Y0110397D01*
X0141535Y0110564D01*
X0141425Y0110728D01*
X0141312Y0110890D01*
X0141195Y0111049D01*
X0141075Y0111205D01*
X0140950Y0111359D01*
X0140822Y0111509D01*
X0140690Y0111656D01*
X0140555Y0111800D01*
X0140416Y0111940D01*
X0140274Y0112077D01*
X0140129Y0112211D01*
X0139980Y0112341D01*
X0139828Y0112467D01*
X0139674Y0112590D01*
X0139516Y0112709D01*
X0139356Y0112824D01*
X0139193Y0112935D01*
X0139027Y0113042D01*
X0138859Y0113146D01*
X0138688Y0113245D01*
X0138515Y0113340D01*
X0138339Y0113430D01*
X0138162Y0113517D01*
X0137982Y0113599D01*
X0137801Y0113677D01*
X0137618Y0113750D01*
X0137433Y0113819D01*
X0137246Y0113883D01*
X0137058Y0113943D01*
X0136868Y0113999D01*
X0136678Y0114049D01*
X0136486Y0114096D01*
X0136293Y0114137D01*
X0136099Y0114174D01*
X0135904Y0114206D01*
X0135708Y0114233D01*
X0135512Y0114256D01*
X0135315Y0114274D01*
X0135118Y0114287D01*
X0134921Y0114295D01*
X0134724Y0114299D01*
X0134724Y0114205D01*
X0134919Y0114201D01*
X0135114Y0114193D01*
X0135309Y0114180D01*
X0135503Y0114162D01*
X0135697Y0114140D01*
X0135890Y0114113D01*
X0136083Y0114081D01*
X0136274Y0114045D01*
X0136465Y0114004D01*
X0136655Y0113958D01*
X0136843Y0113908D01*
X0137031Y0113853D01*
X0137217Y0113794D01*
X0137401Y0113731D01*
X0137584Y0113662D01*
X0137765Y0113590D01*
X0137944Y0113513D01*
X0138122Y0113432D01*
X0138297Y0113346D01*
X0138471Y0113257D01*
X0138642Y0113163D01*
X0138810Y0113065D01*
X0138977Y0112963D01*
X0139141Y0112857D01*
X0139302Y0112747D01*
X0139460Y0112633D01*
X0139616Y0112516D01*
X0139769Y0112394D01*
X0139919Y0112269D01*
X0140066Y0112141D01*
X0140209Y0112009D01*
X0140350Y0111873D01*
X0140487Y0111734D01*
X0140621Y0111592D01*
X0140751Y0111447D01*
X0140878Y0111299D01*
X0141001Y0111147D01*
X0141120Y0110993D01*
X0141236Y0110836D01*
X0141347Y0110676D01*
X0141455Y0110513D01*
X0141559Y0110348D01*
X0141659Y0110180D01*
X0141578Y0110134D01*
X0141479Y0110299D01*
X0141376Y0110463D01*
X0141269Y0110623D01*
X0141159Y0110781D01*
X0141045Y0110937D01*
X0140927Y0111089D01*
X0140805Y0111239D01*
X0140680Y0111385D01*
X0140551Y0111529D01*
X0140419Y0111669D01*
X0140284Y0111807D01*
X0140145Y0111941D01*
X0140003Y0112071D01*
X0139858Y0112198D01*
X0139710Y0112322D01*
X0139559Y0112441D01*
X0139405Y0112558D01*
X0139248Y0112670D01*
X0139089Y0112779D01*
X0138927Y0112883D01*
X0138762Y0112984D01*
X0138596Y0113081D01*
X0138426Y0113174D01*
X0138255Y0113262D01*
X0138082Y0113347D01*
X0137906Y0113427D01*
X0137729Y0113503D01*
X0137550Y0113575D01*
X0137369Y0113642D01*
X0137187Y0113705D01*
X0137003Y0113763D01*
X0136818Y0113817D01*
X0136632Y0113867D01*
X0136444Y0113912D01*
X0136256Y0113953D01*
X0136067Y0113989D01*
X0135876Y0114020D01*
X0135685Y0114047D01*
X0135494Y0114069D01*
X0135302Y0114086D01*
X0135109Y0114099D01*
X0134917Y0114107D01*
X0134724Y0114111D01*
X0134724Y0114017D01*
X0134914Y0114013D01*
X0135105Y0114005D01*
X0135295Y0113993D01*
X0135485Y0113975D01*
X0135674Y0113953D01*
X0135862Y0113927D01*
X0136050Y0113896D01*
X0136238Y0113860D01*
X0136424Y0113820D01*
X0136609Y0113776D01*
X0136793Y0113727D01*
X0136976Y0113673D01*
X0137158Y0113616D01*
X0137338Y0113553D01*
X0137516Y0113487D01*
X0137693Y0113416D01*
X0137868Y0113341D01*
X0138042Y0113262D01*
X0138213Y0113178D01*
X0138382Y0113091D01*
X0138549Y0112999D01*
X0138714Y0112903D01*
X0138877Y0112804D01*
X0139037Y0112700D01*
X0139194Y0112593D01*
X0139349Y0112482D01*
X0139501Y0112367D01*
X0139650Y0112249D01*
X0139796Y0112127D01*
X0139940Y0112001D01*
X0140080Y0111872D01*
X0140217Y0111740D01*
X0140351Y0111604D01*
X0140482Y0111466D01*
X0140609Y0111324D01*
X0140733Y0111179D01*
X0140853Y0111031D01*
X0140969Y0110880D01*
X0141082Y0110727D01*
X0141191Y0110571D01*
X0141297Y0110412D01*
X0141398Y0110251D01*
X0141496Y0110087D01*
X0141414Y0110040D01*
X0141318Y0110202D01*
X0141218Y0110361D01*
X0141114Y0110518D01*
X0141006Y0110673D01*
X0140894Y0110824D01*
X0140779Y0110973D01*
X0140660Y0111119D01*
X0140538Y0111262D01*
X0140412Y0111402D01*
X0140283Y0111539D01*
X0140151Y0111673D01*
X0140015Y0111804D01*
X0139877Y0111931D01*
X0139735Y0112055D01*
X0139591Y0112176D01*
X0139443Y0112293D01*
X0139293Y0112406D01*
X0139140Y0112516D01*
X0138984Y0112622D01*
X0138826Y0112724D01*
X0138666Y0112823D01*
X0138503Y0112917D01*
X0138338Y0113008D01*
X0138171Y0113094D01*
X0138002Y0113177D01*
X0137831Y0113255D01*
X0137658Y0113329D01*
X0137483Y0113399D01*
X0137306Y0113465D01*
X0137128Y0113526D01*
X0136949Y0113583D01*
X0136768Y0113636D01*
X0136586Y0113685D01*
X0136403Y0113729D01*
X0136219Y0113768D01*
X0136034Y0113803D01*
X0135849Y0113834D01*
X0135662Y0113860D01*
X0135475Y0113882D01*
X0135288Y0113899D01*
X0135100Y0113911D01*
X0134912Y0113919D01*
X0134724Y0113923D01*
X0134724Y0113829D01*
X0134910Y0113825D01*
X0135095Y0113817D01*
X0135281Y0113805D01*
X0135466Y0113788D01*
X0135651Y0113767D01*
X0135835Y0113741D01*
X0136018Y0113711D01*
X0136201Y0113676D01*
X0136383Y0113637D01*
X0136564Y0113593D01*
X0136743Y0113546D01*
X0136922Y0113493D01*
X0137099Y0113437D01*
X0137275Y0113376D01*
X0137449Y0113311D01*
X0137622Y0113242D01*
X0137793Y0113169D01*
X0137962Y0113092D01*
X0138129Y0113010D01*
X0138294Y0112925D01*
X0138457Y0112835D01*
X0138618Y0112742D01*
X0138776Y0112645D01*
X0138932Y0112544D01*
X0139086Y0112439D01*
X0139237Y0112331D01*
X0139386Y0112219D01*
X0139531Y0112103D01*
X0139674Y0111984D01*
X0139814Y0111862D01*
X0139951Y0111736D01*
X0140085Y0111607D01*
X0140215Y0111474D01*
X0140343Y0111339D01*
X0140467Y0111201D01*
X0140588Y0111059D01*
X0140705Y0110915D01*
X0140819Y0110768D01*
X0140929Y0110618D01*
X0141036Y0110466D01*
X0141138Y0110311D01*
X0141237Y0110153D01*
X0141333Y0109994D01*
X0141251Y0109947D01*
X0141157Y0110105D01*
X0141059Y0110260D01*
X0140958Y0110413D01*
X0140852Y0110564D01*
X0140743Y0110712D01*
X0140631Y0110857D01*
X0140515Y0110999D01*
X0140396Y0111139D01*
X0140273Y0111276D01*
X0140147Y0111409D01*
X0140018Y0111540D01*
X0139886Y0111668D01*
X0139751Y0111792D01*
X0139613Y0111913D01*
X0139472Y0112030D01*
X0139328Y0112144D01*
X0139181Y0112255D01*
X0139032Y0112362D01*
X0138880Y0112466D01*
X0138726Y0112565D01*
X0138570Y0112661D01*
X0138411Y0112753D01*
X0138250Y0112842D01*
X0138087Y0112926D01*
X0137922Y0113007D01*
X0137755Y0113083D01*
X0137586Y0113155D01*
X0137415Y0113224D01*
X0137243Y0113288D01*
X0137070Y0113348D01*
X0136895Y0113404D01*
X0136718Y0113455D01*
X0136541Y0113502D01*
X0136362Y0113545D01*
X0136183Y0113584D01*
X0136002Y0113618D01*
X0135821Y0113648D01*
X0135639Y0113673D01*
X0135457Y0113695D01*
X0135274Y0113711D01*
X0135091Y0113724D01*
X0134907Y0113731D01*
X0134724Y0113735D01*
X0134625Y0114580D02*
X0134625Y0113680D01*
X0134624Y0113681D02*
X0134440Y0113677D01*
X0134255Y0113669D01*
X0134071Y0113657D01*
X0133888Y0113640D01*
X0133704Y0113618D01*
X0133522Y0113593D01*
X0133340Y0113562D01*
X0133159Y0113527D01*
X0132978Y0113488D01*
X0132799Y0113444D01*
X0132621Y0113396D01*
X0132444Y0113344D01*
X0132268Y0113287D01*
X0132094Y0113227D01*
X0131922Y0113161D01*
X0131751Y0113092D01*
X0131581Y0113019D01*
X0131414Y0112941D01*
X0131249Y0112859D01*
X0131085Y0112774D01*
X0130924Y0112684D01*
X0130765Y0112590D01*
X0130608Y0112493D01*
X0130454Y0112392D01*
X0130302Y0112287D01*
X0130153Y0112178D01*
X0130007Y0112066D01*
X0129863Y0111950D01*
X0129723Y0111831D01*
X0129585Y0111708D01*
X0129450Y0111582D01*
X0129318Y0111453D01*
X0129190Y0111320D01*
X0129065Y0111185D01*
X0128943Y0111046D01*
X0128256Y0111627D01*
X0128392Y0111783D01*
X0128533Y0111935D01*
X0128677Y0112084D01*
X0128824Y0112229D01*
X0128975Y0112370D01*
X0129129Y0112507D01*
X0129287Y0112641D01*
X0129448Y0112771D01*
X0129612Y0112897D01*
X0129779Y0113019D01*
X0129949Y0113137D01*
X0130122Y0113250D01*
X0130298Y0113359D01*
X0130476Y0113464D01*
X0130657Y0113565D01*
X0130840Y0113661D01*
X0131025Y0113753D01*
X0131213Y0113840D01*
X0131403Y0113922D01*
X0131594Y0114000D01*
X0131788Y0114073D01*
X0131983Y0114141D01*
X0132180Y0114205D01*
X0132378Y0114263D01*
X0132578Y0114317D01*
X0132779Y0114366D01*
X0132981Y0114410D01*
X0133184Y0114449D01*
X0133388Y0114483D01*
X0133593Y0114512D01*
X0133798Y0114536D01*
X0134004Y0114554D01*
X0134211Y0114568D01*
X0134417Y0114577D01*
X0134624Y0114581D01*
X0134624Y0114487D01*
X0134420Y0114483D01*
X0134215Y0114474D01*
X0134011Y0114461D01*
X0133808Y0114442D01*
X0133605Y0114418D01*
X0133402Y0114390D01*
X0133200Y0114356D01*
X0133000Y0114318D01*
X0132800Y0114274D01*
X0132601Y0114226D01*
X0132404Y0114173D01*
X0132207Y0114115D01*
X0132013Y0114052D01*
X0131820Y0113984D01*
X0131628Y0113912D01*
X0131439Y0113835D01*
X0131251Y0113754D01*
X0131066Y0113668D01*
X0130883Y0113577D01*
X0130701Y0113482D01*
X0130523Y0113383D01*
X0130347Y0113279D01*
X0130173Y0113171D01*
X0130002Y0113059D01*
X0129834Y0112942D01*
X0129669Y0112822D01*
X0129506Y0112697D01*
X0129347Y0112569D01*
X0129191Y0112437D01*
X0129039Y0112301D01*
X0128889Y0112161D01*
X0128744Y0112018D01*
X0128601Y0111871D01*
X0128463Y0111720D01*
X0128328Y0111567D01*
X0128399Y0111506D01*
X0128533Y0111658D01*
X0128670Y0111807D01*
X0128811Y0111952D01*
X0128955Y0112093D01*
X0129102Y0112232D01*
X0129253Y0112366D01*
X0129407Y0112497D01*
X0129565Y0112624D01*
X0129725Y0112747D01*
X0129889Y0112866D01*
X0130055Y0112981D01*
X0130224Y0113092D01*
X0130395Y0113199D01*
X0130570Y0113301D01*
X0130746Y0113400D01*
X0130925Y0113494D01*
X0131107Y0113583D01*
X0131290Y0113668D01*
X0131475Y0113749D01*
X0131663Y0113825D01*
X0131852Y0113896D01*
X0132043Y0113963D01*
X0132235Y0114025D01*
X0132429Y0114082D01*
X0132624Y0114135D01*
X0132821Y0114182D01*
X0133018Y0114225D01*
X0133217Y0114263D01*
X0133416Y0114297D01*
X0133616Y0114325D01*
X0133817Y0114348D01*
X0134018Y0114367D01*
X0134220Y0114381D01*
X0134422Y0114389D01*
X0134624Y0114393D01*
X0134624Y0114299D01*
X0134424Y0114295D01*
X0134225Y0114287D01*
X0134025Y0114273D01*
X0133826Y0114255D01*
X0133628Y0114232D01*
X0133430Y0114204D01*
X0133233Y0114171D01*
X0133037Y0114133D01*
X0132841Y0114091D01*
X0132647Y0114044D01*
X0132454Y0113992D01*
X0132263Y0113935D01*
X0132072Y0113874D01*
X0131884Y0113808D01*
X0131697Y0113737D01*
X0131512Y0113662D01*
X0131328Y0113582D01*
X0131147Y0113498D01*
X0130968Y0113410D01*
X0130791Y0113317D01*
X0130616Y0113220D01*
X0130444Y0113118D01*
X0130275Y0113013D01*
X0130107Y0112903D01*
X0129943Y0112789D01*
X0129782Y0112672D01*
X0129623Y0112550D01*
X0129468Y0112425D01*
X0129315Y0112295D01*
X0129166Y0112162D01*
X0129020Y0112026D01*
X0128878Y0111886D01*
X0128739Y0111742D01*
X0128603Y0111595D01*
X0128471Y0111445D01*
X0128543Y0111385D01*
X0128673Y0111533D01*
X0128807Y0111678D01*
X0128945Y0111820D01*
X0129086Y0111958D01*
X0129230Y0112093D01*
X0129377Y0112225D01*
X0129528Y0112352D01*
X0129682Y0112476D01*
X0129838Y0112597D01*
X0129998Y0112713D01*
X0130160Y0112825D01*
X0130325Y0112934D01*
X0130493Y0113038D01*
X0130663Y0113138D01*
X0130836Y0113234D01*
X0131011Y0113326D01*
X0131188Y0113414D01*
X0131367Y0113497D01*
X0131548Y0113575D01*
X0131731Y0113650D01*
X0131916Y0113719D01*
X0132102Y0113784D01*
X0132290Y0113845D01*
X0132480Y0113901D01*
X0132670Y0113952D01*
X0132862Y0113999D01*
X0133055Y0114041D01*
X0133249Y0114078D01*
X0133444Y0114111D01*
X0133640Y0114138D01*
X0133836Y0114161D01*
X0134032Y0114179D01*
X0134229Y0114193D01*
X0134427Y0114201D01*
X0134624Y0114205D01*
X0134624Y0114111D01*
X0134429Y0114107D01*
X0134234Y0114099D01*
X0134039Y0114086D01*
X0133845Y0114068D01*
X0133651Y0114045D01*
X0133458Y0114018D01*
X0133265Y0113986D01*
X0133074Y0113949D01*
X0132883Y0113907D01*
X0132693Y0113861D01*
X0132505Y0113811D01*
X0132318Y0113755D01*
X0132132Y0113695D01*
X0131948Y0113631D01*
X0131765Y0113562D01*
X0131584Y0113489D01*
X0131405Y0113411D01*
X0131228Y0113329D01*
X0131053Y0113242D01*
X0130881Y0113152D01*
X0130710Y0113057D01*
X0130542Y0112958D01*
X0130376Y0112855D01*
X0130213Y0112748D01*
X0130052Y0112637D01*
X0129895Y0112522D01*
X0129740Y0112403D01*
X0129588Y0112280D01*
X0129439Y0112154D01*
X0129293Y0112024D01*
X0129151Y0111891D01*
X0129012Y0111754D01*
X0128876Y0111614D01*
X0128744Y0111470D01*
X0128615Y0111324D01*
X0128687Y0111263D01*
X0128814Y0111408D01*
X0128945Y0111550D01*
X0129079Y0111688D01*
X0129216Y0111823D01*
X0129357Y0111955D01*
X0129501Y0112083D01*
X0129648Y0112208D01*
X0129798Y0112329D01*
X0129951Y0112446D01*
X0130107Y0112560D01*
X0130266Y0112670D01*
X0130427Y0112776D01*
X0130591Y0112877D01*
X0130757Y0112975D01*
X0130925Y0113069D01*
X0131096Y0113159D01*
X0131269Y0113244D01*
X0131444Y0113325D01*
X0131621Y0113402D01*
X0131799Y0113474D01*
X0131980Y0113543D01*
X0132162Y0113606D01*
X0132345Y0113665D01*
X0132530Y0113720D01*
X0132716Y0113770D01*
X0132904Y0113816D01*
X0133092Y0113857D01*
X0133282Y0113893D01*
X0133472Y0113925D01*
X0133663Y0113952D01*
X0133854Y0113974D01*
X0134046Y0113992D01*
X0134239Y0114005D01*
X0134431Y0114013D01*
X0134624Y0114017D01*
X0134624Y0113923D01*
X0134434Y0113919D01*
X0134243Y0113911D01*
X0134053Y0113898D01*
X0133864Y0113881D01*
X0133674Y0113859D01*
X0133486Y0113832D01*
X0133298Y0113801D01*
X0133111Y0113765D01*
X0132925Y0113724D01*
X0132740Y0113679D01*
X0132556Y0113630D01*
X0132373Y0113575D01*
X0132192Y0113517D01*
X0132012Y0113454D01*
X0131834Y0113387D01*
X0131657Y0113315D01*
X0131482Y0113239D01*
X0131310Y0113159D01*
X0131139Y0113075D01*
X0130970Y0112986D01*
X0130804Y0112894D01*
X0130639Y0112797D01*
X0130478Y0112697D01*
X0130318Y0112592D01*
X0130162Y0112484D01*
X0130008Y0112371D01*
X0129857Y0112255D01*
X0129708Y0112136D01*
X0129563Y0112013D01*
X0129421Y0111886D01*
X0129282Y0111756D01*
X0129146Y0111622D01*
X0129013Y0111486D01*
X0128884Y0111346D01*
X0128758Y0111202D01*
X0128830Y0111142D01*
X0128954Y0111283D01*
X0129082Y0111421D01*
X0129213Y0111556D01*
X0129347Y0111688D01*
X0129484Y0111817D01*
X0129625Y0111942D01*
X0129769Y0112064D01*
X0129915Y0112182D01*
X0130064Y0112296D01*
X0130216Y0112407D01*
X0130371Y0112514D01*
X0130528Y0112617D01*
X0130688Y0112717D01*
X0130850Y0112812D01*
X0131015Y0112904D01*
X0131181Y0112991D01*
X0131350Y0113074D01*
X0131521Y0113154D01*
X0131693Y0113229D01*
X0131868Y0113299D01*
X0132044Y0113366D01*
X0132221Y0113428D01*
X0132401Y0113486D01*
X0132581Y0113539D01*
X0132763Y0113588D01*
X0132945Y0113632D01*
X0133129Y0113672D01*
X0133314Y0113708D01*
X0133500Y0113739D01*
X0133686Y0113765D01*
X0133873Y0113787D01*
X0134060Y0113804D01*
X0134248Y0113817D01*
X0134436Y0113825D01*
X0134624Y0113829D01*
X0134624Y0113735D01*
X0134438Y0113731D01*
X0134253Y0113723D01*
X0134067Y0113711D01*
X0133882Y0113694D01*
X0133698Y0113672D01*
X0133514Y0113646D01*
X0133330Y0113615D01*
X0133148Y0113580D01*
X0132966Y0113541D01*
X0132786Y0113497D01*
X0132606Y0113448D01*
X0132428Y0113396D01*
X0132251Y0113339D01*
X0132076Y0113277D01*
X0131902Y0113212D01*
X0131730Y0113142D01*
X0131559Y0113068D01*
X0131391Y0112990D01*
X0131224Y0112907D01*
X0131060Y0112821D01*
X0130897Y0112731D01*
X0130737Y0112636D01*
X0130579Y0112538D01*
X0130424Y0112436D01*
X0130271Y0112331D01*
X0130121Y0112221D01*
X0129973Y0112108D01*
X0129829Y0111991D01*
X0129687Y0111871D01*
X0129548Y0111748D01*
X0129412Y0111621D01*
X0129280Y0111491D01*
X0129151Y0111357D01*
X0129024Y0111221D01*
X0128902Y0111081D01*
X0128215Y0100683D02*
X0128907Y0101260D01*
X0128906Y0101259D02*
X0129025Y0101122D01*
X0129146Y0100988D01*
X0129271Y0100857D01*
X0129399Y0100729D01*
X0129530Y0100605D01*
X0129664Y0100483D01*
X0129801Y0100364D01*
X0129940Y0100249D01*
X0130083Y0100138D01*
X0130228Y0100029D01*
X0130375Y0099924D01*
X0130525Y0099823D01*
X0130677Y0099726D01*
X0130832Y0099632D01*
X0130989Y0099541D01*
X0131148Y0099455D01*
X0131309Y0099372D01*
X0131472Y0099294D01*
X0131637Y0099219D01*
X0131803Y0099148D01*
X0131971Y0099081D01*
X0132141Y0099019D01*
X0132312Y0098960D01*
X0132485Y0098905D01*
X0132658Y0098855D01*
X0132833Y0098809D01*
X0133009Y0098767D01*
X0133186Y0098729D01*
X0133364Y0098696D01*
X0133543Y0098666D01*
X0133722Y0098641D01*
X0133902Y0098621D01*
X0134082Y0098604D01*
X0134262Y0098592D01*
X0134443Y0098585D01*
X0134624Y0098581D01*
X0134625Y0097682D01*
X0134624Y0097681D01*
X0134421Y0097685D01*
X0134219Y0097693D01*
X0134016Y0097707D01*
X0133814Y0097725D01*
X0133613Y0097748D01*
X0133412Y0097776D01*
X0133212Y0097809D01*
X0133012Y0097846D01*
X0132814Y0097888D01*
X0132616Y0097935D01*
X0132420Y0097987D01*
X0132226Y0098044D01*
X0132032Y0098105D01*
X0131840Y0098170D01*
X0131650Y0098241D01*
X0131461Y0098316D01*
X0131275Y0098395D01*
X0131090Y0098479D01*
X0130907Y0098567D01*
X0130727Y0098660D01*
X0130549Y0098756D01*
X0130373Y0098858D01*
X0130200Y0098963D01*
X0130029Y0099072D01*
X0129861Y0099186D01*
X0129695Y0099303D01*
X0129533Y0099425D01*
X0129373Y0099550D01*
X0129217Y0099679D01*
X0129064Y0099812D01*
X0128914Y0099949D01*
X0128767Y0100089D01*
X0128624Y0100232D01*
X0128484Y0100379D01*
X0128347Y0100529D01*
X0128215Y0100683D01*
X0128287Y0100743D01*
X0128418Y0100591D01*
X0128553Y0100443D01*
X0128691Y0100298D01*
X0128833Y0100156D01*
X0128978Y0100017D01*
X0129126Y0099882D01*
X0129278Y0099751D01*
X0129433Y0099623D01*
X0129590Y0099499D01*
X0129751Y0099379D01*
X0129914Y0099263D01*
X0130081Y0099151D01*
X0130249Y0099043D01*
X0130421Y0098938D01*
X0130595Y0098838D01*
X0130771Y0098743D01*
X0130949Y0098651D01*
X0131130Y0098564D01*
X0131313Y0098481D01*
X0131497Y0098402D01*
X0131683Y0098328D01*
X0131872Y0098259D01*
X0132061Y0098194D01*
X0132253Y0098134D01*
X0132445Y0098078D01*
X0132639Y0098027D01*
X0132834Y0097980D01*
X0133030Y0097938D01*
X0133227Y0097901D01*
X0133425Y0097869D01*
X0133624Y0097841D01*
X0133823Y0097818D01*
X0134023Y0097800D01*
X0134223Y0097787D01*
X0134424Y0097779D01*
X0134624Y0097775D01*
X0134624Y0097869D01*
X0134426Y0097873D01*
X0134228Y0097881D01*
X0134030Y0097894D01*
X0133832Y0097912D01*
X0133635Y0097935D01*
X0133439Y0097962D01*
X0133243Y0097994D01*
X0133049Y0098030D01*
X0132855Y0098072D01*
X0132662Y0098118D01*
X0132470Y0098168D01*
X0132280Y0098224D01*
X0132091Y0098283D01*
X0131903Y0098348D01*
X0131717Y0098416D01*
X0131533Y0098489D01*
X0131350Y0098567D01*
X0131170Y0098649D01*
X0130991Y0098735D01*
X0130815Y0098826D01*
X0130641Y0098920D01*
X0130469Y0099019D01*
X0130299Y0099122D01*
X0130132Y0099229D01*
X0129968Y0099340D01*
X0129807Y0099455D01*
X0129648Y0099574D01*
X0129492Y0099696D01*
X0129339Y0099822D01*
X0129189Y0099952D01*
X0129042Y0100086D01*
X0128899Y0100223D01*
X0128759Y0100363D01*
X0128622Y0100506D01*
X0128489Y0100653D01*
X0128359Y0100803D01*
X0128431Y0100863D01*
X0128560Y0100715D01*
X0128691Y0100570D01*
X0128826Y0100428D01*
X0128965Y0100290D01*
X0129107Y0100154D01*
X0129252Y0100022D01*
X0129400Y0099894D01*
X0129551Y0099769D01*
X0129705Y0099648D01*
X0129862Y0099531D01*
X0130022Y0099417D01*
X0130184Y0099308D01*
X0130349Y0099202D01*
X0130517Y0099100D01*
X0130687Y0099002D01*
X0130859Y0098909D01*
X0131033Y0098819D01*
X0131210Y0098734D01*
X0131388Y0098653D01*
X0131568Y0098576D01*
X0131751Y0098504D01*
X0131934Y0098436D01*
X0132120Y0098373D01*
X0132307Y0098314D01*
X0132495Y0098259D01*
X0132684Y0098209D01*
X0132875Y0098164D01*
X0133067Y0098123D01*
X0133259Y0098086D01*
X0133453Y0098055D01*
X0133647Y0098028D01*
X0133842Y0098006D01*
X0134037Y0097988D01*
X0134232Y0097975D01*
X0134428Y0097967D01*
X0134624Y0097963D01*
X0134624Y0098057D01*
X0134430Y0098061D01*
X0134237Y0098069D01*
X0134044Y0098082D01*
X0133851Y0098099D01*
X0133658Y0098121D01*
X0133466Y0098148D01*
X0133275Y0098179D01*
X0133085Y0098215D01*
X0132895Y0098255D01*
X0132707Y0098300D01*
X0132520Y0098350D01*
X0132334Y0098404D01*
X0132149Y0098462D01*
X0131966Y0098525D01*
X0131784Y0098592D01*
X0131604Y0098663D01*
X0131426Y0098739D01*
X0131249Y0098819D01*
X0131075Y0098903D01*
X0130903Y0098992D01*
X0130733Y0099084D01*
X0130565Y0099181D01*
X0130399Y0099282D01*
X0130236Y0099386D01*
X0130076Y0099494D01*
X0129918Y0099607D01*
X0129763Y0099723D01*
X0129610Y0099842D01*
X0129461Y0099966D01*
X0129314Y0100092D01*
X0129171Y0100223D01*
X0129031Y0100356D01*
X0128894Y0100493D01*
X0128761Y0100634D01*
X0128630Y0100777D01*
X0128504Y0100924D01*
X0128576Y0100984D01*
X0128701Y0100839D01*
X0128830Y0100697D01*
X0128962Y0100559D01*
X0129097Y0100423D01*
X0129236Y0100291D01*
X0129377Y0100162D01*
X0129522Y0100037D01*
X0129669Y0099915D01*
X0129820Y0099797D01*
X0129973Y0099682D01*
X0130129Y0099572D01*
X0130288Y0099464D01*
X0130449Y0099361D01*
X0130613Y0099262D01*
X0130779Y0099166D01*
X0130947Y0099075D01*
X0131117Y0098988D01*
X0131289Y0098904D01*
X0131464Y0098825D01*
X0131640Y0098750D01*
X0131818Y0098680D01*
X0131997Y0098613D01*
X0132178Y0098551D01*
X0132361Y0098494D01*
X0132545Y0098440D01*
X0132730Y0098391D01*
X0132916Y0098347D01*
X0133103Y0098307D01*
X0133291Y0098272D01*
X0133480Y0098241D01*
X0133670Y0098214D01*
X0133860Y0098193D01*
X0134050Y0098175D01*
X0134241Y0098163D01*
X0134433Y0098155D01*
X0134624Y0098151D01*
X0134624Y0098245D01*
X0134435Y0098249D01*
X0134246Y0098257D01*
X0134057Y0098269D01*
X0133869Y0098286D01*
X0133681Y0098308D01*
X0133494Y0098334D01*
X0133307Y0098364D01*
X0133121Y0098399D01*
X0132936Y0098439D01*
X0132752Y0098483D01*
X0132570Y0098531D01*
X0132388Y0098584D01*
X0132208Y0098641D01*
X0132029Y0098702D01*
X0131851Y0098768D01*
X0131675Y0098837D01*
X0131501Y0098911D01*
X0131329Y0098989D01*
X0131159Y0099072D01*
X0130991Y0099158D01*
X0130825Y0099248D01*
X0130661Y0099343D01*
X0130499Y0099441D01*
X0130340Y0099543D01*
X0130183Y0099649D01*
X0130029Y0099758D01*
X0129877Y0099872D01*
X0129729Y0099988D01*
X0129583Y0100109D01*
X0129440Y0100232D01*
X0129300Y0100360D01*
X0129163Y0100490D01*
X0129029Y0100624D01*
X0128899Y0100761D01*
X0128772Y0100901D01*
X0128648Y0101044D01*
X0128720Y0101104D01*
X0128843Y0100963D01*
X0128968Y0100825D01*
X0129097Y0100689D01*
X0129229Y0100557D01*
X0129364Y0100428D01*
X0129503Y0100303D01*
X0129644Y0100180D01*
X0129788Y0100061D01*
X0129935Y0099946D01*
X0130084Y0099834D01*
X0130237Y0099726D01*
X0130392Y0099621D01*
X0130549Y0099521D01*
X0130709Y0099424D01*
X0130870Y0099330D01*
X0131035Y0099241D01*
X0131201Y0099156D01*
X0131369Y0099075D01*
X0131539Y0098997D01*
X0131711Y0098924D01*
X0131885Y0098855D01*
X0132060Y0098791D01*
X0132237Y0098730D01*
X0132415Y0098674D01*
X0132594Y0098622D01*
X0132775Y0098574D01*
X0132957Y0098531D01*
X0133139Y0098492D01*
X0133323Y0098457D01*
X0133507Y0098427D01*
X0133692Y0098401D01*
X0133878Y0098380D01*
X0134064Y0098363D01*
X0134251Y0098351D01*
X0134437Y0098343D01*
X0134624Y0098339D01*
X0134624Y0098433D01*
X0134440Y0098437D01*
X0134255Y0098444D01*
X0134071Y0098457D01*
X0133887Y0098473D01*
X0133704Y0098494D01*
X0133521Y0098520D01*
X0133339Y0098550D01*
X0133158Y0098584D01*
X0132977Y0098622D01*
X0132798Y0098665D01*
X0132619Y0098712D01*
X0132442Y0098764D01*
X0132266Y0098819D01*
X0132091Y0098879D01*
X0131918Y0098943D01*
X0131747Y0099011D01*
X0131577Y0099083D01*
X0131409Y0099160D01*
X0131243Y0099240D01*
X0131079Y0099324D01*
X0130916Y0099412D01*
X0130756Y0099504D01*
X0130599Y0099600D01*
X0130443Y0099700D01*
X0130290Y0099803D01*
X0130140Y0099910D01*
X0129992Y0100020D01*
X0129847Y0100134D01*
X0129705Y0100252D01*
X0129565Y0100373D01*
X0129429Y0100497D01*
X0129295Y0100624D01*
X0129165Y0100755D01*
X0129037Y0100888D01*
X0128913Y0101025D01*
X0128793Y0101164D01*
X0128865Y0101225D01*
X0128984Y0101087D01*
X0129107Y0100952D01*
X0129232Y0100820D01*
X0129361Y0100691D01*
X0129493Y0100565D01*
X0129628Y0100443D01*
X0129766Y0100323D01*
X0129906Y0100207D01*
X0130050Y0100095D01*
X0130196Y0099986D01*
X0130344Y0099880D01*
X0130495Y0099778D01*
X0130649Y0099680D01*
X0130804Y0099585D01*
X0130962Y0099494D01*
X0131123Y0099407D01*
X0131285Y0099324D01*
X0131449Y0099245D01*
X0131615Y0099170D01*
X0131783Y0099098D01*
X0131952Y0099031D01*
X0132123Y0098968D01*
X0132295Y0098909D01*
X0132469Y0098854D01*
X0132644Y0098803D01*
X0132820Y0098756D01*
X0132998Y0098714D01*
X0133176Y0098676D01*
X0133355Y0098642D01*
X0133535Y0098613D01*
X0133715Y0098588D01*
X0133896Y0098567D01*
X0134078Y0098550D01*
X0134260Y0098538D01*
X0134442Y0098531D01*
X0134624Y0098527D01*
D13*
X0141974Y0099331D02*
X0144874Y0099331D01*
X0143474Y0097831D02*
X0143474Y0100931D01*
X0125823Y0099881D02*
X0122820Y0099881D01*
X0125823Y0102883D01*
X0125823Y0103634D01*
X0125072Y0104385D01*
X0123571Y0104385D01*
X0122820Y0103634D01*
X0121219Y0103634D02*
X0120468Y0104385D01*
X0118216Y0104385D01*
X0118216Y0099881D01*
X0120468Y0099881D01*
X0121219Y0100631D01*
X0121219Y0103634D01*
X0116615Y0104385D02*
X0113612Y0104385D01*
X0113612Y0099881D01*
X0116615Y0099881D01*
X0115113Y0102133D02*
X0113612Y0102133D01*
X0112011Y0099881D02*
X0109008Y0099881D01*
X0109008Y0104385D01*
X0106089Y0107881D02*
X0103086Y0107881D01*
X0104587Y0107881D02*
X0104587Y0112385D01*
X0103086Y0110883D01*
X0101485Y0111634D02*
X0101485Y0108631D01*
X0100734Y0107881D01*
X0098482Y0107881D01*
X0098482Y0112385D01*
X0100734Y0112385D01*
X0101485Y0111634D01*
X0096881Y0112385D02*
X0093878Y0112385D01*
X0093878Y0107881D01*
X0096881Y0107881D01*
X0092277Y0107881D02*
X0089274Y0107881D01*
X0089274Y0112385D01*
X0093878Y0110133D02*
X0095380Y0110133D01*
X0074224Y0112931D02*
X0071324Y0112931D01*
X0072724Y0114431D02*
X0072724Y0111331D01*
X0067154Y0091957D02*
X0042745Y0091957D01*
X0042745Y0090383D01*
X0067154Y0090383D02*
X0067154Y0091957D01*
X0095894Y0091957D02*
X0095894Y0090383D01*
X0095894Y0091957D02*
X0120304Y0091957D01*
X0120304Y0090383D01*
X0120304Y0078572D02*
X0120304Y0076997D01*
X0095894Y0076997D01*
X0095894Y0078572D01*
X0067154Y0078572D02*
X0067154Y0076997D01*
X0042745Y0076997D01*
X0042745Y0078572D01*
X0149044Y0078572D02*
X0149044Y0076997D01*
X0173454Y0076997D01*
X0173454Y0078572D01*
X0173454Y0090383D02*
X0173454Y0091957D01*
X0149044Y0091957D01*
X0149044Y0090383D01*
X0232317Y0116215D02*
X0236070Y0116215D01*
X0236821Y0116966D01*
X0236821Y0118467D01*
X0236070Y0119218D01*
X0232317Y0119218D01*
X0233068Y0120819D02*
X0232317Y0121570D01*
X0232317Y0123071D01*
X0233068Y0123822D01*
X0233068Y0125423D02*
X0232317Y0126174D01*
X0232317Y0127675D01*
X0233068Y0128426D01*
X0233818Y0128426D01*
X0236821Y0125423D01*
X0236821Y0128426D01*
X0236070Y0123822D02*
X0235320Y0123822D01*
X0234569Y0123071D01*
X0234569Y0121570D01*
X0233818Y0120819D01*
X0233068Y0120819D01*
X0231566Y0122321D02*
X0237572Y0122321D01*
X0236821Y0123071D02*
X0236070Y0123822D01*
X0236821Y0123071D02*
X0236821Y0121570D01*
X0236070Y0120819D01*
X0229871Y0134477D02*
X0219871Y0134477D01*
X0219871Y0034477D01*
X0229871Y0034477D01*
X0229871Y0134477D01*
D14*
X0151996Y0064479D02*
X0151996Y0062177D01*
X0156600Y0062177D01*
X0155065Y0062177D02*
X0155065Y0064479D01*
X0154298Y0065246D01*
X0152763Y0065246D01*
X0151996Y0064479D01*
X0153531Y0066781D02*
X0151996Y0068316D01*
X0156600Y0068316D01*
X0156600Y0069850D02*
X0156600Y0066781D01*
X0156600Y0065246D02*
X0155065Y0063712D01*
X0171996Y0064479D02*
X0171996Y0062177D01*
X0176600Y0062177D01*
X0175065Y0062177D02*
X0175065Y0064479D01*
X0174298Y0065246D01*
X0172763Y0065246D01*
X0171996Y0064479D01*
X0172763Y0066781D02*
X0171996Y0067548D01*
X0171996Y0069083D01*
X0172763Y0069850D01*
X0173531Y0069850D01*
X0176600Y0066781D01*
X0176600Y0069850D01*
X0176600Y0065246D02*
X0175065Y0063712D01*
X0364677Y0142610D02*
X0364677Y0147214D01*
X0366979Y0147214D01*
X0367746Y0146447D01*
X0367746Y0144912D01*
X0366979Y0144145D01*
X0364677Y0144145D01*
X0366212Y0144145D02*
X0367746Y0142610D01*
X0369281Y0143378D02*
X0370048Y0142610D01*
X0371583Y0142610D01*
X0372350Y0143378D01*
X0372350Y0144145D01*
X0371583Y0144912D01*
X0370816Y0144912D01*
X0371583Y0144912D02*
X0372350Y0145680D01*
X0372350Y0146447D01*
X0371583Y0147214D01*
X0370048Y0147214D01*
X0369281Y0146447D01*
D15*
X0172317Y0075202D02*
X0172317Y0074769D01*
X0171884Y0074335D01*
X0172317Y0073901D01*
X0172317Y0073468D01*
X0171884Y0073034D01*
X0171016Y0073034D01*
X0170583Y0073468D01*
X0171450Y0074335D02*
X0171884Y0074335D01*
X0172317Y0075202D02*
X0171884Y0075636D01*
X0171016Y0075636D01*
X0170583Y0075202D01*
X0169371Y0075636D02*
X0169371Y0073034D01*
X0168503Y0073901D01*
X0167636Y0073034D01*
X0167636Y0075636D01*
X0166424Y0075202D02*
X0165991Y0075636D01*
X0165123Y0075636D01*
X0164690Y0075202D01*
X0164690Y0074769D01*
X0165123Y0074335D01*
X0165991Y0074335D01*
X0166424Y0073901D01*
X0166424Y0073468D01*
X0165991Y0073034D01*
X0165123Y0073034D01*
X0164690Y0073468D01*
X0104047Y0093320D02*
X0102312Y0093320D01*
X0104047Y0095055D01*
X0104047Y0095489D01*
X0103613Y0095923D01*
X0102746Y0095923D01*
X0102312Y0095489D01*
X0101100Y0095923D02*
X0101100Y0093320D01*
X0100233Y0094188D01*
X0099365Y0093320D01*
X0099365Y0095923D01*
X0098154Y0095489D02*
X0097720Y0095923D01*
X0096853Y0095923D01*
X0096419Y0095489D01*
X0096419Y0095055D01*
X0096853Y0094622D01*
X0097720Y0094622D01*
X0098154Y0094188D01*
X0098154Y0093754D01*
X0097720Y0093320D01*
X0096853Y0093320D01*
X0096419Y0093754D01*
X0065151Y0075636D02*
X0065151Y0073034D01*
X0066018Y0073034D02*
X0064283Y0073034D01*
X0063072Y0073034D02*
X0063072Y0075636D01*
X0064283Y0074769D02*
X0065151Y0075636D01*
X0063072Y0073034D02*
X0062204Y0073901D01*
X0061337Y0073034D01*
X0061337Y0075636D01*
X0060125Y0075202D02*
X0059691Y0075636D01*
X0058824Y0075636D01*
X0058390Y0075202D01*
X0058390Y0074769D01*
X0058824Y0074335D01*
X0059691Y0074335D01*
X0060125Y0073901D01*
X0060125Y0073468D01*
X0059691Y0073034D01*
X0058824Y0073034D01*
X0058390Y0073468D01*
M02*
